%TF.GenerationSoftware,KiCad,Pcbnew,(6.0.0)*%
%TF.CreationDate,2022-07-13T19:55:52+02:00*%
%TF.ProjectId,wavefolder-panel,77617665-666f-46c6-9465-722d70616e65,rev?*%
%TF.SameCoordinates,Original*%
%TF.FileFunction,Legend,Bot*%
%TF.FilePolarity,Positive*%
%FSLAX46Y46*%
G04 Gerber Fmt 4.6, Leading zero omitted, Abs format (unit mm)*
G04 Created by KiCad (PCBNEW (6.0.0)) date 2022-07-13 19:55:52*
%MOMM*%
%LPD*%
G01*
G04 APERTURE LIST*
%ADD10C,0.150000*%
G04 APERTURE END LIST*
D10*
X132254047Y-102957380D02*
X132254047Y-103671666D01*
X132301666Y-103814523D01*
X132396904Y-103909761D01*
X132539761Y-103957380D01*
X132635000Y-103957380D01*
X131301666Y-103957380D02*
X131777857Y-103957380D01*
X131777857Y-102957380D01*
X130396904Y-103862142D02*
X130444523Y-103909761D01*
X130587380Y-103957380D01*
X130682619Y-103957380D01*
X130825476Y-103909761D01*
X130920714Y-103814523D01*
X130968333Y-103719285D01*
X131015952Y-103528809D01*
X131015952Y-103385952D01*
X130968333Y-103195476D01*
X130920714Y-103100238D01*
X130825476Y-103005000D01*
X130682619Y-102957380D01*
X130587380Y-102957380D01*
X130444523Y-103005000D01*
X130396904Y-103052619D01*
X129682619Y-102957380D02*
X129682619Y-103671666D01*
X129730238Y-103814523D01*
X129825476Y-103909761D01*
X129968333Y-103957380D01*
X130063571Y-103957380D01*
X128730238Y-103957380D02*
X129206428Y-103957380D01*
X129206428Y-102957380D01*
X127825476Y-103862142D02*
X127873095Y-103909761D01*
X128015952Y-103957380D01*
X128111190Y-103957380D01*
X128254047Y-103909761D01*
X128349285Y-103814523D01*
X128396904Y-103719285D01*
X128444523Y-103528809D01*
X128444523Y-103385952D01*
X128396904Y-103195476D01*
X128349285Y-103100238D01*
X128254047Y-103005000D01*
X128111190Y-102957380D01*
X128015952Y-102957380D01*
X127873095Y-103005000D01*
X127825476Y-103052619D01*
X127111190Y-102957380D02*
X127111190Y-103671666D01*
X127158809Y-103814523D01*
X127254047Y-103909761D01*
X127396904Y-103957380D01*
X127492142Y-103957380D01*
X126158809Y-103957380D02*
X126635000Y-103957380D01*
X126635000Y-102957380D01*
X125254047Y-103862142D02*
X125301666Y-103909761D01*
X125444523Y-103957380D01*
X125539761Y-103957380D01*
X125682619Y-103909761D01*
X125777857Y-103814523D01*
X125825476Y-103719285D01*
X125873095Y-103528809D01*
X125873095Y-103385952D01*
X125825476Y-103195476D01*
X125777857Y-103100238D01*
X125682619Y-103005000D01*
X125539761Y-102957380D01*
X125444523Y-102957380D01*
X125301666Y-103005000D01*
X125254047Y-103052619D01*
X124539761Y-102957380D02*
X124539761Y-103671666D01*
X124587380Y-103814523D01*
X124682619Y-103909761D01*
X124825476Y-103957380D01*
X124920714Y-103957380D01*
X123587380Y-103957380D02*
X124063571Y-103957380D01*
X124063571Y-102957380D01*
X122682619Y-103862142D02*
X122730238Y-103909761D01*
X122873095Y-103957380D01*
X122968333Y-103957380D01*
X123111190Y-103909761D01*
X123206428Y-103814523D01*
X123254047Y-103719285D01*
X123301666Y-103528809D01*
X123301666Y-103385952D01*
X123254047Y-103195476D01*
X123206428Y-103100238D01*
X123111190Y-103005000D01*
X122968333Y-102957380D01*
X122873095Y-102957380D01*
X122730238Y-103005000D01*
X122682619Y-103052619D01*
M02*
