%TF.GenerationSoftware,KiCad,Pcbnew,(6.0.0)*%
%TF.CreationDate,2022-07-13T19:55:52+02:00*%
%TF.ProjectId,wavefolder-panel,77617665-666f-46c6-9465-722d70616e65,rev?*%
%TF.SameCoordinates,Original*%
%TF.FileFunction,Soldermask,Top*%
%TF.FilePolarity,Negative*%
%FSLAX46Y46*%
G04 Gerber Fmt 4.6, Leading zero omitted, Abs format (unit mm)*
G04 Created by KiCad (PCBNEW (6.0.0)) date 2022-07-13 19:55:52*
%MOMM*%
%LPD*%
G01*
G04 APERTURE LIST*
%ADD10C,0.010000*%
G04 APERTURE END LIST*
D10*
%TO.C,Ref\u002A\u002A*%
X138069178Y-89177186D02*
X138427554Y-89235541D01*
X138427554Y-89235541D02*
X138778782Y-89330520D01*
X138778782Y-89330520D02*
X139119919Y-89461863D01*
X139119919Y-89461863D02*
X139448020Y-89629306D01*
X139448020Y-89629306D02*
X139760142Y-89832587D01*
X139760142Y-89832587D02*
X140053341Y-90071446D01*
X140053341Y-90071446D02*
X140213503Y-90226117D01*
X140213503Y-90226117D02*
X140468447Y-90517270D01*
X140468447Y-90517270D02*
X140687377Y-90828156D01*
X140687377Y-90828156D02*
X140869912Y-91155863D01*
X140869912Y-91155863D02*
X141015669Y-91497480D01*
X141015669Y-91497480D02*
X141124266Y-91850097D01*
X141124266Y-91850097D02*
X141195321Y-92210804D01*
X141195321Y-92210804D02*
X141228452Y-92576688D01*
X141228452Y-92576688D02*
X141223276Y-92944840D01*
X141223276Y-92944840D02*
X141179412Y-93312349D01*
X141179412Y-93312349D02*
X141096477Y-93676303D01*
X141096477Y-93676303D02*
X140974089Y-94033793D01*
X140974089Y-94033793D02*
X140811866Y-94381907D01*
X140811866Y-94381907D02*
X140769344Y-94459519D01*
X140769344Y-94459519D02*
X140584983Y-94748840D01*
X140584983Y-94748840D02*
X140366625Y-95026485D01*
X140366625Y-95026485D02*
X140121555Y-95284719D01*
X140121555Y-95284719D02*
X139857057Y-95515810D01*
X139857057Y-95515810D02*
X139603259Y-95697511D01*
X139603259Y-95697511D02*
X139324754Y-95857879D01*
X139324754Y-95857879D02*
X139028069Y-95994886D01*
X139028069Y-95994886D02*
X138722087Y-96105497D01*
X138722087Y-96105497D02*
X138415692Y-96186679D01*
X138415692Y-96186679D02*
X138117765Y-96235396D01*
X138117765Y-96235396D02*
X137999494Y-96245319D01*
X137999494Y-96245319D02*
X137901894Y-96251247D01*
X137901894Y-96251247D02*
X137811830Y-96257078D01*
X137811830Y-96257078D02*
X137743571Y-96261875D01*
X137743571Y-96261875D02*
X137724328Y-96263399D01*
X137724328Y-96263399D02*
X137672786Y-96264594D01*
X137672786Y-96264594D02*
X137591330Y-96262908D01*
X137591330Y-96262908D02*
X137492254Y-96258710D01*
X137492254Y-96258710D02*
X137412445Y-96254046D01*
X137412445Y-96254046D02*
X137040967Y-96208866D01*
X137040967Y-96208866D02*
X136679919Y-96124158D01*
X136679919Y-96124158D02*
X136331940Y-96002004D01*
X136331940Y-96002004D02*
X135999671Y-95844486D01*
X135999671Y-95844486D02*
X135685751Y-95653687D01*
X135685751Y-95653687D02*
X135392818Y-95431688D01*
X135392818Y-95431688D02*
X135123512Y-95180571D01*
X135123512Y-95180571D02*
X134880474Y-94902420D01*
X134880474Y-94902420D02*
X134666340Y-94599316D01*
X134666340Y-94599316D02*
X134483753Y-94273341D01*
X134483753Y-94273341D02*
X134335349Y-93926577D01*
X134335349Y-93926577D02*
X134288376Y-93789500D01*
X134288376Y-93789500D02*
X134240970Y-93635890D01*
X134240970Y-93635890D02*
X134204399Y-93501809D01*
X134204399Y-93501809D02*
X134177332Y-93377643D01*
X134177332Y-93377643D02*
X134158437Y-93253778D01*
X134158437Y-93253778D02*
X134146383Y-93120599D01*
X134146383Y-93120599D02*
X134139838Y-92968492D01*
X134139838Y-92968492D02*
X134137471Y-92787842D01*
X134137471Y-92787842D02*
X134137405Y-92699417D01*
X134137405Y-92699417D02*
X134138206Y-92535160D01*
X134138206Y-92535160D02*
X134140346Y-92405065D01*
X134140346Y-92405065D02*
X134144391Y-92300967D01*
X134144391Y-92300967D02*
X134150908Y-92214700D01*
X134150908Y-92214700D02*
X134160460Y-92138099D01*
X134160460Y-92138099D02*
X134173615Y-92063001D01*
X134173615Y-92063001D02*
X134185426Y-92006229D01*
X134185426Y-92006229D02*
X134273433Y-91678272D01*
X134273433Y-91678272D02*
X134392666Y-91352610D01*
X134392666Y-91352610D02*
X134538348Y-91040220D01*
X134538348Y-91040220D02*
X134705702Y-90752079D01*
X134705702Y-90752079D02*
X134777197Y-90646695D01*
X134777197Y-90646695D02*
X134885853Y-90506563D01*
X134885853Y-90506563D02*
X135019713Y-90353921D01*
X135019713Y-90353921D02*
X135169073Y-90198476D01*
X135169073Y-90198476D02*
X135324230Y-90049933D01*
X135324230Y-90049933D02*
X135475478Y-89917995D01*
X135475478Y-89917995D02*
X135607661Y-89816199D01*
X135607661Y-89816199D02*
X135933652Y-89610846D01*
X135933652Y-89610846D02*
X136273101Y-89443951D01*
X136273101Y-89443951D02*
X136623064Y-89315253D01*
X136623064Y-89315253D02*
X136980596Y-89224489D01*
X136980596Y-89224489D02*
X137342755Y-89171398D01*
X137342755Y-89171398D02*
X137706597Y-89155717D01*
X137706597Y-89155717D02*
X138069178Y-89177186D01*
X138069178Y-89177186D02*
X138069178Y-89177186D01*
G36*
X138069178Y-89177186D02*
G01*
X138427554Y-89235541D01*
X138778782Y-89330520D01*
X139119919Y-89461863D01*
X139448020Y-89629306D01*
X139760142Y-89832587D01*
X140053341Y-90071446D01*
X140213503Y-90226117D01*
X140468447Y-90517270D01*
X140687377Y-90828156D01*
X140869912Y-91155863D01*
X141015669Y-91497480D01*
X141124266Y-91850097D01*
X141195321Y-92210804D01*
X141228452Y-92576688D01*
X141223276Y-92944840D01*
X141179412Y-93312349D01*
X141096477Y-93676303D01*
X140974089Y-94033793D01*
X140811866Y-94381907D01*
X140769344Y-94459519D01*
X140584983Y-94748840D01*
X140366625Y-95026485D01*
X140121555Y-95284719D01*
X139857057Y-95515810D01*
X139603259Y-95697511D01*
X139324754Y-95857879D01*
X139028069Y-95994886D01*
X138722087Y-96105497D01*
X138415692Y-96186679D01*
X138117765Y-96235396D01*
X137999494Y-96245319D01*
X137901894Y-96251247D01*
X137811830Y-96257078D01*
X137743571Y-96261875D01*
X137724328Y-96263399D01*
X137672786Y-96264594D01*
X137591330Y-96262908D01*
X137492254Y-96258710D01*
X137412445Y-96254046D01*
X137040967Y-96208866D01*
X136679919Y-96124158D01*
X136331940Y-96002004D01*
X135999671Y-95844486D01*
X135685751Y-95653687D01*
X135392818Y-95431688D01*
X135123512Y-95180571D01*
X134880474Y-94902420D01*
X134666340Y-94599316D01*
X134483753Y-94273341D01*
X134335349Y-93926577D01*
X134288376Y-93789500D01*
X134240970Y-93635890D01*
X134204399Y-93501809D01*
X134177332Y-93377643D01*
X134158437Y-93253778D01*
X134146383Y-93120599D01*
X134139838Y-92968492D01*
X134137471Y-92787842D01*
X134137405Y-92699417D01*
X134138206Y-92535160D01*
X134140346Y-92405065D01*
X134144391Y-92300967D01*
X134150908Y-92214700D01*
X134160460Y-92138099D01*
X134173615Y-92063001D01*
X134185426Y-92006229D01*
X134273433Y-91678272D01*
X134392666Y-91352610D01*
X134538348Y-91040220D01*
X134705702Y-90752079D01*
X134777197Y-90646695D01*
X134885853Y-90506563D01*
X135019713Y-90353921D01*
X135169073Y-90198476D01*
X135324230Y-90049933D01*
X135475478Y-89917995D01*
X135607661Y-89816199D01*
X135933652Y-89610846D01*
X136273101Y-89443951D01*
X136623064Y-89315253D01*
X136980596Y-89224489D01*
X137342755Y-89171398D01*
X137706597Y-89155717D01*
X138069178Y-89177186D01*
G37*
X138069178Y-89177186D02*
X138427554Y-89235541D01*
X138778782Y-89330520D01*
X139119919Y-89461863D01*
X139448020Y-89629306D01*
X139760142Y-89832587D01*
X140053341Y-90071446D01*
X140213503Y-90226117D01*
X140468447Y-90517270D01*
X140687377Y-90828156D01*
X140869912Y-91155863D01*
X141015669Y-91497480D01*
X141124266Y-91850097D01*
X141195321Y-92210804D01*
X141228452Y-92576688D01*
X141223276Y-92944840D01*
X141179412Y-93312349D01*
X141096477Y-93676303D01*
X140974089Y-94033793D01*
X140811866Y-94381907D01*
X140769344Y-94459519D01*
X140584983Y-94748840D01*
X140366625Y-95026485D01*
X140121555Y-95284719D01*
X139857057Y-95515810D01*
X139603259Y-95697511D01*
X139324754Y-95857879D01*
X139028069Y-95994886D01*
X138722087Y-96105497D01*
X138415692Y-96186679D01*
X138117765Y-96235396D01*
X137999494Y-96245319D01*
X137901894Y-96251247D01*
X137811830Y-96257078D01*
X137743571Y-96261875D01*
X137724328Y-96263399D01*
X137672786Y-96264594D01*
X137591330Y-96262908D01*
X137492254Y-96258710D01*
X137412445Y-96254046D01*
X137040967Y-96208866D01*
X136679919Y-96124158D01*
X136331940Y-96002004D01*
X135999671Y-95844486D01*
X135685751Y-95653687D01*
X135392818Y-95431688D01*
X135123512Y-95180571D01*
X134880474Y-94902420D01*
X134666340Y-94599316D01*
X134483753Y-94273341D01*
X134335349Y-93926577D01*
X134288376Y-93789500D01*
X134240970Y-93635890D01*
X134204399Y-93501809D01*
X134177332Y-93377643D01*
X134158437Y-93253778D01*
X134146383Y-93120599D01*
X134139838Y-92968492D01*
X134137471Y-92787842D01*
X134137405Y-92699417D01*
X134138206Y-92535160D01*
X134140346Y-92405065D01*
X134144391Y-92300967D01*
X134150908Y-92214700D01*
X134160460Y-92138099D01*
X134173615Y-92063001D01*
X134185426Y-92006229D01*
X134273433Y-91678272D01*
X134392666Y-91352610D01*
X134538348Y-91040220D01*
X134705702Y-90752079D01*
X134777197Y-90646695D01*
X134885853Y-90506563D01*
X135019713Y-90353921D01*
X135169073Y-90198476D01*
X135324230Y-90049933D01*
X135475478Y-89917995D01*
X135607661Y-89816199D01*
X135933652Y-89610846D01*
X136273101Y-89443951D01*
X136623064Y-89315253D01*
X136980596Y-89224489D01*
X137342755Y-89171398D01*
X137706597Y-89155717D01*
X138069178Y-89177186D01*
X138071512Y-61236652D02*
X138430124Y-61295515D01*
X138430124Y-61295515D02*
X138781651Y-61391144D01*
X138781651Y-61391144D02*
X139123180Y-61523272D01*
X139123180Y-61523272D02*
X139451795Y-61691636D01*
X139451795Y-61691636D02*
X139764584Y-61895969D01*
X139764584Y-61895969D02*
X140058631Y-62136007D01*
X140058631Y-62136007D02*
X140224036Y-62296216D01*
X140224036Y-62296216D02*
X140472975Y-62582119D01*
X140472975Y-62582119D02*
X140689041Y-62890564D01*
X140689041Y-62890564D02*
X140870915Y-63217911D01*
X140870915Y-63217911D02*
X141017282Y-63560524D01*
X141017282Y-63560524D02*
X141126822Y-63914764D01*
X141126822Y-63914764D02*
X141198219Y-64276994D01*
X141198219Y-64276994D02*
X141230156Y-64643577D01*
X141230156Y-64643577D02*
X141221314Y-65010873D01*
X141221314Y-65010873D02*
X141218590Y-65042560D01*
X141218590Y-65042560D02*
X141162584Y-65440796D01*
X141162584Y-65440796D02*
X141068850Y-65820094D01*
X141068850Y-65820094D02*
X140937567Y-66180078D01*
X140937567Y-66180078D02*
X140768913Y-66520372D01*
X140768913Y-66520372D02*
X140563067Y-66840599D01*
X140563067Y-66840599D02*
X140320208Y-67140383D01*
X140320208Y-67140383D02*
X140132102Y-67334201D01*
X140132102Y-67334201D02*
X139836927Y-67589261D01*
X139836927Y-67589261D02*
X139522340Y-67806914D01*
X139522340Y-67806914D02*
X139189564Y-67986718D01*
X139189564Y-67986718D02*
X138839818Y-68128233D01*
X138839818Y-68128233D02*
X138474323Y-68231015D01*
X138474323Y-68231015D02*
X138094300Y-68294625D01*
X138094300Y-68294625D02*
X137700968Y-68318621D01*
X137700968Y-68318621D02*
X137427994Y-68312169D01*
X137427994Y-68312169D02*
X137060626Y-68270518D01*
X137060626Y-68270518D02*
X136702284Y-68189173D01*
X136702284Y-68189173D02*
X136355806Y-68070319D01*
X136355806Y-68070319D02*
X136024029Y-67916141D01*
X136024029Y-67916141D02*
X135709791Y-67728825D01*
X135709791Y-67728825D02*
X135415929Y-67510555D01*
X135415929Y-67510555D02*
X135145280Y-67263516D01*
X135145280Y-67263516D02*
X134900681Y-66989893D01*
X134900681Y-66989893D02*
X134684971Y-66691872D01*
X134684971Y-66691872D02*
X134500986Y-66371636D01*
X134500986Y-66371636D02*
X134351564Y-66031371D01*
X134351564Y-66031371D02*
X134308686Y-65910147D01*
X134308686Y-65910147D02*
X134255785Y-65745724D01*
X134255785Y-65745724D02*
X134214867Y-65603252D01*
X134214867Y-65603252D02*
X134184453Y-65472856D01*
X134184453Y-65472856D02*
X134163066Y-65344662D01*
X134163066Y-65344662D02*
X134149226Y-65208795D01*
X134149226Y-65208795D02*
X134141454Y-65055381D01*
X134141454Y-65055381D02*
X134138272Y-64874546D01*
X134138272Y-64874546D02*
X134137940Y-64770000D01*
X134137940Y-64770000D02*
X134138405Y-64605041D01*
X134138405Y-64605041D02*
X134140160Y-64474446D01*
X134140160Y-64474446D02*
X134143742Y-64370251D01*
X134143742Y-64370251D02*
X134149684Y-64284493D01*
X134149684Y-64284493D02*
X134158524Y-64209209D01*
X134158524Y-64209209D02*
X134170796Y-64136436D01*
X134170796Y-64136436D02*
X134185279Y-64066229D01*
X134185279Y-64066229D02*
X134274224Y-63735722D01*
X134274224Y-63735722D02*
X134394651Y-63407861D01*
X134394651Y-63407861D02*
X134541805Y-63093570D01*
X134541805Y-63093570D02*
X134710932Y-62803771D01*
X134710932Y-62803771D02*
X134777197Y-62706250D01*
X134777197Y-62706250D02*
X134886002Y-62565815D01*
X134886002Y-62565815D02*
X135020412Y-62412665D01*
X135020412Y-62412665D02*
X135170596Y-62256624D01*
X135170596Y-62256624D02*
X135326723Y-62107520D01*
X135326723Y-62107520D02*
X135478960Y-61975176D01*
X135478960Y-61975176D02*
X135607661Y-61876296D01*
X135607661Y-61876296D02*
X135934266Y-61670381D01*
X135934266Y-61670381D02*
X136274185Y-61503088D01*
X136274185Y-61503088D02*
X136624506Y-61374150D01*
X136624506Y-61374150D02*
X136982313Y-61283302D01*
X136982313Y-61283302D02*
X137344693Y-61230280D01*
X137344693Y-61230280D02*
X137708731Y-61214818D01*
X137708731Y-61214818D02*
X138071512Y-61236652D01*
X138071512Y-61236652D02*
X138071512Y-61236652D01*
G36*
X138071512Y-61236652D02*
G01*
X138430124Y-61295515D01*
X138781651Y-61391144D01*
X139123180Y-61523272D01*
X139451795Y-61691636D01*
X139764584Y-61895969D01*
X140058631Y-62136007D01*
X140224036Y-62296216D01*
X140472975Y-62582119D01*
X140689041Y-62890564D01*
X140870915Y-63217911D01*
X141017282Y-63560524D01*
X141126822Y-63914764D01*
X141198219Y-64276994D01*
X141230156Y-64643577D01*
X141221314Y-65010873D01*
X141218590Y-65042560D01*
X141162584Y-65440796D01*
X141068850Y-65820094D01*
X140937567Y-66180078D01*
X140768913Y-66520372D01*
X140563067Y-66840599D01*
X140320208Y-67140383D01*
X140132102Y-67334201D01*
X139836927Y-67589261D01*
X139522340Y-67806914D01*
X139189564Y-67986718D01*
X138839818Y-68128233D01*
X138474323Y-68231015D01*
X138094300Y-68294625D01*
X137700968Y-68318621D01*
X137427994Y-68312169D01*
X137060626Y-68270518D01*
X136702284Y-68189173D01*
X136355806Y-68070319D01*
X136024029Y-67916141D01*
X135709791Y-67728825D01*
X135415929Y-67510555D01*
X135145280Y-67263516D01*
X134900681Y-66989893D01*
X134684971Y-66691872D01*
X134500986Y-66371636D01*
X134351564Y-66031371D01*
X134308686Y-65910147D01*
X134255785Y-65745724D01*
X134214867Y-65603252D01*
X134184453Y-65472856D01*
X134163066Y-65344662D01*
X134149226Y-65208795D01*
X134141454Y-65055381D01*
X134138272Y-64874546D01*
X134137940Y-64770000D01*
X134138405Y-64605041D01*
X134140160Y-64474446D01*
X134143742Y-64370251D01*
X134149684Y-64284493D01*
X134158524Y-64209209D01*
X134170796Y-64136436D01*
X134185279Y-64066229D01*
X134274224Y-63735722D01*
X134394651Y-63407861D01*
X134541805Y-63093570D01*
X134710932Y-62803771D01*
X134777197Y-62706250D01*
X134886002Y-62565815D01*
X135020412Y-62412665D01*
X135170596Y-62256624D01*
X135326723Y-62107520D01*
X135478960Y-61975176D01*
X135607661Y-61876296D01*
X135934266Y-61670381D01*
X136274185Y-61503088D01*
X136624506Y-61374150D01*
X136982313Y-61283302D01*
X137344693Y-61230280D01*
X137708731Y-61214818D01*
X138071512Y-61236652D01*
G37*
X138071512Y-61236652D02*
X138430124Y-61295515D01*
X138781651Y-61391144D01*
X139123180Y-61523272D01*
X139451795Y-61691636D01*
X139764584Y-61895969D01*
X140058631Y-62136007D01*
X140224036Y-62296216D01*
X140472975Y-62582119D01*
X140689041Y-62890564D01*
X140870915Y-63217911D01*
X141017282Y-63560524D01*
X141126822Y-63914764D01*
X141198219Y-64276994D01*
X141230156Y-64643577D01*
X141221314Y-65010873D01*
X141218590Y-65042560D01*
X141162584Y-65440796D01*
X141068850Y-65820094D01*
X140937567Y-66180078D01*
X140768913Y-66520372D01*
X140563067Y-66840599D01*
X140320208Y-67140383D01*
X140132102Y-67334201D01*
X139836927Y-67589261D01*
X139522340Y-67806914D01*
X139189564Y-67986718D01*
X138839818Y-68128233D01*
X138474323Y-68231015D01*
X138094300Y-68294625D01*
X137700968Y-68318621D01*
X137427994Y-68312169D01*
X137060626Y-68270518D01*
X136702284Y-68189173D01*
X136355806Y-68070319D01*
X136024029Y-67916141D01*
X135709791Y-67728825D01*
X135415929Y-67510555D01*
X135145280Y-67263516D01*
X134900681Y-66989893D01*
X134684971Y-66691872D01*
X134500986Y-66371636D01*
X134351564Y-66031371D01*
X134308686Y-65910147D01*
X134255785Y-65745724D01*
X134214867Y-65603252D01*
X134184453Y-65472856D01*
X134163066Y-65344662D01*
X134149226Y-65208795D01*
X134141454Y-65055381D01*
X134138272Y-64874546D01*
X134137940Y-64770000D01*
X134138405Y-64605041D01*
X134140160Y-64474446D01*
X134143742Y-64370251D01*
X134149684Y-64284493D01*
X134158524Y-64209209D01*
X134170796Y-64136436D01*
X134185279Y-64066229D01*
X134274224Y-63735722D01*
X134394651Y-63407861D01*
X134541805Y-63093570D01*
X134710932Y-62803771D01*
X134777197Y-62706250D01*
X134886002Y-62565815D01*
X135020412Y-62412665D01*
X135170596Y-62256624D01*
X135326723Y-62107520D01*
X135478960Y-61975176D01*
X135607661Y-61876296D01*
X135934266Y-61670381D01*
X136274185Y-61503088D01*
X136624506Y-61374150D01*
X136982313Y-61283302D01*
X137344693Y-61230280D01*
X137708731Y-61214818D01*
X138071512Y-61236652D01*
X114931974Y-172052466D02*
X115168252Y-172101492D01*
X115168252Y-172101492D02*
X115393086Y-172185850D01*
X115393086Y-172185850D02*
X115603022Y-172303806D01*
X115603022Y-172303806D02*
X115794609Y-172453626D01*
X115794609Y-172453626D02*
X115964394Y-172633576D01*
X115964394Y-172633576D02*
X116108925Y-172841922D01*
X116108925Y-172841922D02*
X116224749Y-173076931D01*
X116224749Y-173076931D02*
X116261430Y-173175540D01*
X116261430Y-173175540D02*
X116295576Y-173312954D01*
X116295576Y-173312954D02*
X116316384Y-173476363D01*
X116316384Y-173476363D02*
X116323447Y-173651452D01*
X116323447Y-173651452D02*
X116316356Y-173823906D01*
X116316356Y-173823906D02*
X116294703Y-173979409D01*
X116294703Y-173979409D02*
X116285503Y-174019841D01*
X116285503Y-174019841D02*
X116200902Y-174273237D01*
X116200902Y-174273237D02*
X116082406Y-174502737D01*
X116082406Y-174502737D02*
X115932226Y-174706143D01*
X115932226Y-174706143D02*
X115752578Y-174881258D01*
X115752578Y-174881258D02*
X115545673Y-175025883D01*
X115545673Y-175025883D02*
X115313724Y-175137822D01*
X115313724Y-175137822D02*
X115088982Y-175207945D01*
X115088982Y-175207945D02*
X114930235Y-175234866D01*
X114930235Y-175234866D02*
X114753055Y-175246638D01*
X114753055Y-175246638D02*
X114575486Y-175242998D01*
X114575486Y-175242998D02*
X114415568Y-175223686D01*
X114415568Y-175223686D02*
X114388078Y-175218093D01*
X114388078Y-175218093D02*
X114139353Y-175142317D01*
X114139353Y-175142317D02*
X113909948Y-175029980D01*
X113909948Y-175029980D02*
X113703108Y-174883648D01*
X113703108Y-174883648D02*
X113522081Y-174705882D01*
X113522081Y-174705882D02*
X113370114Y-174499246D01*
X113370114Y-174499246D02*
X113288055Y-174349834D01*
X113288055Y-174349834D02*
X113211758Y-174173792D01*
X113211758Y-174173792D02*
X113162055Y-174010356D01*
X113162055Y-174010356D02*
X113135062Y-173842750D01*
X113135062Y-173842750D02*
X113126897Y-173654196D01*
X113126897Y-173654196D02*
X113126897Y-173653566D01*
X113126897Y-173653566D02*
X113146182Y-173386921D01*
X113146182Y-173386921D02*
X113203889Y-173137775D01*
X113203889Y-173137775D02*
X113299793Y-172906646D01*
X113299793Y-172906646D02*
X113433672Y-172694057D01*
X113433672Y-172694057D02*
X113605300Y-172500526D01*
X113605300Y-172500526D02*
X113634980Y-172472532D01*
X113634980Y-172472532D02*
X113798642Y-172336802D01*
X113798642Y-172336802D02*
X113964666Y-172232247D01*
X113964666Y-172232247D02*
X114148142Y-172149666D01*
X114148142Y-172149666D02*
X114188996Y-172134716D01*
X114188996Y-172134716D02*
X114438894Y-172067344D01*
X114438894Y-172067344D02*
X114687704Y-172040505D01*
X114687704Y-172040505D02*
X114931974Y-172052466D01*
X114931974Y-172052466D02*
X114931974Y-172052466D01*
G36*
X114931974Y-172052466D02*
G01*
X115168252Y-172101492D01*
X115393086Y-172185850D01*
X115603022Y-172303806D01*
X115794609Y-172453626D01*
X115964394Y-172633576D01*
X116108925Y-172841922D01*
X116224749Y-173076931D01*
X116261430Y-173175540D01*
X116295576Y-173312954D01*
X116316384Y-173476363D01*
X116323447Y-173651452D01*
X116316356Y-173823906D01*
X116294703Y-173979409D01*
X116285503Y-174019841D01*
X116200902Y-174273237D01*
X116082406Y-174502737D01*
X115932226Y-174706143D01*
X115752578Y-174881258D01*
X115545673Y-175025883D01*
X115313724Y-175137822D01*
X115088982Y-175207945D01*
X114930235Y-175234866D01*
X114753055Y-175246638D01*
X114575486Y-175242998D01*
X114415568Y-175223686D01*
X114388078Y-175218093D01*
X114139353Y-175142317D01*
X113909948Y-175029980D01*
X113703108Y-174883648D01*
X113522081Y-174705882D01*
X113370114Y-174499246D01*
X113288055Y-174349834D01*
X113211758Y-174173792D01*
X113162055Y-174010356D01*
X113135062Y-173842750D01*
X113126897Y-173654196D01*
X113126897Y-173653566D01*
X113146182Y-173386921D01*
X113203889Y-173137775D01*
X113299793Y-172906646D01*
X113433672Y-172694057D01*
X113605300Y-172500526D01*
X113634980Y-172472532D01*
X113798642Y-172336802D01*
X113964666Y-172232247D01*
X114148142Y-172149666D01*
X114188996Y-172134716D01*
X114438894Y-172067344D01*
X114687704Y-172040505D01*
X114931974Y-172052466D01*
G37*
X114931974Y-172052466D02*
X115168252Y-172101492D01*
X115393086Y-172185850D01*
X115603022Y-172303806D01*
X115794609Y-172453626D01*
X115964394Y-172633576D01*
X116108925Y-172841922D01*
X116224749Y-173076931D01*
X116261430Y-173175540D01*
X116295576Y-173312954D01*
X116316384Y-173476363D01*
X116323447Y-173651452D01*
X116316356Y-173823906D01*
X116294703Y-173979409D01*
X116285503Y-174019841D01*
X116200902Y-174273237D01*
X116082406Y-174502737D01*
X115932226Y-174706143D01*
X115752578Y-174881258D01*
X115545673Y-175025883D01*
X115313724Y-175137822D01*
X115088982Y-175207945D01*
X114930235Y-175234866D01*
X114753055Y-175246638D01*
X114575486Y-175242998D01*
X114415568Y-175223686D01*
X114388078Y-175218093D01*
X114139353Y-175142317D01*
X113909948Y-175029980D01*
X113703108Y-174883648D01*
X113522081Y-174705882D01*
X113370114Y-174499246D01*
X113288055Y-174349834D01*
X113211758Y-174173792D01*
X113162055Y-174010356D01*
X113135062Y-173842750D01*
X113126897Y-173654196D01*
X113126897Y-173653566D01*
X113146182Y-173386921D01*
X113203889Y-173137775D01*
X113299793Y-172906646D01*
X113433672Y-172694057D01*
X113605300Y-172500526D01*
X113634980Y-172472532D01*
X113798642Y-172336802D01*
X113964666Y-172232247D01*
X114148142Y-172149666D01*
X114188996Y-172134716D01*
X114438894Y-172067344D01*
X114687704Y-172040505D01*
X114931974Y-172052466D01*
X114993900Y-49560791D02*
X115037462Y-49568876D01*
X115037462Y-49568876D02*
X115287241Y-49640982D01*
X115287241Y-49640982D02*
X115516538Y-49747831D01*
X115516538Y-49747831D02*
X115722682Y-49886166D01*
X115722682Y-49886166D02*
X115902998Y-50052731D01*
X115902998Y-50052731D02*
X116054815Y-50244270D01*
X116054815Y-50244270D02*
X116175459Y-50457527D01*
X116175459Y-50457527D02*
X116262256Y-50689247D01*
X116262256Y-50689247D02*
X116312534Y-50936172D01*
X116312534Y-50936172D02*
X116324679Y-51136761D01*
X116324679Y-51136761D02*
X116304472Y-51397464D01*
X116304472Y-51397464D02*
X116245985Y-51644296D01*
X116245985Y-51644296D02*
X116151865Y-51874210D01*
X116151865Y-51874210D02*
X116024757Y-52084160D01*
X116024757Y-52084160D02*
X115867308Y-52271100D01*
X115867308Y-52271100D02*
X115682163Y-52431984D01*
X115682163Y-52431984D02*
X115471968Y-52563767D01*
X115471968Y-52563767D02*
X115239370Y-52663401D01*
X115239370Y-52663401D02*
X114987015Y-52727841D01*
X114987015Y-52727841D02*
X114935373Y-52736098D01*
X114935373Y-52736098D02*
X114805437Y-52750839D01*
X114805437Y-52750839D02*
X114689013Y-52753398D01*
X114689013Y-52753398D02*
X114564508Y-52743681D01*
X114564508Y-52743681D02*
X114492485Y-52734192D01*
X114492485Y-52734192D02*
X114248110Y-52678216D01*
X114248110Y-52678216D02*
X114018026Y-52584687D01*
X114018026Y-52584687D02*
X113805932Y-52457038D01*
X113805932Y-52457038D02*
X113615523Y-52298703D01*
X113615523Y-52298703D02*
X113450498Y-52113114D01*
X113450498Y-52113114D02*
X113314552Y-51903705D01*
X113314552Y-51903705D02*
X113211383Y-51673908D01*
X113211383Y-51673908D02*
X113159046Y-51495924D01*
X113159046Y-51495924D02*
X113138788Y-51368902D01*
X113138788Y-51368902D02*
X113128828Y-51217813D01*
X113128828Y-51217813D02*
X113129104Y-51058685D01*
X113129104Y-51058685D02*
X113139554Y-50907546D01*
X113139554Y-50907546D02*
X113160115Y-50780423D01*
X113160115Y-50780423D02*
X113161863Y-50773119D01*
X113161863Y-50773119D02*
X113243667Y-50525821D01*
X113243667Y-50525821D02*
X113361384Y-50298799D01*
X113361384Y-50298799D02*
X113512331Y-50094941D01*
X113512331Y-50094941D02*
X113693824Y-49917134D01*
X113693824Y-49917134D02*
X113903178Y-49768264D01*
X113903178Y-49768264D02*
X114137711Y-49651221D01*
X114137711Y-49651221D02*
X114239911Y-49613308D01*
X114239911Y-49613308D02*
X114413140Y-49569978D01*
X114413140Y-49569978D02*
X114607691Y-49546161D01*
X114607691Y-49546161D02*
X114806849Y-49542789D01*
X114806849Y-49542789D02*
X114993900Y-49560791D01*
X114993900Y-49560791D02*
X114993900Y-49560791D01*
G36*
X114993900Y-49560791D02*
G01*
X115037462Y-49568876D01*
X115287241Y-49640982D01*
X115516538Y-49747831D01*
X115722682Y-49886166D01*
X115902998Y-50052731D01*
X116054815Y-50244270D01*
X116175459Y-50457527D01*
X116262256Y-50689247D01*
X116312534Y-50936172D01*
X116324679Y-51136761D01*
X116304472Y-51397464D01*
X116245985Y-51644296D01*
X116151865Y-51874210D01*
X116024757Y-52084160D01*
X115867308Y-52271100D01*
X115682163Y-52431984D01*
X115471968Y-52563767D01*
X115239370Y-52663401D01*
X114987015Y-52727841D01*
X114935373Y-52736098D01*
X114805437Y-52750839D01*
X114689013Y-52753398D01*
X114564508Y-52743681D01*
X114492485Y-52734192D01*
X114248110Y-52678216D01*
X114018026Y-52584687D01*
X113805932Y-52457038D01*
X113615523Y-52298703D01*
X113450498Y-52113114D01*
X113314552Y-51903705D01*
X113211383Y-51673908D01*
X113159046Y-51495924D01*
X113138788Y-51368902D01*
X113128828Y-51217813D01*
X113129104Y-51058685D01*
X113139554Y-50907546D01*
X113160115Y-50780423D01*
X113161863Y-50773119D01*
X113243667Y-50525821D01*
X113361384Y-50298799D01*
X113512331Y-50094941D01*
X113693824Y-49917134D01*
X113903178Y-49768264D01*
X114137711Y-49651221D01*
X114239911Y-49613308D01*
X114413140Y-49569978D01*
X114607691Y-49546161D01*
X114806849Y-49542789D01*
X114993900Y-49560791D01*
G37*
X114993900Y-49560791D02*
X115037462Y-49568876D01*
X115287241Y-49640982D01*
X115516538Y-49747831D01*
X115722682Y-49886166D01*
X115902998Y-50052731D01*
X116054815Y-50244270D01*
X116175459Y-50457527D01*
X116262256Y-50689247D01*
X116312534Y-50936172D01*
X116324679Y-51136761D01*
X116304472Y-51397464D01*
X116245985Y-51644296D01*
X116151865Y-51874210D01*
X116024757Y-52084160D01*
X115867308Y-52271100D01*
X115682163Y-52431984D01*
X115471968Y-52563767D01*
X115239370Y-52663401D01*
X114987015Y-52727841D01*
X114935373Y-52736098D01*
X114805437Y-52750839D01*
X114689013Y-52753398D01*
X114564508Y-52743681D01*
X114492485Y-52734192D01*
X114248110Y-52678216D01*
X114018026Y-52584687D01*
X113805932Y-52457038D01*
X113615523Y-52298703D01*
X113450498Y-52113114D01*
X113314552Y-51903705D01*
X113211383Y-51673908D01*
X113159046Y-51495924D01*
X113138788Y-51368902D01*
X113128828Y-51217813D01*
X113129104Y-51058685D01*
X113139554Y-50907546D01*
X113160115Y-50780423D01*
X113161863Y-50773119D01*
X113243667Y-50525821D01*
X113361384Y-50298799D01*
X113512331Y-50094941D01*
X113693824Y-49917134D01*
X113903178Y-49768264D01*
X114137711Y-49651221D01*
X114239911Y-49613308D01*
X114413140Y-49569978D01*
X114607691Y-49546161D01*
X114806849Y-49542789D01*
X114993900Y-49560791D01*
X116505584Y-61239447D02*
X116871365Y-61301481D01*
X116871365Y-61301481D02*
X117230169Y-61402204D01*
X117230169Y-61402204D02*
X117578806Y-61541763D01*
X117578806Y-61541763D02*
X117878310Y-61698956D01*
X117878310Y-61698956D02*
X118169258Y-61891968D01*
X118169258Y-61891968D02*
X118446737Y-62118728D01*
X118446737Y-62118728D02*
X118704246Y-62372587D01*
X118704246Y-62372587D02*
X118935286Y-62646893D01*
X118935286Y-62646893D02*
X119133358Y-62934998D01*
X119133358Y-62934998D02*
X119202660Y-63053989D01*
X119202660Y-63053989D02*
X119319520Y-63292392D01*
X119319520Y-63292392D02*
X119424798Y-63559919D01*
X119424798Y-63559919D02*
X119514301Y-63844009D01*
X119514301Y-63844009D02*
X119583833Y-64132103D01*
X119583833Y-64132103D02*
X119609614Y-64272584D01*
X119609614Y-64272584D02*
X119623642Y-64395183D01*
X119623642Y-64395183D02*
X119632059Y-64547883D01*
X119632059Y-64547883D02*
X119635009Y-64718842D01*
X119635009Y-64718842D02*
X119632642Y-64896220D01*
X119632642Y-64896220D02*
X119625102Y-65068177D01*
X119625102Y-65068177D02*
X119612537Y-65222873D01*
X119612537Y-65222873D02*
X119596359Y-65341500D01*
X119596359Y-65341500D02*
X119507257Y-65728088D01*
X119507257Y-65728088D02*
X119381315Y-66096130D01*
X119381315Y-66096130D02*
X119219507Y-66443766D01*
X119219507Y-66443766D02*
X119022805Y-66769137D01*
X119022805Y-66769137D02*
X118792184Y-67070383D01*
X118792184Y-67070383D02*
X118565658Y-67310483D01*
X118565658Y-67310483D02*
X118385417Y-67476769D01*
X118385417Y-67476769D02*
X118215451Y-67616337D01*
X118215451Y-67616337D02*
X118043194Y-67738112D01*
X118043194Y-67738112D02*
X117856082Y-67851019D01*
X117856082Y-67851019D02*
X117655461Y-67957022D01*
X117655461Y-67957022D02*
X117312406Y-68106146D01*
X117312406Y-68106146D02*
X116955872Y-68215795D01*
X116955872Y-68215795D02*
X116584973Y-68286141D01*
X116584973Y-68286141D02*
X116198825Y-68317359D01*
X116198825Y-68317359D02*
X115837994Y-68312169D01*
X115837994Y-68312169D02*
X115469954Y-68270503D01*
X115469954Y-68270503D02*
X115111366Y-68189207D01*
X115111366Y-68189207D02*
X114764986Y-68070453D01*
X114764986Y-68070453D02*
X114433570Y-67916412D01*
X114433570Y-67916412D02*
X114119876Y-67729256D01*
X114119876Y-67729256D02*
X113826659Y-67511155D01*
X113826659Y-67511155D02*
X113556677Y-67264282D01*
X113556677Y-67264282D02*
X113312686Y-66990808D01*
X113312686Y-66990808D02*
X113097442Y-66692903D01*
X113097442Y-66692903D02*
X112913703Y-66372739D01*
X112913703Y-66372739D02*
X112764225Y-66032487D01*
X112764225Y-66032487D02*
X112698029Y-65838917D01*
X112698029Y-65838917D02*
X112649853Y-65678381D01*
X112649853Y-65678381D02*
X112613017Y-65542022D01*
X112613017Y-65542022D02*
X112586034Y-65419456D01*
X112586034Y-65419456D02*
X112567422Y-65300298D01*
X112567422Y-65300298D02*
X112555695Y-65174166D01*
X112555695Y-65174166D02*
X112549371Y-65030675D01*
X112549371Y-65030675D02*
X112546965Y-64859442D01*
X112546965Y-64859442D02*
X112546766Y-64780584D01*
X112546766Y-64780584D02*
X112547635Y-64605552D01*
X112547635Y-64605552D02*
X112550723Y-64464620D01*
X112550723Y-64464620D02*
X112556515Y-64349590D01*
X112556515Y-64349590D02*
X112565494Y-64252264D01*
X112565494Y-64252264D02*
X112578142Y-64164445D01*
X112578142Y-64164445D02*
X112585435Y-64124417D01*
X112585435Y-64124417D02*
X112659138Y-63823339D01*
X112659138Y-63823339D02*
X112763169Y-63516345D01*
X112763169Y-63516345D02*
X112892403Y-63215507D01*
X112892403Y-63215507D02*
X113041717Y-62932900D01*
X113041717Y-62932900D02*
X113187197Y-62706695D01*
X113187197Y-62706695D02*
X113295853Y-62566563D01*
X113295853Y-62566563D02*
X113429713Y-62413921D01*
X113429713Y-62413921D02*
X113579073Y-62258476D01*
X113579073Y-62258476D02*
X113734230Y-62109933D01*
X113734230Y-62109933D02*
X113885478Y-61977995D01*
X113885478Y-61977995D02*
X114017661Y-61876199D01*
X114017661Y-61876199D02*
X114342982Y-61671511D01*
X114342982Y-61671511D02*
X114683650Y-61504486D01*
X114683650Y-61504486D02*
X115036477Y-61375272D01*
X115036477Y-61375272D02*
X115398273Y-61284014D01*
X115398273Y-61284014D02*
X115765849Y-61230860D01*
X115765849Y-61230860D02*
X116136016Y-61215956D01*
X116136016Y-61215956D02*
X116505584Y-61239447D01*
X116505584Y-61239447D02*
X116505584Y-61239447D01*
G36*
X116505584Y-61239447D02*
G01*
X116871365Y-61301481D01*
X117230169Y-61402204D01*
X117578806Y-61541763D01*
X117878310Y-61698956D01*
X118169258Y-61891968D01*
X118446737Y-62118728D01*
X118704246Y-62372587D01*
X118935286Y-62646893D01*
X119133358Y-62934998D01*
X119202660Y-63053989D01*
X119319520Y-63292392D01*
X119424798Y-63559919D01*
X119514301Y-63844009D01*
X119583833Y-64132103D01*
X119609614Y-64272584D01*
X119623642Y-64395183D01*
X119632059Y-64547883D01*
X119635009Y-64718842D01*
X119632642Y-64896220D01*
X119625102Y-65068177D01*
X119612537Y-65222873D01*
X119596359Y-65341500D01*
X119507257Y-65728088D01*
X119381315Y-66096130D01*
X119219507Y-66443766D01*
X119022805Y-66769137D01*
X118792184Y-67070383D01*
X118565658Y-67310483D01*
X118385417Y-67476769D01*
X118215451Y-67616337D01*
X118043194Y-67738112D01*
X117856082Y-67851019D01*
X117655461Y-67957022D01*
X117312406Y-68106146D01*
X116955872Y-68215795D01*
X116584973Y-68286141D01*
X116198825Y-68317359D01*
X115837994Y-68312169D01*
X115469954Y-68270503D01*
X115111366Y-68189207D01*
X114764986Y-68070453D01*
X114433570Y-67916412D01*
X114119876Y-67729256D01*
X113826659Y-67511155D01*
X113556677Y-67264282D01*
X113312686Y-66990808D01*
X113097442Y-66692903D01*
X112913703Y-66372739D01*
X112764225Y-66032487D01*
X112698029Y-65838917D01*
X112649853Y-65678381D01*
X112613017Y-65542022D01*
X112586034Y-65419456D01*
X112567422Y-65300298D01*
X112555695Y-65174166D01*
X112549371Y-65030675D01*
X112546965Y-64859442D01*
X112546766Y-64780584D01*
X112547635Y-64605552D01*
X112550723Y-64464620D01*
X112556515Y-64349590D01*
X112565494Y-64252264D01*
X112578142Y-64164445D01*
X112585435Y-64124417D01*
X112659138Y-63823339D01*
X112763169Y-63516345D01*
X112892403Y-63215507D01*
X113041717Y-62932900D01*
X113187197Y-62706695D01*
X113295853Y-62566563D01*
X113429713Y-62413921D01*
X113579073Y-62258476D01*
X113734230Y-62109933D01*
X113885478Y-61977995D01*
X114017661Y-61876199D01*
X114342982Y-61671511D01*
X114683650Y-61504486D01*
X115036477Y-61375272D01*
X115398273Y-61284014D01*
X115765849Y-61230860D01*
X116136016Y-61215956D01*
X116505584Y-61239447D01*
G37*
X116505584Y-61239447D02*
X116871365Y-61301481D01*
X117230169Y-61402204D01*
X117578806Y-61541763D01*
X117878310Y-61698956D01*
X118169258Y-61891968D01*
X118446737Y-62118728D01*
X118704246Y-62372587D01*
X118935286Y-62646893D01*
X119133358Y-62934998D01*
X119202660Y-63053989D01*
X119319520Y-63292392D01*
X119424798Y-63559919D01*
X119514301Y-63844009D01*
X119583833Y-64132103D01*
X119609614Y-64272584D01*
X119623642Y-64395183D01*
X119632059Y-64547883D01*
X119635009Y-64718842D01*
X119632642Y-64896220D01*
X119625102Y-65068177D01*
X119612537Y-65222873D01*
X119596359Y-65341500D01*
X119507257Y-65728088D01*
X119381315Y-66096130D01*
X119219507Y-66443766D01*
X119022805Y-66769137D01*
X118792184Y-67070383D01*
X118565658Y-67310483D01*
X118385417Y-67476769D01*
X118215451Y-67616337D01*
X118043194Y-67738112D01*
X117856082Y-67851019D01*
X117655461Y-67957022D01*
X117312406Y-68106146D01*
X116955872Y-68215795D01*
X116584973Y-68286141D01*
X116198825Y-68317359D01*
X115837994Y-68312169D01*
X115469954Y-68270503D01*
X115111366Y-68189207D01*
X114764986Y-68070453D01*
X114433570Y-67916412D01*
X114119876Y-67729256D01*
X113826659Y-67511155D01*
X113556677Y-67264282D01*
X113312686Y-66990808D01*
X113097442Y-66692903D01*
X112913703Y-66372739D01*
X112764225Y-66032487D01*
X112698029Y-65838917D01*
X112649853Y-65678381D01*
X112613017Y-65542022D01*
X112586034Y-65419456D01*
X112567422Y-65300298D01*
X112555695Y-65174166D01*
X112549371Y-65030675D01*
X112546965Y-64859442D01*
X112546766Y-64780584D01*
X112547635Y-64605552D01*
X112550723Y-64464620D01*
X112556515Y-64349590D01*
X112565494Y-64252264D01*
X112578142Y-64164445D01*
X112585435Y-64124417D01*
X112659138Y-63823339D01*
X112763169Y-63516345D01*
X112892403Y-63215507D01*
X113041717Y-62932900D01*
X113187197Y-62706695D01*
X113295853Y-62566563D01*
X113429713Y-62413921D01*
X113579073Y-62258476D01*
X113734230Y-62109933D01*
X113885478Y-61977995D01*
X114017661Y-61876199D01*
X114342982Y-61671511D01*
X114683650Y-61504486D01*
X115036477Y-61375272D01*
X115398273Y-61284014D01*
X115765849Y-61230860D01*
X116136016Y-61215956D01*
X116505584Y-61239447D01*
X117522434Y-141690768D02*
X117659318Y-141694410D01*
X117659318Y-141694410D02*
X117770209Y-141701102D01*
X117770209Y-141701102D02*
X117863253Y-141711352D01*
X117863253Y-141711352D02*
X117946596Y-141725668D01*
X117946596Y-141725668D02*
X117954661Y-141727333D01*
X117954661Y-141727333D02*
X118314885Y-141823183D01*
X118314885Y-141823183D02*
X118657229Y-141955242D01*
X118657229Y-141955242D02*
X118979183Y-142121605D01*
X118979183Y-142121605D02*
X119278238Y-142320366D01*
X119278238Y-142320366D02*
X119551885Y-142549620D01*
X119551885Y-142549620D02*
X119797614Y-142807463D01*
X119797614Y-142807463D02*
X120012916Y-143091990D01*
X120012916Y-143091990D02*
X120195283Y-143401295D01*
X120195283Y-143401295D02*
X120217520Y-143445406D01*
X120217520Y-143445406D02*
X120336500Y-143706829D01*
X120336500Y-143706829D02*
X120426043Y-143954130D01*
X120426043Y-143954130D02*
X120489399Y-144200094D01*
X120489399Y-144200094D02*
X120529815Y-144457502D01*
X120529815Y-144457502D02*
X120550540Y-144739138D01*
X120550540Y-144739138D02*
X120551292Y-144758834D01*
X120551292Y-144758834D02*
X120548716Y-145103408D01*
X120548716Y-145103408D02*
X120513986Y-145426602D01*
X120513986Y-145426602D02*
X120445507Y-145736330D01*
X120445507Y-145736330D02*
X120341685Y-146040509D01*
X120341685Y-146040509D02*
X120251899Y-146244431D01*
X120251899Y-146244431D02*
X120152655Y-146440282D01*
X120152655Y-146440282D02*
X120052780Y-146610619D01*
X120052780Y-146610619D02*
X119942156Y-146771185D01*
X119942156Y-146771185D02*
X119810665Y-146937724D01*
X119810665Y-146937724D02*
X119791903Y-146960167D01*
X119791903Y-146960167D02*
X119552240Y-147213067D01*
X119552240Y-147213067D02*
X119282521Y-147439221D01*
X119282521Y-147439221D02*
X118987566Y-147635876D01*
X118987566Y-147635876D02*
X118672199Y-147800275D01*
X118672199Y-147800275D02*
X118341240Y-147929665D01*
X118341240Y-147929665D02*
X117999512Y-148021291D01*
X117999512Y-148021291D02*
X117901744Y-148039945D01*
X117901744Y-148039945D02*
X117812233Y-148052461D01*
X117812233Y-148052461D02*
X117699486Y-148063761D01*
X117699486Y-148063761D02*
X117573480Y-148073330D01*
X117573480Y-148073330D02*
X117444195Y-148080653D01*
X117444195Y-148080653D02*
X117321608Y-148085217D01*
X117321608Y-148085217D02*
X117215700Y-148086507D01*
X117215700Y-148086507D02*
X117136447Y-148084009D01*
X117136447Y-148084009D02*
X117107994Y-148080860D01*
X117107994Y-148080860D02*
X117062752Y-148073908D01*
X117062752Y-148073908D02*
X116989282Y-148063385D01*
X116989282Y-148063385D02*
X116901326Y-148051248D01*
X116901326Y-148051248D02*
X116875161Y-148047718D01*
X116875161Y-148047718D02*
X116536958Y-147981332D01*
X116536958Y-147981332D02*
X116208562Y-147875651D01*
X116208562Y-147875651D02*
X115893209Y-147733199D01*
X115893209Y-147733199D02*
X115594137Y-147556503D01*
X115594137Y-147556503D02*
X115314582Y-147348086D01*
X115314582Y-147348086D02*
X115057782Y-147110475D01*
X115057782Y-147110475D02*
X114826973Y-146846193D01*
X114826973Y-146846193D02*
X114625394Y-146557767D01*
X114625394Y-146557767D02*
X114456280Y-146247721D01*
X114456280Y-146247721D02*
X114396905Y-146114523D01*
X114396905Y-146114523D02*
X114276696Y-145773606D01*
X114276696Y-145773606D02*
X114196926Y-145426928D01*
X114196926Y-145426928D02*
X114156643Y-145077613D01*
X114156643Y-145077613D02*
X114154896Y-144728788D01*
X114154896Y-144728788D02*
X114190735Y-144383579D01*
X114190735Y-144383579D02*
X114263207Y-144045112D01*
X114263207Y-144045112D02*
X114371363Y-143716512D01*
X114371363Y-143716512D02*
X114514250Y-143400906D01*
X114514250Y-143400906D02*
X114690917Y-143101420D01*
X114690917Y-143101420D02*
X114900415Y-142821178D01*
X114900415Y-142821178D02*
X115141790Y-142563308D01*
X115141790Y-142563308D02*
X115414092Y-142330936D01*
X115414092Y-142330936D02*
X115585117Y-142209542D01*
X115585117Y-142209542D02*
X115900202Y-142026020D01*
X115900202Y-142026020D02*
X116236955Y-141878230D01*
X116236955Y-141878230D02*
X116596575Y-141765670D01*
X116596575Y-141765670D02*
X116708357Y-141738862D01*
X116708357Y-141738862D02*
X116792745Y-141721171D01*
X116792745Y-141721171D02*
X116870758Y-141708219D01*
X116870758Y-141708219D02*
X116951611Y-141699303D01*
X116951611Y-141699303D02*
X117044517Y-141693715D01*
X117044517Y-141693715D02*
X117158691Y-141690753D01*
X117158691Y-141690753D02*
X117303347Y-141689711D01*
X117303347Y-141689711D02*
X117351411Y-141689667D01*
X117351411Y-141689667D02*
X117522434Y-141690768D01*
X117522434Y-141690768D02*
X117522434Y-141690768D01*
G36*
X117522434Y-141690768D02*
G01*
X117659318Y-141694410D01*
X117770209Y-141701102D01*
X117863253Y-141711352D01*
X117946596Y-141725668D01*
X117954661Y-141727333D01*
X118314885Y-141823183D01*
X118657229Y-141955242D01*
X118979183Y-142121605D01*
X119278238Y-142320366D01*
X119551885Y-142549620D01*
X119797614Y-142807463D01*
X120012916Y-143091990D01*
X120195283Y-143401295D01*
X120217520Y-143445406D01*
X120336500Y-143706829D01*
X120426043Y-143954130D01*
X120489399Y-144200094D01*
X120529815Y-144457502D01*
X120550540Y-144739138D01*
X120551292Y-144758834D01*
X120548716Y-145103408D01*
X120513986Y-145426602D01*
X120445507Y-145736330D01*
X120341685Y-146040509D01*
X120251899Y-146244431D01*
X120152655Y-146440282D01*
X120052780Y-146610619D01*
X119942156Y-146771185D01*
X119810665Y-146937724D01*
X119791903Y-146960167D01*
X119552240Y-147213067D01*
X119282521Y-147439221D01*
X118987566Y-147635876D01*
X118672199Y-147800275D01*
X118341240Y-147929665D01*
X117999512Y-148021291D01*
X117901744Y-148039945D01*
X117812233Y-148052461D01*
X117699486Y-148063761D01*
X117573480Y-148073330D01*
X117444195Y-148080653D01*
X117321608Y-148085217D01*
X117215700Y-148086507D01*
X117136447Y-148084009D01*
X117107994Y-148080860D01*
X117062752Y-148073908D01*
X116989282Y-148063385D01*
X116901326Y-148051248D01*
X116875161Y-148047718D01*
X116536958Y-147981332D01*
X116208562Y-147875651D01*
X115893209Y-147733199D01*
X115594137Y-147556503D01*
X115314582Y-147348086D01*
X115057782Y-147110475D01*
X114826973Y-146846193D01*
X114625394Y-146557767D01*
X114456280Y-146247721D01*
X114396905Y-146114523D01*
X114276696Y-145773606D01*
X114196926Y-145426928D01*
X114156643Y-145077613D01*
X114154896Y-144728788D01*
X114190735Y-144383579D01*
X114263207Y-144045112D01*
X114371363Y-143716512D01*
X114514250Y-143400906D01*
X114690917Y-143101420D01*
X114900415Y-142821178D01*
X115141790Y-142563308D01*
X115414092Y-142330936D01*
X115585117Y-142209542D01*
X115900202Y-142026020D01*
X116236955Y-141878230D01*
X116596575Y-141765670D01*
X116708357Y-141738862D01*
X116792745Y-141721171D01*
X116870758Y-141708219D01*
X116951611Y-141699303D01*
X117044517Y-141693715D01*
X117158691Y-141690753D01*
X117303347Y-141689711D01*
X117351411Y-141689667D01*
X117522434Y-141690768D01*
G37*
X117522434Y-141690768D02*
X117659318Y-141694410D01*
X117770209Y-141701102D01*
X117863253Y-141711352D01*
X117946596Y-141725668D01*
X117954661Y-141727333D01*
X118314885Y-141823183D01*
X118657229Y-141955242D01*
X118979183Y-142121605D01*
X119278238Y-142320366D01*
X119551885Y-142549620D01*
X119797614Y-142807463D01*
X120012916Y-143091990D01*
X120195283Y-143401295D01*
X120217520Y-143445406D01*
X120336500Y-143706829D01*
X120426043Y-143954130D01*
X120489399Y-144200094D01*
X120529815Y-144457502D01*
X120550540Y-144739138D01*
X120551292Y-144758834D01*
X120548716Y-145103408D01*
X120513986Y-145426602D01*
X120445507Y-145736330D01*
X120341685Y-146040509D01*
X120251899Y-146244431D01*
X120152655Y-146440282D01*
X120052780Y-146610619D01*
X119942156Y-146771185D01*
X119810665Y-146937724D01*
X119791903Y-146960167D01*
X119552240Y-147213067D01*
X119282521Y-147439221D01*
X118987566Y-147635876D01*
X118672199Y-147800275D01*
X118341240Y-147929665D01*
X117999512Y-148021291D01*
X117901744Y-148039945D01*
X117812233Y-148052461D01*
X117699486Y-148063761D01*
X117573480Y-148073330D01*
X117444195Y-148080653D01*
X117321608Y-148085217D01*
X117215700Y-148086507D01*
X117136447Y-148084009D01*
X117107994Y-148080860D01*
X117062752Y-148073908D01*
X116989282Y-148063385D01*
X116901326Y-148051248D01*
X116875161Y-148047718D01*
X116536958Y-147981332D01*
X116208562Y-147875651D01*
X115893209Y-147733199D01*
X115594137Y-147556503D01*
X115314582Y-147348086D01*
X115057782Y-147110475D01*
X114826973Y-146846193D01*
X114625394Y-146557767D01*
X114456280Y-146247721D01*
X114396905Y-146114523D01*
X114276696Y-145773606D01*
X114196926Y-145426928D01*
X114156643Y-145077613D01*
X114154896Y-144728788D01*
X114190735Y-144383579D01*
X114263207Y-144045112D01*
X114371363Y-143716512D01*
X114514250Y-143400906D01*
X114690917Y-143101420D01*
X114900415Y-142821178D01*
X115141790Y-142563308D01*
X115414092Y-142330936D01*
X115585117Y-142209542D01*
X115900202Y-142026020D01*
X116236955Y-141878230D01*
X116596575Y-141765670D01*
X116708357Y-141738862D01*
X116792745Y-141721171D01*
X116870758Y-141708219D01*
X116951611Y-141699303D01*
X117044517Y-141693715D01*
X117158691Y-141690753D01*
X117303347Y-141689711D01*
X117351411Y-141689667D01*
X117522434Y-141690768D01*
X133203673Y-129214662D02*
X133299711Y-129218113D01*
X133299711Y-129218113D02*
X133468799Y-129229850D01*
X133468799Y-129229850D02*
X133609970Y-129251183D01*
X133609970Y-129251183D02*
X133737210Y-129285679D01*
X133737210Y-129285679D02*
X133864503Y-129336903D01*
X133864503Y-129336903D02*
X133969005Y-129388751D01*
X133969005Y-129388751D02*
X134193372Y-129529367D01*
X134193372Y-129529367D02*
X134386520Y-129697517D01*
X134386520Y-129697517D02*
X134546840Y-129890542D01*
X134546840Y-129890542D02*
X134672725Y-130105781D01*
X134672725Y-130105781D02*
X134762566Y-130340574D01*
X134762566Y-130340574D02*
X134814755Y-130592262D01*
X134814755Y-130592262D02*
X134828326Y-130810000D01*
X134828326Y-130810000D02*
X134808208Y-131069012D01*
X134808208Y-131069012D02*
X134749574Y-131315145D01*
X134749574Y-131315145D02*
X134654999Y-131545068D01*
X134654999Y-131545068D02*
X134527063Y-131755449D01*
X134527063Y-131755449D02*
X134368341Y-131942959D01*
X134368341Y-131942959D02*
X134181412Y-132104265D01*
X134181412Y-132104265D02*
X133968852Y-132236038D01*
X133968852Y-132236038D02*
X133733239Y-132334945D01*
X133733239Y-132334945D02*
X133623604Y-132367022D01*
X133623604Y-132367022D02*
X133478530Y-132393123D01*
X133478530Y-132393123D02*
X133310157Y-132405915D01*
X133310157Y-132405915D02*
X133134390Y-132405438D01*
X133134390Y-132405438D02*
X132967133Y-132391733D01*
X132967133Y-132391733D02*
X132824900Y-132365003D01*
X132824900Y-132365003D02*
X132582702Y-132279197D01*
X132582702Y-132279197D02*
X132359627Y-132157393D01*
X132359627Y-132157393D02*
X132159106Y-132002911D01*
X132159106Y-132002911D02*
X131984569Y-131819073D01*
X131984569Y-131819073D02*
X131839449Y-131609197D01*
X131839449Y-131609197D02*
X131727176Y-131376604D01*
X131727176Y-131376604D02*
X131688182Y-131265084D01*
X131688182Y-131265084D02*
X131667263Y-131191105D01*
X131667263Y-131191105D02*
X131653103Y-131120828D01*
X131653103Y-131120828D02*
X131644476Y-131042925D01*
X131644476Y-131042925D02*
X131640155Y-130946069D01*
X131640155Y-130946069D02*
X131638914Y-130818932D01*
X131638914Y-130818932D02*
X131638911Y-130810000D01*
X131638911Y-130810000D02*
X131640005Y-130680663D01*
X131640005Y-130680663D02*
X131644104Y-130582293D01*
X131644104Y-130582293D02*
X131652435Y-130503564D01*
X131652435Y-130503564D02*
X131666225Y-130433148D01*
X131666225Y-130433148D02*
X131686699Y-130359716D01*
X131686699Y-130359716D02*
X131688182Y-130354917D01*
X131688182Y-130354917D02*
X131785543Y-130110009D01*
X131785543Y-130110009D02*
X131917033Y-129888395D01*
X131917033Y-129888395D02*
X132079809Y-129692765D01*
X132079809Y-129692765D02*
X132271030Y-129525804D01*
X132271030Y-129525804D02*
X132487852Y-129390202D01*
X132487852Y-129390202D02*
X132727433Y-129288646D01*
X132727433Y-129288646D02*
X132855211Y-129251389D01*
X132855211Y-129251389D02*
X132942236Y-129231595D01*
X132942236Y-129231595D02*
X133020225Y-129219556D01*
X133020225Y-129219556D02*
X133102822Y-129214252D01*
X133102822Y-129214252D02*
X133203673Y-129214662D01*
X133203673Y-129214662D02*
X133203673Y-129214662D01*
G36*
X133203673Y-129214662D02*
G01*
X133299711Y-129218113D01*
X133468799Y-129229850D01*
X133609970Y-129251183D01*
X133737210Y-129285679D01*
X133864503Y-129336903D01*
X133969005Y-129388751D01*
X134193372Y-129529367D01*
X134386520Y-129697517D01*
X134546840Y-129890542D01*
X134672725Y-130105781D01*
X134762566Y-130340574D01*
X134814755Y-130592262D01*
X134828326Y-130810000D01*
X134808208Y-131069012D01*
X134749574Y-131315145D01*
X134654999Y-131545068D01*
X134527063Y-131755449D01*
X134368341Y-131942959D01*
X134181412Y-132104265D01*
X133968852Y-132236038D01*
X133733239Y-132334945D01*
X133623604Y-132367022D01*
X133478530Y-132393123D01*
X133310157Y-132405915D01*
X133134390Y-132405438D01*
X132967133Y-132391733D01*
X132824900Y-132365003D01*
X132582702Y-132279197D01*
X132359627Y-132157393D01*
X132159106Y-132002911D01*
X131984569Y-131819073D01*
X131839449Y-131609197D01*
X131727176Y-131376604D01*
X131688182Y-131265084D01*
X131667263Y-131191105D01*
X131653103Y-131120828D01*
X131644476Y-131042925D01*
X131640155Y-130946069D01*
X131638914Y-130818932D01*
X131638911Y-130810000D01*
X131640005Y-130680663D01*
X131644104Y-130582293D01*
X131652435Y-130503564D01*
X131666225Y-130433148D01*
X131686699Y-130359716D01*
X131688182Y-130354917D01*
X131785543Y-130110009D01*
X131917033Y-129888395D01*
X132079809Y-129692765D01*
X132271030Y-129525804D01*
X132487852Y-129390202D01*
X132727433Y-129288646D01*
X132855211Y-129251389D01*
X132942236Y-129231595D01*
X133020225Y-129219556D01*
X133102822Y-129214252D01*
X133203673Y-129214662D01*
G37*
X133203673Y-129214662D02*
X133299711Y-129218113D01*
X133468799Y-129229850D01*
X133609970Y-129251183D01*
X133737210Y-129285679D01*
X133864503Y-129336903D01*
X133969005Y-129388751D01*
X134193372Y-129529367D01*
X134386520Y-129697517D01*
X134546840Y-129890542D01*
X134672725Y-130105781D01*
X134762566Y-130340574D01*
X134814755Y-130592262D01*
X134828326Y-130810000D01*
X134808208Y-131069012D01*
X134749574Y-131315145D01*
X134654999Y-131545068D01*
X134527063Y-131755449D01*
X134368341Y-131942959D01*
X134181412Y-132104265D01*
X133968852Y-132236038D01*
X133733239Y-132334945D01*
X133623604Y-132367022D01*
X133478530Y-132393123D01*
X133310157Y-132405915D01*
X133134390Y-132405438D01*
X132967133Y-132391733D01*
X132824900Y-132365003D01*
X132582702Y-132279197D01*
X132359627Y-132157393D01*
X132159106Y-132002911D01*
X131984569Y-131819073D01*
X131839449Y-131609197D01*
X131727176Y-131376604D01*
X131688182Y-131265084D01*
X131667263Y-131191105D01*
X131653103Y-131120828D01*
X131644476Y-131042925D01*
X131640155Y-130946069D01*
X131638914Y-130818932D01*
X131638911Y-130810000D01*
X131640005Y-130680663D01*
X131644104Y-130582293D01*
X131652435Y-130503564D01*
X131666225Y-130433148D01*
X131686699Y-130359716D01*
X131688182Y-130354917D01*
X131785543Y-130110009D01*
X131917033Y-129888395D01*
X132079809Y-129692765D01*
X132271030Y-129525804D01*
X132487852Y-129390202D01*
X132727433Y-129288646D01*
X132855211Y-129251389D01*
X132942236Y-129231595D01*
X133020225Y-129219556D01*
X133102822Y-129214252D01*
X133203673Y-129214662D01*
X116603384Y-118404884D02*
X116977407Y-118478871D01*
X116977407Y-118478871D02*
X117338083Y-118592156D01*
X117338083Y-118592156D02*
X117683568Y-118744029D01*
X117683568Y-118744029D02*
X118012021Y-118933782D01*
X118012021Y-118933782D02*
X118321598Y-119160705D01*
X118321598Y-119160705D02*
X118610457Y-119424086D01*
X118610457Y-119424086D02*
X118653161Y-119468027D01*
X118653161Y-119468027D02*
X118907995Y-119763306D01*
X118907995Y-119763306D02*
X119124693Y-120076711D01*
X119124693Y-120076711D02*
X119303934Y-120409504D01*
X119303934Y-120409504D02*
X119446393Y-120762944D01*
X119446393Y-120762944D02*
X119552748Y-121138294D01*
X119552748Y-121138294D02*
X119554594Y-121146397D01*
X119554594Y-121146397D02*
X119618663Y-121522647D01*
X119618663Y-121522647D02*
X119641457Y-121899481D01*
X119641457Y-121899481D02*
X119623881Y-122273887D01*
X119623881Y-122273887D02*
X119566840Y-122642853D01*
X119566840Y-122642853D02*
X119471238Y-123003367D01*
X119471238Y-123003367D02*
X119337981Y-123352416D01*
X119337981Y-123352416D02*
X119167974Y-123686989D01*
X119167974Y-123686989D02*
X118962122Y-124004073D01*
X118962122Y-124004073D02*
X118721330Y-124300657D01*
X118721330Y-124300657D02*
X118555195Y-124472625D01*
X118555195Y-124472625D02*
X118285218Y-124708330D01*
X118285218Y-124708330D02*
X117991912Y-124916640D01*
X117991912Y-124916640D02*
X117680624Y-125095059D01*
X117680624Y-125095059D02*
X117356696Y-125241096D01*
X117356696Y-125241096D02*
X117025476Y-125352256D01*
X117025476Y-125352256D02*
X116692307Y-125426046D01*
X116692307Y-125426046D02*
X116449459Y-125454992D01*
X116449459Y-125454992D02*
X116298747Y-125465501D01*
X116298747Y-125465501D02*
X116178484Y-125471985D01*
X116178484Y-125471985D02*
X116076994Y-125474610D01*
X116076994Y-125474610D02*
X115982601Y-125473542D01*
X115982601Y-125473542D02*
X115883628Y-125468945D01*
X115883628Y-125468945D02*
X115810074Y-125464055D01*
X115810074Y-125464055D02*
X115437397Y-125416578D01*
X115437397Y-125416578D02*
X115075331Y-125329605D01*
X115075331Y-125329605D02*
X114726559Y-125205228D01*
X114726559Y-125205228D02*
X114393768Y-125045536D01*
X114393768Y-125045536D02*
X114079643Y-124852619D01*
X114079643Y-124852619D02*
X113786870Y-124628566D01*
X113786870Y-124628566D02*
X113518133Y-124375469D01*
X113518133Y-124375469D02*
X113276119Y-124095416D01*
X113276119Y-124095416D02*
X113063513Y-123790499D01*
X113063513Y-123790499D02*
X112883001Y-123462806D01*
X112883001Y-123462806D02*
X112737267Y-123114428D01*
X112737267Y-123114428D02*
X112717443Y-123057165D01*
X112717443Y-123057165D02*
X112662239Y-122885217D01*
X112662239Y-122885217D02*
X112619920Y-122731963D01*
X112619920Y-122731963D02*
X112588920Y-122586967D01*
X112588920Y-122586967D02*
X112567671Y-122439794D01*
X112567671Y-122439794D02*
X112554607Y-122280007D01*
X112554607Y-122280007D02*
X112548161Y-122097170D01*
X112548161Y-122097170D02*
X112546713Y-121920000D01*
X112546713Y-121920000D02*
X112548848Y-121710037D01*
X112548848Y-121710037D02*
X112556298Y-121531804D01*
X112556298Y-121531804D02*
X112570628Y-121374867D01*
X112570628Y-121374867D02*
X112593407Y-121228789D01*
X112593407Y-121228789D02*
X112626201Y-121083135D01*
X112626201Y-121083135D02*
X112670576Y-120927468D01*
X112670576Y-120927468D02*
X112717443Y-120782836D01*
X112717443Y-120782836D02*
X112857855Y-120430004D01*
X112857855Y-120430004D02*
X113033363Y-120098001D01*
X113033363Y-120098001D02*
X113241346Y-119788860D01*
X113241346Y-119788860D02*
X113479178Y-119504613D01*
X113479178Y-119504613D02*
X113744238Y-119247290D01*
X113744238Y-119247290D02*
X114033903Y-119018924D01*
X114033903Y-119018924D02*
X114345548Y-118821546D01*
X114345548Y-118821546D02*
X114676552Y-118657188D01*
X114676552Y-118657188D02*
X115024291Y-118527883D01*
X115024291Y-118527883D02*
X115386142Y-118435660D01*
X115386142Y-118435660D02*
X115759482Y-118382553D01*
X115759482Y-118382553D02*
X115822662Y-118377646D01*
X115822662Y-118377646D02*
X116217854Y-118370906D01*
X116217854Y-118370906D02*
X116603384Y-118404884D01*
X116603384Y-118404884D02*
X116603384Y-118404884D01*
G36*
X116603384Y-118404884D02*
G01*
X116977407Y-118478871D01*
X117338083Y-118592156D01*
X117683568Y-118744029D01*
X118012021Y-118933782D01*
X118321598Y-119160705D01*
X118610457Y-119424086D01*
X118653161Y-119468027D01*
X118907995Y-119763306D01*
X119124693Y-120076711D01*
X119303934Y-120409504D01*
X119446393Y-120762944D01*
X119552748Y-121138294D01*
X119554594Y-121146397D01*
X119618663Y-121522647D01*
X119641457Y-121899481D01*
X119623881Y-122273887D01*
X119566840Y-122642853D01*
X119471238Y-123003367D01*
X119337981Y-123352416D01*
X119167974Y-123686989D01*
X118962122Y-124004073D01*
X118721330Y-124300657D01*
X118555195Y-124472625D01*
X118285218Y-124708330D01*
X117991912Y-124916640D01*
X117680624Y-125095059D01*
X117356696Y-125241096D01*
X117025476Y-125352256D01*
X116692307Y-125426046D01*
X116449459Y-125454992D01*
X116298747Y-125465501D01*
X116178484Y-125471985D01*
X116076994Y-125474610D01*
X115982601Y-125473542D01*
X115883628Y-125468945D01*
X115810074Y-125464055D01*
X115437397Y-125416578D01*
X115075331Y-125329605D01*
X114726559Y-125205228D01*
X114393768Y-125045536D01*
X114079643Y-124852619D01*
X113786870Y-124628566D01*
X113518133Y-124375469D01*
X113276119Y-124095416D01*
X113063513Y-123790499D01*
X112883001Y-123462806D01*
X112737267Y-123114428D01*
X112717443Y-123057165D01*
X112662239Y-122885217D01*
X112619920Y-122731963D01*
X112588920Y-122586967D01*
X112567671Y-122439794D01*
X112554607Y-122280007D01*
X112548161Y-122097170D01*
X112546713Y-121920000D01*
X112548848Y-121710037D01*
X112556298Y-121531804D01*
X112570628Y-121374867D01*
X112593407Y-121228789D01*
X112626201Y-121083135D01*
X112670576Y-120927468D01*
X112717443Y-120782836D01*
X112857855Y-120430004D01*
X113033363Y-120098001D01*
X113241346Y-119788860D01*
X113479178Y-119504613D01*
X113744238Y-119247290D01*
X114033903Y-119018924D01*
X114345548Y-118821546D01*
X114676552Y-118657188D01*
X115024291Y-118527883D01*
X115386142Y-118435660D01*
X115759482Y-118382553D01*
X115822662Y-118377646D01*
X116217854Y-118370906D01*
X116603384Y-118404884D01*
G37*
X116603384Y-118404884D02*
X116977407Y-118478871D01*
X117338083Y-118592156D01*
X117683568Y-118744029D01*
X118012021Y-118933782D01*
X118321598Y-119160705D01*
X118610457Y-119424086D01*
X118653161Y-119468027D01*
X118907995Y-119763306D01*
X119124693Y-120076711D01*
X119303934Y-120409504D01*
X119446393Y-120762944D01*
X119552748Y-121138294D01*
X119554594Y-121146397D01*
X119618663Y-121522647D01*
X119641457Y-121899481D01*
X119623881Y-122273887D01*
X119566840Y-122642853D01*
X119471238Y-123003367D01*
X119337981Y-123352416D01*
X119167974Y-123686989D01*
X118962122Y-124004073D01*
X118721330Y-124300657D01*
X118555195Y-124472625D01*
X118285218Y-124708330D01*
X117991912Y-124916640D01*
X117680624Y-125095059D01*
X117356696Y-125241096D01*
X117025476Y-125352256D01*
X116692307Y-125426046D01*
X116449459Y-125454992D01*
X116298747Y-125465501D01*
X116178484Y-125471985D01*
X116076994Y-125474610D01*
X115982601Y-125473542D01*
X115883628Y-125468945D01*
X115810074Y-125464055D01*
X115437397Y-125416578D01*
X115075331Y-125329605D01*
X114726559Y-125205228D01*
X114393768Y-125045536D01*
X114079643Y-124852619D01*
X113786870Y-124628566D01*
X113518133Y-124375469D01*
X113276119Y-124095416D01*
X113063513Y-123790499D01*
X112883001Y-123462806D01*
X112737267Y-123114428D01*
X112717443Y-123057165D01*
X112662239Y-122885217D01*
X112619920Y-122731963D01*
X112588920Y-122586967D01*
X112567671Y-122439794D01*
X112554607Y-122280007D01*
X112548161Y-122097170D01*
X112546713Y-121920000D01*
X112548848Y-121710037D01*
X112556298Y-121531804D01*
X112570628Y-121374867D01*
X112593407Y-121228789D01*
X112626201Y-121083135D01*
X112670576Y-120927468D01*
X112717443Y-120782836D01*
X112857855Y-120430004D01*
X113033363Y-120098001D01*
X113241346Y-119788860D01*
X113479178Y-119504613D01*
X113744238Y-119247290D01*
X114033903Y-119018924D01*
X114345548Y-118821546D01*
X114676552Y-118657188D01*
X115024291Y-118527883D01*
X115386142Y-118435660D01*
X115759482Y-118382553D01*
X115822662Y-118377646D01*
X116217854Y-118370906D01*
X116603384Y-118404884D01*
X128347717Y-129221542D02*
X128526667Y-129250748D01*
X128526667Y-129250748D02*
X128696010Y-129303184D01*
X128696010Y-129303184D02*
X128844911Y-129369253D01*
X128844911Y-129369253D02*
X129077168Y-129506447D01*
X129077168Y-129506447D02*
X129277218Y-129669982D01*
X129277218Y-129669982D02*
X129443768Y-129857800D01*
X129443768Y-129857800D02*
X129575529Y-130067845D01*
X129575529Y-130067845D02*
X129671209Y-130298061D01*
X129671209Y-130298061D02*
X129729518Y-130546390D01*
X129729518Y-130546390D02*
X129749166Y-130810000D01*
X129749166Y-130810000D02*
X129729013Y-131068580D01*
X129729013Y-131068580D02*
X129670294Y-131314465D01*
X129670294Y-131314465D02*
X129575615Y-131544288D01*
X129575615Y-131544288D02*
X129447581Y-131754684D01*
X129447581Y-131754684D02*
X129288799Y-131942287D01*
X129288799Y-131942287D02*
X129101875Y-132103729D01*
X129101875Y-132103729D02*
X128889416Y-132235647D01*
X128889416Y-132235647D02*
X128654027Y-132334672D01*
X128654027Y-132334672D02*
X128543604Y-132367022D01*
X128543604Y-132367022D02*
X128398718Y-132393279D01*
X128398718Y-132393279D02*
X128231261Y-132406383D01*
X128231261Y-132406383D02*
X128056822Y-132406355D01*
X128056822Y-132406355D02*
X127890991Y-132393214D01*
X127890991Y-132393214D02*
X127749359Y-132366983D01*
X127749359Y-132366983D02*
X127745575Y-132365974D01*
X127745575Y-132365974D02*
X127500556Y-132278676D01*
X127500556Y-132278676D02*
X127276004Y-132155762D01*
X127276004Y-132155762D02*
X127074999Y-132000217D01*
X127074999Y-132000217D02*
X126900626Y-131815025D01*
X126900626Y-131815025D02*
X126755964Y-131603168D01*
X126755964Y-131603168D02*
X126644097Y-131367633D01*
X126644097Y-131367633D02*
X126608480Y-131265084D01*
X126608480Y-131265084D02*
X126587480Y-131191400D01*
X126587480Y-131191400D02*
X126573255Y-131121652D01*
X126573255Y-131121652D02*
X126564574Y-131044529D01*
X126564574Y-131044529D02*
X126560206Y-130948725D01*
X126560206Y-130948725D02*
X126558918Y-130822931D01*
X126558918Y-130822931D02*
X126558911Y-130810000D01*
X126558911Y-130810000D02*
X126559986Y-130681013D01*
X126559986Y-130681013D02*
X126564033Y-130583015D01*
X126564033Y-130583015D02*
X126572283Y-130504699D01*
X126572283Y-130504699D02*
X126585969Y-130434754D01*
X126585969Y-130434754D02*
X126606321Y-130361874D01*
X126606321Y-130361874D02*
X126608480Y-130354917D01*
X126608480Y-130354917D02*
X126705636Y-130110390D01*
X126705636Y-130110390D02*
X126835170Y-129890179D01*
X126835170Y-129890179D02*
X126993891Y-129696658D01*
X126993891Y-129696658D02*
X127178607Y-129532202D01*
X127178607Y-129532202D02*
X127386125Y-129399185D01*
X127386125Y-129399185D02*
X127613254Y-129299982D01*
X127613254Y-129299982D02*
X127856802Y-129236967D01*
X127856802Y-129236967D02*
X128113576Y-129212516D01*
X128113576Y-129212516D02*
X128144505Y-129212284D01*
X128144505Y-129212284D02*
X128347717Y-129221542D01*
X128347717Y-129221542D02*
X128347717Y-129221542D01*
G36*
X128347717Y-129221542D02*
G01*
X128526667Y-129250748D01*
X128696010Y-129303184D01*
X128844911Y-129369253D01*
X129077168Y-129506447D01*
X129277218Y-129669982D01*
X129443768Y-129857800D01*
X129575529Y-130067845D01*
X129671209Y-130298061D01*
X129729518Y-130546390D01*
X129749166Y-130810000D01*
X129729013Y-131068580D01*
X129670294Y-131314465D01*
X129575615Y-131544288D01*
X129447581Y-131754684D01*
X129288799Y-131942287D01*
X129101875Y-132103729D01*
X128889416Y-132235647D01*
X128654027Y-132334672D01*
X128543604Y-132367022D01*
X128398718Y-132393279D01*
X128231261Y-132406383D01*
X128056822Y-132406355D01*
X127890991Y-132393214D01*
X127749359Y-132366983D01*
X127745575Y-132365974D01*
X127500556Y-132278676D01*
X127276004Y-132155762D01*
X127074999Y-132000217D01*
X126900626Y-131815025D01*
X126755964Y-131603168D01*
X126644097Y-131367633D01*
X126608480Y-131265084D01*
X126587480Y-131191400D01*
X126573255Y-131121652D01*
X126564574Y-131044529D01*
X126560206Y-130948725D01*
X126558918Y-130822931D01*
X126558911Y-130810000D01*
X126559986Y-130681013D01*
X126564033Y-130583015D01*
X126572283Y-130504699D01*
X126585969Y-130434754D01*
X126606321Y-130361874D01*
X126608480Y-130354917D01*
X126705636Y-130110390D01*
X126835170Y-129890179D01*
X126993891Y-129696658D01*
X127178607Y-129532202D01*
X127386125Y-129399185D01*
X127613254Y-129299982D01*
X127856802Y-129236967D01*
X128113576Y-129212516D01*
X128144505Y-129212284D01*
X128347717Y-129221542D01*
G37*
X128347717Y-129221542D02*
X128526667Y-129250748D01*
X128696010Y-129303184D01*
X128844911Y-129369253D01*
X129077168Y-129506447D01*
X129277218Y-129669982D01*
X129443768Y-129857800D01*
X129575529Y-130067845D01*
X129671209Y-130298061D01*
X129729518Y-130546390D01*
X129749166Y-130810000D01*
X129729013Y-131068580D01*
X129670294Y-131314465D01*
X129575615Y-131544288D01*
X129447581Y-131754684D01*
X129288799Y-131942287D01*
X129101875Y-132103729D01*
X128889416Y-132235647D01*
X128654027Y-132334672D01*
X128543604Y-132367022D01*
X128398718Y-132393279D01*
X128231261Y-132406383D01*
X128056822Y-132406355D01*
X127890991Y-132393214D01*
X127749359Y-132366983D01*
X127745575Y-132365974D01*
X127500556Y-132278676D01*
X127276004Y-132155762D01*
X127074999Y-132000217D01*
X126900626Y-131815025D01*
X126755964Y-131603168D01*
X126644097Y-131367633D01*
X126608480Y-131265084D01*
X126587480Y-131191400D01*
X126573255Y-131121652D01*
X126564574Y-131044529D01*
X126560206Y-130948725D01*
X126558918Y-130822931D01*
X126558911Y-130810000D01*
X126559986Y-130681013D01*
X126564033Y-130583015D01*
X126572283Y-130504699D01*
X126585969Y-130434754D01*
X126606321Y-130361874D01*
X126608480Y-130354917D01*
X126705636Y-130110390D01*
X126835170Y-129890179D01*
X126993891Y-129696658D01*
X127178607Y-129532202D01*
X127386125Y-129399185D01*
X127613254Y-129299982D01*
X127856802Y-129236967D01*
X128113576Y-129212516D01*
X128144505Y-129212284D01*
X128347717Y-129221542D01*
X133496029Y-122881606D02*
X133734240Y-122938480D01*
X133734240Y-122938480D02*
X133955370Y-123029243D01*
X133955370Y-123029243D02*
X134157076Y-123150604D01*
X134157076Y-123150604D02*
X134337019Y-123299268D01*
X134337019Y-123299268D02*
X134492855Y-123471942D01*
X134492855Y-123471942D02*
X134622244Y-123665333D01*
X134622244Y-123665333D02*
X134722845Y-123876148D01*
X134722845Y-123876148D02*
X134792315Y-124101094D01*
X134792315Y-124101094D02*
X134828314Y-124336876D01*
X134828314Y-124336876D02*
X134828501Y-124580202D01*
X134828501Y-124580202D02*
X134790533Y-124827778D01*
X134790533Y-124827778D02*
X134747935Y-124978584D01*
X134747935Y-124978584D02*
X134659274Y-125191100D01*
X134659274Y-125191100D02*
X134539340Y-125385429D01*
X134539340Y-125385429D02*
X134383095Y-125569461D01*
X134383095Y-125569461D02*
X134348258Y-125604533D01*
X134348258Y-125604533D02*
X134153335Y-125768251D01*
X134153335Y-125768251D02*
X133936490Y-125899374D01*
X133936490Y-125899374D02*
X133704779Y-125993879D01*
X133704779Y-125993879D02*
X133625692Y-126016488D01*
X133625692Y-126016488D02*
X133464668Y-126045173D01*
X133464668Y-126045173D02*
X133281729Y-126057401D01*
X133281729Y-126057401D02*
X133093949Y-126053210D01*
X133093949Y-126053210D02*
X132918403Y-126032638D01*
X132918403Y-126032638D02*
X132834828Y-126014762D01*
X132834828Y-126014762D02*
X132588673Y-125930053D01*
X132588673Y-125930053D02*
X132363363Y-125809773D01*
X132363363Y-125809773D02*
X132161774Y-125656681D01*
X132161774Y-125656681D02*
X131986782Y-125473535D01*
X131986782Y-125473535D02*
X131841263Y-125263096D01*
X131841263Y-125263096D02*
X131728095Y-125028123D01*
X131728095Y-125028123D02*
X131688480Y-124915084D01*
X131688480Y-124915084D02*
X131667480Y-124841400D01*
X131667480Y-124841400D02*
X131653255Y-124771652D01*
X131653255Y-124771652D02*
X131644574Y-124694529D01*
X131644574Y-124694529D02*
X131640206Y-124598725D01*
X131640206Y-124598725D02*
X131638918Y-124472931D01*
X131638918Y-124472931D02*
X131638911Y-124460000D01*
X131638911Y-124460000D02*
X131639986Y-124331013D01*
X131639986Y-124331013D02*
X131644033Y-124233015D01*
X131644033Y-124233015D02*
X131652283Y-124154699D01*
X131652283Y-124154699D02*
X131665969Y-124084754D01*
X131665969Y-124084754D02*
X131686321Y-124011874D01*
X131686321Y-124011874D02*
X131688480Y-124004917D01*
X131688480Y-124004917D02*
X131786847Y-123756780D01*
X131786847Y-123756780D02*
X131918429Y-123533834D01*
X131918429Y-123533834D02*
X132081602Y-123337960D01*
X132081602Y-123337960D02*
X132274742Y-123171037D01*
X132274742Y-123171037D02*
X132496225Y-123034944D01*
X132496225Y-123034944D02*
X132549078Y-123009100D01*
X132549078Y-123009100D02*
X132743283Y-122932234D01*
X132743283Y-122932234D02*
X132939631Y-122884752D01*
X132939631Y-122884752D02*
X133152300Y-122863647D01*
X133152300Y-122863647D02*
X133243078Y-122861917D01*
X133243078Y-122861917D02*
X133496029Y-122881606D01*
X133496029Y-122881606D02*
X133496029Y-122881606D01*
G36*
X133496029Y-122881606D02*
G01*
X133734240Y-122938480D01*
X133955370Y-123029243D01*
X134157076Y-123150604D01*
X134337019Y-123299268D01*
X134492855Y-123471942D01*
X134622244Y-123665333D01*
X134722845Y-123876148D01*
X134792315Y-124101094D01*
X134828314Y-124336876D01*
X134828501Y-124580202D01*
X134790533Y-124827778D01*
X134747935Y-124978584D01*
X134659274Y-125191100D01*
X134539340Y-125385429D01*
X134383095Y-125569461D01*
X134348258Y-125604533D01*
X134153335Y-125768251D01*
X133936490Y-125899374D01*
X133704779Y-125993879D01*
X133625692Y-126016488D01*
X133464668Y-126045173D01*
X133281729Y-126057401D01*
X133093949Y-126053210D01*
X132918403Y-126032638D01*
X132834828Y-126014762D01*
X132588673Y-125930053D01*
X132363363Y-125809773D01*
X132161774Y-125656681D01*
X131986782Y-125473535D01*
X131841263Y-125263096D01*
X131728095Y-125028123D01*
X131688480Y-124915084D01*
X131667480Y-124841400D01*
X131653255Y-124771652D01*
X131644574Y-124694529D01*
X131640206Y-124598725D01*
X131638918Y-124472931D01*
X131638911Y-124460000D01*
X131639986Y-124331013D01*
X131644033Y-124233015D01*
X131652283Y-124154699D01*
X131665969Y-124084754D01*
X131686321Y-124011874D01*
X131688480Y-124004917D01*
X131786847Y-123756780D01*
X131918429Y-123533834D01*
X132081602Y-123337960D01*
X132274742Y-123171037D01*
X132496225Y-123034944D01*
X132549078Y-123009100D01*
X132743283Y-122932234D01*
X132939631Y-122884752D01*
X133152300Y-122863647D01*
X133243078Y-122861917D01*
X133496029Y-122881606D01*
G37*
X133496029Y-122881606D02*
X133734240Y-122938480D01*
X133955370Y-123029243D01*
X134157076Y-123150604D01*
X134337019Y-123299268D01*
X134492855Y-123471942D01*
X134622244Y-123665333D01*
X134722845Y-123876148D01*
X134792315Y-124101094D01*
X134828314Y-124336876D01*
X134828501Y-124580202D01*
X134790533Y-124827778D01*
X134747935Y-124978584D01*
X134659274Y-125191100D01*
X134539340Y-125385429D01*
X134383095Y-125569461D01*
X134348258Y-125604533D01*
X134153335Y-125768251D01*
X133936490Y-125899374D01*
X133704779Y-125993879D01*
X133625692Y-126016488D01*
X133464668Y-126045173D01*
X133281729Y-126057401D01*
X133093949Y-126053210D01*
X132918403Y-126032638D01*
X132834828Y-126014762D01*
X132588673Y-125930053D01*
X132363363Y-125809773D01*
X132161774Y-125656681D01*
X131986782Y-125473535D01*
X131841263Y-125263096D01*
X131728095Y-125028123D01*
X131688480Y-124915084D01*
X131667480Y-124841400D01*
X131653255Y-124771652D01*
X131644574Y-124694529D01*
X131640206Y-124598725D01*
X131638918Y-124472931D01*
X131638911Y-124460000D01*
X131639986Y-124331013D01*
X131644033Y-124233015D01*
X131652283Y-124154699D01*
X131665969Y-124084754D01*
X131686321Y-124011874D01*
X131688480Y-124004917D01*
X131786847Y-123756780D01*
X131918429Y-123533834D01*
X132081602Y-123337960D01*
X132274742Y-123171037D01*
X132496225Y-123034944D01*
X132549078Y-123009100D01*
X132743283Y-122932234D01*
X132939631Y-122884752D01*
X133152300Y-122863647D01*
X133243078Y-122861917D01*
X133496029Y-122881606D01*
X133318914Y-110167711D02*
X133578661Y-110201203D01*
X133578661Y-110201203D02*
X133822439Y-110273172D01*
X133822439Y-110273172D02*
X134047722Y-110381951D01*
X134047722Y-110381951D02*
X134251986Y-110525875D01*
X134251986Y-110525875D02*
X134432705Y-110703278D01*
X134432705Y-110703278D02*
X134587354Y-110912495D01*
X134587354Y-110912495D02*
X134669623Y-111058619D01*
X134669623Y-111058619D02*
X134759340Y-111282041D01*
X134759340Y-111282041D02*
X134813929Y-111521421D01*
X134813929Y-111521421D02*
X134832601Y-111767958D01*
X134832601Y-111767958D02*
X134814567Y-112012854D01*
X134814567Y-112012854D02*
X134772356Y-112204500D01*
X134772356Y-112204500D02*
X134679942Y-112447696D01*
X134679942Y-112447696D02*
X134553649Y-112668336D01*
X134553649Y-112668336D02*
X134396843Y-112863734D01*
X134396843Y-112863734D02*
X134212890Y-113031205D01*
X134212890Y-113031205D02*
X134005158Y-113168064D01*
X134005158Y-113168064D02*
X133777014Y-113271624D01*
X133777014Y-113271624D02*
X133531824Y-113339200D01*
X133531824Y-113339200D02*
X133316067Y-113366138D01*
X133316067Y-113366138D02*
X133212603Y-113368810D01*
X133212603Y-113368810D02*
X133105380Y-113366177D01*
X133105380Y-113366177D02*
X133016725Y-113358818D01*
X133016725Y-113358818D02*
X133012809Y-113358285D01*
X133012809Y-113358285D02*
X132762649Y-113302587D01*
X132762649Y-113302587D02*
X132528664Y-113209540D01*
X132528664Y-113209540D02*
X132314100Y-113082106D01*
X132314100Y-113082106D02*
X132122204Y-112923248D01*
X132122204Y-112923248D02*
X131956222Y-112735928D01*
X131956222Y-112735928D02*
X131819402Y-112523107D01*
X131819402Y-112523107D02*
X131714989Y-112287748D01*
X131714989Y-112287748D02*
X131667768Y-112131072D01*
X131667768Y-112131072D02*
X131647227Y-112039792D01*
X131647227Y-112039792D02*
X131635021Y-111957051D01*
X131635021Y-111957051D02*
X131629979Y-111868213D01*
X131629979Y-111868213D02*
X131630929Y-111758638D01*
X131630929Y-111758638D02*
X131633059Y-111697155D01*
X131633059Y-111697155D02*
X131657524Y-111452603D01*
X131657524Y-111452603D02*
X131712404Y-111232276D01*
X131712404Y-111232276D02*
X131800721Y-111029055D01*
X131800721Y-111029055D02*
X131925495Y-110835821D01*
X131925495Y-110835821D02*
X132070927Y-110665128D01*
X132070927Y-110665128D02*
X132265946Y-110486516D01*
X132265946Y-110486516D02*
X132475817Y-110347486D01*
X132475817Y-110347486D02*
X132701211Y-110247771D01*
X132701211Y-110247771D02*
X132942803Y-110187101D01*
X132942803Y-110187101D02*
X133201263Y-110165210D01*
X133201263Y-110165210D02*
X133318914Y-110167711D01*
X133318914Y-110167711D02*
X133318914Y-110167711D01*
G36*
X133318914Y-110167711D02*
G01*
X133578661Y-110201203D01*
X133822439Y-110273172D01*
X134047722Y-110381951D01*
X134251986Y-110525875D01*
X134432705Y-110703278D01*
X134587354Y-110912495D01*
X134669623Y-111058619D01*
X134759340Y-111282041D01*
X134813929Y-111521421D01*
X134832601Y-111767958D01*
X134814567Y-112012854D01*
X134772356Y-112204500D01*
X134679942Y-112447696D01*
X134553649Y-112668336D01*
X134396843Y-112863734D01*
X134212890Y-113031205D01*
X134005158Y-113168064D01*
X133777014Y-113271624D01*
X133531824Y-113339200D01*
X133316067Y-113366138D01*
X133212603Y-113368810D01*
X133105380Y-113366177D01*
X133016725Y-113358818D01*
X133012809Y-113358285D01*
X132762649Y-113302587D01*
X132528664Y-113209540D01*
X132314100Y-113082106D01*
X132122204Y-112923248D01*
X131956222Y-112735928D01*
X131819402Y-112523107D01*
X131714989Y-112287748D01*
X131667768Y-112131072D01*
X131647227Y-112039792D01*
X131635021Y-111957051D01*
X131629979Y-111868213D01*
X131630929Y-111758638D01*
X131633059Y-111697155D01*
X131657524Y-111452603D01*
X131712404Y-111232276D01*
X131800721Y-111029055D01*
X131925495Y-110835821D01*
X132070927Y-110665128D01*
X132265946Y-110486516D01*
X132475817Y-110347486D01*
X132701211Y-110247771D01*
X132942803Y-110187101D01*
X133201263Y-110165210D01*
X133318914Y-110167711D01*
G37*
X133318914Y-110167711D02*
X133578661Y-110201203D01*
X133822439Y-110273172D01*
X134047722Y-110381951D01*
X134251986Y-110525875D01*
X134432705Y-110703278D01*
X134587354Y-110912495D01*
X134669623Y-111058619D01*
X134759340Y-111282041D01*
X134813929Y-111521421D01*
X134832601Y-111767958D01*
X134814567Y-112012854D01*
X134772356Y-112204500D01*
X134679942Y-112447696D01*
X134553649Y-112668336D01*
X134396843Y-112863734D01*
X134212890Y-113031205D01*
X134005158Y-113168064D01*
X133777014Y-113271624D01*
X133531824Y-113339200D01*
X133316067Y-113366138D01*
X133212603Y-113368810D01*
X133105380Y-113366177D01*
X133016725Y-113358818D01*
X133012809Y-113358285D01*
X132762649Y-113302587D01*
X132528664Y-113209540D01*
X132314100Y-113082106D01*
X132122204Y-112923248D01*
X131956222Y-112735928D01*
X131819402Y-112523107D01*
X131714989Y-112287748D01*
X131667768Y-112131072D01*
X131647227Y-112039792D01*
X131635021Y-111957051D01*
X131629979Y-111868213D01*
X131630929Y-111758638D01*
X131633059Y-111697155D01*
X131657524Y-111452603D01*
X131712404Y-111232276D01*
X131800721Y-111029055D01*
X131925495Y-110835821D01*
X132070927Y-110665128D01*
X132265946Y-110486516D01*
X132475817Y-110347486D01*
X132701211Y-110247771D01*
X132942803Y-110187101D01*
X133201263Y-110165210D01*
X133318914Y-110167711D01*
X116590869Y-89191206D02*
X116963094Y-89264108D01*
X116963094Y-89264108D02*
X117323318Y-89376339D01*
X117323318Y-89376339D02*
X117669193Y-89526993D01*
X117669193Y-89526993D02*
X117998367Y-89715165D01*
X117998367Y-89715165D02*
X118308489Y-89939951D01*
X118308489Y-89939951D02*
X118597209Y-90200446D01*
X118597209Y-90200446D02*
X118653161Y-90257779D01*
X118653161Y-90257779D02*
X118908796Y-90554953D01*
X118908796Y-90554953D02*
X119127181Y-90872237D01*
X119127181Y-90872237D02*
X119308300Y-91209598D01*
X119308300Y-91209598D02*
X119452136Y-91567003D01*
X119452136Y-91567003D02*
X119558672Y-91944418D01*
X119558672Y-91944418D02*
X119608157Y-92202000D01*
X119608157Y-92202000D02*
X119620558Y-92311952D01*
X119620558Y-92311952D02*
X119628961Y-92452332D01*
X119628961Y-92452332D02*
X119633365Y-92611425D01*
X119633365Y-92611425D02*
X119633766Y-92777515D01*
X119633766Y-92777515D02*
X119630163Y-92938888D01*
X119630163Y-92938888D02*
X119622552Y-93083826D01*
X119622552Y-93083826D02*
X119610933Y-93200615D01*
X119610933Y-93200615D02*
X119608375Y-93218000D01*
X119608375Y-93218000D02*
X119526968Y-93603435D01*
X119526968Y-93603435D02*
X119407181Y-93972859D01*
X119407181Y-93972859D02*
X119250429Y-94324054D01*
X119250429Y-94324054D02*
X119058124Y-94654802D01*
X119058124Y-94654802D02*
X118831681Y-94962885D01*
X118831681Y-94962885D02*
X118572515Y-95246087D01*
X118572515Y-95246087D02*
X118282039Y-95502190D01*
X118282039Y-95502190D02*
X118039328Y-95678593D01*
X118039328Y-95678593D02*
X117770193Y-95838972D01*
X117770193Y-95838972D02*
X117479706Y-95977547D01*
X117479706Y-95977547D02*
X117177187Y-96091077D01*
X117177187Y-96091077D02*
X116871956Y-96176321D01*
X116871956Y-96176321D02*
X116573333Y-96230039D01*
X116573333Y-96230039D02*
X116409494Y-96245319D01*
X116409494Y-96245319D02*
X116311894Y-96251247D01*
X116311894Y-96251247D02*
X116221830Y-96257078D01*
X116221830Y-96257078D02*
X116153571Y-96261875D01*
X116153571Y-96261875D02*
X116134328Y-96263399D01*
X116134328Y-96263399D02*
X116082459Y-96264576D01*
X116082459Y-96264576D02*
X116000904Y-96262787D01*
X116000904Y-96262787D02*
X115902176Y-96258419D01*
X115902176Y-96258419D02*
X115827411Y-96253890D01*
X115827411Y-96253890D02*
X115452501Y-96207726D01*
X115452501Y-96207726D02*
X115088560Y-96122104D01*
X115088560Y-96122104D02*
X114738227Y-95999073D01*
X114738227Y-95999073D02*
X114404142Y-95840681D01*
X114404142Y-95840681D02*
X114088945Y-95648977D01*
X114088945Y-95648977D02*
X113795276Y-95426009D01*
X113795276Y-95426009D02*
X113525774Y-95173826D01*
X113525774Y-95173826D02*
X113283080Y-94894475D01*
X113283080Y-94894475D02*
X113069832Y-94590006D01*
X113069832Y-94590006D02*
X112888672Y-94262466D01*
X112888672Y-94262466D02*
X112742239Y-93913905D01*
X112742239Y-93913905D02*
X112716798Y-93840185D01*
X112716798Y-93840185D02*
X112664744Y-93678417D01*
X112664744Y-93678417D02*
X112624472Y-93537911D01*
X112624472Y-93537911D02*
X112594521Y-93408875D01*
X112594521Y-93408875D02*
X112573434Y-93281520D01*
X112573434Y-93281520D02*
X112559751Y-93146055D01*
X112559751Y-93146055D02*
X112552014Y-92992691D01*
X112552014Y-92992691D02*
X112548762Y-92811637D01*
X112548762Y-92811637D02*
X112548364Y-92710000D01*
X112548364Y-92710000D02*
X112549637Y-92511687D01*
X112549637Y-92511687D02*
X112554768Y-92345870D01*
X112554768Y-92345870D02*
X112565160Y-92202783D01*
X112565160Y-92202783D02*
X112582214Y-92072661D01*
X112582214Y-92072661D02*
X112607333Y-91945738D01*
X112607333Y-91945738D02*
X112641919Y-91812247D01*
X112641919Y-91812247D02*
X112687375Y-91662424D01*
X112687375Y-91662424D02*
X112707930Y-91598750D01*
X112707930Y-91598750D02*
X112845417Y-91244263D01*
X112845417Y-91244263D02*
X113018266Y-90910613D01*
X113018266Y-90910613D02*
X113223934Y-90599788D01*
X113223934Y-90599788D02*
X113459877Y-90313775D01*
X113459877Y-90313775D02*
X113723553Y-90054561D01*
X113723553Y-90054561D02*
X114012418Y-89824133D01*
X114012418Y-89824133D02*
X114323930Y-89624480D01*
X114323930Y-89624480D02*
X114655545Y-89457587D01*
X114655545Y-89457587D02*
X115004721Y-89325442D01*
X115004721Y-89325442D02*
X115368914Y-89230033D01*
X115368914Y-89230033D02*
X115745581Y-89173347D01*
X115745581Y-89173347D02*
X115819825Y-89167007D01*
X115819825Y-89167007D02*
X116208996Y-89158538D01*
X116208996Y-89158538D02*
X116590869Y-89191206D01*
X116590869Y-89191206D02*
X116590869Y-89191206D01*
G36*
X116590869Y-89191206D02*
G01*
X116963094Y-89264108D01*
X117323318Y-89376339D01*
X117669193Y-89526993D01*
X117998367Y-89715165D01*
X118308489Y-89939951D01*
X118597209Y-90200446D01*
X118653161Y-90257779D01*
X118908796Y-90554953D01*
X119127181Y-90872237D01*
X119308300Y-91209598D01*
X119452136Y-91567003D01*
X119558672Y-91944418D01*
X119608157Y-92202000D01*
X119620558Y-92311952D01*
X119628961Y-92452332D01*
X119633365Y-92611425D01*
X119633766Y-92777515D01*
X119630163Y-92938888D01*
X119622552Y-93083826D01*
X119610933Y-93200615D01*
X119608375Y-93218000D01*
X119526968Y-93603435D01*
X119407181Y-93972859D01*
X119250429Y-94324054D01*
X119058124Y-94654802D01*
X118831681Y-94962885D01*
X118572515Y-95246087D01*
X118282039Y-95502190D01*
X118039328Y-95678593D01*
X117770193Y-95838972D01*
X117479706Y-95977547D01*
X117177187Y-96091077D01*
X116871956Y-96176321D01*
X116573333Y-96230039D01*
X116409494Y-96245319D01*
X116311894Y-96251247D01*
X116221830Y-96257078D01*
X116153571Y-96261875D01*
X116134328Y-96263399D01*
X116082459Y-96264576D01*
X116000904Y-96262787D01*
X115902176Y-96258419D01*
X115827411Y-96253890D01*
X115452501Y-96207726D01*
X115088560Y-96122104D01*
X114738227Y-95999073D01*
X114404142Y-95840681D01*
X114088945Y-95648977D01*
X113795276Y-95426009D01*
X113525774Y-95173826D01*
X113283080Y-94894475D01*
X113069832Y-94590006D01*
X112888672Y-94262466D01*
X112742239Y-93913905D01*
X112716798Y-93840185D01*
X112664744Y-93678417D01*
X112624472Y-93537911D01*
X112594521Y-93408875D01*
X112573434Y-93281520D01*
X112559751Y-93146055D01*
X112552014Y-92992691D01*
X112548762Y-92811637D01*
X112548364Y-92710000D01*
X112549637Y-92511687D01*
X112554768Y-92345870D01*
X112565160Y-92202783D01*
X112582214Y-92072661D01*
X112607333Y-91945738D01*
X112641919Y-91812247D01*
X112687375Y-91662424D01*
X112707930Y-91598750D01*
X112845417Y-91244263D01*
X113018266Y-90910613D01*
X113223934Y-90599788D01*
X113459877Y-90313775D01*
X113723553Y-90054561D01*
X114012418Y-89824133D01*
X114323930Y-89624480D01*
X114655545Y-89457587D01*
X115004721Y-89325442D01*
X115368914Y-89230033D01*
X115745581Y-89173347D01*
X115819825Y-89167007D01*
X116208996Y-89158538D01*
X116590869Y-89191206D01*
G37*
X116590869Y-89191206D02*
X116963094Y-89264108D01*
X117323318Y-89376339D01*
X117669193Y-89526993D01*
X117998367Y-89715165D01*
X118308489Y-89939951D01*
X118597209Y-90200446D01*
X118653161Y-90257779D01*
X118908796Y-90554953D01*
X119127181Y-90872237D01*
X119308300Y-91209598D01*
X119452136Y-91567003D01*
X119558672Y-91944418D01*
X119608157Y-92202000D01*
X119620558Y-92311952D01*
X119628961Y-92452332D01*
X119633365Y-92611425D01*
X119633766Y-92777515D01*
X119630163Y-92938888D01*
X119622552Y-93083826D01*
X119610933Y-93200615D01*
X119608375Y-93218000D01*
X119526968Y-93603435D01*
X119407181Y-93972859D01*
X119250429Y-94324054D01*
X119058124Y-94654802D01*
X118831681Y-94962885D01*
X118572515Y-95246087D01*
X118282039Y-95502190D01*
X118039328Y-95678593D01*
X117770193Y-95838972D01*
X117479706Y-95977547D01*
X117177187Y-96091077D01*
X116871956Y-96176321D01*
X116573333Y-96230039D01*
X116409494Y-96245319D01*
X116311894Y-96251247D01*
X116221830Y-96257078D01*
X116153571Y-96261875D01*
X116134328Y-96263399D01*
X116082459Y-96264576D01*
X116000904Y-96262787D01*
X115902176Y-96258419D01*
X115827411Y-96253890D01*
X115452501Y-96207726D01*
X115088560Y-96122104D01*
X114738227Y-95999073D01*
X114404142Y-95840681D01*
X114088945Y-95648977D01*
X113795276Y-95426009D01*
X113525774Y-95173826D01*
X113283080Y-94894475D01*
X113069832Y-94590006D01*
X112888672Y-94262466D01*
X112742239Y-93913905D01*
X112716798Y-93840185D01*
X112664744Y-93678417D01*
X112624472Y-93537911D01*
X112594521Y-93408875D01*
X112573434Y-93281520D01*
X112559751Y-93146055D01*
X112552014Y-92992691D01*
X112548762Y-92811637D01*
X112548364Y-92710000D01*
X112549637Y-92511687D01*
X112554768Y-92345870D01*
X112565160Y-92202783D01*
X112582214Y-92072661D01*
X112607333Y-91945738D01*
X112641919Y-91812247D01*
X112687375Y-91662424D01*
X112707930Y-91598750D01*
X112845417Y-91244263D01*
X113018266Y-90910613D01*
X113223934Y-90599788D01*
X113459877Y-90313775D01*
X113723553Y-90054561D01*
X114012418Y-89824133D01*
X114323930Y-89624480D01*
X114655545Y-89457587D01*
X115004721Y-89325442D01*
X115368914Y-89230033D01*
X115745581Y-89173347D01*
X115819825Y-89167007D01*
X116208996Y-89158538D01*
X116590869Y-89191206D01*
X132857820Y-154441253D02*
X133205462Y-154489325D01*
X133205462Y-154489325D02*
X133544898Y-154574228D01*
X133544898Y-154574228D02*
X133872636Y-154694825D01*
X133872636Y-154694825D02*
X134185184Y-154849980D01*
X134185184Y-154849980D02*
X134479051Y-155038555D01*
X134479051Y-155038555D02*
X134750743Y-155259413D01*
X134750743Y-155259413D02*
X134996770Y-155511418D01*
X134996770Y-155511418D02*
X135064306Y-155592002D01*
X135064306Y-155592002D02*
X135284119Y-155892272D01*
X135284119Y-155892272D02*
X135462994Y-156199907D01*
X135462994Y-156199907D02*
X135602115Y-156518030D01*
X135602115Y-156518030D02*
X135702664Y-156849766D01*
X135702664Y-156849766D02*
X135765825Y-157198242D01*
X135765825Y-157198242D02*
X135791068Y-157511750D01*
X135791068Y-157511750D02*
X135785246Y-157885658D01*
X135785246Y-157885658D02*
X135739011Y-158247693D01*
X135739011Y-158247693D02*
X135652645Y-158596933D01*
X135652645Y-158596933D02*
X135526432Y-158932458D01*
X135526432Y-158932458D02*
X135360653Y-159253345D01*
X135360653Y-159253345D02*
X135168084Y-159542036D01*
X135168084Y-159542036D02*
X134934370Y-159820699D01*
X134934370Y-159820699D02*
X134672075Y-160070150D01*
X134672075Y-160070150D02*
X134384654Y-160288347D01*
X134384654Y-160288347D02*
X134075560Y-160473248D01*
X134075560Y-160473248D02*
X133748249Y-160622810D01*
X133748249Y-160622810D02*
X133406176Y-160734993D01*
X133406176Y-160734993D02*
X133052796Y-160807753D01*
X133052796Y-160807753D02*
X133018504Y-160812575D01*
X133018504Y-160812575D02*
X132911997Y-160822595D01*
X132911997Y-160822595D02*
X132776890Y-160828920D01*
X132776890Y-160828920D02*
X132625798Y-160831574D01*
X132625798Y-160831574D02*
X132471341Y-160830580D01*
X132471341Y-160830580D02*
X132326133Y-160825962D01*
X132326133Y-160825962D02*
X132202791Y-160817742D01*
X132202791Y-160817742D02*
X132143656Y-160810966D01*
X132143656Y-160810966D02*
X131789942Y-160739307D01*
X131789942Y-160739307D02*
X131450930Y-160629471D01*
X131450930Y-160629471D02*
X131129030Y-160483788D01*
X131129030Y-160483788D02*
X130826648Y-160304588D01*
X130826648Y-160304588D02*
X130546195Y-160094203D01*
X130546195Y-160094203D02*
X130290076Y-159854964D01*
X130290076Y-159854964D02*
X130060702Y-159589201D01*
X130060702Y-159589201D02*
X129860479Y-159299244D01*
X129860479Y-159299244D02*
X129691817Y-158987426D01*
X129691817Y-158987426D02*
X129557123Y-158656076D01*
X129557123Y-158656076D02*
X129458806Y-158307526D01*
X129458806Y-158307526D02*
X129434746Y-158189084D01*
X129434746Y-158189084D02*
X129412625Y-158025999D01*
X129412625Y-158025999D02*
X129399689Y-157836369D01*
X129399689Y-157836369D02*
X129395816Y-157633017D01*
X129395816Y-157633017D02*
X129400881Y-157428769D01*
X129400881Y-157428769D02*
X129414764Y-157236448D01*
X129414764Y-157236448D02*
X129437341Y-157068880D01*
X129437341Y-157068880D02*
X129445883Y-157024917D01*
X129445883Y-157024917D02*
X129536881Y-156673626D01*
X129536881Y-156673626D02*
X129655757Y-156351327D01*
X129655757Y-156351327D02*
X129805212Y-156052984D01*
X129805212Y-156052984D02*
X129987949Y-155773555D01*
X129987949Y-155773555D02*
X130206667Y-155508002D01*
X130206667Y-155508002D02*
X130325676Y-155383535D01*
X130325676Y-155383535D02*
X130578149Y-155150606D01*
X130578149Y-155150606D02*
X130833631Y-154955824D01*
X130833631Y-154955824D02*
X131099037Y-154795185D01*
X131099037Y-154795185D02*
X131381282Y-154664683D01*
X131381282Y-154664683D02*
X131687282Y-154560313D01*
X131687282Y-154560313D02*
X131800580Y-154529395D01*
X131800580Y-154529395D02*
X132151887Y-154460151D01*
X132151887Y-154460151D02*
X132505464Y-154431150D01*
X132505464Y-154431150D02*
X132857820Y-154441253D01*
X132857820Y-154441253D02*
X132857820Y-154441253D01*
G36*
X132857820Y-154441253D02*
G01*
X133205462Y-154489325D01*
X133544898Y-154574228D01*
X133872636Y-154694825D01*
X134185184Y-154849980D01*
X134479051Y-155038555D01*
X134750743Y-155259413D01*
X134996770Y-155511418D01*
X135064306Y-155592002D01*
X135284119Y-155892272D01*
X135462994Y-156199907D01*
X135602115Y-156518030D01*
X135702664Y-156849766D01*
X135765825Y-157198242D01*
X135791068Y-157511750D01*
X135785246Y-157885658D01*
X135739011Y-158247693D01*
X135652645Y-158596933D01*
X135526432Y-158932458D01*
X135360653Y-159253345D01*
X135168084Y-159542036D01*
X134934370Y-159820699D01*
X134672075Y-160070150D01*
X134384654Y-160288347D01*
X134075560Y-160473248D01*
X133748249Y-160622810D01*
X133406176Y-160734993D01*
X133052796Y-160807753D01*
X133018504Y-160812575D01*
X132911997Y-160822595D01*
X132776890Y-160828920D01*
X132625798Y-160831574D01*
X132471341Y-160830580D01*
X132326133Y-160825962D01*
X132202791Y-160817742D01*
X132143656Y-160810966D01*
X131789942Y-160739307D01*
X131450930Y-160629471D01*
X131129030Y-160483788D01*
X130826648Y-160304588D01*
X130546195Y-160094203D01*
X130290076Y-159854964D01*
X130060702Y-159589201D01*
X129860479Y-159299244D01*
X129691817Y-158987426D01*
X129557123Y-158656076D01*
X129458806Y-158307526D01*
X129434746Y-158189084D01*
X129412625Y-158025999D01*
X129399689Y-157836369D01*
X129395816Y-157633017D01*
X129400881Y-157428769D01*
X129414764Y-157236448D01*
X129437341Y-157068880D01*
X129445883Y-157024917D01*
X129536881Y-156673626D01*
X129655757Y-156351327D01*
X129805212Y-156052984D01*
X129987949Y-155773555D01*
X130206667Y-155508002D01*
X130325676Y-155383535D01*
X130578149Y-155150606D01*
X130833631Y-154955824D01*
X131099037Y-154795185D01*
X131381282Y-154664683D01*
X131687282Y-154560313D01*
X131800580Y-154529395D01*
X132151887Y-154460151D01*
X132505464Y-154431150D01*
X132857820Y-154441253D01*
G37*
X132857820Y-154441253D02*
X133205462Y-154489325D01*
X133544898Y-154574228D01*
X133872636Y-154694825D01*
X134185184Y-154849980D01*
X134479051Y-155038555D01*
X134750743Y-155259413D01*
X134996770Y-155511418D01*
X135064306Y-155592002D01*
X135284119Y-155892272D01*
X135462994Y-156199907D01*
X135602115Y-156518030D01*
X135702664Y-156849766D01*
X135765825Y-157198242D01*
X135791068Y-157511750D01*
X135785246Y-157885658D01*
X135739011Y-158247693D01*
X135652645Y-158596933D01*
X135526432Y-158932458D01*
X135360653Y-159253345D01*
X135168084Y-159542036D01*
X134934370Y-159820699D01*
X134672075Y-160070150D01*
X134384654Y-160288347D01*
X134075560Y-160473248D01*
X133748249Y-160622810D01*
X133406176Y-160734993D01*
X133052796Y-160807753D01*
X133018504Y-160812575D01*
X132911997Y-160822595D01*
X132776890Y-160828920D01*
X132625798Y-160831574D01*
X132471341Y-160830580D01*
X132326133Y-160825962D01*
X132202791Y-160817742D01*
X132143656Y-160810966D01*
X131789942Y-160739307D01*
X131450930Y-160629471D01*
X131129030Y-160483788D01*
X130826648Y-160304588D01*
X130546195Y-160094203D01*
X130290076Y-159854964D01*
X130060702Y-159589201D01*
X129860479Y-159299244D01*
X129691817Y-158987426D01*
X129557123Y-158656076D01*
X129458806Y-158307526D01*
X129434746Y-158189084D01*
X129412625Y-158025999D01*
X129399689Y-157836369D01*
X129395816Y-157633017D01*
X129400881Y-157428769D01*
X129414764Y-157236448D01*
X129437341Y-157068880D01*
X129445883Y-157024917D01*
X129536881Y-156673626D01*
X129655757Y-156351327D01*
X129805212Y-156052984D01*
X129987949Y-155773555D01*
X130206667Y-155508002D01*
X130325676Y-155383535D01*
X130578149Y-155150606D01*
X130833631Y-154955824D01*
X131099037Y-154795185D01*
X131381282Y-154664683D01*
X131687282Y-154560313D01*
X131800580Y-154529395D01*
X132151887Y-154460151D01*
X132505464Y-154431150D01*
X132857820Y-154441253D01*
X128231078Y-110167786D02*
X128492105Y-110200521D01*
X128492105Y-110200521D02*
X128737138Y-110271699D01*
X128737138Y-110271699D02*
X128963511Y-110379583D01*
X128963511Y-110379583D02*
X129168560Y-110522434D01*
X129168560Y-110522434D02*
X129349620Y-110698517D01*
X129349620Y-110698517D02*
X129504026Y-110906093D01*
X129504026Y-110906093D02*
X129585757Y-111050942D01*
X129585757Y-111050942D02*
X129683931Y-111290845D01*
X129683931Y-111290845D02*
X129740358Y-111537354D01*
X129740358Y-111537354D02*
X129754988Y-111789758D01*
X129754988Y-111789758D02*
X129727771Y-112047345D01*
X129727771Y-112047345D02*
X129672164Y-112268363D01*
X129672164Y-112268363D02*
X129578595Y-112495051D01*
X129578595Y-112495051D02*
X129449250Y-112704484D01*
X129449250Y-112704484D02*
X129288614Y-112892489D01*
X129288614Y-112892489D02*
X129101172Y-113054897D01*
X129101172Y-113054897D02*
X128891409Y-113187534D01*
X128891409Y-113187534D02*
X128663810Y-113286231D01*
X128663810Y-113286231D02*
X128537994Y-113323227D01*
X128537994Y-113323227D02*
X128404929Y-113348186D01*
X128404929Y-113348186D02*
X128254138Y-113363879D01*
X128254138Y-113363879D02*
X128102646Y-113369354D01*
X128102646Y-113369354D02*
X127967474Y-113363660D01*
X127967474Y-113363660D02*
X127919997Y-113357761D01*
X127919997Y-113357761D02*
X127666306Y-113297079D01*
X127666306Y-113297079D02*
X127430352Y-113199524D01*
X127430352Y-113199524D02*
X127215225Y-113067941D01*
X127215225Y-113067941D02*
X127024015Y-112905178D01*
X127024015Y-112905178D02*
X126859814Y-112714079D01*
X126859814Y-112714079D02*
X126725713Y-112497491D01*
X126725713Y-112497491D02*
X126624803Y-112258260D01*
X126624803Y-112258260D02*
X126587768Y-112131072D01*
X126587768Y-112131072D02*
X126567227Y-112039792D01*
X126567227Y-112039792D02*
X126555021Y-111957051D01*
X126555021Y-111957051D02*
X126549979Y-111868213D01*
X126549979Y-111868213D02*
X126550929Y-111758638D01*
X126550929Y-111758638D02*
X126553059Y-111697155D01*
X126553059Y-111697155D02*
X126578372Y-111448619D01*
X126578372Y-111448619D02*
X126635353Y-111224347D01*
X126635353Y-111224347D02*
X126726819Y-111017623D01*
X126726819Y-111017623D02*
X126855585Y-110821734D01*
X126855585Y-110821734D02*
X126982244Y-110673718D01*
X126982244Y-110673718D02*
X127177291Y-110493052D01*
X127177291Y-110493052D02*
X127385419Y-110352504D01*
X127385419Y-110352504D02*
X127608065Y-110251492D01*
X127608065Y-110251492D02*
X127846666Y-110189434D01*
X127846666Y-110189434D02*
X128102659Y-110165748D01*
X128102659Y-110165748D02*
X128231078Y-110167786D01*
X128231078Y-110167786D02*
X128231078Y-110167786D01*
G36*
X128231078Y-110167786D02*
G01*
X128492105Y-110200521D01*
X128737138Y-110271699D01*
X128963511Y-110379583D01*
X129168560Y-110522434D01*
X129349620Y-110698517D01*
X129504026Y-110906093D01*
X129585757Y-111050942D01*
X129683931Y-111290845D01*
X129740358Y-111537354D01*
X129754988Y-111789758D01*
X129727771Y-112047345D01*
X129672164Y-112268363D01*
X129578595Y-112495051D01*
X129449250Y-112704484D01*
X129288614Y-112892489D01*
X129101172Y-113054897D01*
X128891409Y-113187534D01*
X128663810Y-113286231D01*
X128537994Y-113323227D01*
X128404929Y-113348186D01*
X128254138Y-113363879D01*
X128102646Y-113369354D01*
X127967474Y-113363660D01*
X127919997Y-113357761D01*
X127666306Y-113297079D01*
X127430352Y-113199524D01*
X127215225Y-113067941D01*
X127024015Y-112905178D01*
X126859814Y-112714079D01*
X126725713Y-112497491D01*
X126624803Y-112258260D01*
X126587768Y-112131072D01*
X126567227Y-112039792D01*
X126555021Y-111957051D01*
X126549979Y-111868213D01*
X126550929Y-111758638D01*
X126553059Y-111697155D01*
X126578372Y-111448619D01*
X126635353Y-111224347D01*
X126726819Y-111017623D01*
X126855585Y-110821734D01*
X126982244Y-110673718D01*
X127177291Y-110493052D01*
X127385419Y-110352504D01*
X127608065Y-110251492D01*
X127846666Y-110189434D01*
X128102659Y-110165748D01*
X128231078Y-110167786D01*
G37*
X128231078Y-110167786D02*
X128492105Y-110200521D01*
X128737138Y-110271699D01*
X128963511Y-110379583D01*
X129168560Y-110522434D01*
X129349620Y-110698517D01*
X129504026Y-110906093D01*
X129585757Y-111050942D01*
X129683931Y-111290845D01*
X129740358Y-111537354D01*
X129754988Y-111789758D01*
X129727771Y-112047345D01*
X129672164Y-112268363D01*
X129578595Y-112495051D01*
X129449250Y-112704484D01*
X129288614Y-112892489D01*
X129101172Y-113054897D01*
X128891409Y-113187534D01*
X128663810Y-113286231D01*
X128537994Y-113323227D01*
X128404929Y-113348186D01*
X128254138Y-113363879D01*
X128102646Y-113369354D01*
X127967474Y-113363660D01*
X127919997Y-113357761D01*
X127666306Y-113297079D01*
X127430352Y-113199524D01*
X127215225Y-113067941D01*
X127024015Y-112905178D01*
X126859814Y-112714079D01*
X126725713Y-112497491D01*
X126624803Y-112258260D01*
X126587768Y-112131072D01*
X126567227Y-112039792D01*
X126555021Y-111957051D01*
X126549979Y-111868213D01*
X126550929Y-111758638D01*
X126553059Y-111697155D01*
X126578372Y-111448619D01*
X126635353Y-111224347D01*
X126726819Y-111017623D01*
X126855585Y-110821734D01*
X126982244Y-110673718D01*
X127177291Y-110493052D01*
X127385419Y-110352504D01*
X127608065Y-110251492D01*
X127846666Y-110189434D01*
X128102659Y-110165748D01*
X128231078Y-110167786D01*
X112566833Y-154441296D02*
X112928362Y-154496585D01*
X112928362Y-154496585D02*
X113281801Y-154591781D01*
X113281801Y-154591781D02*
X113619607Y-154724120D01*
X113619607Y-154724120D02*
X113936377Y-154891974D01*
X113936377Y-154891974D02*
X114230024Y-155093001D01*
X114230024Y-155093001D02*
X114498460Y-155324859D01*
X114498460Y-155324859D02*
X114739598Y-155585206D01*
X114739598Y-155585206D02*
X114951350Y-155871700D01*
X114951350Y-155871700D02*
X115131629Y-156182001D01*
X115131629Y-156182001D02*
X115278348Y-156513766D01*
X115278348Y-156513766D02*
X115389418Y-156864653D01*
X115389418Y-156864653D02*
X115418970Y-156989179D01*
X115418970Y-156989179D02*
X115435811Y-157072687D01*
X115435811Y-157072687D02*
X115448184Y-157151826D01*
X115448184Y-157151826D02*
X115456740Y-157235579D01*
X115456740Y-157235579D02*
X115462130Y-157332930D01*
X115462130Y-157332930D02*
X115465005Y-157452861D01*
X115465005Y-157452861D02*
X115466016Y-157604356D01*
X115466016Y-157604356D02*
X115466052Y-157638750D01*
X115466052Y-157638750D02*
X115465716Y-157789939D01*
X115465716Y-157789939D02*
X115464047Y-157907936D01*
X115464047Y-157907936D02*
X115460255Y-158001881D01*
X115460255Y-158001881D02*
X115453547Y-158080911D01*
X115453547Y-158080911D02*
X115443134Y-158154165D01*
X115443134Y-158154165D02*
X115428225Y-158230782D01*
X115428225Y-158230782D02*
X115408028Y-158319900D01*
X115408028Y-158319900D02*
X115406555Y-158326164D01*
X115406555Y-158326164D02*
X115300828Y-158686649D01*
X115300828Y-158686649D02*
X115159229Y-159026336D01*
X115159229Y-159026336D02*
X114983690Y-159343316D01*
X114983690Y-159343316D02*
X114776143Y-159635678D01*
X114776143Y-159635678D02*
X114538521Y-159901513D01*
X114538521Y-159901513D02*
X114272757Y-160138910D01*
X114272757Y-160138910D02*
X113980783Y-160345960D01*
X113980783Y-160345960D02*
X113664531Y-160520753D01*
X113664531Y-160520753D02*
X113325935Y-160661378D01*
X113325935Y-160661378D02*
X112966927Y-160765925D01*
X112966927Y-160765925D02*
X112929335Y-160774465D01*
X112929335Y-160774465D02*
X112832781Y-160792753D01*
X112832781Y-160792753D02*
X112726389Y-160806223D01*
X112726389Y-160806223D02*
X112601052Y-160815649D01*
X112601052Y-160815649D02*
X112447665Y-160821807D01*
X112447665Y-160821807D02*
X112345494Y-160824127D01*
X112345494Y-160824127D02*
X112216498Y-160825899D01*
X112216498Y-160825899D02*
X112098226Y-160826466D01*
X112098226Y-160826466D02*
X111998764Y-160825871D01*
X111998764Y-160825871D02*
X111926198Y-160824158D01*
X111926198Y-160824158D02*
X111890411Y-160821673D01*
X111890411Y-160821673D02*
X111515739Y-160745411D01*
X111515739Y-160745411D02*
X111160018Y-160633143D01*
X111160018Y-160633143D02*
X110825184Y-160486437D01*
X110825184Y-160486437D02*
X110513176Y-160306862D01*
X110513176Y-160306862D02*
X110225930Y-160095987D01*
X110225930Y-160095987D02*
X109965384Y-159855381D01*
X109965384Y-159855381D02*
X109733476Y-159586613D01*
X109733476Y-159586613D02*
X109532144Y-159291252D01*
X109532144Y-159291252D02*
X109363324Y-158970866D01*
X109363324Y-158970866D02*
X109247359Y-158681536D01*
X109247359Y-158681536D02*
X109147978Y-158333772D01*
X109147978Y-158333772D02*
X109089306Y-157984794D01*
X109089306Y-157984794D02*
X109069898Y-157637286D01*
X109069898Y-157637286D02*
X109088311Y-157293932D01*
X109088311Y-157293932D02*
X109143099Y-156957415D01*
X109143099Y-156957415D02*
X109232817Y-156630420D01*
X109232817Y-156630420D02*
X109356023Y-156315631D01*
X109356023Y-156315631D02*
X109511270Y-156015732D01*
X109511270Y-156015732D02*
X109697115Y-155733408D01*
X109697115Y-155733408D02*
X109912113Y-155471341D01*
X109912113Y-155471341D02*
X110154819Y-155232217D01*
X110154819Y-155232217D02*
X110423790Y-155018719D01*
X110423790Y-155018719D02*
X110717580Y-154833532D01*
X110717580Y-154833532D02*
X111034745Y-154679339D01*
X111034745Y-154679339D02*
X111373841Y-154558825D01*
X111373841Y-154558825D02*
X111482138Y-154528993D01*
X111482138Y-154528993D02*
X111843116Y-154457478D01*
X111843116Y-154457478D02*
X112204883Y-154428253D01*
X112204883Y-154428253D02*
X112566833Y-154441296D01*
X112566833Y-154441296D02*
X112566833Y-154441296D01*
G36*
X112566833Y-154441296D02*
G01*
X112928362Y-154496585D01*
X113281801Y-154591781D01*
X113619607Y-154724120D01*
X113936377Y-154891974D01*
X114230024Y-155093001D01*
X114498460Y-155324859D01*
X114739598Y-155585206D01*
X114951350Y-155871700D01*
X115131629Y-156182001D01*
X115278348Y-156513766D01*
X115389418Y-156864653D01*
X115418970Y-156989179D01*
X115435811Y-157072687D01*
X115448184Y-157151826D01*
X115456740Y-157235579D01*
X115462130Y-157332930D01*
X115465005Y-157452861D01*
X115466016Y-157604356D01*
X115466052Y-157638750D01*
X115465716Y-157789939D01*
X115464047Y-157907936D01*
X115460255Y-158001881D01*
X115453547Y-158080911D01*
X115443134Y-158154165D01*
X115428225Y-158230782D01*
X115408028Y-158319900D01*
X115406555Y-158326164D01*
X115300828Y-158686649D01*
X115159229Y-159026336D01*
X114983690Y-159343316D01*
X114776143Y-159635678D01*
X114538521Y-159901513D01*
X114272757Y-160138910D01*
X113980783Y-160345960D01*
X113664531Y-160520753D01*
X113325935Y-160661378D01*
X112966927Y-160765925D01*
X112929335Y-160774465D01*
X112832781Y-160792753D01*
X112726389Y-160806223D01*
X112601052Y-160815649D01*
X112447665Y-160821807D01*
X112345494Y-160824127D01*
X112216498Y-160825899D01*
X112098226Y-160826466D01*
X111998764Y-160825871D01*
X111926198Y-160824158D01*
X111890411Y-160821673D01*
X111515739Y-160745411D01*
X111160018Y-160633143D01*
X110825184Y-160486437D01*
X110513176Y-160306862D01*
X110225930Y-160095987D01*
X109965384Y-159855381D01*
X109733476Y-159586613D01*
X109532144Y-159291252D01*
X109363324Y-158970866D01*
X109247359Y-158681536D01*
X109147978Y-158333772D01*
X109089306Y-157984794D01*
X109069898Y-157637286D01*
X109088311Y-157293932D01*
X109143099Y-156957415D01*
X109232817Y-156630420D01*
X109356023Y-156315631D01*
X109511270Y-156015732D01*
X109697115Y-155733408D01*
X109912113Y-155471341D01*
X110154819Y-155232217D01*
X110423790Y-155018719D01*
X110717580Y-154833532D01*
X111034745Y-154679339D01*
X111373841Y-154558825D01*
X111482138Y-154528993D01*
X111843116Y-154457478D01*
X112204883Y-154428253D01*
X112566833Y-154441296D01*
G37*
X112566833Y-154441296D02*
X112928362Y-154496585D01*
X113281801Y-154591781D01*
X113619607Y-154724120D01*
X113936377Y-154891974D01*
X114230024Y-155093001D01*
X114498460Y-155324859D01*
X114739598Y-155585206D01*
X114951350Y-155871700D01*
X115131629Y-156182001D01*
X115278348Y-156513766D01*
X115389418Y-156864653D01*
X115418970Y-156989179D01*
X115435811Y-157072687D01*
X115448184Y-157151826D01*
X115456740Y-157235579D01*
X115462130Y-157332930D01*
X115465005Y-157452861D01*
X115466016Y-157604356D01*
X115466052Y-157638750D01*
X115465716Y-157789939D01*
X115464047Y-157907936D01*
X115460255Y-158001881D01*
X115453547Y-158080911D01*
X115443134Y-158154165D01*
X115428225Y-158230782D01*
X115408028Y-158319900D01*
X115406555Y-158326164D01*
X115300828Y-158686649D01*
X115159229Y-159026336D01*
X114983690Y-159343316D01*
X114776143Y-159635678D01*
X114538521Y-159901513D01*
X114272757Y-160138910D01*
X113980783Y-160345960D01*
X113664531Y-160520753D01*
X113325935Y-160661378D01*
X112966927Y-160765925D01*
X112929335Y-160774465D01*
X112832781Y-160792753D01*
X112726389Y-160806223D01*
X112601052Y-160815649D01*
X112447665Y-160821807D01*
X112345494Y-160824127D01*
X112216498Y-160825899D01*
X112098226Y-160826466D01*
X111998764Y-160825871D01*
X111926198Y-160824158D01*
X111890411Y-160821673D01*
X111515739Y-160745411D01*
X111160018Y-160633143D01*
X110825184Y-160486437D01*
X110513176Y-160306862D01*
X110225930Y-160095987D01*
X109965384Y-159855381D01*
X109733476Y-159586613D01*
X109532144Y-159291252D01*
X109363324Y-158970866D01*
X109247359Y-158681536D01*
X109147978Y-158333772D01*
X109089306Y-157984794D01*
X109069898Y-157637286D01*
X109088311Y-157293932D01*
X109143099Y-156957415D01*
X109232817Y-156630420D01*
X109356023Y-156315631D01*
X109511270Y-156015732D01*
X109697115Y-155733408D01*
X109912113Y-155471341D01*
X110154819Y-155232217D01*
X110423790Y-155018719D01*
X110717580Y-154833532D01*
X111034745Y-154679339D01*
X111373841Y-154558825D01*
X111482138Y-154528993D01*
X111843116Y-154457478D01*
X112204883Y-154428253D01*
X112566833Y-154441296D01*
X140344751Y-49552364D02*
X140404658Y-49561501D01*
X140404658Y-49561501D02*
X140652249Y-49627346D01*
X140652249Y-49627346D02*
X140881389Y-49728725D01*
X140881389Y-49728725D02*
X141089173Y-49862182D01*
X141089173Y-49862182D02*
X141272698Y-50024262D01*
X141272698Y-50024262D02*
X141429059Y-50211508D01*
X141429059Y-50211508D02*
X141555354Y-50420465D01*
X141555354Y-50420465D02*
X141648677Y-50647676D01*
X141648677Y-50647676D02*
X141706125Y-50889686D01*
X141706125Y-50889686D02*
X141724828Y-51132583D01*
X141724828Y-51132583D02*
X141713069Y-51350870D01*
X141713069Y-51350870D02*
X141675381Y-51549225D01*
X141675381Y-51549225D02*
X141608142Y-51743693D01*
X141608142Y-51743693D02*
X141565856Y-51837167D01*
X141565856Y-51837167D02*
X141433797Y-52064385D01*
X141433797Y-52064385D02*
X141272238Y-52262422D01*
X141272238Y-52262422D02*
X141084081Y-52429341D01*
X141084081Y-52429341D02*
X140872230Y-52563203D01*
X140872230Y-52563203D02*
X140639586Y-52662072D01*
X140639586Y-52662072D02*
X140389053Y-52724007D01*
X140389053Y-52724007D02*
X140207329Y-52744193D01*
X140207329Y-52744193D02*
X140102434Y-52746953D01*
X140102434Y-52746953D02*
X139994868Y-52744403D01*
X139994868Y-52744403D02*
X139905181Y-52737121D01*
X139905181Y-52737121D02*
X139892485Y-52735347D01*
X139892485Y-52735347D02*
X139645232Y-52676365D01*
X139645232Y-52676365D02*
X139409742Y-52577976D01*
X139409742Y-52577976D02*
X139190473Y-52442472D01*
X139190473Y-52442472D02*
X138992575Y-52272836D01*
X138992575Y-52272836D02*
X138825056Y-52077897D01*
X138825056Y-52077897D02*
X138694882Y-51868551D01*
X138694882Y-51868551D02*
X138601146Y-51648529D01*
X138601146Y-51648529D02*
X138542939Y-51421559D01*
X138542939Y-51421559D02*
X138519354Y-51191369D01*
X138519354Y-51191369D02*
X138529484Y-50961687D01*
X138529484Y-50961687D02*
X138572420Y-50736243D01*
X138572420Y-50736243D02*
X138647256Y-50518766D01*
X138647256Y-50518766D02*
X138753083Y-50312983D01*
X138753083Y-50312983D02*
X138888994Y-50122624D01*
X138888994Y-50122624D02*
X139054082Y-49951416D01*
X139054082Y-49951416D02*
X139247438Y-49803090D01*
X139247438Y-49803090D02*
X139468155Y-49681372D01*
X139468155Y-49681372D02*
X139639911Y-49613508D01*
X139639911Y-49613508D02*
X139799474Y-49573184D01*
X139799474Y-49573184D02*
X139981568Y-49548774D01*
X139981568Y-49548774D02*
X140169044Y-49541445D01*
X140169044Y-49541445D02*
X140344751Y-49552364D01*
X140344751Y-49552364D02*
X140344751Y-49552364D01*
G36*
X140344751Y-49552364D02*
G01*
X140404658Y-49561501D01*
X140652249Y-49627346D01*
X140881389Y-49728725D01*
X141089173Y-49862182D01*
X141272698Y-50024262D01*
X141429059Y-50211508D01*
X141555354Y-50420465D01*
X141648677Y-50647676D01*
X141706125Y-50889686D01*
X141724828Y-51132583D01*
X141713069Y-51350870D01*
X141675381Y-51549225D01*
X141608142Y-51743693D01*
X141565856Y-51837167D01*
X141433797Y-52064385D01*
X141272238Y-52262422D01*
X141084081Y-52429341D01*
X140872230Y-52563203D01*
X140639586Y-52662072D01*
X140389053Y-52724007D01*
X140207329Y-52744193D01*
X140102434Y-52746953D01*
X139994868Y-52744403D01*
X139905181Y-52737121D01*
X139892485Y-52735347D01*
X139645232Y-52676365D01*
X139409742Y-52577976D01*
X139190473Y-52442472D01*
X138992575Y-52272836D01*
X138825056Y-52077897D01*
X138694882Y-51868551D01*
X138601146Y-51648529D01*
X138542939Y-51421559D01*
X138519354Y-51191369D01*
X138529484Y-50961687D01*
X138572420Y-50736243D01*
X138647256Y-50518766D01*
X138753083Y-50312983D01*
X138888994Y-50122624D01*
X139054082Y-49951416D01*
X139247438Y-49803090D01*
X139468155Y-49681372D01*
X139639911Y-49613508D01*
X139799474Y-49573184D01*
X139981568Y-49548774D01*
X140169044Y-49541445D01*
X140344751Y-49552364D01*
G37*
X140344751Y-49552364D02*
X140404658Y-49561501D01*
X140652249Y-49627346D01*
X140881389Y-49728725D01*
X141089173Y-49862182D01*
X141272698Y-50024262D01*
X141429059Y-50211508D01*
X141555354Y-50420465D01*
X141648677Y-50647676D01*
X141706125Y-50889686D01*
X141724828Y-51132583D01*
X141713069Y-51350870D01*
X141675381Y-51549225D01*
X141608142Y-51743693D01*
X141565856Y-51837167D01*
X141433797Y-52064385D01*
X141272238Y-52262422D01*
X141084081Y-52429341D01*
X140872230Y-52563203D01*
X140639586Y-52662072D01*
X140389053Y-52724007D01*
X140207329Y-52744193D01*
X140102434Y-52746953D01*
X139994868Y-52744403D01*
X139905181Y-52737121D01*
X139892485Y-52735347D01*
X139645232Y-52676365D01*
X139409742Y-52577976D01*
X139190473Y-52442472D01*
X138992575Y-52272836D01*
X138825056Y-52077897D01*
X138694882Y-51868551D01*
X138601146Y-51648529D01*
X138542939Y-51421559D01*
X138519354Y-51191369D01*
X138529484Y-50961687D01*
X138572420Y-50736243D01*
X138647256Y-50518766D01*
X138753083Y-50312983D01*
X138888994Y-50122624D01*
X139054082Y-49951416D01*
X139247438Y-49803090D01*
X139468155Y-49681372D01*
X139639911Y-49613508D01*
X139799474Y-49573184D01*
X139981568Y-49548774D01*
X140169044Y-49541445D01*
X140344751Y-49552364D01*
X128437965Y-116528045D02*
X128669446Y-116587803D01*
X128669446Y-116587803D02*
X128888019Y-116677983D01*
X128888019Y-116677983D02*
X128974791Y-116725207D01*
X128974791Y-116725207D02*
X129069963Y-116791587D01*
X129069963Y-116791587D02*
X129178289Y-116883464D01*
X129178289Y-116883464D02*
X129289864Y-116990831D01*
X129289864Y-116990831D02*
X129394784Y-117103685D01*
X129394784Y-117103685D02*
X129483141Y-117212019D01*
X129483141Y-117212019D02*
X129538991Y-117295084D01*
X129538991Y-117295084D02*
X129648020Y-117524601D01*
X129648020Y-117524601D02*
X129718888Y-117766763D01*
X129718888Y-117766763D02*
X129751427Y-118016091D01*
X129751427Y-118016091D02*
X129745470Y-118267105D01*
X129745470Y-118267105D02*
X129700848Y-118514327D01*
X129700848Y-118514327D02*
X129617393Y-118752278D01*
X129617393Y-118752278D02*
X129585757Y-118819058D01*
X129585757Y-118819058D02*
X129449368Y-119044195D01*
X129449368Y-119044195D02*
X129282063Y-119241215D01*
X129282063Y-119241215D02*
X129086329Y-119408009D01*
X129086329Y-119408009D02*
X128864656Y-119542468D01*
X128864656Y-119542468D02*
X128619529Y-119642481D01*
X128619529Y-119642481D02*
X128612078Y-119644852D01*
X128612078Y-119644852D02*
X128473403Y-119676907D01*
X128473403Y-119676907D02*
X128309253Y-119696456D01*
X128309253Y-119696456D02*
X128134722Y-119703096D01*
X128134722Y-119703096D02*
X127964902Y-119696424D01*
X127964902Y-119696424D02*
X127814884Y-119676037D01*
X127814884Y-119676037D02*
X127775994Y-119667186D01*
X127775994Y-119667186D02*
X127612650Y-119619061D01*
X127612650Y-119619061D02*
X127471582Y-119561316D01*
X127471582Y-119561316D02*
X127332742Y-119485184D01*
X127332742Y-119485184D02*
X127272034Y-119446767D01*
X127272034Y-119446767D02*
X127082613Y-119299273D01*
X127082613Y-119299273D02*
X126913080Y-119119560D01*
X126913080Y-119119560D02*
X126769373Y-118915376D01*
X126769373Y-118915376D02*
X126657429Y-118694472D01*
X126657429Y-118694472D02*
X126620727Y-118596834D01*
X126620727Y-118596834D02*
X126575340Y-118414667D01*
X126575340Y-118414667D02*
X126551793Y-118211941D01*
X126551793Y-118211941D02*
X126550703Y-118004726D01*
X126550703Y-118004726D02*
X126572688Y-117809091D01*
X126572688Y-117809091D02*
X126587768Y-117738928D01*
X126587768Y-117738928D02*
X126671604Y-117486159D01*
X126671604Y-117486159D02*
X126789570Y-117256673D01*
X126789570Y-117256673D02*
X126938995Y-117052831D01*
X126938995Y-117052831D02*
X127117210Y-116876992D01*
X127117210Y-116876992D02*
X127321543Y-116731514D01*
X127321543Y-116731514D02*
X127549323Y-116618757D01*
X127549323Y-116618757D02*
X127797882Y-116541081D01*
X127797882Y-116541081D02*
X127979706Y-116509220D01*
X127979706Y-116509220D02*
X128204433Y-116501065D01*
X128204433Y-116501065D02*
X128437965Y-116528045D01*
X128437965Y-116528045D02*
X128437965Y-116528045D01*
G36*
X128437965Y-116528045D02*
G01*
X128669446Y-116587803D01*
X128888019Y-116677983D01*
X128974791Y-116725207D01*
X129069963Y-116791587D01*
X129178289Y-116883464D01*
X129289864Y-116990831D01*
X129394784Y-117103685D01*
X129483141Y-117212019D01*
X129538991Y-117295084D01*
X129648020Y-117524601D01*
X129718888Y-117766763D01*
X129751427Y-118016091D01*
X129745470Y-118267105D01*
X129700848Y-118514327D01*
X129617393Y-118752278D01*
X129585757Y-118819058D01*
X129449368Y-119044195D01*
X129282063Y-119241215D01*
X129086329Y-119408009D01*
X128864656Y-119542468D01*
X128619529Y-119642481D01*
X128612078Y-119644852D01*
X128473403Y-119676907D01*
X128309253Y-119696456D01*
X128134722Y-119703096D01*
X127964902Y-119696424D01*
X127814884Y-119676037D01*
X127775994Y-119667186D01*
X127612650Y-119619061D01*
X127471582Y-119561316D01*
X127332742Y-119485184D01*
X127272034Y-119446767D01*
X127082613Y-119299273D01*
X126913080Y-119119560D01*
X126769373Y-118915376D01*
X126657429Y-118694472D01*
X126620727Y-118596834D01*
X126575340Y-118414667D01*
X126551793Y-118211941D01*
X126550703Y-118004726D01*
X126572688Y-117809091D01*
X126587768Y-117738928D01*
X126671604Y-117486159D01*
X126789570Y-117256673D01*
X126938995Y-117052831D01*
X127117210Y-116876992D01*
X127321543Y-116731514D01*
X127549323Y-116618757D01*
X127797882Y-116541081D01*
X127979706Y-116509220D01*
X128204433Y-116501065D01*
X128437965Y-116528045D01*
G37*
X128437965Y-116528045D02*
X128669446Y-116587803D01*
X128888019Y-116677983D01*
X128974791Y-116725207D01*
X129069963Y-116791587D01*
X129178289Y-116883464D01*
X129289864Y-116990831D01*
X129394784Y-117103685D01*
X129483141Y-117212019D01*
X129538991Y-117295084D01*
X129648020Y-117524601D01*
X129718888Y-117766763D01*
X129751427Y-118016091D01*
X129745470Y-118267105D01*
X129700848Y-118514327D01*
X129617393Y-118752278D01*
X129585757Y-118819058D01*
X129449368Y-119044195D01*
X129282063Y-119241215D01*
X129086329Y-119408009D01*
X128864656Y-119542468D01*
X128619529Y-119642481D01*
X128612078Y-119644852D01*
X128473403Y-119676907D01*
X128309253Y-119696456D01*
X128134722Y-119703096D01*
X127964902Y-119696424D01*
X127814884Y-119676037D01*
X127775994Y-119667186D01*
X127612650Y-119619061D01*
X127471582Y-119561316D01*
X127332742Y-119485184D01*
X127272034Y-119446767D01*
X127082613Y-119299273D01*
X126913080Y-119119560D01*
X126769373Y-118915376D01*
X126657429Y-118694472D01*
X126620727Y-118596834D01*
X126575340Y-118414667D01*
X126551793Y-118211941D01*
X126550703Y-118004726D01*
X126572688Y-117809091D01*
X126587768Y-117738928D01*
X126671604Y-117486159D01*
X126789570Y-117256673D01*
X126938995Y-117052831D01*
X127117210Y-116876992D01*
X127321543Y-116731514D01*
X127549323Y-116618757D01*
X127797882Y-116541081D01*
X127979706Y-116509220D01*
X128204433Y-116501065D01*
X128437965Y-116528045D01*
X128418327Y-122882312D02*
X128667254Y-122942659D01*
X128667254Y-122942659D02*
X128900948Y-123041698D01*
X128900948Y-123041698D02*
X129116583Y-123178172D01*
X129116583Y-123178172D02*
X129311331Y-123350820D01*
X129311331Y-123350820D02*
X129351378Y-123393849D01*
X129351378Y-123393849D02*
X129494190Y-123582064D01*
X129494190Y-123582064D02*
X129608573Y-123793950D01*
X129608573Y-123793950D02*
X129692011Y-124021525D01*
X129692011Y-124021525D02*
X129741991Y-124256808D01*
X129741991Y-124256808D02*
X129755999Y-124491820D01*
X129755999Y-124491820D02*
X129744496Y-124641585D01*
X129744496Y-124641585D02*
X129692107Y-124898721D01*
X129692107Y-124898721D02*
X129606817Y-125131421D01*
X129606817Y-125131421D02*
X129486168Y-125344668D01*
X129486168Y-125344668D02*
X129327699Y-125543444D01*
X129327699Y-125543444D02*
X129269572Y-125603841D01*
X129269572Y-125603841D02*
X129076841Y-125766985D01*
X129076841Y-125766985D02*
X128859957Y-125898263D01*
X128859957Y-125898263D02*
X128626379Y-125993425D01*
X128626379Y-125993425D02*
X128545692Y-126016488D01*
X128545692Y-126016488D02*
X128383472Y-126045363D01*
X128383472Y-126045363D02*
X128199569Y-126057517D01*
X128199569Y-126057517D02*
X128011175Y-126052999D01*
X128011175Y-126052999D02*
X127835478Y-126031854D01*
X127835478Y-126031854D02*
X127754828Y-126014301D01*
X127754828Y-126014301D02*
X127507423Y-125928561D01*
X127507423Y-125928561D02*
X127281204Y-125807422D01*
X127281204Y-125807422D02*
X127079074Y-125653668D01*
X127079074Y-125653668D02*
X126903936Y-125470081D01*
X126903936Y-125470081D02*
X126758693Y-125259444D01*
X126758693Y-125259444D02*
X126646249Y-125024541D01*
X126646249Y-125024541D02*
X126608182Y-124915084D01*
X126608182Y-124915084D02*
X126587263Y-124841105D01*
X126587263Y-124841105D02*
X126573103Y-124770828D01*
X126573103Y-124770828D02*
X126564476Y-124692925D01*
X126564476Y-124692925D02*
X126560155Y-124596069D01*
X126560155Y-124596069D02*
X126558914Y-124468932D01*
X126558914Y-124468932D02*
X126558911Y-124460000D01*
X126558911Y-124460000D02*
X126560005Y-124330663D01*
X126560005Y-124330663D02*
X126564104Y-124232293D01*
X126564104Y-124232293D02*
X126572435Y-124153564D01*
X126572435Y-124153564D02*
X126586225Y-124083148D01*
X126586225Y-124083148D02*
X126606699Y-124009716D01*
X126606699Y-124009716D02*
X126608182Y-124004917D01*
X126608182Y-124004917D02*
X126705273Y-123759779D01*
X126705273Y-123759779D02*
X126835132Y-123539265D01*
X126835132Y-123539265D02*
X126994643Y-123345676D01*
X126994643Y-123345676D02*
X127180685Y-123181314D01*
X127180685Y-123181314D02*
X127390141Y-123048480D01*
X127390141Y-123048480D02*
X127619892Y-122949475D01*
X127619892Y-122949475D02*
X127866819Y-122886601D01*
X127866819Y-122886601D02*
X128127803Y-122862160D01*
X128127803Y-122862160D02*
X128156994Y-122861917D01*
X128156994Y-122861917D02*
X128418327Y-122882312D01*
X128418327Y-122882312D02*
X128418327Y-122882312D01*
G36*
X128418327Y-122882312D02*
G01*
X128667254Y-122942659D01*
X128900948Y-123041698D01*
X129116583Y-123178172D01*
X129311331Y-123350820D01*
X129351378Y-123393849D01*
X129494190Y-123582064D01*
X129608573Y-123793950D01*
X129692011Y-124021525D01*
X129741991Y-124256808D01*
X129755999Y-124491820D01*
X129744496Y-124641585D01*
X129692107Y-124898721D01*
X129606817Y-125131421D01*
X129486168Y-125344668D01*
X129327699Y-125543444D01*
X129269572Y-125603841D01*
X129076841Y-125766985D01*
X128859957Y-125898263D01*
X128626379Y-125993425D01*
X128545692Y-126016488D01*
X128383472Y-126045363D01*
X128199569Y-126057517D01*
X128011175Y-126052999D01*
X127835478Y-126031854D01*
X127754828Y-126014301D01*
X127507423Y-125928561D01*
X127281204Y-125807422D01*
X127079074Y-125653668D01*
X126903936Y-125470081D01*
X126758693Y-125259444D01*
X126646249Y-125024541D01*
X126608182Y-124915084D01*
X126587263Y-124841105D01*
X126573103Y-124770828D01*
X126564476Y-124692925D01*
X126560155Y-124596069D01*
X126558914Y-124468932D01*
X126558911Y-124460000D01*
X126560005Y-124330663D01*
X126564104Y-124232293D01*
X126572435Y-124153564D01*
X126586225Y-124083148D01*
X126606699Y-124009716D01*
X126608182Y-124004917D01*
X126705273Y-123759779D01*
X126835132Y-123539265D01*
X126994643Y-123345676D01*
X127180685Y-123181314D01*
X127390141Y-123048480D01*
X127619892Y-122949475D01*
X127866819Y-122886601D01*
X128127803Y-122862160D01*
X128156994Y-122861917D01*
X128418327Y-122882312D01*
G37*
X128418327Y-122882312D02*
X128667254Y-122942659D01*
X128900948Y-123041698D01*
X129116583Y-123178172D01*
X129311331Y-123350820D01*
X129351378Y-123393849D01*
X129494190Y-123582064D01*
X129608573Y-123793950D01*
X129692011Y-124021525D01*
X129741991Y-124256808D01*
X129755999Y-124491820D01*
X129744496Y-124641585D01*
X129692107Y-124898721D01*
X129606817Y-125131421D01*
X129486168Y-125344668D01*
X129327699Y-125543444D01*
X129269572Y-125603841D01*
X129076841Y-125766985D01*
X128859957Y-125898263D01*
X128626379Y-125993425D01*
X128545692Y-126016488D01*
X128383472Y-126045363D01*
X128199569Y-126057517D01*
X128011175Y-126052999D01*
X127835478Y-126031854D01*
X127754828Y-126014301D01*
X127507423Y-125928561D01*
X127281204Y-125807422D01*
X127079074Y-125653668D01*
X126903936Y-125470081D01*
X126758693Y-125259444D01*
X126646249Y-125024541D01*
X126608182Y-124915084D01*
X126587263Y-124841105D01*
X126573103Y-124770828D01*
X126564476Y-124692925D01*
X126560155Y-124596069D01*
X126558914Y-124468932D01*
X126558911Y-124460000D01*
X126560005Y-124330663D01*
X126564104Y-124232293D01*
X126572435Y-124153564D01*
X126586225Y-124083148D01*
X126606699Y-124009716D01*
X126608182Y-124004917D01*
X126705273Y-123759779D01*
X126835132Y-123539265D01*
X126994643Y-123345676D01*
X127180685Y-123181314D01*
X127390141Y-123048480D01*
X127619892Y-122949475D01*
X127866819Y-122886601D01*
X128127803Y-122862160D01*
X128156994Y-122861917D01*
X128418327Y-122882312D01*
X140470190Y-113064626D02*
X140635260Y-113084027D01*
X140635260Y-113084027D02*
X140672313Y-113090653D01*
X140672313Y-113090653D02*
X140991585Y-113173623D01*
X140991585Y-113173623D02*
X141292349Y-113294230D01*
X141292349Y-113294230D02*
X141572872Y-113451558D01*
X141572872Y-113451558D02*
X141831418Y-113644691D01*
X141831418Y-113644691D02*
X141978433Y-113780526D01*
X141978433Y-113780526D02*
X142191822Y-114022130D01*
X142191822Y-114022130D02*
X142369170Y-114282149D01*
X142369170Y-114282149D02*
X142510425Y-114557154D01*
X142510425Y-114557154D02*
X142615535Y-114843713D01*
X142615535Y-114843713D02*
X142684447Y-115138398D01*
X142684447Y-115138398D02*
X142717108Y-115437776D01*
X142717108Y-115437776D02*
X142713466Y-115738417D01*
X142713466Y-115738417D02*
X142673467Y-116036892D01*
X142673467Y-116036892D02*
X142597061Y-116329769D01*
X142597061Y-116329769D02*
X142484192Y-116613618D01*
X142484192Y-116613618D02*
X142334811Y-116885009D01*
X142334811Y-116885009D02*
X142148862Y-117140510D01*
X142148862Y-117140510D02*
X142031977Y-117271981D01*
X142031977Y-117271981D02*
X141788662Y-117498297D01*
X141788662Y-117498297D02*
X141525779Y-117687203D01*
X141525779Y-117687203D02*
X141243913Y-117838385D01*
X141243913Y-117838385D02*
X140943645Y-117951528D01*
X140943645Y-117951528D02*
X140637171Y-118024319D01*
X140637171Y-118024319D02*
X140497739Y-118041893D01*
X140497739Y-118041893D02*
X140334567Y-118051802D01*
X140334567Y-118051802D02*
X140162216Y-118054016D01*
X140162216Y-118054016D02*
X139995246Y-118048507D01*
X139995246Y-118048507D02*
X139848217Y-118035249D01*
X139848217Y-118035249D02*
X139788078Y-118025953D01*
X139788078Y-118025953D02*
X139467724Y-117946290D01*
X139467724Y-117946290D02*
X139166916Y-117830091D01*
X139166916Y-117830091D02*
X138887733Y-117679380D01*
X138887733Y-117679380D02*
X138632252Y-117496184D01*
X138632252Y-117496184D02*
X138402550Y-117282527D01*
X138402550Y-117282527D02*
X138200707Y-117040434D01*
X138200707Y-117040434D02*
X138028800Y-116771931D01*
X138028800Y-116771931D02*
X137888907Y-116479043D01*
X137888907Y-116479043D02*
X137783105Y-116163794D01*
X137783105Y-116163794D02*
X137753222Y-116042813D01*
X137753222Y-116042813D02*
X137734496Y-115925620D01*
X137734496Y-115925620D02*
X137722387Y-115778971D01*
X137722387Y-115778971D02*
X137716884Y-115615224D01*
X137716884Y-115615224D02*
X137717978Y-115446734D01*
X137717978Y-115446734D02*
X137725658Y-115285859D01*
X137725658Y-115285859D02*
X137739914Y-115144953D01*
X137739914Y-115144953D02*
X137754054Y-115063661D01*
X137754054Y-115063661D02*
X137845233Y-114743243D01*
X137845233Y-114743243D02*
X137971682Y-114443614D01*
X137971682Y-114443614D02*
X138131204Y-114166939D01*
X138131204Y-114166939D02*
X138321608Y-113915381D01*
X138321608Y-113915381D02*
X138540698Y-113691105D01*
X138540698Y-113691105D02*
X138786282Y-113496276D01*
X138786282Y-113496276D02*
X139056165Y-113333057D01*
X139056165Y-113333057D02*
X139348154Y-113203612D01*
X139348154Y-113203612D02*
X139660055Y-113110106D01*
X139660055Y-113110106D02*
X139754823Y-113089844D01*
X139754823Y-113089844D02*
X139910885Y-113068089D01*
X139910885Y-113068089D02*
X140092481Y-113056644D01*
X140092481Y-113056644D02*
X140284090Y-113055494D01*
X140284090Y-113055494D02*
X140470190Y-113064626D01*
X140470190Y-113064626D02*
X140470190Y-113064626D01*
G36*
X140470190Y-113064626D02*
G01*
X140635260Y-113084027D01*
X140672313Y-113090653D01*
X140991585Y-113173623D01*
X141292349Y-113294230D01*
X141572872Y-113451558D01*
X141831418Y-113644691D01*
X141978433Y-113780526D01*
X142191822Y-114022130D01*
X142369170Y-114282149D01*
X142510425Y-114557154D01*
X142615535Y-114843713D01*
X142684447Y-115138398D01*
X142717108Y-115437776D01*
X142713466Y-115738417D01*
X142673467Y-116036892D01*
X142597061Y-116329769D01*
X142484192Y-116613618D01*
X142334811Y-116885009D01*
X142148862Y-117140510D01*
X142031977Y-117271981D01*
X141788662Y-117498297D01*
X141525779Y-117687203D01*
X141243913Y-117838385D01*
X140943645Y-117951528D01*
X140637171Y-118024319D01*
X140497739Y-118041893D01*
X140334567Y-118051802D01*
X140162216Y-118054016D01*
X139995246Y-118048507D01*
X139848217Y-118035249D01*
X139788078Y-118025953D01*
X139467724Y-117946290D01*
X139166916Y-117830091D01*
X138887733Y-117679380D01*
X138632252Y-117496184D01*
X138402550Y-117282527D01*
X138200707Y-117040434D01*
X138028800Y-116771931D01*
X137888907Y-116479043D01*
X137783105Y-116163794D01*
X137753222Y-116042813D01*
X137734496Y-115925620D01*
X137722387Y-115778971D01*
X137716884Y-115615224D01*
X137717978Y-115446734D01*
X137725658Y-115285859D01*
X137739914Y-115144953D01*
X137754054Y-115063661D01*
X137845233Y-114743243D01*
X137971682Y-114443614D01*
X138131204Y-114166939D01*
X138321608Y-113915381D01*
X138540698Y-113691105D01*
X138786282Y-113496276D01*
X139056165Y-113333057D01*
X139348154Y-113203612D01*
X139660055Y-113110106D01*
X139754823Y-113089844D01*
X139910885Y-113068089D01*
X140092481Y-113056644D01*
X140284090Y-113055494D01*
X140470190Y-113064626D01*
G37*
X140470190Y-113064626D02*
X140635260Y-113084027D01*
X140672313Y-113090653D01*
X140991585Y-113173623D01*
X141292349Y-113294230D01*
X141572872Y-113451558D01*
X141831418Y-113644691D01*
X141978433Y-113780526D01*
X142191822Y-114022130D01*
X142369170Y-114282149D01*
X142510425Y-114557154D01*
X142615535Y-114843713D01*
X142684447Y-115138398D01*
X142717108Y-115437776D01*
X142713466Y-115738417D01*
X142673467Y-116036892D01*
X142597061Y-116329769D01*
X142484192Y-116613618D01*
X142334811Y-116885009D01*
X142148862Y-117140510D01*
X142031977Y-117271981D01*
X141788662Y-117498297D01*
X141525779Y-117687203D01*
X141243913Y-117838385D01*
X140943645Y-117951528D01*
X140637171Y-118024319D01*
X140497739Y-118041893D01*
X140334567Y-118051802D01*
X140162216Y-118054016D01*
X139995246Y-118048507D01*
X139848217Y-118035249D01*
X139788078Y-118025953D01*
X139467724Y-117946290D01*
X139166916Y-117830091D01*
X138887733Y-117679380D01*
X138632252Y-117496184D01*
X138402550Y-117282527D01*
X138200707Y-117040434D01*
X138028800Y-116771931D01*
X137888907Y-116479043D01*
X137783105Y-116163794D01*
X137753222Y-116042813D01*
X137734496Y-115925620D01*
X137722387Y-115778971D01*
X137716884Y-115615224D01*
X137717978Y-115446734D01*
X137725658Y-115285859D01*
X137739914Y-115144953D01*
X137754054Y-115063661D01*
X137845233Y-114743243D01*
X137971682Y-114443614D01*
X138131204Y-114166939D01*
X138321608Y-113915381D01*
X138540698Y-113691105D01*
X138786282Y-113496276D01*
X139056165Y-113333057D01*
X139348154Y-113203612D01*
X139660055Y-113110106D01*
X139754823Y-113089844D01*
X139910885Y-113068089D01*
X140092481Y-113056644D01*
X140284090Y-113055494D01*
X140470190Y-113064626D01*
X137966604Y-141690709D02*
X138329228Y-141743459D01*
X138329228Y-141743459D02*
X138541137Y-141793565D01*
X138541137Y-141793565D02*
X138870342Y-141904504D01*
X138870342Y-141904504D02*
X139186855Y-142053937D01*
X139186855Y-142053937D02*
X139487020Y-142238999D01*
X139487020Y-142238999D02*
X139767177Y-142456826D01*
X139767177Y-142456826D02*
X140023669Y-142704552D01*
X140023669Y-142704552D02*
X140252838Y-142979314D01*
X140252838Y-142979314D02*
X140451025Y-143278245D01*
X140451025Y-143278245D02*
X140462684Y-143298334D01*
X140462684Y-143298334D02*
X140619326Y-143612308D01*
X140619326Y-143612308D02*
X140739239Y-143943495D01*
X140739239Y-143943495D02*
X140821999Y-144287335D01*
X140821999Y-144287335D02*
X140867185Y-144639271D01*
X140867185Y-144639271D02*
X140874373Y-144994745D01*
X140874373Y-144994745D02*
X140843140Y-145349196D01*
X140843140Y-145349196D02*
X140773064Y-145698069D01*
X140773064Y-145698069D02*
X140705979Y-145921160D01*
X140705979Y-145921160D02*
X140569674Y-146255092D01*
X140569674Y-146255092D02*
X140397810Y-146568689D01*
X140397810Y-146568689D02*
X140193159Y-146859589D01*
X140193159Y-146859589D02*
X139958491Y-147125429D01*
X139958491Y-147125429D02*
X139696578Y-147363844D01*
X139696578Y-147363844D02*
X139410191Y-147572471D01*
X139410191Y-147572471D02*
X139102102Y-147748946D01*
X139102102Y-147748946D02*
X138775080Y-147890907D01*
X138775080Y-147890907D02*
X138431898Y-147995990D01*
X138431898Y-147995990D02*
X138221744Y-148039945D01*
X138221744Y-148039945D02*
X138073606Y-148059881D01*
X138073606Y-148059881D02*
X137900830Y-148073880D01*
X137900830Y-148073880D02*
X137717890Y-148081490D01*
X137717890Y-148081490D02*
X137539257Y-148082263D01*
X137539257Y-148082263D02*
X137379405Y-148075749D01*
X137379405Y-148075749D02*
X137301640Y-148068532D01*
X137301640Y-148068532D02*
X136973980Y-148009897D01*
X136973980Y-148009897D02*
X136644793Y-147913739D01*
X136644793Y-147913739D02*
X136322904Y-147783583D01*
X136322904Y-147783583D02*
X136017141Y-147622955D01*
X136017141Y-147622955D02*
X135759509Y-147452652D01*
X135759509Y-147452652D02*
X135655732Y-147369275D01*
X135655732Y-147369275D02*
X135536605Y-147262602D01*
X135536605Y-147262602D02*
X135412442Y-147142840D01*
X135412442Y-147142840D02*
X135293554Y-147020195D01*
X135293554Y-147020195D02*
X135190255Y-146904874D01*
X135190255Y-146904874D02*
X135127694Y-146827315D01*
X135127694Y-146827315D02*
X134920835Y-146518525D01*
X134920835Y-146518525D02*
X134752595Y-146194891D01*
X134752595Y-146194891D02*
X134623201Y-145859300D01*
X134623201Y-145859300D02*
X134532881Y-145514635D01*
X134532881Y-145514635D02*
X134481863Y-145163784D01*
X134481863Y-145163784D02*
X134470372Y-144809630D01*
X134470372Y-144809630D02*
X134498638Y-144455059D01*
X134498638Y-144455059D02*
X134566886Y-144102956D01*
X134566886Y-144102956D02*
X134675345Y-143756207D01*
X134675345Y-143756207D02*
X134824241Y-143417697D01*
X134824241Y-143417697D02*
X134854490Y-143359487D01*
X134854490Y-143359487D02*
X134998030Y-143116991D01*
X134998030Y-143116991D02*
X135163539Y-142891024D01*
X135163539Y-142891024D02*
X135359750Y-142669926D01*
X135359750Y-142669926D02*
X135406583Y-142622106D01*
X135406583Y-142622106D02*
X135682283Y-142373301D01*
X135682283Y-142373301D02*
X135977019Y-142162244D01*
X135977019Y-142162244D02*
X136291570Y-141988490D01*
X136291570Y-141988490D02*
X136626716Y-141851592D01*
X136626716Y-141851592D02*
X136888759Y-141773672D01*
X136888759Y-141773672D02*
X137241580Y-141705758D01*
X137241580Y-141705758D02*
X137602458Y-141678122D01*
X137602458Y-141678122D02*
X137966604Y-141690709D01*
X137966604Y-141690709D02*
X137966604Y-141690709D01*
G36*
X137966604Y-141690709D02*
G01*
X138329228Y-141743459D01*
X138541137Y-141793565D01*
X138870342Y-141904504D01*
X139186855Y-142053937D01*
X139487020Y-142238999D01*
X139767177Y-142456826D01*
X140023669Y-142704552D01*
X140252838Y-142979314D01*
X140451025Y-143278245D01*
X140462684Y-143298334D01*
X140619326Y-143612308D01*
X140739239Y-143943495D01*
X140821999Y-144287335D01*
X140867185Y-144639271D01*
X140874373Y-144994745D01*
X140843140Y-145349196D01*
X140773064Y-145698069D01*
X140705979Y-145921160D01*
X140569674Y-146255092D01*
X140397810Y-146568689D01*
X140193159Y-146859589D01*
X139958491Y-147125429D01*
X139696578Y-147363844D01*
X139410191Y-147572471D01*
X139102102Y-147748946D01*
X138775080Y-147890907D01*
X138431898Y-147995990D01*
X138221744Y-148039945D01*
X138073606Y-148059881D01*
X137900830Y-148073880D01*
X137717890Y-148081490D01*
X137539257Y-148082263D01*
X137379405Y-148075749D01*
X137301640Y-148068532D01*
X136973980Y-148009897D01*
X136644793Y-147913739D01*
X136322904Y-147783583D01*
X136017141Y-147622955D01*
X135759509Y-147452652D01*
X135655732Y-147369275D01*
X135536605Y-147262602D01*
X135412442Y-147142840D01*
X135293554Y-147020195D01*
X135190255Y-146904874D01*
X135127694Y-146827315D01*
X134920835Y-146518525D01*
X134752595Y-146194891D01*
X134623201Y-145859300D01*
X134532881Y-145514635D01*
X134481863Y-145163784D01*
X134470372Y-144809630D01*
X134498638Y-144455059D01*
X134566886Y-144102956D01*
X134675345Y-143756207D01*
X134824241Y-143417697D01*
X134854490Y-143359487D01*
X134998030Y-143116991D01*
X135163539Y-142891024D01*
X135359750Y-142669926D01*
X135406583Y-142622106D01*
X135682283Y-142373301D01*
X135977019Y-142162244D01*
X136291570Y-141988490D01*
X136626716Y-141851592D01*
X136888759Y-141773672D01*
X137241580Y-141705758D01*
X137602458Y-141678122D01*
X137966604Y-141690709D01*
G37*
X137966604Y-141690709D02*
X138329228Y-141743459D01*
X138541137Y-141793565D01*
X138870342Y-141904504D01*
X139186855Y-142053937D01*
X139487020Y-142238999D01*
X139767177Y-142456826D01*
X140023669Y-142704552D01*
X140252838Y-142979314D01*
X140451025Y-143278245D01*
X140462684Y-143298334D01*
X140619326Y-143612308D01*
X140739239Y-143943495D01*
X140821999Y-144287335D01*
X140867185Y-144639271D01*
X140874373Y-144994745D01*
X140843140Y-145349196D01*
X140773064Y-145698069D01*
X140705979Y-145921160D01*
X140569674Y-146255092D01*
X140397810Y-146568689D01*
X140193159Y-146859589D01*
X139958491Y-147125429D01*
X139696578Y-147363844D01*
X139410191Y-147572471D01*
X139102102Y-147748946D01*
X138775080Y-147890907D01*
X138431898Y-147995990D01*
X138221744Y-148039945D01*
X138073606Y-148059881D01*
X137900830Y-148073880D01*
X137717890Y-148081490D01*
X137539257Y-148082263D01*
X137379405Y-148075749D01*
X137301640Y-148068532D01*
X136973980Y-148009897D01*
X136644793Y-147913739D01*
X136322904Y-147783583D01*
X136017141Y-147622955D01*
X135759509Y-147452652D01*
X135655732Y-147369275D01*
X135536605Y-147262602D01*
X135412442Y-147142840D01*
X135293554Y-147020195D01*
X135190255Y-146904874D01*
X135127694Y-146827315D01*
X134920835Y-146518525D01*
X134752595Y-146194891D01*
X134623201Y-145859300D01*
X134532881Y-145514635D01*
X134481863Y-145163784D01*
X134470372Y-144809630D01*
X134498638Y-144455059D01*
X134566886Y-144102956D01*
X134675345Y-143756207D01*
X134824241Y-143417697D01*
X134854490Y-143359487D01*
X134998030Y-143116991D01*
X135163539Y-142891024D01*
X135359750Y-142669926D01*
X135406583Y-142622106D01*
X135682283Y-142373301D01*
X135977019Y-142162244D01*
X136291570Y-141988490D01*
X136626716Y-141851592D01*
X136888759Y-141773672D01*
X137241580Y-141705758D01*
X137602458Y-141678122D01*
X137966604Y-141690709D01*
X140424493Y-124503626D02*
X140733373Y-124549719D01*
X140733373Y-124549719D02*
X141037924Y-124635477D01*
X141037924Y-124635477D02*
X141333244Y-124760756D01*
X141333244Y-124760756D02*
X141515580Y-124859901D01*
X141515580Y-124859901D02*
X141676390Y-124966054D01*
X141676390Y-124966054D02*
X141829450Y-125089293D01*
X141829450Y-125089293D02*
X141988533Y-125239695D01*
X141988533Y-125239695D02*
X141990228Y-125241396D01*
X141990228Y-125241396D02*
X142206549Y-125487728D01*
X142206549Y-125487728D02*
X142386235Y-125754210D01*
X142386235Y-125754210D02*
X142528331Y-126038544D01*
X142528331Y-126038544D02*
X142631884Y-126338430D01*
X142631884Y-126338430D02*
X142695941Y-126651570D01*
X142695941Y-126651570D02*
X142719548Y-126975666D01*
X142719548Y-126975666D02*
X142719661Y-127000000D01*
X142719661Y-127000000D02*
X142698926Y-127323719D01*
X142698926Y-127323719D02*
X142637459Y-127638193D01*
X142637459Y-127638193D02*
X142536363Y-127940639D01*
X142536363Y-127940639D02*
X142396741Y-128228276D01*
X142396741Y-128228276D02*
X142219699Y-128498321D01*
X142219699Y-128498321D02*
X142040035Y-128712572D01*
X142040035Y-128712572D02*
X141807136Y-128931583D01*
X141807136Y-128931583D02*
X141550351Y-129117254D01*
X141550351Y-129117254D02*
X141273456Y-129268292D01*
X141273456Y-129268292D02*
X140980230Y-129383399D01*
X140980230Y-129383399D02*
X140674448Y-129461282D01*
X140674448Y-129461282D02*
X140359890Y-129500645D01*
X140359890Y-129500645D02*
X140040333Y-129500192D01*
X140040333Y-129500192D02*
X139815286Y-129475428D01*
X139815286Y-129475428D02*
X139513022Y-129407394D01*
X139513022Y-129407394D02*
X139222987Y-129301002D01*
X139222987Y-129301002D02*
X138948570Y-129159296D01*
X138948570Y-129159296D02*
X138693157Y-128985317D01*
X138693157Y-128985317D02*
X138460137Y-128782109D01*
X138460137Y-128782109D02*
X138252898Y-128552714D01*
X138252898Y-128552714D02*
X138074827Y-128300174D01*
X138074827Y-128300174D02*
X137929314Y-128027532D01*
X137929314Y-128027532D02*
X137819745Y-127737831D01*
X137819745Y-127737831D02*
X137798740Y-127664490D01*
X137798740Y-127664490D02*
X137734315Y-127346060D01*
X137734315Y-127346060D02*
X137710730Y-127027254D01*
X137710730Y-127027254D02*
X137727072Y-126711559D01*
X137727072Y-126711559D02*
X137782428Y-126402464D01*
X137782428Y-126402464D02*
X137875888Y-126103457D01*
X137875888Y-126103457D02*
X138006537Y-125818025D01*
X138006537Y-125818025D02*
X138173465Y-125549657D01*
X138173465Y-125549657D02*
X138375758Y-125301842D01*
X138375758Y-125301842D02*
X138432012Y-125243244D01*
X138432012Y-125243244D02*
X138674233Y-125027801D01*
X138674233Y-125027801D02*
X138936365Y-124847993D01*
X138936365Y-124847993D02*
X139214945Y-124704395D01*
X139214945Y-124704395D02*
X139506511Y-124597584D01*
X139506511Y-124597584D02*
X139807600Y-124528135D01*
X139807600Y-124528135D02*
X140114748Y-124496623D01*
X140114748Y-124496623D02*
X140424493Y-124503626D01*
X140424493Y-124503626D02*
X140424493Y-124503626D01*
G36*
X140424493Y-124503626D02*
G01*
X140733373Y-124549719D01*
X141037924Y-124635477D01*
X141333244Y-124760756D01*
X141515580Y-124859901D01*
X141676390Y-124966054D01*
X141829450Y-125089293D01*
X141988533Y-125239695D01*
X141990228Y-125241396D01*
X142206549Y-125487728D01*
X142386235Y-125754210D01*
X142528331Y-126038544D01*
X142631884Y-126338430D01*
X142695941Y-126651570D01*
X142719548Y-126975666D01*
X142719661Y-127000000D01*
X142698926Y-127323719D01*
X142637459Y-127638193D01*
X142536363Y-127940639D01*
X142396741Y-128228276D01*
X142219699Y-128498321D01*
X142040035Y-128712572D01*
X141807136Y-128931583D01*
X141550351Y-129117254D01*
X141273456Y-129268292D01*
X140980230Y-129383399D01*
X140674448Y-129461282D01*
X140359890Y-129500645D01*
X140040333Y-129500192D01*
X139815286Y-129475428D01*
X139513022Y-129407394D01*
X139222987Y-129301002D01*
X138948570Y-129159296D01*
X138693157Y-128985317D01*
X138460137Y-128782109D01*
X138252898Y-128552714D01*
X138074827Y-128300174D01*
X137929314Y-128027532D01*
X137819745Y-127737831D01*
X137798740Y-127664490D01*
X137734315Y-127346060D01*
X137710730Y-127027254D01*
X137727072Y-126711559D01*
X137782428Y-126402464D01*
X137875888Y-126103457D01*
X138006537Y-125818025D01*
X138173465Y-125549657D01*
X138375758Y-125301842D01*
X138432012Y-125243244D01*
X138674233Y-125027801D01*
X138936365Y-124847993D01*
X139214945Y-124704395D01*
X139506511Y-124597584D01*
X139807600Y-124528135D01*
X140114748Y-124496623D01*
X140424493Y-124503626D01*
G37*
X140424493Y-124503626D02*
X140733373Y-124549719D01*
X141037924Y-124635477D01*
X141333244Y-124760756D01*
X141515580Y-124859901D01*
X141676390Y-124966054D01*
X141829450Y-125089293D01*
X141988533Y-125239695D01*
X141990228Y-125241396D01*
X142206549Y-125487728D01*
X142386235Y-125754210D01*
X142528331Y-126038544D01*
X142631884Y-126338430D01*
X142695941Y-126651570D01*
X142719548Y-126975666D01*
X142719661Y-127000000D01*
X142698926Y-127323719D01*
X142637459Y-127638193D01*
X142536363Y-127940639D01*
X142396741Y-128228276D01*
X142219699Y-128498321D01*
X142040035Y-128712572D01*
X141807136Y-128931583D01*
X141550351Y-129117254D01*
X141273456Y-129268292D01*
X140980230Y-129383399D01*
X140674448Y-129461282D01*
X140359890Y-129500645D01*
X140040333Y-129500192D01*
X139815286Y-129475428D01*
X139513022Y-129407394D01*
X139222987Y-129301002D01*
X138948570Y-129159296D01*
X138693157Y-128985317D01*
X138460137Y-128782109D01*
X138252898Y-128552714D01*
X138074827Y-128300174D01*
X137929314Y-128027532D01*
X137819745Y-127737831D01*
X137798740Y-127664490D01*
X137734315Y-127346060D01*
X137710730Y-127027254D01*
X137727072Y-126711559D01*
X137782428Y-126402464D01*
X137875888Y-126103457D01*
X138006537Y-125818025D01*
X138173465Y-125549657D01*
X138375758Y-125301842D01*
X138432012Y-125243244D01*
X138674233Y-125027801D01*
X138936365Y-124847993D01*
X139214945Y-124704395D01*
X139506511Y-124597584D01*
X139807600Y-124528135D01*
X140114748Y-124496623D01*
X140424493Y-124503626D01*
X133518472Y-116528136D02*
X133750315Y-116588103D01*
X133750315Y-116588103D02*
X133969478Y-116678635D01*
X133969478Y-116678635D02*
X134055153Y-116725207D01*
X134055153Y-116725207D02*
X134149244Y-116790774D01*
X134149244Y-116790774D02*
X134256657Y-116881897D01*
X134256657Y-116881897D02*
X134367598Y-116988670D01*
X134367598Y-116988670D02*
X134472271Y-117101187D01*
X134472271Y-117101187D02*
X134560879Y-117209542D01*
X134560879Y-117209542D02*
X134618661Y-117295084D01*
X134618661Y-117295084D02*
X134726641Y-117522003D01*
X134726641Y-117522003D02*
X134797131Y-117762694D01*
X134797131Y-117762694D02*
X134829947Y-118011251D01*
X134829947Y-118011251D02*
X134824907Y-118261767D01*
X134824907Y-118261767D02*
X134781829Y-118508336D01*
X134781829Y-118508336D02*
X134700530Y-118745052D01*
X134700530Y-118745052D02*
X134665757Y-118819058D01*
X134665757Y-118819058D02*
X134529368Y-119044195D01*
X134529368Y-119044195D02*
X134362063Y-119241215D01*
X134362063Y-119241215D02*
X134166329Y-119408009D01*
X134166329Y-119408009D02*
X133944656Y-119542468D01*
X133944656Y-119542468D02*
X133699529Y-119642481D01*
X133699529Y-119642481D02*
X133692078Y-119644852D01*
X133692078Y-119644852D02*
X133553115Y-119676971D01*
X133553115Y-119676971D02*
X133388724Y-119696523D01*
X133388724Y-119696523D02*
X133214024Y-119703107D01*
X133214024Y-119703107D02*
X133044134Y-119696322D01*
X133044134Y-119696322D02*
X132894175Y-119675768D01*
X132894175Y-119675768D02*
X132855994Y-119667027D01*
X132855994Y-119667027D02*
X132627271Y-119593440D01*
X132627271Y-119593440D02*
X132425507Y-119494652D01*
X132425507Y-119494652D02*
X132241138Y-119364991D01*
X132241138Y-119364991D02*
X132064602Y-119198786D01*
X132064602Y-119198786D02*
X132062244Y-119196282D01*
X132062244Y-119196282D02*
X131936280Y-119050448D01*
X131936280Y-119050448D02*
X131838951Y-118907566D01*
X131838951Y-118907566D02*
X131760807Y-118752102D01*
X131760807Y-118752102D02*
X131707382Y-118612946D01*
X131707382Y-118612946D02*
X131655385Y-118411263D01*
X131655385Y-118411263D02*
X131629993Y-118192222D01*
X131629993Y-118192222D02*
X131631906Y-117971285D01*
X131631906Y-117971285D02*
X131661826Y-117763918D01*
X131661826Y-117763918D02*
X131667768Y-117738928D01*
X131667768Y-117738928D02*
X131751604Y-117486159D01*
X131751604Y-117486159D02*
X131869570Y-117256673D01*
X131869570Y-117256673D02*
X132018995Y-117052831D01*
X132018995Y-117052831D02*
X132197210Y-116876992D01*
X132197210Y-116876992D02*
X132401543Y-116731514D01*
X132401543Y-116731514D02*
X132629323Y-116618757D01*
X132629323Y-116618757D02*
X132877882Y-116541081D01*
X132877882Y-116541081D02*
X133059706Y-116509220D01*
X133059706Y-116509220D02*
X133284690Y-116501065D01*
X133284690Y-116501065D02*
X133518472Y-116528136D01*
X133518472Y-116528136D02*
X133518472Y-116528136D01*
G36*
X133518472Y-116528136D02*
G01*
X133750315Y-116588103D01*
X133969478Y-116678635D01*
X134055153Y-116725207D01*
X134149244Y-116790774D01*
X134256657Y-116881897D01*
X134367598Y-116988670D01*
X134472271Y-117101187D01*
X134560879Y-117209542D01*
X134618661Y-117295084D01*
X134726641Y-117522003D01*
X134797131Y-117762694D01*
X134829947Y-118011251D01*
X134824907Y-118261767D01*
X134781829Y-118508336D01*
X134700530Y-118745052D01*
X134665757Y-118819058D01*
X134529368Y-119044195D01*
X134362063Y-119241215D01*
X134166329Y-119408009D01*
X133944656Y-119542468D01*
X133699529Y-119642481D01*
X133692078Y-119644852D01*
X133553115Y-119676971D01*
X133388724Y-119696523D01*
X133214024Y-119703107D01*
X133044134Y-119696322D01*
X132894175Y-119675768D01*
X132855994Y-119667027D01*
X132627271Y-119593440D01*
X132425507Y-119494652D01*
X132241138Y-119364991D01*
X132064602Y-119198786D01*
X132062244Y-119196282D01*
X131936280Y-119050448D01*
X131838951Y-118907566D01*
X131760807Y-118752102D01*
X131707382Y-118612946D01*
X131655385Y-118411263D01*
X131629993Y-118192222D01*
X131631906Y-117971285D01*
X131661826Y-117763918D01*
X131667768Y-117738928D01*
X131751604Y-117486159D01*
X131869570Y-117256673D01*
X132018995Y-117052831D01*
X132197210Y-116876992D01*
X132401543Y-116731514D01*
X132629323Y-116618757D01*
X132877882Y-116541081D01*
X133059706Y-116509220D01*
X133284690Y-116501065D01*
X133518472Y-116528136D01*
G37*
X133518472Y-116528136D02*
X133750315Y-116588103D01*
X133969478Y-116678635D01*
X134055153Y-116725207D01*
X134149244Y-116790774D01*
X134256657Y-116881897D01*
X134367598Y-116988670D01*
X134472271Y-117101187D01*
X134560879Y-117209542D01*
X134618661Y-117295084D01*
X134726641Y-117522003D01*
X134797131Y-117762694D01*
X134829947Y-118011251D01*
X134824907Y-118261767D01*
X134781829Y-118508336D01*
X134700530Y-118745052D01*
X134665757Y-118819058D01*
X134529368Y-119044195D01*
X134362063Y-119241215D01*
X134166329Y-119408009D01*
X133944656Y-119542468D01*
X133699529Y-119642481D01*
X133692078Y-119644852D01*
X133553115Y-119676971D01*
X133388724Y-119696523D01*
X133214024Y-119703107D01*
X133044134Y-119696322D01*
X132894175Y-119675768D01*
X132855994Y-119667027D01*
X132627271Y-119593440D01*
X132425507Y-119494652D01*
X132241138Y-119364991D01*
X132064602Y-119198786D01*
X132062244Y-119196282D01*
X131936280Y-119050448D01*
X131838951Y-118907566D01*
X131760807Y-118752102D01*
X131707382Y-118612946D01*
X131655385Y-118411263D01*
X131629993Y-118192222D01*
X131631906Y-117971285D01*
X131661826Y-117763918D01*
X131667768Y-117738928D01*
X131751604Y-117486159D01*
X131869570Y-117256673D01*
X132018995Y-117052831D01*
X132197210Y-116876992D01*
X132401543Y-116731514D01*
X132629323Y-116618757D01*
X132877882Y-116541081D01*
X133059706Y-116509220D01*
X133284690Y-116501065D01*
X133518472Y-116528136D01*
X122592206Y-154436908D02*
X122771558Y-154446700D01*
X122771558Y-154446700D02*
X122927682Y-154463737D01*
X122927682Y-154463737D02*
X122971161Y-154470816D01*
X122971161Y-154470816D02*
X123336829Y-154557523D01*
X123336829Y-154557523D02*
X123684399Y-154682183D01*
X123684399Y-154682183D02*
X124012166Y-154843719D01*
X124012166Y-154843719D02*
X124318423Y-155041055D01*
X124318423Y-155041055D02*
X124601465Y-155273112D01*
X124601465Y-155273112D02*
X124859588Y-155538813D01*
X124859588Y-155538813D02*
X125056469Y-155787999D01*
X125056469Y-155787999D02*
X125144667Y-155923516D01*
X125144667Y-155923516D02*
X125236897Y-156087249D01*
X125236897Y-156087249D02*
X125326931Y-156266344D01*
X125326931Y-156266344D02*
X125408545Y-156447944D01*
X125408545Y-156447944D02*
X125475512Y-156619195D01*
X125475512Y-156619195D02*
X125509710Y-156723869D01*
X125509710Y-156723869D02*
X125590898Y-157075698D01*
X125590898Y-157075698D02*
X125632036Y-157435793D01*
X125632036Y-157435793D02*
X125633216Y-157798968D01*
X125633216Y-157798968D02*
X125594528Y-158160039D01*
X125594528Y-158160039D02*
X125516063Y-158513820D01*
X125516063Y-158513820D02*
X125476198Y-158644167D01*
X125476198Y-158644167D02*
X125343412Y-158980543D01*
X125343412Y-158980543D02*
X125174937Y-159296352D01*
X125174937Y-159296352D02*
X124973219Y-159589410D01*
X124973219Y-159589410D02*
X124740704Y-159857533D01*
X124740704Y-159857533D02*
X124479836Y-160098536D01*
X124479836Y-160098536D02*
X124193061Y-160310236D01*
X124193061Y-160310236D02*
X123882825Y-160490449D01*
X123882825Y-160490449D02*
X123551572Y-160636989D01*
X123551572Y-160636989D02*
X123201749Y-160747674D01*
X123201749Y-160747674D02*
X123091690Y-160773972D01*
X123091690Y-160773972D02*
X122940580Y-160799451D01*
X122940580Y-160799451D02*
X122760016Y-160817227D01*
X122760016Y-160817227D02*
X122562205Y-160827113D01*
X122562205Y-160827113D02*
X122359354Y-160828922D01*
X122359354Y-160828922D02*
X122163671Y-160822467D01*
X122163671Y-160822467D02*
X121987361Y-160807562D01*
X121987361Y-160807562D02*
X121884443Y-160792445D01*
X121884443Y-160792445D02*
X121528969Y-160707404D01*
X121528969Y-160707404D02*
X121192751Y-160586576D01*
X121192751Y-160586576D02*
X120877418Y-160432477D01*
X120877418Y-160432477D02*
X120584599Y-160247626D01*
X120584599Y-160247626D02*
X120315922Y-160034539D01*
X120315922Y-160034539D02*
X120073015Y-159795735D01*
X120073015Y-159795735D02*
X119857508Y-159533731D01*
X119857508Y-159533731D02*
X119671030Y-159251043D01*
X119671030Y-159251043D02*
X119515208Y-158950190D01*
X119515208Y-158950190D02*
X119391671Y-158633688D01*
X119391671Y-158633688D02*
X119302048Y-158304056D01*
X119302048Y-158304056D02*
X119247969Y-157963810D01*
X119247969Y-157963810D02*
X119231060Y-157615468D01*
X119231060Y-157615468D02*
X119252952Y-157261547D01*
X119252952Y-157261547D02*
X119315272Y-156904565D01*
X119315272Y-156904565D02*
X119329948Y-156843977D01*
X119329948Y-156843977D02*
X119436603Y-156500103D01*
X119436603Y-156500103D02*
X119578194Y-156178055D01*
X119578194Y-156178055D02*
X119756343Y-155874923D01*
X119756343Y-155874923D02*
X119972673Y-155587797D01*
X119972673Y-155587797D02*
X120124025Y-155419320D01*
X120124025Y-155419320D02*
X120393102Y-155166445D01*
X120393102Y-155166445D02*
X120682122Y-154950481D01*
X120682122Y-154950481D02*
X120992131Y-154770869D01*
X120992131Y-154770869D02*
X121324173Y-154627053D01*
X121324173Y-154627053D02*
X121679293Y-154518474D01*
X121679293Y-154518474D02*
X121902244Y-154470311D01*
X121902244Y-154470311D02*
X122044645Y-154451062D01*
X122044645Y-154451062D02*
X122215763Y-154439083D01*
X122215763Y-154439083D02*
X122402612Y-154434367D01*
X122402612Y-154434367D02*
X122592206Y-154436908D01*
X122592206Y-154436908D02*
X122592206Y-154436908D01*
G36*
X122592206Y-154436908D02*
G01*
X122771558Y-154446700D01*
X122927682Y-154463737D01*
X122971161Y-154470816D01*
X123336829Y-154557523D01*
X123684399Y-154682183D01*
X124012166Y-154843719D01*
X124318423Y-155041055D01*
X124601465Y-155273112D01*
X124859588Y-155538813D01*
X125056469Y-155787999D01*
X125144667Y-155923516D01*
X125236897Y-156087249D01*
X125326931Y-156266344D01*
X125408545Y-156447944D01*
X125475512Y-156619195D01*
X125509710Y-156723869D01*
X125590898Y-157075698D01*
X125632036Y-157435793D01*
X125633216Y-157798968D01*
X125594528Y-158160039D01*
X125516063Y-158513820D01*
X125476198Y-158644167D01*
X125343412Y-158980543D01*
X125174937Y-159296352D01*
X124973219Y-159589410D01*
X124740704Y-159857533D01*
X124479836Y-160098536D01*
X124193061Y-160310236D01*
X123882825Y-160490449D01*
X123551572Y-160636989D01*
X123201749Y-160747674D01*
X123091690Y-160773972D01*
X122940580Y-160799451D01*
X122760016Y-160817227D01*
X122562205Y-160827113D01*
X122359354Y-160828922D01*
X122163671Y-160822467D01*
X121987361Y-160807562D01*
X121884443Y-160792445D01*
X121528969Y-160707404D01*
X121192751Y-160586576D01*
X120877418Y-160432477D01*
X120584599Y-160247626D01*
X120315922Y-160034539D01*
X120073015Y-159795735D01*
X119857508Y-159533731D01*
X119671030Y-159251043D01*
X119515208Y-158950190D01*
X119391671Y-158633688D01*
X119302048Y-158304056D01*
X119247969Y-157963810D01*
X119231060Y-157615468D01*
X119252952Y-157261547D01*
X119315272Y-156904565D01*
X119329948Y-156843977D01*
X119436603Y-156500103D01*
X119578194Y-156178055D01*
X119756343Y-155874923D01*
X119972673Y-155587797D01*
X120124025Y-155419320D01*
X120393102Y-155166445D01*
X120682122Y-154950481D01*
X120992131Y-154770869D01*
X121324173Y-154627053D01*
X121679293Y-154518474D01*
X121902244Y-154470311D01*
X122044645Y-154451062D01*
X122215763Y-154439083D01*
X122402612Y-154434367D01*
X122592206Y-154436908D01*
G37*
X122592206Y-154436908D02*
X122771558Y-154446700D01*
X122927682Y-154463737D01*
X122971161Y-154470816D01*
X123336829Y-154557523D01*
X123684399Y-154682183D01*
X124012166Y-154843719D01*
X124318423Y-155041055D01*
X124601465Y-155273112D01*
X124859588Y-155538813D01*
X125056469Y-155787999D01*
X125144667Y-155923516D01*
X125236897Y-156087249D01*
X125326931Y-156266344D01*
X125408545Y-156447944D01*
X125475512Y-156619195D01*
X125509710Y-156723869D01*
X125590898Y-157075698D01*
X125632036Y-157435793D01*
X125633216Y-157798968D01*
X125594528Y-158160039D01*
X125516063Y-158513820D01*
X125476198Y-158644167D01*
X125343412Y-158980543D01*
X125174937Y-159296352D01*
X124973219Y-159589410D01*
X124740704Y-159857533D01*
X124479836Y-160098536D01*
X124193061Y-160310236D01*
X123882825Y-160490449D01*
X123551572Y-160636989D01*
X123201749Y-160747674D01*
X123091690Y-160773972D01*
X122940580Y-160799451D01*
X122760016Y-160817227D01*
X122562205Y-160827113D01*
X122359354Y-160828922D01*
X122163671Y-160822467D01*
X121987361Y-160807562D01*
X121884443Y-160792445D01*
X121528969Y-160707404D01*
X121192751Y-160586576D01*
X120877418Y-160432477D01*
X120584599Y-160247626D01*
X120315922Y-160034539D01*
X120073015Y-159795735D01*
X119857508Y-159533731D01*
X119671030Y-159251043D01*
X119515208Y-158950190D01*
X119391671Y-158633688D01*
X119302048Y-158304056D01*
X119247969Y-157963810D01*
X119231060Y-157615468D01*
X119252952Y-157261547D01*
X119315272Y-156904565D01*
X119329948Y-156843977D01*
X119436603Y-156500103D01*
X119578194Y-156178055D01*
X119756343Y-155874923D01*
X119972673Y-155587797D01*
X120124025Y-155419320D01*
X120393102Y-155166445D01*
X120682122Y-154950481D01*
X120992131Y-154770869D01*
X121324173Y-154627053D01*
X121679293Y-154518474D01*
X121902244Y-154470311D01*
X122044645Y-154451062D01*
X122215763Y-154439083D01*
X122402612Y-154434367D01*
X122592206Y-154436908D01*
X140116161Y-172043195D02*
X140239667Y-172043968D01*
X140239667Y-172043968D02*
X140331703Y-172046768D01*
X140331703Y-172046768D02*
X140403131Y-172053052D01*
X140403131Y-172053052D02*
X140464809Y-172064276D01*
X140464809Y-172064276D02*
X140527599Y-172081898D01*
X140527599Y-172081898D02*
X140602360Y-172107375D01*
X140602360Y-172107375D02*
X140607099Y-172109055D01*
X140607099Y-172109055D02*
X140843240Y-172213788D01*
X140843240Y-172213788D02*
X141058783Y-172351338D01*
X141058783Y-172351338D02*
X141249539Y-172517727D01*
X141249539Y-172517727D02*
X141411318Y-172708979D01*
X141411318Y-172708979D02*
X141539932Y-172921117D01*
X141539932Y-172921117D02*
X141596113Y-173048084D01*
X141596113Y-173048084D02*
X141669750Y-173294436D01*
X141669750Y-173294436D02*
X141703092Y-173542872D01*
X141703092Y-173542872D02*
X141697734Y-173789344D01*
X141697734Y-173789344D02*
X141655269Y-174029804D01*
X141655269Y-174029804D02*
X141577288Y-174260205D01*
X141577288Y-174260205D02*
X141465386Y-174476499D01*
X141465386Y-174476499D02*
X141321155Y-174674639D01*
X141321155Y-174674639D02*
X141146189Y-174850578D01*
X141146189Y-174850578D02*
X140942080Y-175000269D01*
X140942080Y-175000269D02*
X140795987Y-175080868D01*
X140795987Y-175080868D02*
X140598304Y-175158422D01*
X140598304Y-175158422D02*
X140380277Y-175211369D01*
X140380277Y-175211369D02*
X140156485Y-175237355D01*
X140156485Y-175237355D02*
X139941509Y-175234024D01*
X139941509Y-175234024D02*
X139886582Y-175227754D01*
X139886582Y-175227754D02*
X139718644Y-175192944D01*
X139718644Y-175192944D02*
X139539994Y-175136216D01*
X139539994Y-175136216D02*
X139370850Y-175064551D01*
X139370850Y-175064551D02*
X139289652Y-175021563D01*
X139289652Y-175021563D02*
X139193998Y-174956163D01*
X139193998Y-174956163D02*
X139085132Y-174865778D01*
X139085132Y-174865778D02*
X138972983Y-174760227D01*
X138972983Y-174760227D02*
X138867476Y-174649328D01*
X138867476Y-174649328D02*
X138778539Y-174542899D01*
X138778539Y-174542899D02*
X138720785Y-174458909D01*
X138720785Y-174458909D02*
X138609518Y-174229316D01*
X138609518Y-174229316D02*
X138536379Y-173987218D01*
X138536379Y-173987218D02*
X138501559Y-173737967D01*
X138501559Y-173737967D02*
X138505246Y-173486917D01*
X138505246Y-173486917D02*
X138547632Y-173239423D01*
X138547632Y-173239423D02*
X138628906Y-173000838D01*
X138628906Y-173000838D02*
X138666232Y-172921109D01*
X138666232Y-172921109D02*
X138802726Y-172695524D01*
X138802726Y-172695524D02*
X138969771Y-172498713D01*
X138969771Y-172498713D02*
X139165440Y-172332302D01*
X139165440Y-172332302D02*
X139387802Y-172197913D01*
X139387802Y-172197913D02*
X139634929Y-172097173D01*
X139634929Y-172097173D02*
X139650494Y-172092236D01*
X139650494Y-172092236D02*
X139721993Y-172071743D01*
X139721993Y-172071743D02*
X139789256Y-172057734D01*
X139789256Y-172057734D02*
X139863120Y-172049067D01*
X139863120Y-172049067D02*
X139954422Y-172044600D01*
X139954422Y-172044600D02*
X140074001Y-172043192D01*
X140074001Y-172043192D02*
X140116161Y-172043195D01*
X140116161Y-172043195D02*
X140116161Y-172043195D01*
G36*
X140116161Y-172043195D02*
G01*
X140239667Y-172043968D01*
X140331703Y-172046768D01*
X140403131Y-172053052D01*
X140464809Y-172064276D01*
X140527599Y-172081898D01*
X140602360Y-172107375D01*
X140607099Y-172109055D01*
X140843240Y-172213788D01*
X141058783Y-172351338D01*
X141249539Y-172517727D01*
X141411318Y-172708979D01*
X141539932Y-172921117D01*
X141596113Y-173048084D01*
X141669750Y-173294436D01*
X141703092Y-173542872D01*
X141697734Y-173789344D01*
X141655269Y-174029804D01*
X141577288Y-174260205D01*
X141465386Y-174476499D01*
X141321155Y-174674639D01*
X141146189Y-174850578D01*
X140942080Y-175000269D01*
X140795987Y-175080868D01*
X140598304Y-175158422D01*
X140380277Y-175211369D01*
X140156485Y-175237355D01*
X139941509Y-175234024D01*
X139886582Y-175227754D01*
X139718644Y-175192944D01*
X139539994Y-175136216D01*
X139370850Y-175064551D01*
X139289652Y-175021563D01*
X139193998Y-174956163D01*
X139085132Y-174865778D01*
X138972983Y-174760227D01*
X138867476Y-174649328D01*
X138778539Y-174542899D01*
X138720785Y-174458909D01*
X138609518Y-174229316D01*
X138536379Y-173987218D01*
X138501559Y-173737967D01*
X138505246Y-173486917D01*
X138547632Y-173239423D01*
X138628906Y-173000838D01*
X138666232Y-172921109D01*
X138802726Y-172695524D01*
X138969771Y-172498713D01*
X139165440Y-172332302D01*
X139387802Y-172197913D01*
X139634929Y-172097173D01*
X139650494Y-172092236D01*
X139721993Y-172071743D01*
X139789256Y-172057734D01*
X139863120Y-172049067D01*
X139954422Y-172044600D01*
X140074001Y-172043192D01*
X140116161Y-172043195D01*
G37*
X140116161Y-172043195D02*
X140239667Y-172043968D01*
X140331703Y-172046768D01*
X140403131Y-172053052D01*
X140464809Y-172064276D01*
X140527599Y-172081898D01*
X140602360Y-172107375D01*
X140607099Y-172109055D01*
X140843240Y-172213788D01*
X141058783Y-172351338D01*
X141249539Y-172517727D01*
X141411318Y-172708979D01*
X141539932Y-172921117D01*
X141596113Y-173048084D01*
X141669750Y-173294436D01*
X141703092Y-173542872D01*
X141697734Y-173789344D01*
X141655269Y-174029804D01*
X141577288Y-174260205D01*
X141465386Y-174476499D01*
X141321155Y-174674639D01*
X141146189Y-174850578D01*
X140942080Y-175000269D01*
X140795987Y-175080868D01*
X140598304Y-175158422D01*
X140380277Y-175211369D01*
X140156485Y-175237355D01*
X139941509Y-175234024D01*
X139886582Y-175227754D01*
X139718644Y-175192944D01*
X139539994Y-175136216D01*
X139370850Y-175064551D01*
X139289652Y-175021563D01*
X139193998Y-174956163D01*
X139085132Y-174865778D01*
X138972983Y-174760227D01*
X138867476Y-174649328D01*
X138778539Y-174542899D01*
X138720785Y-174458909D01*
X138609518Y-174229316D01*
X138536379Y-173987218D01*
X138501559Y-173737967D01*
X138505246Y-173486917D01*
X138547632Y-173239423D01*
X138628906Y-173000838D01*
X138666232Y-172921109D01*
X138802726Y-172695524D01*
X138969771Y-172498713D01*
X139165440Y-172332302D01*
X139387802Y-172197913D01*
X139634929Y-172097173D01*
X139650494Y-172092236D01*
X139721993Y-172071743D01*
X139789256Y-172057734D01*
X139863120Y-172049067D01*
X139954422Y-172044600D01*
X140074001Y-172043192D01*
X140116161Y-172043195D01*
X143244457Y-154466147D02*
X143580382Y-154537094D01*
X143580382Y-154537094D02*
X143906197Y-154643193D01*
X143906197Y-154643193D02*
X144218961Y-154783365D01*
X144218961Y-154783365D02*
X144515734Y-154956531D01*
X144515734Y-154956531D02*
X144793576Y-155161613D01*
X144793576Y-155161613D02*
X145049547Y-155397531D01*
X145049547Y-155397531D02*
X145280706Y-155663207D01*
X145280706Y-155663207D02*
X145484113Y-155957562D01*
X145484113Y-155957562D02*
X145607007Y-156177336D01*
X145607007Y-156177336D02*
X145753920Y-156511260D01*
X145753920Y-156511260D02*
X145861676Y-156857244D01*
X145861676Y-156857244D02*
X145929837Y-157211478D01*
X145929837Y-157211478D02*
X145957967Y-157570152D01*
X145957967Y-157570152D02*
X145945629Y-157929454D01*
X145945629Y-157929454D02*
X145892386Y-158285573D01*
X145892386Y-158285573D02*
X145863115Y-158412288D01*
X145863115Y-158412288D02*
X145753799Y-158760225D01*
X145753799Y-158760225D02*
X145608178Y-159089052D01*
X145608178Y-159089052D02*
X145428713Y-159396566D01*
X145428713Y-159396566D02*
X145217867Y-159680566D01*
X145217867Y-159680566D02*
X144978102Y-159938852D01*
X144978102Y-159938852D02*
X144711881Y-160169220D01*
X144711881Y-160169220D02*
X144421665Y-160369471D01*
X144421665Y-160369471D02*
X144109918Y-160537402D01*
X144109918Y-160537402D02*
X143779102Y-160670813D01*
X143779102Y-160670813D02*
X143431680Y-160767501D01*
X143431680Y-160767501D02*
X143178504Y-160812348D01*
X143178504Y-160812348D02*
X143072052Y-160822461D01*
X143072052Y-160822461D02*
X142936880Y-160828858D01*
X142936880Y-160828858D02*
X142785646Y-160831559D01*
X142785646Y-160831559D02*
X142631005Y-160830584D01*
X142631005Y-160830584D02*
X142485614Y-160825953D01*
X142485614Y-160825953D02*
X142362128Y-160817686D01*
X142362128Y-160817686D02*
X142303656Y-160810966D01*
X142303656Y-160810966D02*
X142086419Y-160769265D01*
X142086419Y-160769265D02*
X141853254Y-160706198D01*
X141853254Y-160706198D02*
X141618025Y-160626551D01*
X141618025Y-160626551D02*
X141394593Y-160535114D01*
X141394593Y-160535114D02*
X141196821Y-160436673D01*
X141196821Y-160436673D02*
X141161321Y-160416423D01*
X141161321Y-160416423D02*
X140850687Y-160210867D01*
X140850687Y-160210867D02*
X140568783Y-159975293D01*
X140568783Y-159975293D02*
X140317334Y-159711819D01*
X140317334Y-159711819D02*
X140098068Y-159422564D01*
X140098068Y-159422564D02*
X139912711Y-159109645D01*
X139912711Y-159109645D02*
X139762989Y-158775181D01*
X139762989Y-158775181D02*
X139715894Y-158643168D01*
X139715894Y-158643168D02*
X139656415Y-158451465D01*
X139656415Y-158451465D02*
X139613032Y-158277497D01*
X139613032Y-158277497D02*
X139583659Y-158107871D01*
X139583659Y-158107871D02*
X139566210Y-157929193D01*
X139566210Y-157929193D02*
X139558601Y-157728071D01*
X139558601Y-157728071D02*
X139557832Y-157628167D01*
X139557832Y-157628167D02*
X139561575Y-157413930D01*
X139561575Y-157413930D02*
X139574492Y-157227707D01*
X139574492Y-157227707D02*
X139598656Y-157055778D01*
X139598656Y-157055778D02*
X139636147Y-156884422D01*
X139636147Y-156884422D02*
X139689039Y-156699919D01*
X139689039Y-156699919D02*
X139706687Y-156644663D01*
X139706687Y-156644663D02*
X139837611Y-156309064D01*
X139837611Y-156309064D02*
X140005077Y-155991483D01*
X140005077Y-155991483D02*
X140206284Y-155694971D01*
X140206284Y-155694971D02*
X140438429Y-155422575D01*
X140438429Y-155422575D02*
X140698707Y-155177345D01*
X140698707Y-155177345D02*
X140984317Y-154962331D01*
X140984317Y-154962331D02*
X141292455Y-154780580D01*
X141292455Y-154780580D02*
X141516080Y-154676436D01*
X141516080Y-154676436D02*
X141858454Y-154555446D01*
X141858454Y-154555446D02*
X142205420Y-154475000D01*
X142205420Y-154475000D02*
X142554035Y-154434021D01*
X142554035Y-154434021D02*
X142901361Y-154431429D01*
X142901361Y-154431429D02*
X143244457Y-154466147D01*
X143244457Y-154466147D02*
X143244457Y-154466147D01*
G36*
X143244457Y-154466147D02*
G01*
X143580382Y-154537094D01*
X143906197Y-154643193D01*
X144218961Y-154783365D01*
X144515734Y-154956531D01*
X144793576Y-155161613D01*
X145049547Y-155397531D01*
X145280706Y-155663207D01*
X145484113Y-155957562D01*
X145607007Y-156177336D01*
X145753920Y-156511260D01*
X145861676Y-156857244D01*
X145929837Y-157211478D01*
X145957967Y-157570152D01*
X145945629Y-157929454D01*
X145892386Y-158285573D01*
X145863115Y-158412288D01*
X145753799Y-158760225D01*
X145608178Y-159089052D01*
X145428713Y-159396566D01*
X145217867Y-159680566D01*
X144978102Y-159938852D01*
X144711881Y-160169220D01*
X144421665Y-160369471D01*
X144109918Y-160537402D01*
X143779102Y-160670813D01*
X143431680Y-160767501D01*
X143178504Y-160812348D01*
X143072052Y-160822461D01*
X142936880Y-160828858D01*
X142785646Y-160831559D01*
X142631005Y-160830584D01*
X142485614Y-160825953D01*
X142362128Y-160817686D01*
X142303656Y-160810966D01*
X142086419Y-160769265D01*
X141853254Y-160706198D01*
X141618025Y-160626551D01*
X141394593Y-160535114D01*
X141196821Y-160436673D01*
X141161321Y-160416423D01*
X140850687Y-160210867D01*
X140568783Y-159975293D01*
X140317334Y-159711819D01*
X140098068Y-159422564D01*
X139912711Y-159109645D01*
X139762989Y-158775181D01*
X139715894Y-158643168D01*
X139656415Y-158451465D01*
X139613032Y-158277497D01*
X139583659Y-158107871D01*
X139566210Y-157929193D01*
X139558601Y-157728071D01*
X139557832Y-157628167D01*
X139561575Y-157413930D01*
X139574492Y-157227707D01*
X139598656Y-157055778D01*
X139636147Y-156884422D01*
X139689039Y-156699919D01*
X139706687Y-156644663D01*
X139837611Y-156309064D01*
X140005077Y-155991483D01*
X140206284Y-155694971D01*
X140438429Y-155422575D01*
X140698707Y-155177345D01*
X140984317Y-154962331D01*
X141292455Y-154780580D01*
X141516080Y-154676436D01*
X141858454Y-154555446D01*
X142205420Y-154475000D01*
X142554035Y-154434021D01*
X142901361Y-154431429D01*
X143244457Y-154466147D01*
G37*
X143244457Y-154466147D02*
X143580382Y-154537094D01*
X143906197Y-154643193D01*
X144218961Y-154783365D01*
X144515734Y-154956531D01*
X144793576Y-155161613D01*
X145049547Y-155397531D01*
X145280706Y-155663207D01*
X145484113Y-155957562D01*
X145607007Y-156177336D01*
X145753920Y-156511260D01*
X145861676Y-156857244D01*
X145929837Y-157211478D01*
X145957967Y-157570152D01*
X145945629Y-157929454D01*
X145892386Y-158285573D01*
X145863115Y-158412288D01*
X145753799Y-158760225D01*
X145608178Y-159089052D01*
X145428713Y-159396566D01*
X145217867Y-159680566D01*
X144978102Y-159938852D01*
X144711881Y-160169220D01*
X144421665Y-160369471D01*
X144109918Y-160537402D01*
X143779102Y-160670813D01*
X143431680Y-160767501D01*
X143178504Y-160812348D01*
X143072052Y-160822461D01*
X142936880Y-160828858D01*
X142785646Y-160831559D01*
X142631005Y-160830584D01*
X142485614Y-160825953D01*
X142362128Y-160817686D01*
X142303656Y-160810966D01*
X142086419Y-160769265D01*
X141853254Y-160706198D01*
X141618025Y-160626551D01*
X141394593Y-160535114D01*
X141196821Y-160436673D01*
X141161321Y-160416423D01*
X140850687Y-160210867D01*
X140568783Y-159975293D01*
X140317334Y-159711819D01*
X140098068Y-159422564D01*
X139912711Y-159109645D01*
X139762989Y-158775181D01*
X139715894Y-158643168D01*
X139656415Y-158451465D01*
X139613032Y-158277497D01*
X139583659Y-158107871D01*
X139566210Y-157929193D01*
X139558601Y-157728071D01*
X139557832Y-157628167D01*
X139561575Y-157413930D01*
X139574492Y-157227707D01*
X139598656Y-157055778D01*
X139636147Y-156884422D01*
X139689039Y-156699919D01*
X139706687Y-156644663D01*
X139837611Y-156309064D01*
X140005077Y-155991483D01*
X140206284Y-155694971D01*
X140438429Y-155422575D01*
X140698707Y-155177345D01*
X140984317Y-154962331D01*
X141292455Y-154780580D01*
X141516080Y-154676436D01*
X141858454Y-154555446D01*
X142205420Y-154475000D01*
X142554035Y-154434021D01*
X142901361Y-154431429D01*
X143244457Y-154466147D01*
%TD*%
M02*
