%TF.GenerationSoftware,KiCad,Pcbnew,(6.0.0)*%
%TF.CreationDate,2022-07-13T19:55:52+02:00*%
%TF.ProjectId,wavefolder-panel,77617665-666f-46c6-9465-722d70616e65,rev?*%
%TF.SameCoordinates,Original*%
%TF.FileFunction,Profile,NP*%
%FSLAX46Y46*%
G04 Gerber Fmt 4.6, Leading zero omitted, Abs format (unit mm)*
G04 Created by KiCad (PCBNEW (6.0.0)) date 2022-07-13 19:55:52*
%MOMM*%
%LPD*%
G01*
G04 APERTURE LIST*
%TA.AperFunction,Profile*%
%ADD10C,0.100000*%
%TD*%
G04 APERTURE END LIST*
D10*
X129705000Y-111765000D02*
G75*
G03*
X129705000Y-111765000I-1600000J0D01*
G01*
X141180000Y-92710000D02*
G75*
G03*
X141180000Y-92710000I-3550000J0D01*
G01*
X116280000Y-51145000D02*
G75*
G03*
X116280000Y-51145000I-1600000J0D01*
G01*
X119590000Y-92710000D02*
G75*
G03*
X119590000Y-92710000I-3550000J0D01*
G01*
X134785000Y-130810000D02*
G75*
G03*
X134785000Y-130810000I-1600000J0D01*
G01*
X134785000Y-118105000D02*
G75*
G03*
X134785000Y-118105000I-1600000J0D01*
G01*
X141657432Y-173632912D02*
G75*
G03*
X141657432Y-173632912I-1600000J0D01*
G01*
X115430000Y-157632200D02*
G75*
G03*
X115430000Y-157632200I-3200000J0D01*
G01*
X129705000Y-130810000D02*
G75*
G03*
X129705000Y-130810000I-1600000J0D01*
G01*
X125590000Y-157632200D02*
G75*
G03*
X125590000Y-157632200I-3200000J0D01*
G01*
X119590000Y-64770000D02*
G75*
G03*
X119590000Y-64770000I-3550000J0D01*
G01*
X141180000Y-64770000D02*
G75*
G03*
X141180000Y-64770000I-3550000J0D01*
G01*
X145910000Y-157632200D02*
G75*
G03*
X145910000Y-157632200I-3200000J0D01*
G01*
X120510000Y-144880000D02*
G75*
G03*
X120510000Y-144880000I-3200000J0D01*
G01*
X140829800Y-144880000D02*
G75*
G03*
X140829800Y-144880000I-3200000J0D01*
G01*
X142670000Y-115555000D02*
G75*
G03*
X142670000Y-115555000I-2500000J0D01*
G01*
X142670000Y-127000000D02*
G75*
G03*
X142670000Y-127000000I-2500000J0D01*
G01*
X116280000Y-173645000D02*
G75*
G03*
X116280000Y-173645000I-1600000J0D01*
G01*
X119590000Y-121920000D02*
G75*
G03*
X119590000Y-121920000I-3550000J0D01*
G01*
X129705000Y-118105000D02*
G75*
G03*
X129705000Y-118105000I-1600000J0D01*
G01*
X129705000Y-124460000D02*
G75*
G03*
X129705000Y-124460000I-1600000J0D01*
G01*
X135750000Y-157632200D02*
G75*
G03*
X135750000Y-157632200I-3200000J0D01*
G01*
X134785000Y-124460000D02*
G75*
G03*
X134785000Y-124460000I-1600000J0D01*
G01*
X107180000Y-48145000D02*
X147610000Y-48145000D01*
X147610000Y-48145000D02*
X147610000Y-176645000D01*
X147610000Y-176645000D02*
X107180000Y-176645000D01*
X107180000Y-176645000D02*
X107180000Y-48145000D01*
X134785000Y-111765000D02*
G75*
G03*
X134785000Y-111765000I-1600000J0D01*
G01*
X141680000Y-51145000D02*
G75*
G03*
X141680000Y-51145000I-1600000J0D01*
G01*
M02*
