%TF.GenerationSoftware,KiCad,Pcbnew,(6.0.0)*%
%TF.CreationDate,2022-07-13T19:55:52+02:00*%
%TF.ProjectId,wavefolder-panel,77617665-666f-46c6-9465-722d70616e65,rev?*%
%TF.SameCoordinates,Original*%
%TF.FileFunction,Soldermask,Bot*%
%TF.FilePolarity,Negative*%
%FSLAX46Y46*%
G04 Gerber Fmt 4.6, Leading zero omitted, Abs format (unit mm)*
G04 Created by KiCad (PCBNEW (6.0.0)) date 2022-07-13 19:55:52*
%MOMM*%
%LPD*%
G01*
G04 APERTURE LIST*
%ADD10C,0.010000*%
G04 APERTURE END LIST*
D10*
%TO.C,Ref\u002A\u002A*%
X143091238Y-154442837D02*
X143456079Y-154501737D01*
X143456079Y-154501737D02*
X143492244Y-154509886D01*
X143492244Y-154509886D02*
X143835288Y-154610515D01*
X143835288Y-154610515D02*
X144162563Y-154748847D01*
X144162563Y-154748847D02*
X144471251Y-154922282D01*
X144471251Y-154922282D02*
X144758532Y-155128218D01*
X144758532Y-155128218D02*
X145021588Y-155364054D01*
X145021588Y-155364054D02*
X145257599Y-155627191D01*
X145257599Y-155627191D02*
X145463746Y-155915025D01*
X145463746Y-155915025D02*
X145637211Y-156224958D01*
X145637211Y-156224958D02*
X145775175Y-156554387D01*
X145775175Y-156554387D02*
X145805203Y-156643917D01*
X145805203Y-156643917D02*
X145852210Y-156797050D01*
X145852210Y-156797050D02*
X145887768Y-156929121D01*
X145887768Y-156929121D02*
X145913385Y-157050737D01*
X145913385Y-157050737D02*
X145930569Y-157172503D01*
X145930569Y-157172503D02*
X145940826Y-157305026D01*
X145940826Y-157305026D02*
X145945664Y-157458911D01*
X145945664Y-157458911D02*
X145946606Y-157638750D01*
X145946606Y-157638750D02*
X145945580Y-157797867D01*
X145945580Y-157797867D02*
X145942865Y-157923510D01*
X145942865Y-157923510D02*
X145937810Y-158024524D01*
X145937810Y-158024524D02*
X145929763Y-158109755D01*
X145929763Y-158109755D02*
X145918073Y-158188049D01*
X145918073Y-158188049D02*
X145902086Y-158268253D01*
X145902086Y-158268253D02*
X145899299Y-158280902D01*
X145899299Y-158280902D02*
X145797370Y-158647684D01*
X145797370Y-158647684D02*
X145659972Y-158991358D01*
X145659972Y-158991358D02*
X145487104Y-159311924D01*
X145487104Y-159311924D02*
X145278767Y-159609381D01*
X145278767Y-159609381D02*
X145069932Y-159848054D01*
X145069932Y-159848054D02*
X144801468Y-160099998D01*
X144801468Y-160099998D02*
X144518797Y-160313278D01*
X144518797Y-160313278D02*
X144218086Y-160490076D01*
X144218086Y-160490076D02*
X143895506Y-160632573D01*
X143895506Y-160632573D02*
X143547226Y-160742951D01*
X143547226Y-160742951D02*
X143460494Y-160764642D01*
X143460494Y-160764642D02*
X143301587Y-160793953D01*
X143301587Y-160793953D02*
X143113186Y-160814949D01*
X143113186Y-160814949D02*
X142907360Y-160827355D01*
X142907360Y-160827355D02*
X142696178Y-160830898D01*
X142696178Y-160830898D02*
X142491709Y-160825302D01*
X142491709Y-160825302D02*
X142306023Y-160810295D01*
X142306023Y-160810295D02*
X142190494Y-160793465D01*
X142190494Y-160793465D02*
X141836758Y-160707932D01*
X141836758Y-160707932D02*
X141498765Y-160584836D01*
X141498765Y-160584836D02*
X141179101Y-160426476D01*
X141179101Y-160426476D02*
X140880351Y-160235148D01*
X140880351Y-160235148D02*
X140605102Y-160013152D01*
X140605102Y-160013152D02*
X140355939Y-159762785D01*
X140355939Y-159762785D02*
X140135449Y-159486344D01*
X140135449Y-159486344D02*
X139946218Y-159186129D01*
X139946218Y-159186129D02*
X139790830Y-158864437D01*
X139790830Y-158864437D02*
X139684471Y-158566511D01*
X139684471Y-158566511D02*
X139637604Y-158400653D01*
X139637604Y-158400653D02*
X139603203Y-158251263D01*
X139603203Y-158251263D02*
X139579636Y-158106159D01*
X139579636Y-158106159D02*
X139565274Y-157953159D01*
X139565274Y-157953159D02*
X139558486Y-157780085D01*
X139558486Y-157780085D02*
X139557416Y-157617584D01*
X139557416Y-157617584D02*
X139558959Y-157459249D01*
X139558959Y-157459249D02*
X139562942Y-157333065D01*
X139562942Y-157333065D02*
X139570148Y-157228880D01*
X139570148Y-157228880D02*
X139581365Y-157136542D01*
X139581365Y-157136542D02*
X139597376Y-157045899D01*
X139597376Y-157045899D02*
X139604202Y-157012965D01*
X139604202Y-157012965D02*
X139702861Y-156646297D01*
X139702861Y-156646297D02*
X139837245Y-156300656D01*
X139837245Y-156300656D02*
X140006266Y-155977646D01*
X140006266Y-155977646D02*
X140208838Y-155678870D01*
X140208838Y-155678870D02*
X140443873Y-155405933D01*
X140443873Y-155405933D02*
X140710286Y-155160439D01*
X140710286Y-155160439D02*
X141005161Y-154945174D01*
X141005161Y-154945174D02*
X141326039Y-154762123D01*
X141326039Y-154762123D02*
X141661516Y-154618125D01*
X141661516Y-154618125D02*
X142008683Y-154513688D01*
X142008683Y-154513688D02*
X142364632Y-154449321D01*
X142364632Y-154449321D02*
X142726453Y-154425535D01*
X142726453Y-154425535D02*
X143091238Y-154442837D01*
X143091238Y-154442837D02*
X143091238Y-154442837D01*
G36*
X143091238Y-154442837D02*
G01*
X143456079Y-154501737D01*
X143492244Y-154509886D01*
X143835288Y-154610515D01*
X144162563Y-154748847D01*
X144471251Y-154922282D01*
X144758532Y-155128218D01*
X145021588Y-155364054D01*
X145257599Y-155627191D01*
X145463746Y-155915025D01*
X145637211Y-156224958D01*
X145775175Y-156554387D01*
X145805203Y-156643917D01*
X145852210Y-156797050D01*
X145887768Y-156929121D01*
X145913385Y-157050737D01*
X145930569Y-157172503D01*
X145940826Y-157305026D01*
X145945664Y-157458911D01*
X145946606Y-157638750D01*
X145945580Y-157797867D01*
X145942865Y-157923510D01*
X145937810Y-158024524D01*
X145929763Y-158109755D01*
X145918073Y-158188049D01*
X145902086Y-158268253D01*
X145899299Y-158280902D01*
X145797370Y-158647684D01*
X145659972Y-158991358D01*
X145487104Y-159311924D01*
X145278767Y-159609381D01*
X145069932Y-159848054D01*
X144801468Y-160099998D01*
X144518797Y-160313278D01*
X144218086Y-160490076D01*
X143895506Y-160632573D01*
X143547226Y-160742951D01*
X143460494Y-160764642D01*
X143301587Y-160793953D01*
X143113186Y-160814949D01*
X142907360Y-160827355D01*
X142696178Y-160830898D01*
X142491709Y-160825302D01*
X142306023Y-160810295D01*
X142190494Y-160793465D01*
X141836758Y-160707932D01*
X141498765Y-160584836D01*
X141179101Y-160426476D01*
X140880351Y-160235148D01*
X140605102Y-160013152D01*
X140355939Y-159762785D01*
X140135449Y-159486344D01*
X139946218Y-159186129D01*
X139790830Y-158864437D01*
X139684471Y-158566511D01*
X139637604Y-158400653D01*
X139603203Y-158251263D01*
X139579636Y-158106159D01*
X139565274Y-157953159D01*
X139558486Y-157780085D01*
X139557416Y-157617584D01*
X139558959Y-157459249D01*
X139562942Y-157333065D01*
X139570148Y-157228880D01*
X139581365Y-157136542D01*
X139597376Y-157045899D01*
X139604202Y-157012965D01*
X139702861Y-156646297D01*
X139837245Y-156300656D01*
X140006266Y-155977646D01*
X140208838Y-155678870D01*
X140443873Y-155405933D01*
X140710286Y-155160439D01*
X141005161Y-154945174D01*
X141326039Y-154762123D01*
X141661516Y-154618125D01*
X142008683Y-154513688D01*
X142364632Y-154449321D01*
X142726453Y-154425535D01*
X143091238Y-154442837D01*
G37*
X143091238Y-154442837D02*
X143456079Y-154501737D01*
X143492244Y-154509886D01*
X143835288Y-154610515D01*
X144162563Y-154748847D01*
X144471251Y-154922282D01*
X144758532Y-155128218D01*
X145021588Y-155364054D01*
X145257599Y-155627191D01*
X145463746Y-155915025D01*
X145637211Y-156224958D01*
X145775175Y-156554387D01*
X145805203Y-156643917D01*
X145852210Y-156797050D01*
X145887768Y-156929121D01*
X145913385Y-157050737D01*
X145930569Y-157172503D01*
X145940826Y-157305026D01*
X145945664Y-157458911D01*
X145946606Y-157638750D01*
X145945580Y-157797867D01*
X145942865Y-157923510D01*
X145937810Y-158024524D01*
X145929763Y-158109755D01*
X145918073Y-158188049D01*
X145902086Y-158268253D01*
X145899299Y-158280902D01*
X145797370Y-158647684D01*
X145659972Y-158991358D01*
X145487104Y-159311924D01*
X145278767Y-159609381D01*
X145069932Y-159848054D01*
X144801468Y-160099998D01*
X144518797Y-160313278D01*
X144218086Y-160490076D01*
X143895506Y-160632573D01*
X143547226Y-160742951D01*
X143460494Y-160764642D01*
X143301587Y-160793953D01*
X143113186Y-160814949D01*
X142907360Y-160827355D01*
X142696178Y-160830898D01*
X142491709Y-160825302D01*
X142306023Y-160810295D01*
X142190494Y-160793465D01*
X141836758Y-160707932D01*
X141498765Y-160584836D01*
X141179101Y-160426476D01*
X140880351Y-160235148D01*
X140605102Y-160013152D01*
X140355939Y-159762785D01*
X140135449Y-159486344D01*
X139946218Y-159186129D01*
X139790830Y-158864437D01*
X139684471Y-158566511D01*
X139637604Y-158400653D01*
X139603203Y-158251263D01*
X139579636Y-158106159D01*
X139565274Y-157953159D01*
X139558486Y-157780085D01*
X139557416Y-157617584D01*
X139558959Y-157459249D01*
X139562942Y-157333065D01*
X139570148Y-157228880D01*
X139581365Y-157136542D01*
X139597376Y-157045899D01*
X139604202Y-157012965D01*
X139702861Y-156646297D01*
X139837245Y-156300656D01*
X140006266Y-155977646D01*
X140208838Y-155678870D01*
X140443873Y-155405933D01*
X140710286Y-155160439D01*
X141005161Y-154945174D01*
X141326039Y-154762123D01*
X141661516Y-154618125D01*
X142008683Y-154513688D01*
X142364632Y-154449321D01*
X142726453Y-154425535D01*
X143091238Y-154442837D01*
X128388402Y-122872986D02*
X128644571Y-122930250D01*
X128644571Y-122930250D02*
X128755109Y-122967647D01*
X128755109Y-122967647D02*
X128941841Y-123057325D01*
X128941841Y-123057325D02*
X129123679Y-123181874D01*
X129123679Y-123181874D02*
X129292691Y-123333944D01*
X129292691Y-123333944D02*
X129440943Y-123506181D01*
X129440943Y-123506181D02*
X129560501Y-123691235D01*
X129560501Y-123691235D02*
X129583211Y-123735049D01*
X129583211Y-123735049D02*
X129660586Y-123909406D01*
X129660586Y-123909406D02*
X129711814Y-124072044D01*
X129711814Y-124072044D02*
X129740681Y-124239310D01*
X129740681Y-124239310D02*
X129750975Y-124427550D01*
X129750975Y-124427550D02*
X129751152Y-124460000D01*
X129751152Y-124460000D02*
X129743424Y-124653007D01*
X129743424Y-124653007D02*
X129717716Y-124822479D01*
X129717716Y-124822479D02*
X129670241Y-124984762D01*
X129670241Y-124984762D02*
X129597212Y-125156204D01*
X129597212Y-125156204D02*
X129583211Y-125184952D01*
X129583211Y-125184952D02*
X129454161Y-125399886D01*
X129454161Y-125399886D02*
X129294201Y-125589040D01*
X129294201Y-125589040D02*
X129107649Y-125750107D01*
X129107649Y-125750107D02*
X128898825Y-125880783D01*
X128898825Y-125880783D02*
X128672046Y-125978761D01*
X128672046Y-125978761D02*
X128431632Y-126041736D01*
X128431632Y-126041736D02*
X128181900Y-126067403D01*
X128181900Y-126067403D02*
X127950810Y-126056468D01*
X127950810Y-126056468D02*
X127700163Y-126005682D01*
X127700163Y-126005682D02*
X127464354Y-125916509D01*
X127464354Y-125916509D02*
X127246735Y-125791306D01*
X127246735Y-125791306D02*
X127050655Y-125632431D01*
X127050655Y-125632431D02*
X126879463Y-125442242D01*
X126879463Y-125442242D02*
X126736511Y-125223096D01*
X126736511Y-125223096D02*
X126718407Y-125189210D01*
X126718407Y-125189210D02*
X126625810Y-124966766D01*
X126625810Y-124966766D02*
X126568921Y-124728934D01*
X126568921Y-124728934D02*
X126547739Y-124483064D01*
X126547739Y-124483064D02*
X126562265Y-124236510D01*
X126562265Y-124236510D02*
X126612498Y-123996622D01*
X126612498Y-123996622D02*
X126698439Y-123770752D01*
X126698439Y-123770752D02*
X126718407Y-123730790D01*
X126718407Y-123730790D02*
X126856707Y-123508206D01*
X126856707Y-123508206D02*
X127022328Y-123315886D01*
X127022328Y-123315886D02*
X127211674Y-123155178D01*
X127211674Y-123155178D02*
X127421149Y-123027430D01*
X127421149Y-123027430D02*
X127647155Y-122933989D01*
X127647155Y-122933989D02*
X127886097Y-122876203D01*
X127886097Y-122876203D02*
X128134379Y-122855420D01*
X128134379Y-122855420D02*
X128388402Y-122872986D01*
X128388402Y-122872986D02*
X128388402Y-122872986D01*
G36*
X128388402Y-122872986D02*
G01*
X128644571Y-122930250D01*
X128755109Y-122967647D01*
X128941841Y-123057325D01*
X129123679Y-123181874D01*
X129292691Y-123333944D01*
X129440943Y-123506181D01*
X129560501Y-123691235D01*
X129583211Y-123735049D01*
X129660586Y-123909406D01*
X129711814Y-124072044D01*
X129740681Y-124239310D01*
X129750975Y-124427550D01*
X129751152Y-124460000D01*
X129743424Y-124653007D01*
X129717716Y-124822479D01*
X129670241Y-124984762D01*
X129597212Y-125156204D01*
X129583211Y-125184952D01*
X129454161Y-125399886D01*
X129294201Y-125589040D01*
X129107649Y-125750107D01*
X128898825Y-125880783D01*
X128672046Y-125978761D01*
X128431632Y-126041736D01*
X128181900Y-126067403D01*
X127950810Y-126056468D01*
X127700163Y-126005682D01*
X127464354Y-125916509D01*
X127246735Y-125791306D01*
X127050655Y-125632431D01*
X126879463Y-125442242D01*
X126736511Y-125223096D01*
X126718407Y-125189210D01*
X126625810Y-124966766D01*
X126568921Y-124728934D01*
X126547739Y-124483064D01*
X126562265Y-124236510D01*
X126612498Y-123996622D01*
X126698439Y-123770752D01*
X126718407Y-123730790D01*
X126856707Y-123508206D01*
X127022328Y-123315886D01*
X127211674Y-123155178D01*
X127421149Y-123027430D01*
X127647155Y-122933989D01*
X127886097Y-122876203D01*
X128134379Y-122855420D01*
X128388402Y-122872986D01*
G37*
X128388402Y-122872986D02*
X128644571Y-122930250D01*
X128755109Y-122967647D01*
X128941841Y-123057325D01*
X129123679Y-123181874D01*
X129292691Y-123333944D01*
X129440943Y-123506181D01*
X129560501Y-123691235D01*
X129583211Y-123735049D01*
X129660586Y-123909406D01*
X129711814Y-124072044D01*
X129740681Y-124239310D01*
X129750975Y-124427550D01*
X129751152Y-124460000D01*
X129743424Y-124653007D01*
X129717716Y-124822479D01*
X129670241Y-124984762D01*
X129597212Y-125156204D01*
X129583211Y-125184952D01*
X129454161Y-125399886D01*
X129294201Y-125589040D01*
X129107649Y-125750107D01*
X128898825Y-125880783D01*
X128672046Y-125978761D01*
X128431632Y-126041736D01*
X128181900Y-126067403D01*
X127950810Y-126056468D01*
X127700163Y-126005682D01*
X127464354Y-125916509D01*
X127246735Y-125791306D01*
X127050655Y-125632431D01*
X126879463Y-125442242D01*
X126736511Y-125223096D01*
X126718407Y-125189210D01*
X126625810Y-124966766D01*
X126568921Y-124728934D01*
X126547739Y-124483064D01*
X126562265Y-124236510D01*
X126612498Y-123996622D01*
X126698439Y-123770752D01*
X126718407Y-123730790D01*
X126856707Y-123508206D01*
X127022328Y-123315886D01*
X127211674Y-123155178D01*
X127421149Y-123027430D01*
X127647155Y-122933989D01*
X127886097Y-122876203D01*
X128134379Y-122855420D01*
X128388402Y-122872986D01*
X137894515Y-61216639D02*
X138261155Y-61257909D01*
X138261155Y-61257909D02*
X138621237Y-61337162D01*
X138621237Y-61337162D02*
X138971911Y-61453939D01*
X138971911Y-61453939D02*
X139310325Y-61607778D01*
X139310325Y-61607778D02*
X139633628Y-61798221D01*
X139633628Y-61798221D02*
X139938969Y-62024807D01*
X139938969Y-62024807D02*
X140200430Y-62263646D01*
X140200430Y-62263646D02*
X140455077Y-62548972D01*
X140455077Y-62548972D02*
X140674283Y-62854742D01*
X140674283Y-62854742D02*
X140857751Y-63177917D01*
X140857751Y-63177917D02*
X141005187Y-63515457D01*
X141005187Y-63515457D02*
X141116294Y-63864323D01*
X141116294Y-63864323D02*
X141190778Y-64221476D01*
X141190778Y-64221476D02*
X141228343Y-64583876D01*
X141228343Y-64583876D02*
X141228694Y-64948484D01*
X141228694Y-64948484D02*
X141191535Y-65312260D01*
X141191535Y-65312260D02*
X141116571Y-65672165D01*
X141116571Y-65672165D02*
X141003506Y-66025159D01*
X141003506Y-66025159D02*
X140852045Y-66368203D01*
X140852045Y-66368203D02*
X140661893Y-66698258D01*
X140661893Y-66698258D02*
X140635372Y-66738476D01*
X140635372Y-66738476D02*
X140400168Y-67053217D01*
X140400168Y-67053217D02*
X140137976Y-67335861D01*
X140137976Y-67335861D02*
X139850577Y-67585363D01*
X139850577Y-67585363D02*
X139539757Y-67800680D01*
X139539757Y-67800680D02*
X139207297Y-67980768D01*
X139207297Y-67980768D02*
X138854982Y-68124581D01*
X138854982Y-68124581D02*
X138484594Y-68231077D01*
X138484594Y-68231077D02*
X138097916Y-68299210D01*
X138097916Y-68299210D02*
X137942739Y-68315187D01*
X137942739Y-68315187D02*
X137826907Y-68324486D01*
X137826907Y-68324486D02*
X137738785Y-68330134D01*
X137738785Y-68330134D02*
X137664700Y-68332118D01*
X137664700Y-68332118D02*
X137590976Y-68330429D01*
X137590976Y-68330429D02*
X137503940Y-68325057D01*
X137503940Y-68325057D02*
X137389918Y-68315991D01*
X137389918Y-68315991D02*
X137375078Y-68314763D01*
X137375078Y-68314763D02*
X137019907Y-68265675D01*
X137019907Y-68265675D02*
X136665067Y-68178783D01*
X136665067Y-68178783D02*
X136318933Y-68056990D01*
X136318933Y-68056990D02*
X135989879Y-67903200D01*
X135989879Y-67903200D02*
X135713494Y-67738658D01*
X135713494Y-67738658D02*
X135405973Y-67509403D01*
X135405973Y-67509403D02*
X135127155Y-67251654D01*
X135127155Y-67251654D02*
X134878769Y-66968368D01*
X134878769Y-66968368D02*
X134662541Y-66662501D01*
X134662541Y-66662501D02*
X134480201Y-66337009D01*
X134480201Y-66337009D02*
X134333475Y-65994848D01*
X134333475Y-65994848D02*
X134224092Y-65638975D01*
X134224092Y-65638975D02*
X134153780Y-65272345D01*
X134153780Y-65272345D02*
X134129814Y-65029154D01*
X134129814Y-65029154D02*
X134123562Y-64637298D01*
X134123562Y-64637298D02*
X134155076Y-64262225D01*
X134155076Y-64262225D02*
X134225136Y-63900115D01*
X134225136Y-63900115D02*
X134334528Y-63547152D01*
X134334528Y-63547152D02*
X134484032Y-63199517D01*
X134484032Y-63199517D02*
X134519147Y-63129649D01*
X134519147Y-63129649D02*
X134703533Y-62815357D01*
X134703533Y-62815357D02*
X134922544Y-62518778D01*
X134922544Y-62518778D02*
X135171571Y-62244493D01*
X135171571Y-62244493D02*
X135446000Y-61997083D01*
X135446000Y-61997083D02*
X135741223Y-61781128D01*
X135741223Y-61781128D02*
X136052627Y-61601210D01*
X136052627Y-61601210D02*
X136062744Y-61596130D01*
X136062744Y-61596130D02*
X136419404Y-61440586D01*
X136419404Y-61440586D02*
X136783762Y-61325325D01*
X136783762Y-61325325D02*
X137152967Y-61249887D01*
X137152967Y-61249887D02*
X137524168Y-61213811D01*
X137524168Y-61213811D02*
X137894515Y-61216639D01*
X137894515Y-61216639D02*
X137894515Y-61216639D01*
G36*
X137894515Y-61216639D02*
G01*
X138261155Y-61257909D01*
X138621237Y-61337162D01*
X138971911Y-61453939D01*
X139310325Y-61607778D01*
X139633628Y-61798221D01*
X139938969Y-62024807D01*
X140200430Y-62263646D01*
X140455077Y-62548972D01*
X140674283Y-62854742D01*
X140857751Y-63177917D01*
X141005187Y-63515457D01*
X141116294Y-63864323D01*
X141190778Y-64221476D01*
X141228343Y-64583876D01*
X141228694Y-64948484D01*
X141191535Y-65312260D01*
X141116571Y-65672165D01*
X141003506Y-66025159D01*
X140852045Y-66368203D01*
X140661893Y-66698258D01*
X140635372Y-66738476D01*
X140400168Y-67053217D01*
X140137976Y-67335861D01*
X139850577Y-67585363D01*
X139539757Y-67800680D01*
X139207297Y-67980768D01*
X138854982Y-68124581D01*
X138484594Y-68231077D01*
X138097916Y-68299210D01*
X137942739Y-68315187D01*
X137826907Y-68324486D01*
X137738785Y-68330134D01*
X137664700Y-68332118D01*
X137590976Y-68330429D01*
X137503940Y-68325057D01*
X137389918Y-68315991D01*
X137375078Y-68314763D01*
X137019907Y-68265675D01*
X136665067Y-68178783D01*
X136318933Y-68056990D01*
X135989879Y-67903200D01*
X135713494Y-67738658D01*
X135405973Y-67509403D01*
X135127155Y-67251654D01*
X134878769Y-66968368D01*
X134662541Y-66662501D01*
X134480201Y-66337009D01*
X134333475Y-65994848D01*
X134224092Y-65638975D01*
X134153780Y-65272345D01*
X134129814Y-65029154D01*
X134123562Y-64637298D01*
X134155076Y-64262225D01*
X134225136Y-63900115D01*
X134334528Y-63547152D01*
X134484032Y-63199517D01*
X134519147Y-63129649D01*
X134703533Y-62815357D01*
X134922544Y-62518778D01*
X135171571Y-62244493D01*
X135446000Y-61997083D01*
X135741223Y-61781128D01*
X136052627Y-61601210D01*
X136062744Y-61596130D01*
X136419404Y-61440586D01*
X136783762Y-61325325D01*
X137152967Y-61249887D01*
X137524168Y-61213811D01*
X137894515Y-61216639D01*
G37*
X137894515Y-61216639D02*
X138261155Y-61257909D01*
X138621237Y-61337162D01*
X138971911Y-61453939D01*
X139310325Y-61607778D01*
X139633628Y-61798221D01*
X139938969Y-62024807D01*
X140200430Y-62263646D01*
X140455077Y-62548972D01*
X140674283Y-62854742D01*
X140857751Y-63177917D01*
X141005187Y-63515457D01*
X141116294Y-63864323D01*
X141190778Y-64221476D01*
X141228343Y-64583876D01*
X141228694Y-64948484D01*
X141191535Y-65312260D01*
X141116571Y-65672165D01*
X141003506Y-66025159D01*
X140852045Y-66368203D01*
X140661893Y-66698258D01*
X140635372Y-66738476D01*
X140400168Y-67053217D01*
X140137976Y-67335861D01*
X139850577Y-67585363D01*
X139539757Y-67800680D01*
X139207297Y-67980768D01*
X138854982Y-68124581D01*
X138484594Y-68231077D01*
X138097916Y-68299210D01*
X137942739Y-68315187D01*
X137826907Y-68324486D01*
X137738785Y-68330134D01*
X137664700Y-68332118D01*
X137590976Y-68330429D01*
X137503940Y-68325057D01*
X137389918Y-68315991D01*
X137375078Y-68314763D01*
X137019907Y-68265675D01*
X136665067Y-68178783D01*
X136318933Y-68056990D01*
X135989879Y-67903200D01*
X135713494Y-67738658D01*
X135405973Y-67509403D01*
X135127155Y-67251654D01*
X134878769Y-66968368D01*
X134662541Y-66662501D01*
X134480201Y-66337009D01*
X134333475Y-65994848D01*
X134224092Y-65638975D01*
X134153780Y-65272345D01*
X134129814Y-65029154D01*
X134123562Y-64637298D01*
X134155076Y-64262225D01*
X134225136Y-63900115D01*
X134334528Y-63547152D01*
X134484032Y-63199517D01*
X134519147Y-63129649D01*
X134703533Y-62815357D01*
X134922544Y-62518778D01*
X135171571Y-62244493D01*
X135446000Y-61997083D01*
X135741223Y-61781128D01*
X136052627Y-61601210D01*
X136062744Y-61596130D01*
X136419404Y-61440586D01*
X136783762Y-61325325D01*
X137152967Y-61249887D01*
X137524168Y-61213811D01*
X137894515Y-61216639D01*
X116323382Y-118370794D02*
X116696582Y-118415233D01*
X116696582Y-118415233D02*
X117064122Y-118498743D01*
X117064122Y-118498743D02*
X117422241Y-118621369D01*
X117422241Y-118621369D02*
X117598290Y-118698159D01*
X117598290Y-118698159D02*
X117937902Y-118880456D01*
X117937902Y-118880456D02*
X118252124Y-119095596D01*
X118252124Y-119095596D02*
X118539250Y-119341338D01*
X118539250Y-119341338D02*
X118797577Y-119615436D01*
X118797577Y-119615436D02*
X119025398Y-119915646D01*
X119025398Y-119915646D02*
X119221008Y-120239727D01*
X119221008Y-120239727D02*
X119382702Y-120585432D01*
X119382702Y-120585432D02*
X119508774Y-120950520D01*
X119508774Y-120950520D02*
X119596551Y-121327334D01*
X119596551Y-121327334D02*
X119616739Y-121478349D01*
X119616739Y-121478349D02*
X119629771Y-121658527D01*
X119629771Y-121658527D02*
X119635648Y-121855303D01*
X119635648Y-121855303D02*
X119634370Y-122056117D01*
X119634370Y-122056117D02*
X119625937Y-122248406D01*
X119625937Y-122248406D02*
X119610348Y-122419607D01*
X119610348Y-122419607D02*
X119596551Y-122512667D01*
X119596551Y-122512667D02*
X119508205Y-122890295D01*
X119508205Y-122890295D02*
X119383067Y-123251009D01*
X119383067Y-123251009D02*
X119223237Y-123592616D01*
X119223237Y-123592616D02*
X119030818Y-123912923D01*
X119030818Y-123912923D02*
X118807911Y-124209738D01*
X118807911Y-124209738D02*
X118556616Y-124480867D01*
X118556616Y-124480867D02*
X118279036Y-124724119D01*
X118279036Y-124724119D02*
X117977272Y-124937301D01*
X117977272Y-124937301D02*
X117653426Y-125118219D01*
X117653426Y-125118219D02*
X117309598Y-125264681D01*
X117309598Y-125264681D02*
X116947890Y-125374496D01*
X116947890Y-125374496D02*
X116827716Y-125401745D01*
X116827716Y-125401745D02*
X116462425Y-125459946D01*
X116462425Y-125459946D02*
X116103619Y-125479933D01*
X116103619Y-125479933D02*
X115748422Y-125463036D01*
X115748422Y-125463036D02*
X115368915Y-125405674D01*
X115368915Y-125405674D02*
X115001539Y-125309033D01*
X115001539Y-125309033D02*
X114649011Y-125174969D01*
X114649011Y-125174969D02*
X114314047Y-125005342D01*
X114314047Y-125005342D02*
X113999362Y-124802010D01*
X113999362Y-124802010D02*
X113707673Y-124566830D01*
X113707673Y-124566830D02*
X113441694Y-124301661D01*
X113441694Y-124301661D02*
X113204141Y-124008362D01*
X113204141Y-124008362D02*
X112997730Y-123688790D01*
X112997730Y-123688790D02*
X112906370Y-123518373D01*
X112906370Y-123518373D02*
X112778409Y-123233352D01*
X112778409Y-123233352D02*
X112674878Y-122934750D01*
X112674878Y-122934750D02*
X112607409Y-122681660D01*
X112607409Y-122681660D02*
X112588374Y-122599089D01*
X112588374Y-122599089D02*
X112573857Y-122528190D01*
X112573857Y-122528190D02*
X112563248Y-122461212D01*
X112563248Y-122461212D02*
X112555938Y-122390402D01*
X112555938Y-122390402D02*
X112551316Y-122308008D01*
X112551316Y-122308008D02*
X112548772Y-122206276D01*
X112548772Y-122206276D02*
X112547696Y-122077453D01*
X112547696Y-122077453D02*
X112547479Y-121920000D01*
X112547479Y-121920000D02*
X112547715Y-121757645D01*
X112547715Y-121757645D02*
X112548831Y-121629870D01*
X112548831Y-121629870D02*
X112551435Y-121528921D01*
X112551435Y-121528921D02*
X112556138Y-121447047D01*
X112556138Y-121447047D02*
X112563551Y-121376495D01*
X112563551Y-121376495D02*
X112574282Y-121309511D01*
X112574282Y-121309511D02*
X112588943Y-121238343D01*
X112588943Y-121238343D02*
X112607409Y-121158340D01*
X112607409Y-121158340D02*
X112719307Y-120771085D01*
X112719307Y-120771085D02*
X112866141Y-120406962D01*
X112866141Y-120406962D02*
X113047043Y-120067083D01*
X113047043Y-120067083D02*
X113261140Y-119752563D01*
X113261140Y-119752563D02*
X113507562Y-119464514D01*
X113507562Y-119464514D02*
X113785439Y-119204051D01*
X113785439Y-119204051D02*
X114093898Y-118972287D01*
X114093898Y-118972287D02*
X114432069Y-118770336D01*
X114432069Y-118770336D02*
X114504023Y-118733204D01*
X114504023Y-118733204D02*
X114849146Y-118582917D01*
X114849146Y-118582917D02*
X115207403Y-118471491D01*
X115207403Y-118471491D02*
X115575033Y-118398966D01*
X115575033Y-118398966D02*
X115948279Y-118365387D01*
X115948279Y-118365387D02*
X116323382Y-118370794D01*
X116323382Y-118370794D02*
X116323382Y-118370794D01*
G36*
X116323382Y-118370794D02*
G01*
X116696582Y-118415233D01*
X117064122Y-118498743D01*
X117422241Y-118621369D01*
X117598290Y-118698159D01*
X117937902Y-118880456D01*
X118252124Y-119095596D01*
X118539250Y-119341338D01*
X118797577Y-119615436D01*
X119025398Y-119915646D01*
X119221008Y-120239727D01*
X119382702Y-120585432D01*
X119508774Y-120950520D01*
X119596551Y-121327334D01*
X119616739Y-121478349D01*
X119629771Y-121658527D01*
X119635648Y-121855303D01*
X119634370Y-122056117D01*
X119625937Y-122248406D01*
X119610348Y-122419607D01*
X119596551Y-122512667D01*
X119508205Y-122890295D01*
X119383067Y-123251009D01*
X119223237Y-123592616D01*
X119030818Y-123912923D01*
X118807911Y-124209738D01*
X118556616Y-124480867D01*
X118279036Y-124724119D01*
X117977272Y-124937301D01*
X117653426Y-125118219D01*
X117309598Y-125264681D01*
X116947890Y-125374496D01*
X116827716Y-125401745D01*
X116462425Y-125459946D01*
X116103619Y-125479933D01*
X115748422Y-125463036D01*
X115368915Y-125405674D01*
X115001539Y-125309033D01*
X114649011Y-125174969D01*
X114314047Y-125005342D01*
X113999362Y-124802010D01*
X113707673Y-124566830D01*
X113441694Y-124301661D01*
X113204141Y-124008362D01*
X112997730Y-123688790D01*
X112906370Y-123518373D01*
X112778409Y-123233352D01*
X112674878Y-122934750D01*
X112607409Y-122681660D01*
X112588374Y-122599089D01*
X112573857Y-122528190D01*
X112563248Y-122461212D01*
X112555938Y-122390402D01*
X112551316Y-122308008D01*
X112548772Y-122206276D01*
X112547696Y-122077453D01*
X112547479Y-121920000D01*
X112547715Y-121757645D01*
X112548831Y-121629870D01*
X112551435Y-121528921D01*
X112556138Y-121447047D01*
X112563551Y-121376495D01*
X112574282Y-121309511D01*
X112588943Y-121238343D01*
X112607409Y-121158340D01*
X112719307Y-120771085D01*
X112866141Y-120406962D01*
X113047043Y-120067083D01*
X113261140Y-119752563D01*
X113507562Y-119464514D01*
X113785439Y-119204051D01*
X114093898Y-118972287D01*
X114432069Y-118770336D01*
X114504023Y-118733204D01*
X114849146Y-118582917D01*
X115207403Y-118471491D01*
X115575033Y-118398966D01*
X115948279Y-118365387D01*
X116323382Y-118370794D01*
G37*
X116323382Y-118370794D02*
X116696582Y-118415233D01*
X117064122Y-118498743D01*
X117422241Y-118621369D01*
X117598290Y-118698159D01*
X117937902Y-118880456D01*
X118252124Y-119095596D01*
X118539250Y-119341338D01*
X118797577Y-119615436D01*
X119025398Y-119915646D01*
X119221008Y-120239727D01*
X119382702Y-120585432D01*
X119508774Y-120950520D01*
X119596551Y-121327334D01*
X119616739Y-121478349D01*
X119629771Y-121658527D01*
X119635648Y-121855303D01*
X119634370Y-122056117D01*
X119625937Y-122248406D01*
X119610348Y-122419607D01*
X119596551Y-122512667D01*
X119508205Y-122890295D01*
X119383067Y-123251009D01*
X119223237Y-123592616D01*
X119030818Y-123912923D01*
X118807911Y-124209738D01*
X118556616Y-124480867D01*
X118279036Y-124724119D01*
X117977272Y-124937301D01*
X117653426Y-125118219D01*
X117309598Y-125264681D01*
X116947890Y-125374496D01*
X116827716Y-125401745D01*
X116462425Y-125459946D01*
X116103619Y-125479933D01*
X115748422Y-125463036D01*
X115368915Y-125405674D01*
X115001539Y-125309033D01*
X114649011Y-125174969D01*
X114314047Y-125005342D01*
X113999362Y-124802010D01*
X113707673Y-124566830D01*
X113441694Y-124301661D01*
X113204141Y-124008362D01*
X112997730Y-123688790D01*
X112906370Y-123518373D01*
X112778409Y-123233352D01*
X112674878Y-122934750D01*
X112607409Y-122681660D01*
X112588374Y-122599089D01*
X112573857Y-122528190D01*
X112563248Y-122461212D01*
X112555938Y-122390402D01*
X112551316Y-122308008D01*
X112548772Y-122206276D01*
X112547696Y-122077453D01*
X112547479Y-121920000D01*
X112547715Y-121757645D01*
X112548831Y-121629870D01*
X112551435Y-121528921D01*
X112556138Y-121447047D01*
X112563551Y-121376495D01*
X112574282Y-121309511D01*
X112588943Y-121238343D01*
X112607409Y-121158340D01*
X112719307Y-120771085D01*
X112866141Y-120406962D01*
X113047043Y-120067083D01*
X113261140Y-119752563D01*
X113507562Y-119464514D01*
X113785439Y-119204051D01*
X114093898Y-118972287D01*
X114432069Y-118770336D01*
X114504023Y-118733204D01*
X114849146Y-118582917D01*
X115207403Y-118471491D01*
X115575033Y-118398966D01*
X115948279Y-118365387D01*
X116323382Y-118370794D01*
X133519408Y-110185986D02*
X133763582Y-110251137D01*
X133763582Y-110251137D02*
X133985555Y-110346755D01*
X133985555Y-110346755D02*
X134187872Y-110473901D01*
X134187872Y-110473901D02*
X134371568Y-110634753D01*
X134371568Y-110634753D02*
X134530997Y-110822722D01*
X134530997Y-110822722D02*
X134660513Y-111031218D01*
X134660513Y-111031218D02*
X134749290Y-111238123D01*
X134749290Y-111238123D02*
X134812877Y-111486931D01*
X134812877Y-111486931D02*
X134836471Y-111735458D01*
X134836471Y-111735458D02*
X134822058Y-111979920D01*
X134822058Y-111979920D02*
X134771623Y-112216533D01*
X134771623Y-112216533D02*
X134687151Y-112441516D01*
X134687151Y-112441516D02*
X134570627Y-112651084D01*
X134570627Y-112651084D02*
X134424036Y-112841454D01*
X134424036Y-112841454D02*
X134249363Y-113008844D01*
X134249363Y-113008844D02*
X134048594Y-113149471D01*
X134048594Y-113149471D02*
X133823712Y-113259551D01*
X133823712Y-113259551D02*
X133659748Y-113314551D01*
X133659748Y-113314551D02*
X133481139Y-113350817D01*
X133481139Y-113350817D02*
X133285026Y-113368250D01*
X133285026Y-113368250D02*
X133090163Y-113366013D01*
X133090163Y-113366013D02*
X132933658Y-113346931D01*
X132933658Y-113346931D02*
X132687316Y-113279314D01*
X132687316Y-113279314D02*
X132457247Y-113174504D01*
X132457247Y-113174504D02*
X132247142Y-113035732D01*
X132247142Y-113035732D02*
X132060693Y-112866227D01*
X132060693Y-112866227D02*
X131901592Y-112669216D01*
X131901592Y-112669216D02*
X131773530Y-112447931D01*
X131773530Y-112447931D02*
X131700082Y-112268000D01*
X131700082Y-112268000D02*
X131656877Y-112097083D01*
X131656877Y-112097083D02*
X131632891Y-111903532D01*
X131632891Y-111903532D02*
X131628674Y-111702711D01*
X131628674Y-111702711D02*
X131644777Y-111509981D01*
X131644777Y-111509981D02*
X131668514Y-111387799D01*
X131668514Y-111387799D02*
X131751277Y-111140238D01*
X131751277Y-111140238D02*
X131866376Y-110916671D01*
X131866376Y-110916671D02*
X132010213Y-110718716D01*
X132010213Y-110718716D02*
X132179188Y-110547990D01*
X132179188Y-110547990D02*
X132369703Y-110406109D01*
X132369703Y-110406109D02*
X132578159Y-110294691D01*
X132578159Y-110294691D02*
X132800956Y-110215353D01*
X132800956Y-110215353D02*
X133034496Y-110169711D01*
X133034496Y-110169711D02*
X133275179Y-110159383D01*
X133275179Y-110159383D02*
X133519408Y-110185986D01*
X133519408Y-110185986D02*
X133519408Y-110185986D01*
G36*
X133519408Y-110185986D02*
G01*
X133763582Y-110251137D01*
X133985555Y-110346755D01*
X134187872Y-110473901D01*
X134371568Y-110634753D01*
X134530997Y-110822722D01*
X134660513Y-111031218D01*
X134749290Y-111238123D01*
X134812877Y-111486931D01*
X134836471Y-111735458D01*
X134822058Y-111979920D01*
X134771623Y-112216533D01*
X134687151Y-112441516D01*
X134570627Y-112651084D01*
X134424036Y-112841454D01*
X134249363Y-113008844D01*
X134048594Y-113149471D01*
X133823712Y-113259551D01*
X133659748Y-113314551D01*
X133481139Y-113350817D01*
X133285026Y-113368250D01*
X133090163Y-113366013D01*
X132933658Y-113346931D01*
X132687316Y-113279314D01*
X132457247Y-113174504D01*
X132247142Y-113035732D01*
X132060693Y-112866227D01*
X131901592Y-112669216D01*
X131773530Y-112447931D01*
X131700082Y-112268000D01*
X131656877Y-112097083D01*
X131632891Y-111903532D01*
X131628674Y-111702711D01*
X131644777Y-111509981D01*
X131668514Y-111387799D01*
X131751277Y-111140238D01*
X131866376Y-110916671D01*
X132010213Y-110718716D01*
X132179188Y-110547990D01*
X132369703Y-110406109D01*
X132578159Y-110294691D01*
X132800956Y-110215353D01*
X133034496Y-110169711D01*
X133275179Y-110159383D01*
X133519408Y-110185986D01*
G37*
X133519408Y-110185986D02*
X133763582Y-110251137D01*
X133985555Y-110346755D01*
X134187872Y-110473901D01*
X134371568Y-110634753D01*
X134530997Y-110822722D01*
X134660513Y-111031218D01*
X134749290Y-111238123D01*
X134812877Y-111486931D01*
X134836471Y-111735458D01*
X134822058Y-111979920D01*
X134771623Y-112216533D01*
X134687151Y-112441516D01*
X134570627Y-112651084D01*
X134424036Y-112841454D01*
X134249363Y-113008844D01*
X134048594Y-113149471D01*
X133823712Y-113259551D01*
X133659748Y-113314551D01*
X133481139Y-113350817D01*
X133285026Y-113368250D01*
X133090163Y-113366013D01*
X132933658Y-113346931D01*
X132687316Y-113279314D01*
X132457247Y-113174504D01*
X132247142Y-113035732D01*
X132060693Y-112866227D01*
X131901592Y-112669216D01*
X131773530Y-112447931D01*
X131700082Y-112268000D01*
X131656877Y-112097083D01*
X131632891Y-111903532D01*
X131628674Y-111702711D01*
X131644777Y-111509981D01*
X131668514Y-111387799D01*
X131751277Y-111140238D01*
X131866376Y-110916671D01*
X132010213Y-110718716D01*
X132179188Y-110547990D01*
X132369703Y-110406109D01*
X132578159Y-110294691D01*
X132800956Y-110215353D01*
X133034496Y-110169711D01*
X133275179Y-110159383D01*
X133519408Y-110185986D01*
X112445258Y-154433965D02*
X112637533Y-154445095D01*
X112637533Y-154445095D02*
X112803352Y-154465678D01*
X112803352Y-154465678D02*
X112821744Y-154468956D01*
X112821744Y-154468956D02*
X113180851Y-154556405D01*
X113180851Y-154556405D02*
X113529346Y-154682492D01*
X113529346Y-154682492D02*
X113860817Y-154844584D01*
X113860817Y-154844584D02*
X114107231Y-154996913D01*
X114107231Y-154996913D02*
X114242289Y-155098310D01*
X114242289Y-155098310D02*
X114389859Y-155224717D01*
X114389859Y-155224717D02*
X114539202Y-155365763D01*
X114539202Y-155365763D02*
X114679580Y-155511083D01*
X114679580Y-155511083D02*
X114800253Y-155650308D01*
X114800253Y-155650308D02*
X114848510Y-155712584D01*
X114848510Y-155712584D02*
X115050054Y-156020505D01*
X115050054Y-156020505D02*
X115214081Y-156346112D01*
X115214081Y-156346112D02*
X115339817Y-156686157D01*
X115339817Y-156686157D02*
X115426489Y-157037389D01*
X115426489Y-157037389D02*
X115473323Y-157396561D01*
X115473323Y-157396561D02*
X115479547Y-157760421D01*
X115479547Y-157760421D02*
X115444387Y-158125723D01*
X115444387Y-158125723D02*
X115435650Y-158179538D01*
X115435650Y-158179538D02*
X115354286Y-158532575D01*
X115354286Y-158532575D02*
X115234642Y-158870666D01*
X115234642Y-158870666D02*
X115078952Y-159191147D01*
X115078952Y-159191147D02*
X114889449Y-159491353D01*
X114889449Y-159491353D02*
X114668367Y-159768619D01*
X114668367Y-159768619D02*
X114417939Y-160020281D01*
X114417939Y-160020281D02*
X114140398Y-160243674D01*
X114140398Y-160243674D02*
X113837979Y-160436134D01*
X113837979Y-160436134D02*
X113512913Y-160594996D01*
X113512913Y-160594996D02*
X113361494Y-160654213D01*
X113361494Y-160654213D02*
X113187215Y-160712837D01*
X113187215Y-160712837D02*
X113024160Y-160756929D01*
X113024160Y-160756929D02*
X112860838Y-160788424D01*
X112860838Y-160788424D02*
X112685762Y-160809258D01*
X112685762Y-160809258D02*
X112487443Y-160821367D01*
X112487443Y-160821367D02*
X112345494Y-160825384D01*
X112345494Y-160825384D02*
X112145859Y-160827160D01*
X112145859Y-160827160D02*
X111984650Y-160824077D01*
X111984650Y-160824077D02*
X111858222Y-160816003D01*
X111858222Y-160816003D02*
X111773994Y-160804872D01*
X111773994Y-160804872D02*
X111399468Y-160718103D01*
X111399468Y-160718103D02*
X111046922Y-160595454D01*
X111046922Y-160595454D02*
X110716867Y-160437197D01*
X110716867Y-160437197D02*
X110409817Y-160243604D01*
X110409817Y-160243604D02*
X110126283Y-160014947D01*
X110126283Y-160014947D02*
X109941502Y-159833560D01*
X109941502Y-159833560D02*
X109704340Y-159551509D01*
X109704340Y-159551509D02*
X109503274Y-159247501D01*
X109503274Y-159247501D02*
X109338183Y-158921303D01*
X109338183Y-158921303D02*
X109208946Y-158572678D01*
X109208946Y-158572678D02*
X109125927Y-158252584D01*
X109125927Y-158252584D02*
X109101056Y-158097329D01*
X109101056Y-158097329D02*
X109084425Y-157913137D01*
X109084425Y-157913137D02*
X109076158Y-157712621D01*
X109076158Y-157712621D02*
X109076377Y-157508392D01*
X109076377Y-157508392D02*
X109085206Y-157313061D01*
X109085206Y-157313061D02*
X109102769Y-157139241D01*
X109102769Y-157139241D02*
X109114319Y-157067250D01*
X109114319Y-157067250D02*
X109201832Y-156708611D01*
X109201832Y-156708611D02*
X109326499Y-156367885D01*
X109326499Y-156367885D02*
X109486183Y-156047232D01*
X109486183Y-156047232D02*
X109678744Y-155748814D01*
X109678744Y-155748814D02*
X109902045Y-155474791D01*
X109902045Y-155474791D02*
X110153946Y-155227324D01*
X110153946Y-155227324D02*
X110432309Y-155008573D01*
X110432309Y-155008573D02*
X110734996Y-154820699D01*
X110734996Y-154820699D02*
X111059867Y-154665864D01*
X111059867Y-154665864D02*
X111404785Y-154546226D01*
X111404785Y-154546226D02*
X111673923Y-154481179D01*
X111673923Y-154481179D02*
X111840860Y-154455894D01*
X111840860Y-154455894D02*
X112033805Y-154439504D01*
X112033805Y-154439504D02*
X112239643Y-154432148D01*
X112239643Y-154432148D02*
X112445258Y-154433965D01*
X112445258Y-154433965D02*
X112445258Y-154433965D01*
G36*
X112445258Y-154433965D02*
G01*
X112637533Y-154445095D01*
X112803352Y-154465678D01*
X112821744Y-154468956D01*
X113180851Y-154556405D01*
X113529346Y-154682492D01*
X113860817Y-154844584D01*
X114107231Y-154996913D01*
X114242289Y-155098310D01*
X114389859Y-155224717D01*
X114539202Y-155365763D01*
X114679580Y-155511083D01*
X114800253Y-155650308D01*
X114848510Y-155712584D01*
X115050054Y-156020505D01*
X115214081Y-156346112D01*
X115339817Y-156686157D01*
X115426489Y-157037389D01*
X115473323Y-157396561D01*
X115479547Y-157760421D01*
X115444387Y-158125723D01*
X115435650Y-158179538D01*
X115354286Y-158532575D01*
X115234642Y-158870666D01*
X115078952Y-159191147D01*
X114889449Y-159491353D01*
X114668367Y-159768619D01*
X114417939Y-160020281D01*
X114140398Y-160243674D01*
X113837979Y-160436134D01*
X113512913Y-160594996D01*
X113361494Y-160654213D01*
X113187215Y-160712837D01*
X113024160Y-160756929D01*
X112860838Y-160788424D01*
X112685762Y-160809258D01*
X112487443Y-160821367D01*
X112345494Y-160825384D01*
X112145859Y-160827160D01*
X111984650Y-160824077D01*
X111858222Y-160816003D01*
X111773994Y-160804872D01*
X111399468Y-160718103D01*
X111046922Y-160595454D01*
X110716867Y-160437197D01*
X110409817Y-160243604D01*
X110126283Y-160014947D01*
X109941502Y-159833560D01*
X109704340Y-159551509D01*
X109503274Y-159247501D01*
X109338183Y-158921303D01*
X109208946Y-158572678D01*
X109125927Y-158252584D01*
X109101056Y-158097329D01*
X109084425Y-157913137D01*
X109076158Y-157712621D01*
X109076377Y-157508392D01*
X109085206Y-157313061D01*
X109102769Y-157139241D01*
X109114319Y-157067250D01*
X109201832Y-156708611D01*
X109326499Y-156367885D01*
X109486183Y-156047232D01*
X109678744Y-155748814D01*
X109902045Y-155474791D01*
X110153946Y-155227324D01*
X110432309Y-155008573D01*
X110734996Y-154820699D01*
X111059867Y-154665864D01*
X111404785Y-154546226D01*
X111673923Y-154481179D01*
X111840860Y-154455894D01*
X112033805Y-154439504D01*
X112239643Y-154432148D01*
X112445258Y-154433965D01*
G37*
X112445258Y-154433965D02*
X112637533Y-154445095D01*
X112803352Y-154465678D01*
X112821744Y-154468956D01*
X113180851Y-154556405D01*
X113529346Y-154682492D01*
X113860817Y-154844584D01*
X114107231Y-154996913D01*
X114242289Y-155098310D01*
X114389859Y-155224717D01*
X114539202Y-155365763D01*
X114679580Y-155511083D01*
X114800253Y-155650308D01*
X114848510Y-155712584D01*
X115050054Y-156020505D01*
X115214081Y-156346112D01*
X115339817Y-156686157D01*
X115426489Y-157037389D01*
X115473323Y-157396561D01*
X115479547Y-157760421D01*
X115444387Y-158125723D01*
X115435650Y-158179538D01*
X115354286Y-158532575D01*
X115234642Y-158870666D01*
X115078952Y-159191147D01*
X114889449Y-159491353D01*
X114668367Y-159768619D01*
X114417939Y-160020281D01*
X114140398Y-160243674D01*
X113837979Y-160436134D01*
X113512913Y-160594996D01*
X113361494Y-160654213D01*
X113187215Y-160712837D01*
X113024160Y-160756929D01*
X112860838Y-160788424D01*
X112685762Y-160809258D01*
X112487443Y-160821367D01*
X112345494Y-160825384D01*
X112145859Y-160827160D01*
X111984650Y-160824077D01*
X111858222Y-160816003D01*
X111773994Y-160804872D01*
X111399468Y-160718103D01*
X111046922Y-160595454D01*
X110716867Y-160437197D01*
X110409817Y-160243604D01*
X110126283Y-160014947D01*
X109941502Y-159833560D01*
X109704340Y-159551509D01*
X109503274Y-159247501D01*
X109338183Y-158921303D01*
X109208946Y-158572678D01*
X109125927Y-158252584D01*
X109101056Y-158097329D01*
X109084425Y-157913137D01*
X109076158Y-157712621D01*
X109076377Y-157508392D01*
X109085206Y-157313061D01*
X109102769Y-157139241D01*
X109114319Y-157067250D01*
X109201832Y-156708611D01*
X109326499Y-156367885D01*
X109486183Y-156047232D01*
X109678744Y-155748814D01*
X109902045Y-155474791D01*
X110153946Y-155227324D01*
X110432309Y-155008573D01*
X110734996Y-154820699D01*
X111059867Y-154665864D01*
X111404785Y-154546226D01*
X111673923Y-154481179D01*
X111840860Y-154455894D01*
X112033805Y-154439504D01*
X112239643Y-154432148D01*
X112445258Y-154433965D01*
X140370096Y-124505424D02*
X140520632Y-124513510D01*
X140520632Y-124513510D02*
X140654635Y-124529745D01*
X140654635Y-124529745D02*
X140784885Y-124555966D01*
X140784885Y-124555966D02*
X140924163Y-124594008D01*
X140924163Y-124594008D02*
X141012767Y-124621774D01*
X141012767Y-124621774D02*
X141302145Y-124737499D01*
X141302145Y-124737499D02*
X141574505Y-124891770D01*
X141574505Y-124891770D02*
X141830195Y-125084809D01*
X141830195Y-125084809D02*
X142032124Y-125276853D01*
X142032124Y-125276853D02*
X142243167Y-125527610D01*
X142243167Y-125527610D02*
X142416354Y-125796998D01*
X142416354Y-125796998D02*
X142551132Y-126083625D01*
X142551132Y-126083625D02*
X142646946Y-126386103D01*
X142646946Y-126386103D02*
X142703242Y-126703041D01*
X142703242Y-126703041D02*
X142719661Y-127000000D01*
X142719661Y-127000000D02*
X142699467Y-127328782D01*
X142699467Y-127328782D02*
X142639254Y-127644358D01*
X142639254Y-127644358D02*
X142539577Y-127945336D01*
X142539577Y-127945336D02*
X142400991Y-128230326D01*
X142400991Y-128230326D02*
X142224050Y-128497940D01*
X142224050Y-128497940D02*
X142032124Y-128723148D01*
X142032124Y-128723148D02*
X141792820Y-128946833D01*
X141792820Y-128946833D02*
X141537386Y-129132007D01*
X141537386Y-129132007D02*
X141263281Y-129280020D01*
X141263281Y-129280020D02*
X140967962Y-129392223D01*
X140967962Y-129392223D02*
X140648888Y-129469966D01*
X140648888Y-129469966D02*
X140616097Y-129475808D01*
X140616097Y-129475808D02*
X140502783Y-129490090D01*
X140502783Y-129490090D02*
X140363603Y-129499817D01*
X140363603Y-129499817D02*
X140214225Y-129504578D01*
X140214225Y-129504578D02*
X140070317Y-129503963D01*
X140070317Y-129503963D02*
X139947549Y-129497559D01*
X139947549Y-129497559D02*
X139915078Y-129494195D01*
X139915078Y-129494195D02*
X139866471Y-129486214D01*
X139866471Y-129486214D02*
X139789741Y-129471331D01*
X139789741Y-129471331D02*
X139698014Y-129452148D01*
X139698014Y-129452148D02*
X139653164Y-129442320D01*
X139653164Y-129442320D02*
X139347194Y-129353148D01*
X139347194Y-129353148D02*
X139059361Y-129227219D01*
X139059361Y-129227219D02*
X138792135Y-129067103D01*
X138792135Y-129067103D02*
X138547986Y-128875371D01*
X138547986Y-128875371D02*
X138329382Y-128654592D01*
X138329382Y-128654592D02*
X138138792Y-128407338D01*
X138138792Y-128407338D02*
X137978686Y-128136178D01*
X137978686Y-128136178D02*
X137851533Y-127843682D01*
X137851533Y-127843682D02*
X137759803Y-127532421D01*
X137759803Y-127532421D02*
X137743122Y-127454148D01*
X137743122Y-127454148D02*
X137730844Y-127363006D01*
X137730844Y-127363006D02*
X137722435Y-127241181D01*
X137722435Y-127241181D02*
X137717893Y-127100148D01*
X137717893Y-127100148D02*
X137717219Y-126951379D01*
X137717219Y-126951379D02*
X137720414Y-126806349D01*
X137720414Y-126806349D02*
X137727476Y-126676531D01*
X137727476Y-126676531D02*
X137738407Y-126573399D01*
X137738407Y-126573399D02*
X137743122Y-126545852D01*
X137743122Y-126545852D02*
X137826243Y-126229485D01*
X137826243Y-126229485D02*
X137946057Y-125930602D01*
X137946057Y-125930602D02*
X138100266Y-125652011D01*
X138100266Y-125652011D02*
X138286573Y-125396522D01*
X138286573Y-125396522D02*
X138502681Y-125166942D01*
X138502681Y-125166942D02*
X138746293Y-124966082D01*
X138746293Y-124966082D02*
X139015109Y-124796749D01*
X139015109Y-124796749D02*
X139273456Y-124674930D01*
X139273456Y-124674930D02*
X139456887Y-124607004D01*
X139456887Y-124607004D02*
X139626992Y-124558477D01*
X139626992Y-124558477D02*
X139797498Y-124526783D01*
X139797498Y-124526783D02*
X139982133Y-124509358D01*
X139982133Y-124509358D02*
X140190244Y-124503653D01*
X140190244Y-124503653D02*
X140370096Y-124505424D01*
X140370096Y-124505424D02*
X140370096Y-124505424D01*
G36*
X140370096Y-124505424D02*
G01*
X140520632Y-124513510D01*
X140654635Y-124529745D01*
X140784885Y-124555966D01*
X140924163Y-124594008D01*
X141012767Y-124621774D01*
X141302145Y-124737499D01*
X141574505Y-124891770D01*
X141830195Y-125084809D01*
X142032124Y-125276853D01*
X142243167Y-125527610D01*
X142416354Y-125796998D01*
X142551132Y-126083625D01*
X142646946Y-126386103D01*
X142703242Y-126703041D01*
X142719661Y-127000000D01*
X142699467Y-127328782D01*
X142639254Y-127644358D01*
X142539577Y-127945336D01*
X142400991Y-128230326D01*
X142224050Y-128497940D01*
X142032124Y-128723148D01*
X141792820Y-128946833D01*
X141537386Y-129132007D01*
X141263281Y-129280020D01*
X140967962Y-129392223D01*
X140648888Y-129469966D01*
X140616097Y-129475808D01*
X140502783Y-129490090D01*
X140363603Y-129499817D01*
X140214225Y-129504578D01*
X140070317Y-129503963D01*
X139947549Y-129497559D01*
X139915078Y-129494195D01*
X139866471Y-129486214D01*
X139789741Y-129471331D01*
X139698014Y-129452148D01*
X139653164Y-129442320D01*
X139347194Y-129353148D01*
X139059361Y-129227219D01*
X138792135Y-129067103D01*
X138547986Y-128875371D01*
X138329382Y-128654592D01*
X138138792Y-128407338D01*
X137978686Y-128136178D01*
X137851533Y-127843682D01*
X137759803Y-127532421D01*
X137743122Y-127454148D01*
X137730844Y-127363006D01*
X137722435Y-127241181D01*
X137717893Y-127100148D01*
X137717219Y-126951379D01*
X137720414Y-126806349D01*
X137727476Y-126676531D01*
X137738407Y-126573399D01*
X137743122Y-126545852D01*
X137826243Y-126229485D01*
X137946057Y-125930602D01*
X138100266Y-125652011D01*
X138286573Y-125396522D01*
X138502681Y-125166942D01*
X138746293Y-124966082D01*
X139015109Y-124796749D01*
X139273456Y-124674930D01*
X139456887Y-124607004D01*
X139626992Y-124558477D01*
X139797498Y-124526783D01*
X139982133Y-124509358D01*
X140190244Y-124503653D01*
X140370096Y-124505424D01*
G37*
X140370096Y-124505424D02*
X140520632Y-124513510D01*
X140654635Y-124529745D01*
X140784885Y-124555966D01*
X140924163Y-124594008D01*
X141012767Y-124621774D01*
X141302145Y-124737499D01*
X141574505Y-124891770D01*
X141830195Y-125084809D01*
X142032124Y-125276853D01*
X142243167Y-125527610D01*
X142416354Y-125796998D01*
X142551132Y-126083625D01*
X142646946Y-126386103D01*
X142703242Y-126703041D01*
X142719661Y-127000000D01*
X142699467Y-127328782D01*
X142639254Y-127644358D01*
X142539577Y-127945336D01*
X142400991Y-128230326D01*
X142224050Y-128497940D01*
X142032124Y-128723148D01*
X141792820Y-128946833D01*
X141537386Y-129132007D01*
X141263281Y-129280020D01*
X140967962Y-129392223D01*
X140648888Y-129469966D01*
X140616097Y-129475808D01*
X140502783Y-129490090D01*
X140363603Y-129499817D01*
X140214225Y-129504578D01*
X140070317Y-129503963D01*
X139947549Y-129497559D01*
X139915078Y-129494195D01*
X139866471Y-129486214D01*
X139789741Y-129471331D01*
X139698014Y-129452148D01*
X139653164Y-129442320D01*
X139347194Y-129353148D01*
X139059361Y-129227219D01*
X138792135Y-129067103D01*
X138547986Y-128875371D01*
X138329382Y-128654592D01*
X138138792Y-128407338D01*
X137978686Y-128136178D01*
X137851533Y-127843682D01*
X137759803Y-127532421D01*
X137743122Y-127454148D01*
X137730844Y-127363006D01*
X137722435Y-127241181D01*
X137717893Y-127100148D01*
X137717219Y-126951379D01*
X137720414Y-126806349D01*
X137727476Y-126676531D01*
X137738407Y-126573399D01*
X137743122Y-126545852D01*
X137826243Y-126229485D01*
X137946057Y-125930602D01*
X138100266Y-125652011D01*
X138286573Y-125396522D01*
X138502681Y-125166942D01*
X138746293Y-124966082D01*
X139015109Y-124796749D01*
X139273456Y-124674930D01*
X139456887Y-124607004D01*
X139626992Y-124558477D01*
X139797498Y-124526783D01*
X139982133Y-124509358D01*
X140190244Y-124503653D01*
X140370096Y-124505424D01*
X133406727Y-122864439D02*
X133664057Y-122912912D01*
X133664057Y-122912912D02*
X133901852Y-122998845D01*
X133901852Y-122998845D02*
X134121308Y-123122784D01*
X134121308Y-123122784D02*
X134323346Y-123285022D01*
X134323346Y-123285022D02*
X134502604Y-123478402D01*
X134502604Y-123478402D02*
X134642270Y-123686208D01*
X134642270Y-123686208D02*
X134743032Y-123910027D01*
X134743032Y-123910027D02*
X134805574Y-124151445D01*
X134805574Y-124151445D02*
X134830583Y-124412052D01*
X134830583Y-124412052D02*
X134831152Y-124460000D01*
X134831152Y-124460000D02*
X134823424Y-124653007D01*
X134823424Y-124653007D02*
X134797716Y-124822479D01*
X134797716Y-124822479D02*
X134750241Y-124984762D01*
X134750241Y-124984762D02*
X134677212Y-125156204D01*
X134677212Y-125156204D02*
X134663211Y-125184952D01*
X134663211Y-125184952D02*
X134534161Y-125399886D01*
X134534161Y-125399886D02*
X134374201Y-125589040D01*
X134374201Y-125589040D02*
X134187649Y-125750107D01*
X134187649Y-125750107D02*
X133978825Y-125880783D01*
X133978825Y-125880783D02*
X133752046Y-125978761D01*
X133752046Y-125978761D02*
X133511632Y-126041736D01*
X133511632Y-126041736D02*
X133261900Y-126067403D01*
X133261900Y-126067403D02*
X133030810Y-126056468D01*
X133030810Y-126056468D02*
X132782666Y-126006029D01*
X132782666Y-126006029D02*
X132548825Y-125917616D01*
X132548825Y-125917616D02*
X132332747Y-125794178D01*
X132332747Y-125794178D02*
X132137889Y-125638661D01*
X132137889Y-125638661D02*
X131967710Y-125454014D01*
X131967710Y-125454014D02*
X131825669Y-125243182D01*
X131825669Y-125243182D02*
X131715224Y-125009115D01*
X131715224Y-125009115D02*
X131679064Y-124904500D01*
X131679064Y-124904500D02*
X131658502Y-124808336D01*
X131658502Y-124808336D02*
X131644734Y-124682250D01*
X131644734Y-124682250D02*
X131637763Y-124538104D01*
X131637763Y-124538104D02*
X131637594Y-124387761D01*
X131637594Y-124387761D02*
X131644230Y-124243084D01*
X131644230Y-124243084D02*
X131657677Y-124115935D01*
X131657677Y-124115935D02*
X131677938Y-124018179D01*
X131677938Y-124018179D02*
X131678750Y-124015500D01*
X131678750Y-124015500D02*
X131774093Y-123773333D01*
X131774093Y-123773333D02*
X131902129Y-123554143D01*
X131902129Y-123554143D02*
X132059253Y-123360331D01*
X132059253Y-123360331D02*
X132241860Y-123194300D01*
X132241860Y-123194300D02*
X132446343Y-123058451D01*
X132446343Y-123058451D02*
X132669097Y-122955186D01*
X132669097Y-122955186D02*
X132906516Y-122886907D01*
X132906516Y-122886907D02*
X133154995Y-122856016D01*
X133154995Y-122856016D02*
X133406727Y-122864439D01*
X133406727Y-122864439D02*
X133406727Y-122864439D01*
G36*
X133406727Y-122864439D02*
G01*
X133664057Y-122912912D01*
X133901852Y-122998845D01*
X134121308Y-123122784D01*
X134323346Y-123285022D01*
X134502604Y-123478402D01*
X134642270Y-123686208D01*
X134743032Y-123910027D01*
X134805574Y-124151445D01*
X134830583Y-124412052D01*
X134831152Y-124460000D01*
X134823424Y-124653007D01*
X134797716Y-124822479D01*
X134750241Y-124984762D01*
X134677212Y-125156204D01*
X134663211Y-125184952D01*
X134534161Y-125399886D01*
X134374201Y-125589040D01*
X134187649Y-125750107D01*
X133978825Y-125880783D01*
X133752046Y-125978761D01*
X133511632Y-126041736D01*
X133261900Y-126067403D01*
X133030810Y-126056468D01*
X132782666Y-126006029D01*
X132548825Y-125917616D01*
X132332747Y-125794178D01*
X132137889Y-125638661D01*
X131967710Y-125454014D01*
X131825669Y-125243182D01*
X131715224Y-125009115D01*
X131679064Y-124904500D01*
X131658502Y-124808336D01*
X131644734Y-124682250D01*
X131637763Y-124538104D01*
X131637594Y-124387761D01*
X131644230Y-124243084D01*
X131657677Y-124115935D01*
X131677938Y-124018179D01*
X131678750Y-124015500D01*
X131774093Y-123773333D01*
X131902129Y-123554143D01*
X132059253Y-123360331D01*
X132241860Y-123194300D01*
X132446343Y-123058451D01*
X132669097Y-122955186D01*
X132906516Y-122886907D01*
X133154995Y-122856016D01*
X133406727Y-122864439D01*
G37*
X133406727Y-122864439D02*
X133664057Y-122912912D01*
X133901852Y-122998845D01*
X134121308Y-123122784D01*
X134323346Y-123285022D01*
X134502604Y-123478402D01*
X134642270Y-123686208D01*
X134743032Y-123910027D01*
X134805574Y-124151445D01*
X134830583Y-124412052D01*
X134831152Y-124460000D01*
X134823424Y-124653007D01*
X134797716Y-124822479D01*
X134750241Y-124984762D01*
X134677212Y-125156204D01*
X134663211Y-125184952D01*
X134534161Y-125399886D01*
X134374201Y-125589040D01*
X134187649Y-125750107D01*
X133978825Y-125880783D01*
X133752046Y-125978761D01*
X133511632Y-126041736D01*
X133261900Y-126067403D01*
X133030810Y-126056468D01*
X132782666Y-126006029D01*
X132548825Y-125917616D01*
X132332747Y-125794178D01*
X132137889Y-125638661D01*
X131967710Y-125454014D01*
X131825669Y-125243182D01*
X131715224Y-125009115D01*
X131679064Y-124904500D01*
X131658502Y-124808336D01*
X131644734Y-124682250D01*
X131637763Y-124538104D01*
X131637594Y-124387761D01*
X131644230Y-124243084D01*
X131657677Y-124115935D01*
X131677938Y-124018179D01*
X131678750Y-124015500D01*
X131774093Y-123773333D01*
X131902129Y-123554143D01*
X132059253Y-123360331D01*
X132241860Y-123194300D01*
X132446343Y-123058451D01*
X132669097Y-122955186D01*
X132906516Y-122886907D01*
X133154995Y-122856016D01*
X133406727Y-122864439D01*
X147609161Y-176646417D02*
X107180828Y-176646417D01*
X107180828Y-176646417D02*
X107180828Y-170635084D01*
X107180828Y-170635084D02*
X147609161Y-170635084D01*
X147609161Y-170635084D02*
X147609161Y-176646417D01*
X147609161Y-176646417D02*
X147609161Y-176646417D01*
G36*
X147609161Y-176646417D02*
G01*
X107180828Y-176646417D01*
X107180828Y-170635084D01*
X147609161Y-170635084D01*
X147609161Y-176646417D01*
G37*
X147609161Y-176646417D02*
X107180828Y-176646417D01*
X107180828Y-170635084D01*
X147609161Y-170635084D01*
X147609161Y-176646417D01*
X128329913Y-116508195D02*
X128572628Y-116554894D01*
X128572628Y-116554894D02*
X128811852Y-116640903D01*
X128811852Y-116640903D02*
X128898417Y-116682844D01*
X128898417Y-116682844D02*
X129113727Y-116817458D01*
X129113727Y-116817458D02*
X129300019Y-116979831D01*
X129300019Y-116979831D02*
X129456143Y-117165852D01*
X129456143Y-117165852D02*
X129580947Y-117371412D01*
X129580947Y-117371412D02*
X129673279Y-117592399D01*
X129673279Y-117592399D02*
X129731988Y-117824704D01*
X129731988Y-117824704D02*
X129755923Y-118064217D01*
X129755923Y-118064217D02*
X129743932Y-118306827D01*
X129743932Y-118306827D02*
X129694863Y-118548425D01*
X129694863Y-118548425D02*
X129607565Y-118784900D01*
X129607565Y-118784900D02*
X129529290Y-118934742D01*
X129529290Y-118934742D02*
X129471825Y-119019874D01*
X129471825Y-119019874D02*
X129393949Y-119118298D01*
X129393949Y-119118298D02*
X129307313Y-119215669D01*
X129307313Y-119215669D02*
X129270279Y-119253631D01*
X129270279Y-119253631D02*
X129074374Y-119418935D01*
X129074374Y-119418935D02*
X128856542Y-119549215D01*
X128856542Y-119549215D02*
X128621027Y-119642093D01*
X128621027Y-119642093D02*
X128535138Y-119665340D01*
X128535138Y-119665340D02*
X128353077Y-119696036D01*
X128353077Y-119696036D02*
X128155543Y-119707232D01*
X128155543Y-119707232D02*
X127959311Y-119698939D01*
X127959311Y-119698939D02*
X127781151Y-119671170D01*
X127781151Y-119671170D02*
X127754828Y-119664762D01*
X127754828Y-119664762D02*
X127507539Y-119579912D01*
X127507539Y-119579912D02*
X127282197Y-119460045D01*
X127282197Y-119460045D02*
X127081401Y-119307794D01*
X127081401Y-119307794D02*
X126907749Y-119125794D01*
X126907749Y-119125794D02*
X126763840Y-118916680D01*
X126763840Y-118916680D02*
X126652272Y-118683088D01*
X126652272Y-118683088D02*
X126588514Y-118482201D01*
X126588514Y-118482201D02*
X126557818Y-118304326D01*
X126557818Y-118304326D02*
X126547830Y-118107577D01*
X126547830Y-118107577D02*
X126557997Y-117907316D01*
X126557997Y-117907316D02*
X126587770Y-117718905D01*
X126587770Y-117718905D02*
X126620082Y-117602000D01*
X126620082Y-117602000D02*
X126721938Y-117364413D01*
X126721938Y-117364413D02*
X126854757Y-117152235D01*
X126854757Y-117152235D02*
X127014713Y-116967012D01*
X127014713Y-116967012D02*
X127197975Y-116810287D01*
X127197975Y-116810287D02*
X127400717Y-116683605D01*
X127400717Y-116683605D02*
X127619110Y-116588510D01*
X127619110Y-116588510D02*
X127849326Y-116526547D01*
X127849326Y-116526547D02*
X128087536Y-116499261D01*
X128087536Y-116499261D02*
X128329913Y-116508195D01*
X128329913Y-116508195D02*
X128329913Y-116508195D01*
G36*
X128329913Y-116508195D02*
G01*
X128572628Y-116554894D01*
X128811852Y-116640903D01*
X128898417Y-116682844D01*
X129113727Y-116817458D01*
X129300019Y-116979831D01*
X129456143Y-117165852D01*
X129580947Y-117371412D01*
X129673279Y-117592399D01*
X129731988Y-117824704D01*
X129755923Y-118064217D01*
X129743932Y-118306827D01*
X129694863Y-118548425D01*
X129607565Y-118784900D01*
X129529290Y-118934742D01*
X129471825Y-119019874D01*
X129393949Y-119118298D01*
X129307313Y-119215669D01*
X129270279Y-119253631D01*
X129074374Y-119418935D01*
X128856542Y-119549215D01*
X128621027Y-119642093D01*
X128535138Y-119665340D01*
X128353077Y-119696036D01*
X128155543Y-119707232D01*
X127959311Y-119698939D01*
X127781151Y-119671170D01*
X127754828Y-119664762D01*
X127507539Y-119579912D01*
X127282197Y-119460045D01*
X127081401Y-119307794D01*
X126907749Y-119125794D01*
X126763840Y-118916680D01*
X126652272Y-118683088D01*
X126588514Y-118482201D01*
X126557818Y-118304326D01*
X126547830Y-118107577D01*
X126557997Y-117907316D01*
X126587770Y-117718905D01*
X126620082Y-117602000D01*
X126721938Y-117364413D01*
X126854757Y-117152235D01*
X127014713Y-116967012D01*
X127197975Y-116810287D01*
X127400717Y-116683605D01*
X127619110Y-116588510D01*
X127849326Y-116526547D01*
X128087536Y-116499261D01*
X128329913Y-116508195D01*
G37*
X128329913Y-116508195D02*
X128572628Y-116554894D01*
X128811852Y-116640903D01*
X128898417Y-116682844D01*
X129113727Y-116817458D01*
X129300019Y-116979831D01*
X129456143Y-117165852D01*
X129580947Y-117371412D01*
X129673279Y-117592399D01*
X129731988Y-117824704D01*
X129755923Y-118064217D01*
X129743932Y-118306827D01*
X129694863Y-118548425D01*
X129607565Y-118784900D01*
X129529290Y-118934742D01*
X129471825Y-119019874D01*
X129393949Y-119118298D01*
X129307313Y-119215669D01*
X129270279Y-119253631D01*
X129074374Y-119418935D01*
X128856542Y-119549215D01*
X128621027Y-119642093D01*
X128535138Y-119665340D01*
X128353077Y-119696036D01*
X128155543Y-119707232D01*
X127959311Y-119698939D01*
X127781151Y-119671170D01*
X127754828Y-119664762D01*
X127507539Y-119579912D01*
X127282197Y-119460045D01*
X127081401Y-119307794D01*
X126907749Y-119125794D01*
X126763840Y-118916680D01*
X126652272Y-118683088D01*
X126588514Y-118482201D01*
X126557818Y-118304326D01*
X126547830Y-118107577D01*
X126557997Y-117907316D01*
X126587770Y-117718905D01*
X126620082Y-117602000D01*
X126721938Y-117364413D01*
X126854757Y-117152235D01*
X127014713Y-116967012D01*
X127197975Y-116810287D01*
X127400717Y-116683605D01*
X127619110Y-116588510D01*
X127849326Y-116526547D01*
X128087536Y-116499261D01*
X128329913Y-116508195D01*
X140406677Y-113055230D02*
X140704595Y-113096421D01*
X140704595Y-113096421D02*
X140996887Y-113173228D01*
X140996887Y-113173228D02*
X141280093Y-113285589D01*
X141280093Y-113285589D02*
X141550748Y-113433440D01*
X141550748Y-113433440D02*
X141805389Y-113616719D01*
X141805389Y-113616719D02*
X142039780Y-113834548D01*
X142039780Y-113834548D02*
X142242030Y-114077238D01*
X142242030Y-114077238D02*
X142409102Y-114340101D01*
X142409102Y-114340101D02*
X142540687Y-114619309D01*
X142540687Y-114619309D02*
X142636477Y-114911032D01*
X142636477Y-114911032D02*
X142696164Y-115211442D01*
X142696164Y-115211442D02*
X142719440Y-115516708D01*
X142719440Y-115516708D02*
X142705997Y-115823003D01*
X142705997Y-115823003D02*
X142655527Y-116126496D01*
X142655527Y-116126496D02*
X142567722Y-116423359D01*
X142567722Y-116423359D02*
X142442273Y-116709762D01*
X142442273Y-116709762D02*
X142291484Y-116963476D01*
X142291484Y-116963476D02*
X142092387Y-117219858D01*
X142092387Y-117219858D02*
X141864366Y-117445894D01*
X141864366Y-117445894D02*
X141609339Y-117640235D01*
X141609339Y-117640235D02*
X141329226Y-117801532D01*
X141329226Y-117801532D02*
X141025945Y-117928436D01*
X141025945Y-117928436D02*
X140835828Y-117986925D01*
X140835828Y-117986925D02*
X140682451Y-118018421D01*
X140682451Y-118018421D02*
X140500930Y-118040101D01*
X140500930Y-118040101D02*
X140304379Y-118051624D01*
X140304379Y-118051624D02*
X140105913Y-118052651D01*
X140105913Y-118052651D02*
X139918646Y-118042842D01*
X139918646Y-118042842D02*
X139755694Y-118021856D01*
X139755694Y-118021856D02*
X139724578Y-118015741D01*
X139724578Y-118015741D02*
X139403855Y-117927967D01*
X139403855Y-117927967D02*
X139106459Y-117805232D01*
X139106459Y-117805232D02*
X138830902Y-117646874D01*
X138830902Y-117646874D02*
X138719933Y-117568544D01*
X138719933Y-117568544D02*
X138474329Y-117359924D01*
X138474329Y-117359924D02*
X138262337Y-117128626D01*
X138262337Y-117128626D02*
X138084193Y-116877986D01*
X138084193Y-116877986D02*
X137940128Y-116611343D01*
X137940128Y-116611343D02*
X137830376Y-116332035D01*
X137830376Y-116332035D02*
X137755170Y-116043400D01*
X137755170Y-116043400D02*
X137714743Y-115748778D01*
X137714743Y-115748778D02*
X137709329Y-115451505D01*
X137709329Y-115451505D02*
X137739159Y-115154921D01*
X137739159Y-115154921D02*
X137804468Y-114862363D01*
X137804468Y-114862363D02*
X137905488Y-114577170D01*
X137905488Y-114577170D02*
X138042453Y-114302681D01*
X138042453Y-114302681D02*
X138215595Y-114042233D01*
X138215595Y-114042233D02*
X138425149Y-113799164D01*
X138425149Y-113799164D02*
X138454654Y-113769435D01*
X138454654Y-113769435D02*
X138694981Y-113559550D01*
X138694981Y-113559550D02*
X138953924Y-113385722D01*
X138953924Y-113385722D02*
X139228020Y-113247888D01*
X139228020Y-113247888D02*
X139513806Y-113145984D01*
X139513806Y-113145984D02*
X139807820Y-113079949D01*
X139807820Y-113079949D02*
X140106598Y-113049718D01*
X140106598Y-113049718D02*
X140406677Y-113055230D01*
X140406677Y-113055230D02*
X140406677Y-113055230D01*
G36*
X140406677Y-113055230D02*
G01*
X140704595Y-113096421D01*
X140996887Y-113173228D01*
X141280093Y-113285589D01*
X141550748Y-113433440D01*
X141805389Y-113616719D01*
X142039780Y-113834548D01*
X142242030Y-114077238D01*
X142409102Y-114340101D01*
X142540687Y-114619309D01*
X142636477Y-114911032D01*
X142696164Y-115211442D01*
X142719440Y-115516708D01*
X142705997Y-115823003D01*
X142655527Y-116126496D01*
X142567722Y-116423359D01*
X142442273Y-116709762D01*
X142291484Y-116963476D01*
X142092387Y-117219858D01*
X141864366Y-117445894D01*
X141609339Y-117640235D01*
X141329226Y-117801532D01*
X141025945Y-117928436D01*
X140835828Y-117986925D01*
X140682451Y-118018421D01*
X140500930Y-118040101D01*
X140304379Y-118051624D01*
X140105913Y-118052651D01*
X139918646Y-118042842D01*
X139755694Y-118021856D01*
X139724578Y-118015741D01*
X139403855Y-117927967D01*
X139106459Y-117805232D01*
X138830902Y-117646874D01*
X138719933Y-117568544D01*
X138474329Y-117359924D01*
X138262337Y-117128626D01*
X138084193Y-116877986D01*
X137940128Y-116611343D01*
X137830376Y-116332035D01*
X137755170Y-116043400D01*
X137714743Y-115748778D01*
X137709329Y-115451505D01*
X137739159Y-115154921D01*
X137804468Y-114862363D01*
X137905488Y-114577170D01*
X138042453Y-114302681D01*
X138215595Y-114042233D01*
X138425149Y-113799164D01*
X138454654Y-113769435D01*
X138694981Y-113559550D01*
X138953924Y-113385722D01*
X139228020Y-113247888D01*
X139513806Y-113145984D01*
X139807820Y-113079949D01*
X140106598Y-113049718D01*
X140406677Y-113055230D01*
G37*
X140406677Y-113055230D02*
X140704595Y-113096421D01*
X140996887Y-113173228D01*
X141280093Y-113285589D01*
X141550748Y-113433440D01*
X141805389Y-113616719D01*
X142039780Y-113834548D01*
X142242030Y-114077238D01*
X142409102Y-114340101D01*
X142540687Y-114619309D01*
X142636477Y-114911032D01*
X142696164Y-115211442D01*
X142719440Y-115516708D01*
X142705997Y-115823003D01*
X142655527Y-116126496D01*
X142567722Y-116423359D01*
X142442273Y-116709762D01*
X142291484Y-116963476D01*
X142092387Y-117219858D01*
X141864366Y-117445894D01*
X141609339Y-117640235D01*
X141329226Y-117801532D01*
X141025945Y-117928436D01*
X140835828Y-117986925D01*
X140682451Y-118018421D01*
X140500930Y-118040101D01*
X140304379Y-118051624D01*
X140105913Y-118052651D01*
X139918646Y-118042842D01*
X139755694Y-118021856D01*
X139724578Y-118015741D01*
X139403855Y-117927967D01*
X139106459Y-117805232D01*
X138830902Y-117646874D01*
X138719933Y-117568544D01*
X138474329Y-117359924D01*
X138262337Y-117128626D01*
X138084193Y-116877986D01*
X137940128Y-116611343D01*
X137830376Y-116332035D01*
X137755170Y-116043400D01*
X137714743Y-115748778D01*
X137709329Y-115451505D01*
X137739159Y-115154921D01*
X137804468Y-114862363D01*
X137905488Y-114577170D01*
X138042453Y-114302681D01*
X138215595Y-114042233D01*
X138425149Y-113799164D01*
X138454654Y-113769435D01*
X138694981Y-113559550D01*
X138953924Y-113385722D01*
X139228020Y-113247888D01*
X139513806Y-113145984D01*
X139807820Y-113079949D01*
X140106598Y-113049718D01*
X140406677Y-113055230D01*
X116330557Y-89159021D02*
X116698807Y-89202992D01*
X116698807Y-89202992D02*
X117062699Y-89285965D01*
X117062699Y-89285965D02*
X117418973Y-89408475D01*
X117418973Y-89408475D02*
X117605411Y-89490482D01*
X117605411Y-89490482D02*
X117944043Y-89674069D01*
X117944043Y-89674069D02*
X118256143Y-89889044D01*
X118256143Y-89889044D02*
X118540323Y-90132738D01*
X118540323Y-90132738D02*
X118795197Y-90402485D01*
X118795197Y-90402485D02*
X119019377Y-90695617D01*
X119019377Y-90695617D02*
X119211478Y-91009465D01*
X119211478Y-91009465D02*
X119370112Y-91341362D01*
X119370112Y-91341362D02*
X119493893Y-91688640D01*
X119493893Y-91688640D02*
X119581434Y-92048632D01*
X119581434Y-92048632D02*
X119631348Y-92418670D01*
X119631348Y-92418670D02*
X119642250Y-92796086D01*
X119642250Y-92796086D02*
X119612750Y-93178212D01*
X119612750Y-93178212D02*
X119592511Y-93313250D01*
X119592511Y-93313250D02*
X119508931Y-93682894D01*
X119508931Y-93682894D02*
X119386637Y-94038823D01*
X119386637Y-94038823D02*
X119227797Y-94378308D01*
X119227797Y-94378308D02*
X119034581Y-94698618D01*
X119034581Y-94698618D02*
X118809157Y-94997022D01*
X118809157Y-94997022D02*
X118553696Y-95270792D01*
X118553696Y-95270792D02*
X118270364Y-95517195D01*
X118270364Y-95517195D02*
X117961333Y-95733503D01*
X117961333Y-95733503D02*
X117628770Y-95916986D01*
X117628770Y-95916986D02*
X117465150Y-95991023D01*
X117465150Y-95991023D02*
X117152500Y-96103682D01*
X117152500Y-96103682D02*
X116819052Y-96188435D01*
X116819052Y-96188435D02*
X116475669Y-96243600D01*
X116475669Y-96243600D02*
X116133212Y-96267495D01*
X116133212Y-96267495D02*
X115802543Y-96258437D01*
X115802543Y-96258437D02*
X115761826Y-96254832D01*
X115761826Y-96254832D02*
X115380335Y-96197614D01*
X115380335Y-96197614D02*
X115012013Y-96101523D01*
X115012013Y-96101523D02*
X114659332Y-95968470D01*
X114659332Y-95968470D02*
X114324763Y-95800364D01*
X114324763Y-95800364D02*
X114010775Y-95599115D01*
X114010775Y-95599115D02*
X113719842Y-95366633D01*
X113719842Y-95366633D02*
X113454433Y-95104827D01*
X113454433Y-95104827D02*
X113217020Y-94815607D01*
X113217020Y-94815607D02*
X113010073Y-94500883D01*
X113010073Y-94500883D02*
X112836065Y-94162564D01*
X112836065Y-94162564D02*
X112736680Y-93916877D01*
X112736680Y-93916877D02*
X112702354Y-93814011D01*
X112702354Y-93814011D02*
X112664611Y-93688042D01*
X112664611Y-93688042D02*
X112628770Y-93557287D01*
X112628770Y-93557287D02*
X112607409Y-93471660D01*
X112607409Y-93471660D02*
X112588374Y-93389089D01*
X112588374Y-93389089D02*
X112573857Y-93318190D01*
X112573857Y-93318190D02*
X112563248Y-93251212D01*
X112563248Y-93251212D02*
X112555938Y-93180402D01*
X112555938Y-93180402D02*
X112551316Y-93098008D01*
X112551316Y-93098008D02*
X112548772Y-92996276D01*
X112548772Y-92996276D02*
X112547696Y-92867453D01*
X112547696Y-92867453D02*
X112547479Y-92710000D01*
X112547479Y-92710000D02*
X112547718Y-92547583D01*
X112547718Y-92547583D02*
X112548839Y-92419753D01*
X112548839Y-92419753D02*
X112551450Y-92318768D01*
X112551450Y-92318768D02*
X112556158Y-92236883D01*
X112556158Y-92236883D02*
X112563570Y-92166352D01*
X112563570Y-92166352D02*
X112574295Y-92099434D01*
X112574295Y-92099434D02*
X112588938Y-92028382D01*
X112588938Y-92028382D02*
X112607112Y-91949664D01*
X112607112Y-91949664D02*
X112715178Y-91570021D01*
X112715178Y-91570021D02*
X112854129Y-91217917D01*
X112854129Y-91217917D02*
X113025780Y-90890120D01*
X113025780Y-90890120D02*
X113231947Y-90583395D01*
X113231947Y-90583395D02*
X113474445Y-90294508D01*
X113474445Y-90294508D02*
X113619017Y-90146849D01*
X113619017Y-90146849D02*
X113904727Y-89898143D01*
X113904727Y-89898143D02*
X114212168Y-89684143D01*
X114212168Y-89684143D02*
X114538081Y-89505384D01*
X114538081Y-89505384D02*
X114879202Y-89362405D01*
X114879202Y-89362405D02*
X115232271Y-89255743D01*
X115232271Y-89255743D02*
X115594028Y-89185933D01*
X115594028Y-89185933D02*
X115961210Y-89153513D01*
X115961210Y-89153513D02*
X116330557Y-89159021D01*
X116330557Y-89159021D02*
X116330557Y-89159021D01*
G36*
X116330557Y-89159021D02*
G01*
X116698807Y-89202992D01*
X117062699Y-89285965D01*
X117418973Y-89408475D01*
X117605411Y-89490482D01*
X117944043Y-89674069D01*
X118256143Y-89889044D01*
X118540323Y-90132738D01*
X118795197Y-90402485D01*
X119019377Y-90695617D01*
X119211478Y-91009465D01*
X119370112Y-91341362D01*
X119493893Y-91688640D01*
X119581434Y-92048632D01*
X119631348Y-92418670D01*
X119642250Y-92796086D01*
X119612750Y-93178212D01*
X119592511Y-93313250D01*
X119508931Y-93682894D01*
X119386637Y-94038823D01*
X119227797Y-94378308D01*
X119034581Y-94698618D01*
X118809157Y-94997022D01*
X118553696Y-95270792D01*
X118270364Y-95517195D01*
X117961333Y-95733503D01*
X117628770Y-95916986D01*
X117465150Y-95991023D01*
X117152500Y-96103682D01*
X116819052Y-96188435D01*
X116475669Y-96243600D01*
X116133212Y-96267495D01*
X115802543Y-96258437D01*
X115761826Y-96254832D01*
X115380335Y-96197614D01*
X115012013Y-96101523D01*
X114659332Y-95968470D01*
X114324763Y-95800364D01*
X114010775Y-95599115D01*
X113719842Y-95366633D01*
X113454433Y-95104827D01*
X113217020Y-94815607D01*
X113010073Y-94500883D01*
X112836065Y-94162564D01*
X112736680Y-93916877D01*
X112702354Y-93814011D01*
X112664611Y-93688042D01*
X112628770Y-93557287D01*
X112607409Y-93471660D01*
X112588374Y-93389089D01*
X112573857Y-93318190D01*
X112563248Y-93251212D01*
X112555938Y-93180402D01*
X112551316Y-93098008D01*
X112548772Y-92996276D01*
X112547696Y-92867453D01*
X112547479Y-92710000D01*
X112547718Y-92547583D01*
X112548839Y-92419753D01*
X112551450Y-92318768D01*
X112556158Y-92236883D01*
X112563570Y-92166352D01*
X112574295Y-92099434D01*
X112588938Y-92028382D01*
X112607112Y-91949664D01*
X112715178Y-91570021D01*
X112854129Y-91217917D01*
X113025780Y-90890120D01*
X113231947Y-90583395D01*
X113474445Y-90294508D01*
X113619017Y-90146849D01*
X113904727Y-89898143D01*
X114212168Y-89684143D01*
X114538081Y-89505384D01*
X114879202Y-89362405D01*
X115232271Y-89255743D01*
X115594028Y-89185933D01*
X115961210Y-89153513D01*
X116330557Y-89159021D01*
G37*
X116330557Y-89159021D02*
X116698807Y-89202992D01*
X117062699Y-89285965D01*
X117418973Y-89408475D01*
X117605411Y-89490482D01*
X117944043Y-89674069D01*
X118256143Y-89889044D01*
X118540323Y-90132738D01*
X118795197Y-90402485D01*
X119019377Y-90695617D01*
X119211478Y-91009465D01*
X119370112Y-91341362D01*
X119493893Y-91688640D01*
X119581434Y-92048632D01*
X119631348Y-92418670D01*
X119642250Y-92796086D01*
X119612750Y-93178212D01*
X119592511Y-93313250D01*
X119508931Y-93682894D01*
X119386637Y-94038823D01*
X119227797Y-94378308D01*
X119034581Y-94698618D01*
X118809157Y-94997022D01*
X118553696Y-95270792D01*
X118270364Y-95517195D01*
X117961333Y-95733503D01*
X117628770Y-95916986D01*
X117465150Y-95991023D01*
X117152500Y-96103682D01*
X116819052Y-96188435D01*
X116475669Y-96243600D01*
X116133212Y-96267495D01*
X115802543Y-96258437D01*
X115761826Y-96254832D01*
X115380335Y-96197614D01*
X115012013Y-96101523D01*
X114659332Y-95968470D01*
X114324763Y-95800364D01*
X114010775Y-95599115D01*
X113719842Y-95366633D01*
X113454433Y-95104827D01*
X113217020Y-94815607D01*
X113010073Y-94500883D01*
X112836065Y-94162564D01*
X112736680Y-93916877D01*
X112702354Y-93814011D01*
X112664611Y-93688042D01*
X112628770Y-93557287D01*
X112607409Y-93471660D01*
X112588374Y-93389089D01*
X112573857Y-93318190D01*
X112563248Y-93251212D01*
X112555938Y-93180402D01*
X112551316Y-93098008D01*
X112548772Y-92996276D01*
X112547696Y-92867453D01*
X112547479Y-92710000D01*
X112547718Y-92547583D01*
X112548839Y-92419753D01*
X112551450Y-92318768D01*
X112556158Y-92236883D01*
X112563570Y-92166352D01*
X112574295Y-92099434D01*
X112588938Y-92028382D01*
X112607112Y-91949664D01*
X112715178Y-91570021D01*
X112854129Y-91217917D01*
X113025780Y-90890120D01*
X113231947Y-90583395D01*
X113474445Y-90294508D01*
X113619017Y-90146849D01*
X113904727Y-89898143D01*
X114212168Y-89684143D01*
X114538081Y-89505384D01*
X114879202Y-89362405D01*
X115232271Y-89255743D01*
X115594028Y-89185933D01*
X115961210Y-89153513D01*
X116330557Y-89159021D01*
X147609161Y-54620584D02*
X107180828Y-54620584D01*
X107180828Y-54620584D02*
X107180828Y-48143584D01*
X107180828Y-48143584D02*
X147609161Y-48143584D01*
X147609161Y-48143584D02*
X147609161Y-54620584D01*
X147609161Y-54620584D02*
X147609161Y-54620584D01*
G36*
X147609161Y-54620584D02*
G01*
X107180828Y-54620584D01*
X107180828Y-48143584D01*
X147609161Y-48143584D01*
X147609161Y-54620584D01*
G37*
X147609161Y-54620584D02*
X107180828Y-54620584D01*
X107180828Y-48143584D01*
X147609161Y-48143584D01*
X147609161Y-54620584D01*
X122605258Y-154433965D02*
X122797533Y-154445095D01*
X122797533Y-154445095D02*
X122963352Y-154465678D01*
X122963352Y-154465678D02*
X122981744Y-154468956D01*
X122981744Y-154468956D02*
X123264389Y-154534987D01*
X123264389Y-154534987D02*
X123547276Y-154626569D01*
X123547276Y-154626569D02*
X123818865Y-154739133D01*
X123818865Y-154739133D02*
X124067619Y-154868111D01*
X124067619Y-154868111D02*
X124202007Y-154952081D01*
X124202007Y-154952081D02*
X124503141Y-155179439D01*
X124503141Y-155179439D02*
X124771619Y-155433197D01*
X124771619Y-155433197D02*
X125006679Y-155712426D01*
X125006679Y-155712426D02*
X125207560Y-156016197D01*
X125207560Y-156016197D02*
X125373499Y-156343582D01*
X125373499Y-156343582D02*
X125405263Y-156418738D01*
X125405263Y-156418738D02*
X125510515Y-156715364D01*
X125510515Y-156715364D02*
X125583073Y-157013148D01*
X125583073Y-157013148D02*
X125624950Y-157322717D01*
X125624950Y-157322717D02*
X125638161Y-157648762D01*
X125638161Y-157648762D02*
X125617584Y-158016524D01*
X125617584Y-158016524D02*
X125556396Y-158373550D01*
X125556396Y-158373550D02*
X125455407Y-158717830D01*
X125455407Y-158717830D02*
X125315432Y-159047355D01*
X125315432Y-159047355D02*
X125137280Y-159360116D01*
X125137280Y-159360116D02*
X124921765Y-159654104D01*
X124921765Y-159654104D02*
X124749568Y-159847173D01*
X124749568Y-159847173D02*
X124548932Y-160042256D01*
X124548932Y-160042256D02*
X124351178Y-160206125D01*
X124351178Y-160206125D02*
X124144895Y-160347412D01*
X124144895Y-160347412D02*
X123923661Y-160472189D01*
X123923661Y-160472189D02*
X123729172Y-160567243D01*
X123729172Y-160567243D02*
X123550550Y-160642124D01*
X123550550Y-160642124D02*
X123370695Y-160703220D01*
X123370695Y-160703220D02*
X123172507Y-160756915D01*
X123172507Y-160756915D02*
X123140494Y-160764642D01*
X123140494Y-160764642D02*
X122981587Y-160793953D01*
X122981587Y-160793953D02*
X122793186Y-160814949D01*
X122793186Y-160814949D02*
X122587360Y-160827355D01*
X122587360Y-160827355D02*
X122376178Y-160830898D01*
X122376178Y-160830898D02*
X122171709Y-160825302D01*
X122171709Y-160825302D02*
X121986023Y-160810295D01*
X121986023Y-160810295D02*
X121870494Y-160793465D01*
X121870494Y-160793465D02*
X121519523Y-160708419D01*
X121519523Y-160708419D02*
X121183199Y-160585622D01*
X121183199Y-160585622D02*
X120864320Y-160427485D01*
X120864320Y-160427485D02*
X120565686Y-160236417D01*
X120565686Y-160236417D02*
X120290093Y-160014829D01*
X120290093Y-160014829D02*
X120040342Y-159765132D01*
X120040342Y-159765132D02*
X119819229Y-159489736D01*
X119819229Y-159489736D02*
X119629554Y-159191051D01*
X119629554Y-159191051D02*
X119474114Y-158871488D01*
X119474114Y-158871488D02*
X119395328Y-158661437D01*
X119395328Y-158661437D02*
X119335011Y-158465890D01*
X119335011Y-158465890D02*
X119291211Y-158285309D01*
X119291211Y-158285309D02*
X119261835Y-158106246D01*
X119261835Y-158106246D02*
X119244785Y-157915255D01*
X119244785Y-157915255D02*
X119237969Y-157698887D01*
X119237969Y-157698887D02*
X119237642Y-157649334D01*
X119237642Y-157649334D02*
X119240124Y-157439369D01*
X119240124Y-157439369D02*
X119250233Y-157259005D01*
X119250233Y-157259005D02*
X119269846Y-157095902D01*
X119269846Y-157095902D02*
X119300836Y-156937721D01*
X119300836Y-156937721D02*
X119345077Y-156772122D01*
X119345077Y-156772122D02*
X119394612Y-156615980D01*
X119394612Y-156615980D02*
X119530414Y-156274355D01*
X119530414Y-156274355D02*
X119700990Y-155955275D01*
X119700990Y-155955275D02*
X119904145Y-155660662D01*
X119904145Y-155660662D02*
X120137684Y-155392437D01*
X120137684Y-155392437D02*
X120399409Y-155152522D01*
X120399409Y-155152522D02*
X120687127Y-154942838D01*
X120687127Y-154942838D02*
X120998641Y-154765307D01*
X120998641Y-154765307D02*
X121331755Y-154621851D01*
X121331755Y-154621851D02*
X121684275Y-154514390D01*
X121684275Y-154514390D02*
X121833923Y-154481179D01*
X121833923Y-154481179D02*
X122000860Y-154455894D01*
X122000860Y-154455894D02*
X122193805Y-154439504D01*
X122193805Y-154439504D02*
X122399643Y-154432148D01*
X122399643Y-154432148D02*
X122605258Y-154433965D01*
X122605258Y-154433965D02*
X122605258Y-154433965D01*
G36*
X122605258Y-154433965D02*
G01*
X122797533Y-154445095D01*
X122963352Y-154465678D01*
X122981744Y-154468956D01*
X123264389Y-154534987D01*
X123547276Y-154626569D01*
X123818865Y-154739133D01*
X124067619Y-154868111D01*
X124202007Y-154952081D01*
X124503141Y-155179439D01*
X124771619Y-155433197D01*
X125006679Y-155712426D01*
X125207560Y-156016197D01*
X125373499Y-156343582D01*
X125405263Y-156418738D01*
X125510515Y-156715364D01*
X125583073Y-157013148D01*
X125624950Y-157322717D01*
X125638161Y-157648762D01*
X125617584Y-158016524D01*
X125556396Y-158373550D01*
X125455407Y-158717830D01*
X125315432Y-159047355D01*
X125137280Y-159360116D01*
X124921765Y-159654104D01*
X124749568Y-159847173D01*
X124548932Y-160042256D01*
X124351178Y-160206125D01*
X124144895Y-160347412D01*
X123923661Y-160472189D01*
X123729172Y-160567243D01*
X123550550Y-160642124D01*
X123370695Y-160703220D01*
X123172507Y-160756915D01*
X123140494Y-160764642D01*
X122981587Y-160793953D01*
X122793186Y-160814949D01*
X122587360Y-160827355D01*
X122376178Y-160830898D01*
X122171709Y-160825302D01*
X121986023Y-160810295D01*
X121870494Y-160793465D01*
X121519523Y-160708419D01*
X121183199Y-160585622D01*
X120864320Y-160427485D01*
X120565686Y-160236417D01*
X120290093Y-160014829D01*
X120040342Y-159765132D01*
X119819229Y-159489736D01*
X119629554Y-159191051D01*
X119474114Y-158871488D01*
X119395328Y-158661437D01*
X119335011Y-158465890D01*
X119291211Y-158285309D01*
X119261835Y-158106246D01*
X119244785Y-157915255D01*
X119237969Y-157698887D01*
X119237642Y-157649334D01*
X119240124Y-157439369D01*
X119250233Y-157259005D01*
X119269846Y-157095902D01*
X119300836Y-156937721D01*
X119345077Y-156772122D01*
X119394612Y-156615980D01*
X119530414Y-156274355D01*
X119700990Y-155955275D01*
X119904145Y-155660662D01*
X120137684Y-155392437D01*
X120399409Y-155152522D01*
X120687127Y-154942838D01*
X120998641Y-154765307D01*
X121331755Y-154621851D01*
X121684275Y-154514390D01*
X121833923Y-154481179D01*
X122000860Y-154455894D01*
X122193805Y-154439504D01*
X122399643Y-154432148D01*
X122605258Y-154433965D01*
G37*
X122605258Y-154433965D02*
X122797533Y-154445095D01*
X122963352Y-154465678D01*
X122981744Y-154468956D01*
X123264389Y-154534987D01*
X123547276Y-154626569D01*
X123818865Y-154739133D01*
X124067619Y-154868111D01*
X124202007Y-154952081D01*
X124503141Y-155179439D01*
X124771619Y-155433197D01*
X125006679Y-155712426D01*
X125207560Y-156016197D01*
X125373499Y-156343582D01*
X125405263Y-156418738D01*
X125510515Y-156715364D01*
X125583073Y-157013148D01*
X125624950Y-157322717D01*
X125638161Y-157648762D01*
X125617584Y-158016524D01*
X125556396Y-158373550D01*
X125455407Y-158717830D01*
X125315432Y-159047355D01*
X125137280Y-159360116D01*
X124921765Y-159654104D01*
X124749568Y-159847173D01*
X124548932Y-160042256D01*
X124351178Y-160206125D01*
X124144895Y-160347412D01*
X123923661Y-160472189D01*
X123729172Y-160567243D01*
X123550550Y-160642124D01*
X123370695Y-160703220D01*
X123172507Y-160756915D01*
X123140494Y-160764642D01*
X122981587Y-160793953D01*
X122793186Y-160814949D01*
X122587360Y-160827355D01*
X122376178Y-160830898D01*
X122171709Y-160825302D01*
X121986023Y-160810295D01*
X121870494Y-160793465D01*
X121519523Y-160708419D01*
X121183199Y-160585622D01*
X120864320Y-160427485D01*
X120565686Y-160236417D01*
X120290093Y-160014829D01*
X120040342Y-159765132D01*
X119819229Y-159489736D01*
X119629554Y-159191051D01*
X119474114Y-158871488D01*
X119395328Y-158661437D01*
X119335011Y-158465890D01*
X119291211Y-158285309D01*
X119261835Y-158106246D01*
X119244785Y-157915255D01*
X119237969Y-157698887D01*
X119237642Y-157649334D01*
X119240124Y-157439369D01*
X119250233Y-157259005D01*
X119269846Y-157095902D01*
X119300836Y-156937721D01*
X119345077Y-156772122D01*
X119394612Y-156615980D01*
X119530414Y-156274355D01*
X119700990Y-155955275D01*
X119904145Y-155660662D01*
X120137684Y-155392437D01*
X120399409Y-155152522D01*
X120687127Y-154942838D01*
X120998641Y-154765307D01*
X121331755Y-154621851D01*
X121684275Y-154514390D01*
X121833923Y-154481179D01*
X122000860Y-154455894D01*
X122193805Y-154439504D01*
X122399643Y-154432148D01*
X122605258Y-154433965D01*
X117349141Y-141682716D02*
X117457244Y-141685532D01*
X117457244Y-141685532D02*
X117732578Y-141701287D01*
X117732578Y-141701287D02*
X117979609Y-141733201D01*
X117979609Y-141733201D02*
X118210293Y-141784349D01*
X118210293Y-141784349D02*
X118436584Y-141857802D01*
X118436584Y-141857802D02*
X118670441Y-141956634D01*
X118670441Y-141956634D02*
X118843661Y-142041849D01*
X118843661Y-142041849D02*
X119153725Y-142225203D01*
X119153725Y-142225203D02*
X119439439Y-142441966D01*
X119439439Y-142441966D02*
X119698452Y-142689376D01*
X119698452Y-142689376D02*
X119928409Y-142964672D01*
X119928409Y-142964672D02*
X120126958Y-143265091D01*
X120126958Y-143265091D02*
X120291744Y-143587873D01*
X120291744Y-143587873D02*
X120400570Y-143868930D01*
X120400570Y-143868930D02*
X120475944Y-144143358D01*
X120475944Y-144143358D02*
X120528163Y-144440374D01*
X120528163Y-144440374D02*
X120555948Y-144746323D01*
X120555948Y-144746323D02*
X120558024Y-145047552D01*
X120558024Y-145047552D02*
X120535567Y-145312927D01*
X120535567Y-145312927D02*
X120466480Y-145669089D01*
X120466480Y-145669089D02*
X120360143Y-146008573D01*
X120360143Y-146008573D02*
X120218984Y-146329449D01*
X120218984Y-146329449D02*
X120045437Y-146629785D01*
X120045437Y-146629785D02*
X119841930Y-146907650D01*
X119841930Y-146907650D02*
X119610896Y-147161114D01*
X119610896Y-147161114D02*
X119354764Y-147388245D01*
X119354764Y-147388245D02*
X119075965Y-147587112D01*
X119075965Y-147587112D02*
X118776931Y-147755784D01*
X118776931Y-147755784D02*
X118460093Y-147892330D01*
X118460093Y-147892330D02*
X118127879Y-147994819D01*
X118127879Y-147994819D02*
X117782723Y-148061319D01*
X117782723Y-148061319D02*
X117427054Y-148089901D01*
X117427054Y-148089901D02*
X117063303Y-148078632D01*
X117063303Y-148078632D02*
X117055078Y-148077908D01*
X117055078Y-148077908D02*
X116923086Y-148060817D01*
X116923086Y-148060817D02*
X116766753Y-148032288D01*
X116766753Y-148032288D02*
X116601386Y-147995718D01*
X116601386Y-147995718D02*
X116442293Y-147954501D01*
X116442293Y-147954501D02*
X116304782Y-147912032D01*
X116304782Y-147912032D02*
X116300627Y-147910592D01*
X116300627Y-147910592D02*
X115963999Y-147771527D01*
X115963999Y-147771527D02*
X115648960Y-147597364D01*
X115648960Y-147597364D02*
X115357649Y-147390608D01*
X115357649Y-147390608D02*
X115092209Y-147153763D01*
X115092209Y-147153763D02*
X114854779Y-146889333D01*
X114854779Y-146889333D02*
X114647501Y-146599823D01*
X114647501Y-146599823D02*
X114472516Y-146287737D01*
X114472516Y-146287737D02*
X114331964Y-145955579D01*
X114331964Y-145955579D02*
X114227987Y-145605854D01*
X114227987Y-145605854D02*
X114194319Y-145446750D01*
X114194319Y-145446750D02*
X114172526Y-145287711D01*
X114172526Y-145287711D02*
X114159526Y-145101116D01*
X114159526Y-145101116D02*
X114155196Y-144899579D01*
X114155196Y-144899579D02*
X114159411Y-144695709D01*
X114159411Y-144695709D02*
X114172049Y-144502120D01*
X114172049Y-144502120D02*
X114192986Y-144331422D01*
X114192986Y-144331422D02*
X114205927Y-144261417D01*
X114205927Y-144261417D02*
X114288362Y-143938545D01*
X114288362Y-143938545D02*
X114394609Y-143642460D01*
X114394609Y-143642460D02*
X114529215Y-143362256D01*
X114529215Y-143362256D02*
X114693053Y-143092504D01*
X114693053Y-143092504D02*
X114911066Y-142804011D01*
X114911066Y-142804011D02*
X115159372Y-142543526D01*
X115159372Y-142543526D02*
X115434847Y-142313064D01*
X115434847Y-142313064D02*
X115734370Y-142114642D01*
X115734370Y-142114642D02*
X116054817Y-141950275D01*
X116054817Y-141950275D02*
X116393067Y-141821981D01*
X116393067Y-141821981D02*
X116745997Y-141731774D01*
X116745997Y-141731774D02*
X116822244Y-141717763D01*
X116822244Y-141717763D02*
X116926771Y-141701150D01*
X116926771Y-141701150D02*
X117020386Y-141689915D01*
X117020386Y-141689915D02*
X117114427Y-141683481D01*
X117114427Y-141683481D02*
X117220232Y-141681273D01*
X117220232Y-141681273D02*
X117349141Y-141682716D01*
X117349141Y-141682716D02*
X117349141Y-141682716D01*
G36*
X117349141Y-141682716D02*
G01*
X117457244Y-141685532D01*
X117732578Y-141701287D01*
X117979609Y-141733201D01*
X118210293Y-141784349D01*
X118436584Y-141857802D01*
X118670441Y-141956634D01*
X118843661Y-142041849D01*
X119153725Y-142225203D01*
X119439439Y-142441966D01*
X119698452Y-142689376D01*
X119928409Y-142964672D01*
X120126958Y-143265091D01*
X120291744Y-143587873D01*
X120400570Y-143868930D01*
X120475944Y-144143358D01*
X120528163Y-144440374D01*
X120555948Y-144746323D01*
X120558024Y-145047552D01*
X120535567Y-145312927D01*
X120466480Y-145669089D01*
X120360143Y-146008573D01*
X120218984Y-146329449D01*
X120045437Y-146629785D01*
X119841930Y-146907650D01*
X119610896Y-147161114D01*
X119354764Y-147388245D01*
X119075965Y-147587112D01*
X118776931Y-147755784D01*
X118460093Y-147892330D01*
X118127879Y-147994819D01*
X117782723Y-148061319D01*
X117427054Y-148089901D01*
X117063303Y-148078632D01*
X117055078Y-148077908D01*
X116923086Y-148060817D01*
X116766753Y-148032288D01*
X116601386Y-147995718D01*
X116442293Y-147954501D01*
X116304782Y-147912032D01*
X116300627Y-147910592D01*
X115963999Y-147771527D01*
X115648960Y-147597364D01*
X115357649Y-147390608D01*
X115092209Y-147153763D01*
X114854779Y-146889333D01*
X114647501Y-146599823D01*
X114472516Y-146287737D01*
X114331964Y-145955579D01*
X114227987Y-145605854D01*
X114194319Y-145446750D01*
X114172526Y-145287711D01*
X114159526Y-145101116D01*
X114155196Y-144899579D01*
X114159411Y-144695709D01*
X114172049Y-144502120D01*
X114192986Y-144331422D01*
X114205927Y-144261417D01*
X114288362Y-143938545D01*
X114394609Y-143642460D01*
X114529215Y-143362256D01*
X114693053Y-143092504D01*
X114911066Y-142804011D01*
X115159372Y-142543526D01*
X115434847Y-142313064D01*
X115734370Y-142114642D01*
X116054817Y-141950275D01*
X116393067Y-141821981D01*
X116745997Y-141731774D01*
X116822244Y-141717763D01*
X116926771Y-141701150D01*
X117020386Y-141689915D01*
X117114427Y-141683481D01*
X117220232Y-141681273D01*
X117349141Y-141682716D01*
G37*
X117349141Y-141682716D02*
X117457244Y-141685532D01*
X117732578Y-141701287D01*
X117979609Y-141733201D01*
X118210293Y-141784349D01*
X118436584Y-141857802D01*
X118670441Y-141956634D01*
X118843661Y-142041849D01*
X119153725Y-142225203D01*
X119439439Y-142441966D01*
X119698452Y-142689376D01*
X119928409Y-142964672D01*
X120126958Y-143265091D01*
X120291744Y-143587873D01*
X120400570Y-143868930D01*
X120475944Y-144143358D01*
X120528163Y-144440374D01*
X120555948Y-144746323D01*
X120558024Y-145047552D01*
X120535567Y-145312927D01*
X120466480Y-145669089D01*
X120360143Y-146008573D01*
X120218984Y-146329449D01*
X120045437Y-146629785D01*
X119841930Y-146907650D01*
X119610896Y-147161114D01*
X119354764Y-147388245D01*
X119075965Y-147587112D01*
X118776931Y-147755784D01*
X118460093Y-147892330D01*
X118127879Y-147994819D01*
X117782723Y-148061319D01*
X117427054Y-148089901D01*
X117063303Y-148078632D01*
X117055078Y-148077908D01*
X116923086Y-148060817D01*
X116766753Y-148032288D01*
X116601386Y-147995718D01*
X116442293Y-147954501D01*
X116304782Y-147912032D01*
X116300627Y-147910592D01*
X115963999Y-147771527D01*
X115648960Y-147597364D01*
X115357649Y-147390608D01*
X115092209Y-147153763D01*
X114854779Y-146889333D01*
X114647501Y-146599823D01*
X114472516Y-146287737D01*
X114331964Y-145955579D01*
X114227987Y-145605854D01*
X114194319Y-145446750D01*
X114172526Y-145287711D01*
X114159526Y-145101116D01*
X114155196Y-144899579D01*
X114159411Y-144695709D01*
X114172049Y-144502120D01*
X114192986Y-144331422D01*
X114205927Y-144261417D01*
X114288362Y-143938545D01*
X114394609Y-143642460D01*
X114529215Y-143362256D01*
X114693053Y-143092504D01*
X114911066Y-142804011D01*
X115159372Y-142543526D01*
X115434847Y-142313064D01*
X115734370Y-142114642D01*
X116054817Y-141950275D01*
X116393067Y-141821981D01*
X116745997Y-141731774D01*
X116822244Y-141717763D01*
X116926771Y-141701150D01*
X117020386Y-141689915D01*
X117114427Y-141683481D01*
X117220232Y-141681273D01*
X117349141Y-141682716D01*
X137796034Y-141682417D02*
X138024460Y-141695905D01*
X138024460Y-141695905D02*
X138235891Y-141721458D01*
X138235891Y-141721458D02*
X138380494Y-141749560D01*
X138380494Y-141749560D02*
X138738815Y-141853915D01*
X138738815Y-141853915D02*
X139071637Y-141991430D01*
X139071637Y-141991430D02*
X139381459Y-142163514D01*
X139381459Y-142163514D02*
X139670780Y-142371576D01*
X139670780Y-142371576D02*
X139942101Y-142617025D01*
X139942101Y-142617025D02*
X139970151Y-142645541D01*
X139970151Y-142645541D02*
X140215976Y-142926716D01*
X140215976Y-142926716D02*
X140423318Y-143225501D01*
X140423318Y-143225501D02*
X140592334Y-143542212D01*
X140592334Y-143542212D02*
X140723182Y-143877168D01*
X140723182Y-143877168D02*
X140816020Y-144230686D01*
X140816020Y-144230686D02*
X140848374Y-144415453D01*
X140848374Y-144415453D02*
X140866208Y-144585468D01*
X140866208Y-144585468D02*
X140874471Y-144778417D01*
X140874471Y-144778417D02*
X140873526Y-144981667D01*
X140873526Y-144981667D02*
X140863742Y-145182581D01*
X140863742Y-145182581D02*
X140845482Y-145368523D01*
X140845482Y-145368523D02*
X140819114Y-145526860D01*
X140819114Y-145526860D02*
X140815745Y-145542000D01*
X140815745Y-145542000D02*
X140711619Y-145908251D01*
X140711619Y-145908251D02*
X140572611Y-146252717D01*
X140572611Y-146252717D02*
X140399714Y-146573738D01*
X140399714Y-146573738D02*
X140193924Y-146869656D01*
X140193924Y-146869656D02*
X139956235Y-147138812D01*
X139956235Y-147138812D02*
X139740253Y-147336697D01*
X139740253Y-147336697D02*
X139444315Y-147556137D01*
X139444315Y-147556137D02*
X139128369Y-147739393D01*
X139128369Y-147739393D02*
X138795703Y-147885435D01*
X138795703Y-147885435D02*
X138449603Y-147993232D01*
X138449603Y-147993232D02*
X138093355Y-148061755D01*
X138093355Y-148061755D02*
X137730245Y-148089974D01*
X137730245Y-148089974D02*
X137375078Y-148077908D01*
X137375078Y-148077908D02*
X137243030Y-148060808D01*
X137243030Y-148060808D02*
X137086641Y-148032266D01*
X137086641Y-148032266D02*
X136921216Y-147995674D01*
X136921216Y-147995674D02*
X136762061Y-147954430D01*
X136762061Y-147954430D02*
X136624481Y-147911927D01*
X136624481Y-147911927D02*
X136620453Y-147910531D01*
X136620453Y-147910531D02*
X136280319Y-147770388D01*
X136280319Y-147770388D02*
X135963364Y-147595750D01*
X135963364Y-147595750D02*
X135671343Y-147388638D01*
X135671343Y-147388638D02*
X135406015Y-147151070D01*
X135406015Y-147151070D02*
X135169138Y-146885067D01*
X135169138Y-146885067D02*
X134962468Y-146592648D01*
X134962468Y-146592648D02*
X134787764Y-146275832D01*
X134787764Y-146275832D02*
X134646783Y-145936641D01*
X134646783Y-145936641D02*
X134541283Y-145577093D01*
X134541283Y-145577093D02*
X134524372Y-145501869D01*
X134524372Y-145501869D02*
X134506462Y-145409281D01*
X134506462Y-145409281D02*
X134493633Y-145318745D01*
X134493633Y-145318745D02*
X134485095Y-145220089D01*
X134485095Y-145220089D02*
X134480060Y-145103141D01*
X134480060Y-145103141D02*
X134477739Y-144957729D01*
X134477739Y-144957729D02*
X134477416Y-144896417D01*
X134477416Y-144896417D02*
X134479285Y-144698279D01*
X134479285Y-144698279D02*
X134487412Y-144530040D01*
X134487412Y-144530040D02*
X134503429Y-144379520D01*
X134503429Y-144379520D02*
X134528964Y-144234537D01*
X134528964Y-144234537D02*
X134565651Y-144082910D01*
X134565651Y-144082910D02*
X134604471Y-143947490D01*
X134604471Y-143947490D02*
X134728415Y-143607508D01*
X134728415Y-143607508D02*
X134888227Y-143287608D01*
X134888227Y-143287608D02*
X135081406Y-142989987D01*
X135081406Y-142989987D02*
X135305450Y-142716845D01*
X135305450Y-142716845D02*
X135557855Y-142470379D01*
X135557855Y-142470379D02*
X135836120Y-142252789D01*
X135836120Y-142252789D02*
X136137743Y-142066272D01*
X136137743Y-142066272D02*
X136460222Y-141913027D01*
X136460222Y-141913027D02*
X136801053Y-141795252D01*
X136801053Y-141795252D02*
X137142244Y-141717763D01*
X137142244Y-141717763D02*
X137341581Y-141693003D01*
X137341581Y-141693003D02*
X137563960Y-141681335D01*
X137563960Y-141681335D02*
X137796034Y-141682417D01*
X137796034Y-141682417D02*
X137796034Y-141682417D01*
G36*
X137796034Y-141682417D02*
G01*
X138024460Y-141695905D01*
X138235891Y-141721458D01*
X138380494Y-141749560D01*
X138738815Y-141853915D01*
X139071637Y-141991430D01*
X139381459Y-142163514D01*
X139670780Y-142371576D01*
X139942101Y-142617025D01*
X139970151Y-142645541D01*
X140215976Y-142926716D01*
X140423318Y-143225501D01*
X140592334Y-143542212D01*
X140723182Y-143877168D01*
X140816020Y-144230686D01*
X140848374Y-144415453D01*
X140866208Y-144585468D01*
X140874471Y-144778417D01*
X140873526Y-144981667D01*
X140863742Y-145182581D01*
X140845482Y-145368523D01*
X140819114Y-145526860D01*
X140815745Y-145542000D01*
X140711619Y-145908251D01*
X140572611Y-146252717D01*
X140399714Y-146573738D01*
X140193924Y-146869656D01*
X139956235Y-147138812D01*
X139740253Y-147336697D01*
X139444315Y-147556137D01*
X139128369Y-147739393D01*
X138795703Y-147885435D01*
X138449603Y-147993232D01*
X138093355Y-148061755D01*
X137730245Y-148089974D01*
X137375078Y-148077908D01*
X137243030Y-148060808D01*
X137086641Y-148032266D01*
X136921216Y-147995674D01*
X136762061Y-147954430D01*
X136624481Y-147911927D01*
X136620453Y-147910531D01*
X136280319Y-147770388D01*
X135963364Y-147595750D01*
X135671343Y-147388638D01*
X135406015Y-147151070D01*
X135169138Y-146885067D01*
X134962468Y-146592648D01*
X134787764Y-146275832D01*
X134646783Y-145936641D01*
X134541283Y-145577093D01*
X134524372Y-145501869D01*
X134506462Y-145409281D01*
X134493633Y-145318745D01*
X134485095Y-145220089D01*
X134480060Y-145103141D01*
X134477739Y-144957729D01*
X134477416Y-144896417D01*
X134479285Y-144698279D01*
X134487412Y-144530040D01*
X134503429Y-144379520D01*
X134528964Y-144234537D01*
X134565651Y-144082910D01*
X134604471Y-143947490D01*
X134728415Y-143607508D01*
X134888227Y-143287608D01*
X135081406Y-142989987D01*
X135305450Y-142716845D01*
X135557855Y-142470379D01*
X135836120Y-142252789D01*
X136137743Y-142066272D01*
X136460222Y-141913027D01*
X136801053Y-141795252D01*
X137142244Y-141717763D01*
X137341581Y-141693003D01*
X137563960Y-141681335D01*
X137796034Y-141682417D01*
G37*
X137796034Y-141682417D02*
X138024460Y-141695905D01*
X138235891Y-141721458D01*
X138380494Y-141749560D01*
X138738815Y-141853915D01*
X139071637Y-141991430D01*
X139381459Y-142163514D01*
X139670780Y-142371576D01*
X139942101Y-142617025D01*
X139970151Y-142645541D01*
X140215976Y-142926716D01*
X140423318Y-143225501D01*
X140592334Y-143542212D01*
X140723182Y-143877168D01*
X140816020Y-144230686D01*
X140848374Y-144415453D01*
X140866208Y-144585468D01*
X140874471Y-144778417D01*
X140873526Y-144981667D01*
X140863742Y-145182581D01*
X140845482Y-145368523D01*
X140819114Y-145526860D01*
X140815745Y-145542000D01*
X140711619Y-145908251D01*
X140572611Y-146252717D01*
X140399714Y-146573738D01*
X140193924Y-146869656D01*
X139956235Y-147138812D01*
X139740253Y-147336697D01*
X139444315Y-147556137D01*
X139128369Y-147739393D01*
X138795703Y-147885435D01*
X138449603Y-147993232D01*
X138093355Y-148061755D01*
X137730245Y-148089974D01*
X137375078Y-148077908D01*
X137243030Y-148060808D01*
X137086641Y-148032266D01*
X136921216Y-147995674D01*
X136762061Y-147954430D01*
X136624481Y-147911927D01*
X136620453Y-147910531D01*
X136280319Y-147770388D01*
X135963364Y-147595750D01*
X135671343Y-147388638D01*
X135406015Y-147151070D01*
X135169138Y-146885067D01*
X134962468Y-146592648D01*
X134787764Y-146275832D01*
X134646783Y-145936641D01*
X134541283Y-145577093D01*
X134524372Y-145501869D01*
X134506462Y-145409281D01*
X134493633Y-145318745D01*
X134485095Y-145220089D01*
X134480060Y-145103141D01*
X134477739Y-144957729D01*
X134477416Y-144896417D01*
X134479285Y-144698279D01*
X134487412Y-144530040D01*
X134503429Y-144379520D01*
X134528964Y-144234537D01*
X134565651Y-144082910D01*
X134604471Y-143947490D01*
X134728415Y-143607508D01*
X134888227Y-143287608D01*
X135081406Y-142989987D01*
X135305450Y-142716845D01*
X135557855Y-142470379D01*
X135836120Y-142252789D01*
X136137743Y-142066272D01*
X136460222Y-141913027D01*
X136801053Y-141795252D01*
X137142244Y-141717763D01*
X137341581Y-141693003D01*
X137563960Y-141681335D01*
X137796034Y-141682417D01*
X133406727Y-129214439D02*
X133664057Y-129262912D01*
X133664057Y-129262912D02*
X133901852Y-129348845D01*
X133901852Y-129348845D02*
X134121308Y-129472784D01*
X134121308Y-129472784D02*
X134323346Y-129635022D01*
X134323346Y-129635022D02*
X134502604Y-129828402D01*
X134502604Y-129828402D02*
X134642270Y-130036208D01*
X134642270Y-130036208D02*
X134743032Y-130260027D01*
X134743032Y-130260027D02*
X134805574Y-130501445D01*
X134805574Y-130501445D02*
X134830583Y-130762052D01*
X134830583Y-130762052D02*
X134831152Y-130810000D01*
X134831152Y-130810000D02*
X134823424Y-131003007D01*
X134823424Y-131003007D02*
X134797716Y-131172479D01*
X134797716Y-131172479D02*
X134750241Y-131334762D01*
X134750241Y-131334762D02*
X134677212Y-131506204D01*
X134677212Y-131506204D02*
X134663211Y-131534952D01*
X134663211Y-131534952D02*
X134534933Y-131748247D01*
X134534933Y-131748247D02*
X134375403Y-131936613D01*
X134375403Y-131936613D02*
X134189237Y-132097604D01*
X134189237Y-132097604D02*
X133981051Y-132228777D01*
X133981051Y-132228777D02*
X133755460Y-132327686D01*
X133755460Y-132327686D02*
X133517082Y-132391889D01*
X133517082Y-132391889D02*
X133270531Y-132418939D01*
X133270531Y-132418939D02*
X133020424Y-132406393D01*
X133020424Y-132406393D02*
X133018142Y-132406089D01*
X133018142Y-132406089D02*
X132767186Y-132351794D01*
X132767186Y-132351794D02*
X132531934Y-132259848D01*
X132531934Y-132259848D02*
X132315661Y-132133065D01*
X132315661Y-132133065D02*
X132121639Y-131974260D01*
X132121639Y-131974260D02*
X131953143Y-131786249D01*
X131953143Y-131786249D02*
X131813445Y-131571848D01*
X131813445Y-131571848D02*
X131705819Y-131333871D01*
X131705819Y-131333871D02*
X131679090Y-131254500D01*
X131679090Y-131254500D02*
X131658518Y-131158351D01*
X131658518Y-131158351D02*
X131644740Y-131032277D01*
X131644740Y-131032277D02*
X131637762Y-130888141D01*
X131637762Y-130888141D02*
X131637588Y-130737802D01*
X131637588Y-130737802D02*
X131644222Y-130593123D01*
X131644222Y-130593123D02*
X131657670Y-130465964D01*
X131657670Y-130465964D02*
X131677935Y-130368187D01*
X131677935Y-130368187D02*
X131678750Y-130365500D01*
X131678750Y-130365500D02*
X131774093Y-130123333D01*
X131774093Y-130123333D02*
X131902129Y-129904143D01*
X131902129Y-129904143D02*
X132059253Y-129710331D01*
X132059253Y-129710331D02*
X132241860Y-129544300D01*
X132241860Y-129544300D02*
X132446343Y-129408451D01*
X132446343Y-129408451D02*
X132669097Y-129305186D01*
X132669097Y-129305186D02*
X132906516Y-129236907D01*
X132906516Y-129236907D02*
X133154995Y-129206016D01*
X133154995Y-129206016D02*
X133406727Y-129214439D01*
X133406727Y-129214439D02*
X133406727Y-129214439D01*
G36*
X133406727Y-129214439D02*
G01*
X133664057Y-129262912D01*
X133901852Y-129348845D01*
X134121308Y-129472784D01*
X134323346Y-129635022D01*
X134502604Y-129828402D01*
X134642270Y-130036208D01*
X134743032Y-130260027D01*
X134805574Y-130501445D01*
X134830583Y-130762052D01*
X134831152Y-130810000D01*
X134823424Y-131003007D01*
X134797716Y-131172479D01*
X134750241Y-131334762D01*
X134677212Y-131506204D01*
X134663211Y-131534952D01*
X134534933Y-131748247D01*
X134375403Y-131936613D01*
X134189237Y-132097604D01*
X133981051Y-132228777D01*
X133755460Y-132327686D01*
X133517082Y-132391889D01*
X133270531Y-132418939D01*
X133020424Y-132406393D01*
X133018142Y-132406089D01*
X132767186Y-132351794D01*
X132531934Y-132259848D01*
X132315661Y-132133065D01*
X132121639Y-131974260D01*
X131953143Y-131786249D01*
X131813445Y-131571848D01*
X131705819Y-131333871D01*
X131679090Y-131254500D01*
X131658518Y-131158351D01*
X131644740Y-131032277D01*
X131637762Y-130888141D01*
X131637588Y-130737802D01*
X131644222Y-130593123D01*
X131657670Y-130465964D01*
X131677935Y-130368187D01*
X131678750Y-130365500D01*
X131774093Y-130123333D01*
X131902129Y-129904143D01*
X132059253Y-129710331D01*
X132241860Y-129544300D01*
X132446343Y-129408451D01*
X132669097Y-129305186D01*
X132906516Y-129236907D01*
X133154995Y-129206016D01*
X133406727Y-129214439D01*
G37*
X133406727Y-129214439D02*
X133664057Y-129262912D01*
X133901852Y-129348845D01*
X134121308Y-129472784D01*
X134323346Y-129635022D01*
X134502604Y-129828402D01*
X134642270Y-130036208D01*
X134743032Y-130260027D01*
X134805574Y-130501445D01*
X134830583Y-130762052D01*
X134831152Y-130810000D01*
X134823424Y-131003007D01*
X134797716Y-131172479D01*
X134750241Y-131334762D01*
X134677212Y-131506204D01*
X134663211Y-131534952D01*
X134534933Y-131748247D01*
X134375403Y-131936613D01*
X134189237Y-132097604D01*
X133981051Y-132228777D01*
X133755460Y-132327686D01*
X133517082Y-132391889D01*
X133270531Y-132418939D01*
X133020424Y-132406393D01*
X133018142Y-132406089D01*
X132767186Y-132351794D01*
X132531934Y-132259848D01*
X132315661Y-132133065D01*
X132121639Y-131974260D01*
X131953143Y-131786249D01*
X131813445Y-131571848D01*
X131705819Y-131333871D01*
X131679090Y-131254500D01*
X131658518Y-131158351D01*
X131644740Y-131032277D01*
X131637762Y-130888141D01*
X131637588Y-130737802D01*
X131644222Y-130593123D01*
X131657670Y-130465964D01*
X131677935Y-130368187D01*
X131678750Y-130365500D01*
X131774093Y-130123333D01*
X131902129Y-129904143D01*
X132059253Y-129710331D01*
X132241860Y-129544300D01*
X132446343Y-129408451D01*
X132669097Y-129305186D01*
X132906516Y-129236907D01*
X133154995Y-129206016D01*
X133406727Y-129214439D01*
X128439408Y-110185986D02*
X128683582Y-110251137D01*
X128683582Y-110251137D02*
X128905555Y-110346755D01*
X128905555Y-110346755D02*
X129107872Y-110473901D01*
X129107872Y-110473901D02*
X129291568Y-110634753D01*
X129291568Y-110634753D02*
X129450997Y-110822722D01*
X129450997Y-110822722D02*
X129580513Y-111031218D01*
X129580513Y-111031218D02*
X129669290Y-111238123D01*
X129669290Y-111238123D02*
X129732930Y-111487405D01*
X129732930Y-111487405D02*
X129756577Y-111737512D01*
X129756577Y-111737512D02*
X129741860Y-111984321D01*
X129741860Y-111984321D02*
X129690410Y-112223713D01*
X129690410Y-112223713D02*
X129603857Y-112451567D01*
X129603857Y-112451567D02*
X129483830Y-112663761D01*
X129483830Y-112663761D02*
X129331959Y-112856176D01*
X129331959Y-112856176D02*
X129149873Y-113024691D01*
X129149873Y-113024691D02*
X128939204Y-113165184D01*
X128939204Y-113165184D02*
X128898417Y-113187156D01*
X128898417Y-113187156D02*
X128671731Y-113283090D01*
X128671731Y-113283090D02*
X128430392Y-113344920D01*
X128430392Y-113344920D02*
X128183701Y-113371226D01*
X128183701Y-113371226D02*
X127940959Y-113360584D01*
X127940959Y-113360584D02*
X127853658Y-113346931D01*
X127853658Y-113346931D02*
X127607316Y-113279314D01*
X127607316Y-113279314D02*
X127377247Y-113174504D01*
X127377247Y-113174504D02*
X127167142Y-113035732D01*
X127167142Y-113035732D02*
X126980693Y-112866227D01*
X126980693Y-112866227D02*
X126821592Y-112669216D01*
X126821592Y-112669216D02*
X126693530Y-112447931D01*
X126693530Y-112447931D02*
X126620082Y-112268000D01*
X126620082Y-112268000D02*
X126576877Y-112097083D01*
X126576877Y-112097083D02*
X126552891Y-111903532D01*
X126552891Y-111903532D02*
X126548674Y-111702711D01*
X126548674Y-111702711D02*
X126564777Y-111509981D01*
X126564777Y-111509981D02*
X126588514Y-111387799D01*
X126588514Y-111387799D02*
X126671277Y-111140238D01*
X126671277Y-111140238D02*
X126786376Y-110916671D01*
X126786376Y-110916671D02*
X126930213Y-110718716D01*
X126930213Y-110718716D02*
X127099188Y-110547990D01*
X127099188Y-110547990D02*
X127289703Y-110406109D01*
X127289703Y-110406109D02*
X127498159Y-110294691D01*
X127498159Y-110294691D02*
X127720956Y-110215353D01*
X127720956Y-110215353D02*
X127954496Y-110169711D01*
X127954496Y-110169711D02*
X128195179Y-110159383D01*
X128195179Y-110159383D02*
X128439408Y-110185986D01*
X128439408Y-110185986D02*
X128439408Y-110185986D01*
G36*
X128439408Y-110185986D02*
G01*
X128683582Y-110251137D01*
X128905555Y-110346755D01*
X129107872Y-110473901D01*
X129291568Y-110634753D01*
X129450997Y-110822722D01*
X129580513Y-111031218D01*
X129669290Y-111238123D01*
X129732930Y-111487405D01*
X129756577Y-111737512D01*
X129741860Y-111984321D01*
X129690410Y-112223713D01*
X129603857Y-112451567D01*
X129483830Y-112663761D01*
X129331959Y-112856176D01*
X129149873Y-113024691D01*
X128939204Y-113165184D01*
X128898417Y-113187156D01*
X128671731Y-113283090D01*
X128430392Y-113344920D01*
X128183701Y-113371226D01*
X127940959Y-113360584D01*
X127853658Y-113346931D01*
X127607316Y-113279314D01*
X127377247Y-113174504D01*
X127167142Y-113035732D01*
X126980693Y-112866227D01*
X126821592Y-112669216D01*
X126693530Y-112447931D01*
X126620082Y-112268000D01*
X126576877Y-112097083D01*
X126552891Y-111903532D01*
X126548674Y-111702711D01*
X126564777Y-111509981D01*
X126588514Y-111387799D01*
X126671277Y-111140238D01*
X126786376Y-110916671D01*
X126930213Y-110718716D01*
X127099188Y-110547990D01*
X127289703Y-110406109D01*
X127498159Y-110294691D01*
X127720956Y-110215353D01*
X127954496Y-110169711D01*
X128195179Y-110159383D01*
X128439408Y-110185986D01*
G37*
X128439408Y-110185986D02*
X128683582Y-110251137D01*
X128905555Y-110346755D01*
X129107872Y-110473901D01*
X129291568Y-110634753D01*
X129450997Y-110822722D01*
X129580513Y-111031218D01*
X129669290Y-111238123D01*
X129732930Y-111487405D01*
X129756577Y-111737512D01*
X129741860Y-111984321D01*
X129690410Y-112223713D01*
X129603857Y-112451567D01*
X129483830Y-112663761D01*
X129331959Y-112856176D01*
X129149873Y-113024691D01*
X128939204Y-113165184D01*
X128898417Y-113187156D01*
X128671731Y-113283090D01*
X128430392Y-113344920D01*
X128183701Y-113371226D01*
X127940959Y-113360584D01*
X127853658Y-113346931D01*
X127607316Y-113279314D01*
X127377247Y-113174504D01*
X127167142Y-113035732D01*
X126980693Y-112866227D01*
X126821592Y-112669216D01*
X126693530Y-112447931D01*
X126620082Y-112268000D01*
X126576877Y-112097083D01*
X126552891Y-111903532D01*
X126548674Y-111702711D01*
X126564777Y-111509981D01*
X126588514Y-111387799D01*
X126671277Y-111140238D01*
X126786376Y-110916671D01*
X126930213Y-110718716D01*
X127099188Y-110547990D01*
X127289703Y-110406109D01*
X127498159Y-110294691D01*
X127720956Y-110215353D01*
X127954496Y-110169711D01*
X128195179Y-110159383D01*
X128439408Y-110185986D01*
X138128603Y-89179486D02*
X138482200Y-89242749D01*
X138482200Y-89242749D02*
X138829186Y-89341994D01*
X138829186Y-89341994D02*
X139166658Y-89477240D01*
X139166658Y-89477240D02*
X139491713Y-89648507D01*
X139491713Y-89648507D02*
X139801448Y-89855815D01*
X139801448Y-89855815D02*
X140092960Y-90099183D01*
X140092960Y-90099183D02*
X140189337Y-90192074D01*
X140189337Y-90192074D02*
X140445781Y-90477723D01*
X140445781Y-90477723D02*
X140667432Y-90785415D01*
X140667432Y-90785415D02*
X140853566Y-91112066D01*
X140853566Y-91112066D02*
X141003459Y-91454592D01*
X141003459Y-91454592D02*
X141116388Y-91809908D01*
X141116388Y-91809908D02*
X141191629Y-92174930D01*
X141191629Y-92174930D02*
X141228458Y-92546574D01*
X141228458Y-92546574D02*
X141226151Y-92921755D01*
X141226151Y-92921755D02*
X141183985Y-93297390D01*
X141183985Y-93297390D02*
X141101236Y-93670394D01*
X141101236Y-93670394D02*
X141047023Y-93847198D01*
X141047023Y-93847198D02*
X140908558Y-94195696D01*
X140908558Y-94195696D02*
X140734081Y-94525958D01*
X140734081Y-94525958D02*
X140526419Y-94835336D01*
X140526419Y-94835336D02*
X140288400Y-95121181D01*
X140288400Y-95121181D02*
X140022850Y-95380846D01*
X140022850Y-95380846D02*
X139732597Y-95611680D01*
X139732597Y-95611680D02*
X139420469Y-95811035D01*
X139420469Y-95811035D02*
X139089291Y-95976264D01*
X139089291Y-95976264D02*
X138741893Y-96104717D01*
X138741893Y-96104717D02*
X138592161Y-96146978D01*
X138592161Y-96146978D02*
X138275614Y-96213674D01*
X138275614Y-96213674D02*
X137952318Y-96254359D01*
X137952318Y-96254359D02*
X137634953Y-96267930D01*
X137634953Y-96267930D02*
X137351826Y-96254832D01*
X137351826Y-96254832D02*
X136968005Y-96197333D01*
X136968005Y-96197333D02*
X136597473Y-96100716D01*
X136597473Y-96100716D02*
X136242711Y-95966678D01*
X136242711Y-95966678D02*
X135906199Y-95796917D01*
X135906199Y-95796917D02*
X135590419Y-95593130D01*
X135590419Y-95593130D02*
X135297852Y-95357014D01*
X135297852Y-95357014D02*
X135030978Y-95090267D01*
X135030978Y-95090267D02*
X134792278Y-94794586D01*
X134792278Y-94794586D02*
X134584233Y-94471668D01*
X134584233Y-94471668D02*
X134490964Y-94297500D01*
X134490964Y-94297500D02*
X134338512Y-93946504D01*
X134338512Y-93946504D02*
X134226382Y-93582675D01*
X134226382Y-93582675D02*
X134154605Y-93206169D01*
X134154605Y-93206169D02*
X134123211Y-92817143D01*
X134123211Y-92817143D02*
X134129537Y-92456000D01*
X134129537Y-92456000D02*
X134173589Y-92084246D01*
X134173589Y-92084246D02*
X134258171Y-91719119D01*
X134258171Y-91719119D02*
X134381568Y-91364443D01*
X134381568Y-91364443D02*
X134542071Y-91024043D01*
X134542071Y-91024043D02*
X134737967Y-90701743D01*
X134737967Y-90701743D02*
X134967544Y-90401367D01*
X134967544Y-90401367D02*
X135127735Y-90226094D01*
X135127735Y-90226094D02*
X135410195Y-89966396D01*
X135410195Y-89966396D02*
X135712171Y-89742505D01*
X135712171Y-89742505D02*
X136030761Y-89554440D01*
X136030761Y-89554440D02*
X136363060Y-89402220D01*
X136363060Y-89402220D02*
X136706167Y-89285866D01*
X136706167Y-89285866D02*
X137057177Y-89205395D01*
X137057177Y-89205395D02*
X137413189Y-89160829D01*
X137413189Y-89160829D02*
X137771298Y-89152186D01*
X137771298Y-89152186D02*
X138128603Y-89179486D01*
X138128603Y-89179486D02*
X138128603Y-89179486D01*
G36*
X138128603Y-89179486D02*
G01*
X138482200Y-89242749D01*
X138829186Y-89341994D01*
X139166658Y-89477240D01*
X139491713Y-89648507D01*
X139801448Y-89855815D01*
X140092960Y-90099183D01*
X140189337Y-90192074D01*
X140445781Y-90477723D01*
X140667432Y-90785415D01*
X140853566Y-91112066D01*
X141003459Y-91454592D01*
X141116388Y-91809908D01*
X141191629Y-92174930D01*
X141228458Y-92546574D01*
X141226151Y-92921755D01*
X141183985Y-93297390D01*
X141101236Y-93670394D01*
X141047023Y-93847198D01*
X140908558Y-94195696D01*
X140734081Y-94525958D01*
X140526419Y-94835336D01*
X140288400Y-95121181D01*
X140022850Y-95380846D01*
X139732597Y-95611680D01*
X139420469Y-95811035D01*
X139089291Y-95976264D01*
X138741893Y-96104717D01*
X138592161Y-96146978D01*
X138275614Y-96213674D01*
X137952318Y-96254359D01*
X137634953Y-96267930D01*
X137351826Y-96254832D01*
X136968005Y-96197333D01*
X136597473Y-96100716D01*
X136242711Y-95966678D01*
X135906199Y-95796917D01*
X135590419Y-95593130D01*
X135297852Y-95357014D01*
X135030978Y-95090267D01*
X134792278Y-94794586D01*
X134584233Y-94471668D01*
X134490964Y-94297500D01*
X134338512Y-93946504D01*
X134226382Y-93582675D01*
X134154605Y-93206169D01*
X134123211Y-92817143D01*
X134129537Y-92456000D01*
X134173589Y-92084246D01*
X134258171Y-91719119D01*
X134381568Y-91364443D01*
X134542071Y-91024043D01*
X134737967Y-90701743D01*
X134967544Y-90401367D01*
X135127735Y-90226094D01*
X135410195Y-89966396D01*
X135712171Y-89742505D01*
X136030761Y-89554440D01*
X136363060Y-89402220D01*
X136706167Y-89285866D01*
X137057177Y-89205395D01*
X137413189Y-89160829D01*
X137771298Y-89152186D01*
X138128603Y-89179486D01*
G37*
X138128603Y-89179486D02*
X138482200Y-89242749D01*
X138829186Y-89341994D01*
X139166658Y-89477240D01*
X139491713Y-89648507D01*
X139801448Y-89855815D01*
X140092960Y-90099183D01*
X140189337Y-90192074D01*
X140445781Y-90477723D01*
X140667432Y-90785415D01*
X140853566Y-91112066D01*
X141003459Y-91454592D01*
X141116388Y-91809908D01*
X141191629Y-92174930D01*
X141228458Y-92546574D01*
X141226151Y-92921755D01*
X141183985Y-93297390D01*
X141101236Y-93670394D01*
X141047023Y-93847198D01*
X140908558Y-94195696D01*
X140734081Y-94525958D01*
X140526419Y-94835336D01*
X140288400Y-95121181D01*
X140022850Y-95380846D01*
X139732597Y-95611680D01*
X139420469Y-95811035D01*
X139089291Y-95976264D01*
X138741893Y-96104717D01*
X138592161Y-96146978D01*
X138275614Y-96213674D01*
X137952318Y-96254359D01*
X137634953Y-96267930D01*
X137351826Y-96254832D01*
X136968005Y-96197333D01*
X136597473Y-96100716D01*
X136242711Y-95966678D01*
X135906199Y-95796917D01*
X135590419Y-95593130D01*
X135297852Y-95357014D01*
X135030978Y-95090267D01*
X134792278Y-94794586D01*
X134584233Y-94471668D01*
X134490964Y-94297500D01*
X134338512Y-93946504D01*
X134226382Y-93582675D01*
X134154605Y-93206169D01*
X134123211Y-92817143D01*
X134129537Y-92456000D01*
X134173589Y-92084246D01*
X134258171Y-91719119D01*
X134381568Y-91364443D01*
X134542071Y-91024043D01*
X134737967Y-90701743D01*
X134967544Y-90401367D01*
X135127735Y-90226094D01*
X135410195Y-89966396D01*
X135712171Y-89742505D01*
X136030761Y-89554440D01*
X136363060Y-89402220D01*
X136706167Y-89285866D01*
X137057177Y-89205395D01*
X137413189Y-89160829D01*
X137771298Y-89152186D01*
X138128603Y-89179486D01*
X116597256Y-61247383D02*
X116970487Y-61321252D01*
X116970487Y-61321252D02*
X117219299Y-61393989D01*
X117219299Y-61393989D02*
X117571093Y-61532185D01*
X117571093Y-61532185D02*
X117900295Y-61704337D01*
X117900295Y-61704337D02*
X118205508Y-61907755D01*
X118205508Y-61907755D02*
X118485336Y-62139751D01*
X118485336Y-62139751D02*
X118738385Y-62397636D01*
X118738385Y-62397636D02*
X118963256Y-62678720D01*
X118963256Y-62678720D02*
X119158554Y-62980314D01*
X119158554Y-62980314D02*
X119322883Y-63299730D01*
X119322883Y-63299730D02*
X119454847Y-63634278D01*
X119454847Y-63634278D02*
X119553049Y-63981269D01*
X119553049Y-63981269D02*
X119616093Y-64338015D01*
X119616093Y-64338015D02*
X119642584Y-64701825D01*
X119642584Y-64701825D02*
X119631124Y-65070011D01*
X119631124Y-65070011D02*
X119580318Y-65439885D01*
X119580318Y-65439885D02*
X119497106Y-65781098D01*
X119497106Y-65781098D02*
X119367805Y-66144440D01*
X119367805Y-66144440D02*
X119203228Y-66486400D01*
X119203228Y-66486400D02*
X119005648Y-66805143D01*
X119005648Y-66805143D02*
X118777338Y-67098832D01*
X118777338Y-67098832D02*
X118520573Y-67365634D01*
X118520573Y-67365634D02*
X118237627Y-67603713D01*
X118237627Y-67603713D02*
X117930772Y-67811234D01*
X117930772Y-67811234D02*
X117602283Y-67986362D01*
X117602283Y-67986362D02*
X117254433Y-68127262D01*
X117254433Y-68127262D02*
X116889496Y-68232099D01*
X116889496Y-68232099D02*
X116509746Y-68299037D01*
X116509746Y-68299037D02*
X116358286Y-68314461D01*
X116358286Y-68314461D02*
X116241976Y-68323767D01*
X116241976Y-68323767D02*
X116154997Y-68329709D01*
X116154997Y-68329709D02*
X116084477Y-68332278D01*
X116084477Y-68332278D02*
X116017547Y-68331460D01*
X116017547Y-68331460D02*
X115941335Y-68327245D01*
X115941335Y-68327245D02*
X115842973Y-68319622D01*
X115842973Y-68319622D02*
X115774494Y-68313949D01*
X115774494Y-68313949D02*
X115397713Y-68262043D01*
X115397713Y-68262043D02*
X115034187Y-68171238D01*
X115034187Y-68171238D02*
X114686121Y-68043502D01*
X114686121Y-68043502D02*
X114355723Y-67880803D01*
X114355723Y-67880803D02*
X114045199Y-67685108D01*
X114045199Y-67685108D02*
X113756755Y-67458384D01*
X113756755Y-67458384D02*
X113492598Y-67202600D01*
X113492598Y-67202600D02*
X113254933Y-66919723D01*
X113254933Y-66919723D02*
X113045968Y-66611720D01*
X113045968Y-66611720D02*
X112867908Y-66280560D01*
X112867908Y-66280560D02*
X112722961Y-65928208D01*
X112722961Y-65928208D02*
X112613331Y-65556634D01*
X112613331Y-65556634D02*
X112595597Y-65479084D01*
X112595597Y-65479084D02*
X112579668Y-65401561D01*
X112579668Y-65401561D02*
X112567631Y-65329633D01*
X112567631Y-65329633D02*
X112558963Y-65255453D01*
X112558963Y-65255453D02*
X112553139Y-65171176D01*
X112553139Y-65171176D02*
X112549635Y-65068959D01*
X112549635Y-65068959D02*
X112547926Y-64940955D01*
X112547926Y-64940955D02*
X112547489Y-64779321D01*
X112547489Y-64779321D02*
X112547496Y-64759417D01*
X112547496Y-64759417D02*
X112547845Y-64598481D01*
X112547845Y-64598481D02*
X112549115Y-64471958D01*
X112549115Y-64471958D02*
X112551937Y-64371931D01*
X112551937Y-64371931D02*
X112556941Y-64290479D01*
X112556941Y-64290479D02*
X112564761Y-64219685D01*
X112564761Y-64219685D02*
X112576025Y-64151630D01*
X112576025Y-64151630D02*
X112591367Y-64078395D01*
X112591367Y-64078395D02*
X112607257Y-64009664D01*
X112607257Y-64009664D02*
X112710093Y-63643056D01*
X112710093Y-63643056D02*
X112839983Y-63305690D01*
X112839983Y-63305690D02*
X112999947Y-62991960D01*
X112999947Y-62991960D02*
X113193006Y-62696258D01*
X113193006Y-62696258D02*
X113422179Y-62412979D01*
X113422179Y-62412979D02*
X113530431Y-62295832D01*
X113530431Y-62295832D02*
X113807887Y-62036172D01*
X113807887Y-62036172D02*
X114108426Y-61810528D01*
X114108426Y-61810528D02*
X114428937Y-61619663D01*
X114428937Y-61619663D02*
X114766311Y-61464335D01*
X114766311Y-61464335D02*
X115117437Y-61345306D01*
X115117437Y-61345306D02*
X115479205Y-61263336D01*
X115479205Y-61263336D02*
X115848504Y-61219185D01*
X115848504Y-61219185D02*
X116222225Y-61213614D01*
X116222225Y-61213614D02*
X116597256Y-61247383D01*
X116597256Y-61247383D02*
X116597256Y-61247383D01*
G36*
X116597256Y-61247383D02*
G01*
X116970487Y-61321252D01*
X117219299Y-61393989D01*
X117571093Y-61532185D01*
X117900295Y-61704337D01*
X118205508Y-61907755D01*
X118485336Y-62139751D01*
X118738385Y-62397636D01*
X118963256Y-62678720D01*
X119158554Y-62980314D01*
X119322883Y-63299730D01*
X119454847Y-63634278D01*
X119553049Y-63981269D01*
X119616093Y-64338015D01*
X119642584Y-64701825D01*
X119631124Y-65070011D01*
X119580318Y-65439885D01*
X119497106Y-65781098D01*
X119367805Y-66144440D01*
X119203228Y-66486400D01*
X119005648Y-66805143D01*
X118777338Y-67098832D01*
X118520573Y-67365634D01*
X118237627Y-67603713D01*
X117930772Y-67811234D01*
X117602283Y-67986362D01*
X117254433Y-68127262D01*
X116889496Y-68232099D01*
X116509746Y-68299037D01*
X116358286Y-68314461D01*
X116241976Y-68323767D01*
X116154997Y-68329709D01*
X116084477Y-68332278D01*
X116017547Y-68331460D01*
X115941335Y-68327245D01*
X115842973Y-68319622D01*
X115774494Y-68313949D01*
X115397713Y-68262043D01*
X115034187Y-68171238D01*
X114686121Y-68043502D01*
X114355723Y-67880803D01*
X114045199Y-67685108D01*
X113756755Y-67458384D01*
X113492598Y-67202600D01*
X113254933Y-66919723D01*
X113045968Y-66611720D01*
X112867908Y-66280560D01*
X112722961Y-65928208D01*
X112613331Y-65556634D01*
X112595597Y-65479084D01*
X112579668Y-65401561D01*
X112567631Y-65329633D01*
X112558963Y-65255453D01*
X112553139Y-65171176D01*
X112549635Y-65068959D01*
X112547926Y-64940955D01*
X112547489Y-64779321D01*
X112547496Y-64759417D01*
X112547845Y-64598481D01*
X112549115Y-64471958D01*
X112551937Y-64371931D01*
X112556941Y-64290479D01*
X112564761Y-64219685D01*
X112576025Y-64151630D01*
X112591367Y-64078395D01*
X112607257Y-64009664D01*
X112710093Y-63643056D01*
X112839983Y-63305690D01*
X112999947Y-62991960D01*
X113193006Y-62696258D01*
X113422179Y-62412979D01*
X113530431Y-62295832D01*
X113807887Y-62036172D01*
X114108426Y-61810528D01*
X114428937Y-61619663D01*
X114766311Y-61464335D01*
X115117437Y-61345306D01*
X115479205Y-61263336D01*
X115848504Y-61219185D01*
X116222225Y-61213614D01*
X116597256Y-61247383D01*
G37*
X116597256Y-61247383D02*
X116970487Y-61321252D01*
X117219299Y-61393989D01*
X117571093Y-61532185D01*
X117900295Y-61704337D01*
X118205508Y-61907755D01*
X118485336Y-62139751D01*
X118738385Y-62397636D01*
X118963256Y-62678720D01*
X119158554Y-62980314D01*
X119322883Y-63299730D01*
X119454847Y-63634278D01*
X119553049Y-63981269D01*
X119616093Y-64338015D01*
X119642584Y-64701825D01*
X119631124Y-65070011D01*
X119580318Y-65439885D01*
X119497106Y-65781098D01*
X119367805Y-66144440D01*
X119203228Y-66486400D01*
X119005648Y-66805143D01*
X118777338Y-67098832D01*
X118520573Y-67365634D01*
X118237627Y-67603713D01*
X117930772Y-67811234D01*
X117602283Y-67986362D01*
X117254433Y-68127262D01*
X116889496Y-68232099D01*
X116509746Y-68299037D01*
X116358286Y-68314461D01*
X116241976Y-68323767D01*
X116154997Y-68329709D01*
X116084477Y-68332278D01*
X116017547Y-68331460D01*
X115941335Y-68327245D01*
X115842973Y-68319622D01*
X115774494Y-68313949D01*
X115397713Y-68262043D01*
X115034187Y-68171238D01*
X114686121Y-68043502D01*
X114355723Y-67880803D01*
X114045199Y-67685108D01*
X113756755Y-67458384D01*
X113492598Y-67202600D01*
X113254933Y-66919723D01*
X113045968Y-66611720D01*
X112867908Y-66280560D01*
X112722961Y-65928208D01*
X112613331Y-65556634D01*
X112595597Y-65479084D01*
X112579668Y-65401561D01*
X112567631Y-65329633D01*
X112558963Y-65255453D01*
X112553139Y-65171176D01*
X112549635Y-65068959D01*
X112547926Y-64940955D01*
X112547489Y-64779321D01*
X112547496Y-64759417D01*
X112547845Y-64598481D01*
X112549115Y-64471958D01*
X112551937Y-64371931D01*
X112556941Y-64290479D01*
X112564761Y-64219685D01*
X112576025Y-64151630D01*
X112591367Y-64078395D01*
X112607257Y-64009664D01*
X112710093Y-63643056D01*
X112839983Y-63305690D01*
X112999947Y-62991960D01*
X113193006Y-62696258D01*
X113422179Y-62412979D01*
X113530431Y-62295832D01*
X113807887Y-62036172D01*
X114108426Y-61810528D01*
X114428937Y-61619663D01*
X114766311Y-61464335D01*
X115117437Y-61345306D01*
X115479205Y-61263336D01*
X115848504Y-61219185D01*
X116222225Y-61213614D01*
X116597256Y-61247383D01*
X133409913Y-116508195D02*
X133652628Y-116554894D01*
X133652628Y-116554894D02*
X133891852Y-116640903D01*
X133891852Y-116640903D02*
X133978417Y-116682844D01*
X133978417Y-116682844D02*
X134192614Y-116816680D01*
X134192614Y-116816680D02*
X134377387Y-116977493D01*
X134377387Y-116977493D02*
X134532010Y-117161138D01*
X134532010Y-117161138D02*
X134655756Y-117363472D01*
X134655756Y-117363472D02*
X134747899Y-117580350D01*
X134747899Y-117580350D02*
X134807712Y-117807628D01*
X134807712Y-117807628D02*
X134834470Y-118041160D01*
X134834470Y-118041160D02*
X134827446Y-118276804D01*
X134827446Y-118276804D02*
X134785914Y-118510414D01*
X134785914Y-118510414D02*
X134709147Y-118737846D01*
X134709147Y-118737846D02*
X134596420Y-118954955D01*
X134596420Y-118954955D02*
X134447005Y-119157598D01*
X134447005Y-119157598D02*
X134417862Y-119190356D01*
X134417862Y-119190356D02*
X134241332Y-119354155D01*
X134241332Y-119354155D02*
X134036961Y-119493129D01*
X134036961Y-119493129D02*
X133814709Y-119601514D01*
X133814709Y-119601514D02*
X133584535Y-119673546D01*
X133584535Y-119673546D02*
X133582066Y-119674099D01*
X133582066Y-119674099D02*
X133425732Y-119697880D01*
X133425732Y-119697880D02*
X133249312Y-119706652D01*
X133249312Y-119706652D02*
X133069993Y-119700632D01*
X133069993Y-119700632D02*
X132904964Y-119680033D01*
X132904964Y-119680033D02*
X132834828Y-119664762D01*
X132834828Y-119664762D02*
X132587539Y-119579912D01*
X132587539Y-119579912D02*
X132362197Y-119460045D01*
X132362197Y-119460045D02*
X132161401Y-119307794D01*
X132161401Y-119307794D02*
X131987749Y-119125794D01*
X131987749Y-119125794D02*
X131843840Y-118916680D01*
X131843840Y-118916680D02*
X131732272Y-118683088D01*
X131732272Y-118683088D02*
X131668514Y-118482201D01*
X131668514Y-118482201D02*
X131637818Y-118304326D01*
X131637818Y-118304326D02*
X131627830Y-118107577D01*
X131627830Y-118107577D02*
X131637997Y-117907316D01*
X131637997Y-117907316D02*
X131667770Y-117718905D01*
X131667770Y-117718905D02*
X131700082Y-117602000D01*
X131700082Y-117602000D02*
X131801938Y-117364413D01*
X131801938Y-117364413D02*
X131934757Y-117152235D01*
X131934757Y-117152235D02*
X132094713Y-116967012D01*
X132094713Y-116967012D02*
X132277975Y-116810287D01*
X132277975Y-116810287D02*
X132480717Y-116683605D01*
X132480717Y-116683605D02*
X132699110Y-116588510D01*
X132699110Y-116588510D02*
X132929326Y-116526547D01*
X132929326Y-116526547D02*
X133167536Y-116499261D01*
X133167536Y-116499261D02*
X133409913Y-116508195D01*
X133409913Y-116508195D02*
X133409913Y-116508195D01*
G36*
X133409913Y-116508195D02*
G01*
X133652628Y-116554894D01*
X133891852Y-116640903D01*
X133978417Y-116682844D01*
X134192614Y-116816680D01*
X134377387Y-116977493D01*
X134532010Y-117161138D01*
X134655756Y-117363472D01*
X134747899Y-117580350D01*
X134807712Y-117807628D01*
X134834470Y-118041160D01*
X134827446Y-118276804D01*
X134785914Y-118510414D01*
X134709147Y-118737846D01*
X134596420Y-118954955D01*
X134447005Y-119157598D01*
X134417862Y-119190356D01*
X134241332Y-119354155D01*
X134036961Y-119493129D01*
X133814709Y-119601514D01*
X133584535Y-119673546D01*
X133582066Y-119674099D01*
X133425732Y-119697880D01*
X133249312Y-119706652D01*
X133069993Y-119700632D01*
X132904964Y-119680033D01*
X132834828Y-119664762D01*
X132587539Y-119579912D01*
X132362197Y-119460045D01*
X132161401Y-119307794D01*
X131987749Y-119125794D01*
X131843840Y-118916680D01*
X131732272Y-118683088D01*
X131668514Y-118482201D01*
X131637818Y-118304326D01*
X131627830Y-118107577D01*
X131637997Y-117907316D01*
X131667770Y-117718905D01*
X131700082Y-117602000D01*
X131801938Y-117364413D01*
X131934757Y-117152235D01*
X132094713Y-116967012D01*
X132277975Y-116810287D01*
X132480717Y-116683605D01*
X132699110Y-116588510D01*
X132929326Y-116526547D01*
X133167536Y-116499261D01*
X133409913Y-116508195D01*
G37*
X133409913Y-116508195D02*
X133652628Y-116554894D01*
X133891852Y-116640903D01*
X133978417Y-116682844D01*
X134192614Y-116816680D01*
X134377387Y-116977493D01*
X134532010Y-117161138D01*
X134655756Y-117363472D01*
X134747899Y-117580350D01*
X134807712Y-117807628D01*
X134834470Y-118041160D01*
X134827446Y-118276804D01*
X134785914Y-118510414D01*
X134709147Y-118737846D01*
X134596420Y-118954955D01*
X134447005Y-119157598D01*
X134417862Y-119190356D01*
X134241332Y-119354155D01*
X134036961Y-119493129D01*
X133814709Y-119601514D01*
X133584535Y-119673546D01*
X133582066Y-119674099D01*
X133425732Y-119697880D01*
X133249312Y-119706652D01*
X133069993Y-119700632D01*
X132904964Y-119680033D01*
X132834828Y-119664762D01*
X132587539Y-119579912D01*
X132362197Y-119460045D01*
X132161401Y-119307794D01*
X131987749Y-119125794D01*
X131843840Y-118916680D01*
X131732272Y-118683088D01*
X131668514Y-118482201D01*
X131637818Y-118304326D01*
X131627830Y-118107577D01*
X131637997Y-117907316D01*
X131667770Y-117718905D01*
X131700082Y-117602000D01*
X131801938Y-117364413D01*
X131934757Y-117152235D01*
X132094713Y-116967012D01*
X132277975Y-116810287D01*
X132480717Y-116683605D01*
X132699110Y-116588510D01*
X132929326Y-116526547D01*
X133167536Y-116499261D01*
X133409913Y-116508195D01*
X132890136Y-154443504D02*
X133162047Y-154473980D01*
X133162047Y-154473980D02*
X133418242Y-154528172D01*
X133418242Y-154528172D02*
X133669819Y-154608520D01*
X133669819Y-154608520D02*
X133927875Y-154717464D01*
X133927875Y-154717464D02*
X133969626Y-154737288D01*
X133969626Y-154737288D02*
X134300631Y-154918821D01*
X134300631Y-154918821D02*
X134601485Y-155129880D01*
X134601485Y-155129880D02*
X134871495Y-155369590D01*
X134871495Y-155369590D02*
X135109969Y-155637072D01*
X135109969Y-155637072D02*
X135316214Y-155931451D01*
X135316214Y-155931451D02*
X135489537Y-156251849D01*
X135489537Y-156251849D02*
X135629244Y-156597390D01*
X135629244Y-156597390D02*
X135734644Y-156967197D01*
X135734644Y-156967197D02*
X135735749Y-156972000D01*
X135735749Y-156972000D02*
X135762982Y-157126544D01*
X135762982Y-157126544D02*
X135782147Y-157310080D01*
X135782147Y-157310080D02*
X135792878Y-157509970D01*
X135792878Y-157509970D02*
X135794809Y-157713581D01*
X135794809Y-157713581D02*
X135787574Y-157908275D01*
X135787574Y-157908275D02*
X135770807Y-158081417D01*
X135770807Y-158081417D02*
X135768374Y-158098548D01*
X135768374Y-158098548D02*
X135694579Y-158461513D01*
X135694579Y-158461513D02*
X135582852Y-158805757D01*
X135582852Y-158805757D02*
X135433037Y-159131598D01*
X135433037Y-159131598D02*
X135244975Y-159439352D01*
X135244975Y-159439352D02*
X135018509Y-159729337D01*
X135018509Y-159729337D02*
X134890151Y-159868460D01*
X134890151Y-159868460D02*
X134621077Y-160117617D01*
X134621077Y-160117617D02*
X134334370Y-160329317D01*
X134334370Y-160329317D02*
X134027406Y-160505039D01*
X134027406Y-160505039D02*
X133697564Y-160646261D01*
X133697564Y-160646261D02*
X133342221Y-160754461D01*
X133342221Y-160754461D02*
X133300494Y-160764642D01*
X133300494Y-160764642D02*
X133141587Y-160793953D01*
X133141587Y-160793953D02*
X132953186Y-160814949D01*
X132953186Y-160814949D02*
X132747360Y-160827355D01*
X132747360Y-160827355D02*
X132536178Y-160830898D01*
X132536178Y-160830898D02*
X132331709Y-160825302D01*
X132331709Y-160825302D02*
X132146023Y-160810295D01*
X132146023Y-160810295D02*
X132030494Y-160793465D01*
X132030494Y-160793465D02*
X131677140Y-160708004D01*
X131677140Y-160708004D02*
X131340053Y-160585149D01*
X131340053Y-160585149D02*
X131021640Y-160427271D01*
X131021640Y-160427271D02*
X130724305Y-160236738D01*
X130724305Y-160236738D02*
X130450453Y-160015921D01*
X130450453Y-160015921D02*
X130202489Y-159767189D01*
X130202489Y-159767189D02*
X129982819Y-159492911D01*
X129982819Y-159492911D02*
X129793846Y-159195457D01*
X129793846Y-159195457D02*
X129637976Y-158877197D01*
X129637976Y-158877197D02*
X129517615Y-158540499D01*
X129517615Y-158540499D02*
X129446112Y-158247228D01*
X129446112Y-158247228D02*
X129396839Y-157886182D01*
X129396839Y-157886182D02*
X129388298Y-157528751D01*
X129388298Y-157528751D02*
X129418909Y-157177637D01*
X129418909Y-157177637D02*
X129487093Y-156835541D01*
X129487093Y-156835541D02*
X129591271Y-156505164D01*
X129591271Y-156505164D02*
X129729865Y-156189208D01*
X129729865Y-156189208D02*
X129901296Y-155890374D01*
X129901296Y-155890374D02*
X130103984Y-155611364D01*
X130103984Y-155611364D02*
X130336350Y-155354880D01*
X130336350Y-155354880D02*
X130596817Y-155123623D01*
X130596817Y-155123623D02*
X130883804Y-154920295D01*
X130883804Y-154920295D02*
X131195733Y-154747597D01*
X131195733Y-154747597D02*
X131531025Y-154608231D01*
X131531025Y-154608231D02*
X131583427Y-154590304D01*
X131583427Y-154590304D02*
X131773668Y-154531506D01*
X131773668Y-154531506D02*
X131947797Y-154488622D01*
X131947797Y-154488622D02*
X132119044Y-154459606D01*
X132119044Y-154459606D02*
X132300638Y-154442410D01*
X132300638Y-154442410D02*
X132505805Y-154434988D01*
X132505805Y-154434988D02*
X132591411Y-154434306D01*
X132591411Y-154434306D02*
X132890136Y-154443504D01*
X132890136Y-154443504D02*
X132890136Y-154443504D01*
G36*
X132890136Y-154443504D02*
G01*
X133162047Y-154473980D01*
X133418242Y-154528172D01*
X133669819Y-154608520D01*
X133927875Y-154717464D01*
X133969626Y-154737288D01*
X134300631Y-154918821D01*
X134601485Y-155129880D01*
X134871495Y-155369590D01*
X135109969Y-155637072D01*
X135316214Y-155931451D01*
X135489537Y-156251849D01*
X135629244Y-156597390D01*
X135734644Y-156967197D01*
X135735749Y-156972000D01*
X135762982Y-157126544D01*
X135782147Y-157310080D01*
X135792878Y-157509970D01*
X135794809Y-157713581D01*
X135787574Y-157908275D01*
X135770807Y-158081417D01*
X135768374Y-158098548D01*
X135694579Y-158461513D01*
X135582852Y-158805757D01*
X135433037Y-159131598D01*
X135244975Y-159439352D01*
X135018509Y-159729337D01*
X134890151Y-159868460D01*
X134621077Y-160117617D01*
X134334370Y-160329317D01*
X134027406Y-160505039D01*
X133697564Y-160646261D01*
X133342221Y-160754461D01*
X133300494Y-160764642D01*
X133141587Y-160793953D01*
X132953186Y-160814949D01*
X132747360Y-160827355D01*
X132536178Y-160830898D01*
X132331709Y-160825302D01*
X132146023Y-160810295D01*
X132030494Y-160793465D01*
X131677140Y-160708004D01*
X131340053Y-160585149D01*
X131021640Y-160427271D01*
X130724305Y-160236738D01*
X130450453Y-160015921D01*
X130202489Y-159767189D01*
X129982819Y-159492911D01*
X129793846Y-159195457D01*
X129637976Y-158877197D01*
X129517615Y-158540499D01*
X129446112Y-158247228D01*
X129396839Y-157886182D01*
X129388298Y-157528751D01*
X129418909Y-157177637D01*
X129487093Y-156835541D01*
X129591271Y-156505164D01*
X129729865Y-156189208D01*
X129901296Y-155890374D01*
X130103984Y-155611364D01*
X130336350Y-155354880D01*
X130596817Y-155123623D01*
X130883804Y-154920295D01*
X131195733Y-154747597D01*
X131531025Y-154608231D01*
X131583427Y-154590304D01*
X131773668Y-154531506D01*
X131947797Y-154488622D01*
X132119044Y-154459606D01*
X132300638Y-154442410D01*
X132505805Y-154434988D01*
X132591411Y-154434306D01*
X132890136Y-154443504D01*
G37*
X132890136Y-154443504D02*
X133162047Y-154473980D01*
X133418242Y-154528172D01*
X133669819Y-154608520D01*
X133927875Y-154717464D01*
X133969626Y-154737288D01*
X134300631Y-154918821D01*
X134601485Y-155129880D01*
X134871495Y-155369590D01*
X135109969Y-155637072D01*
X135316214Y-155931451D01*
X135489537Y-156251849D01*
X135629244Y-156597390D01*
X135734644Y-156967197D01*
X135735749Y-156972000D01*
X135762982Y-157126544D01*
X135782147Y-157310080D01*
X135792878Y-157509970D01*
X135794809Y-157713581D01*
X135787574Y-157908275D01*
X135770807Y-158081417D01*
X135768374Y-158098548D01*
X135694579Y-158461513D01*
X135582852Y-158805757D01*
X135433037Y-159131598D01*
X135244975Y-159439352D01*
X135018509Y-159729337D01*
X134890151Y-159868460D01*
X134621077Y-160117617D01*
X134334370Y-160329317D01*
X134027406Y-160505039D01*
X133697564Y-160646261D01*
X133342221Y-160754461D01*
X133300494Y-160764642D01*
X133141587Y-160793953D01*
X132953186Y-160814949D01*
X132747360Y-160827355D01*
X132536178Y-160830898D01*
X132331709Y-160825302D01*
X132146023Y-160810295D01*
X132030494Y-160793465D01*
X131677140Y-160708004D01*
X131340053Y-160585149D01*
X131021640Y-160427271D01*
X130724305Y-160236738D01*
X130450453Y-160015921D01*
X130202489Y-159767189D01*
X129982819Y-159492911D01*
X129793846Y-159195457D01*
X129637976Y-158877197D01*
X129517615Y-158540499D01*
X129446112Y-158247228D01*
X129396839Y-157886182D01*
X129388298Y-157528751D01*
X129418909Y-157177637D01*
X129487093Y-156835541D01*
X129591271Y-156505164D01*
X129729865Y-156189208D01*
X129901296Y-155890374D01*
X130103984Y-155611364D01*
X130336350Y-155354880D01*
X130596817Y-155123623D01*
X130883804Y-154920295D01*
X131195733Y-154747597D01*
X131531025Y-154608231D01*
X131583427Y-154590304D01*
X131773668Y-154531506D01*
X131947797Y-154488622D01*
X132119044Y-154459606D01*
X132300638Y-154442410D01*
X132505805Y-154434988D01*
X132591411Y-154434306D01*
X132890136Y-154443504D01*
X128269742Y-129210393D02*
X128523734Y-129248741D01*
X128523734Y-129248741D02*
X128658637Y-129285467D01*
X128658637Y-129285467D02*
X128883551Y-129378479D01*
X128883551Y-129378479D02*
X129091731Y-129507418D01*
X129091731Y-129507418D02*
X129279047Y-129667801D01*
X129279047Y-129667801D02*
X129441373Y-129855142D01*
X129441373Y-129855142D02*
X129574579Y-130064956D01*
X129574579Y-130064956D02*
X129674539Y-130292760D01*
X129674539Y-130292760D02*
X129716476Y-130434716D01*
X129716476Y-130434716D02*
X129738178Y-130563484D01*
X129738178Y-130563484D02*
X129749307Y-130717509D01*
X129749307Y-130717509D02*
X129749882Y-130881060D01*
X129749882Y-130881060D02*
X129739923Y-131038405D01*
X129739923Y-131038405D02*
X129719450Y-131173814D01*
X129719450Y-131173814D02*
X129715536Y-131191000D01*
X129715536Y-131191000D02*
X129689457Y-131277703D01*
X129689457Y-131277703D02*
X129649941Y-131383823D01*
X129649941Y-131383823D02*
X129603819Y-131491611D01*
X129603819Y-131491611D02*
X129583211Y-131534952D01*
X129583211Y-131534952D02*
X129454933Y-131748247D01*
X129454933Y-131748247D02*
X129295403Y-131936613D01*
X129295403Y-131936613D02*
X129109237Y-132097604D01*
X129109237Y-132097604D02*
X128901051Y-132228777D01*
X128901051Y-132228777D02*
X128675460Y-132327686D01*
X128675460Y-132327686D02*
X128437082Y-132391889D01*
X128437082Y-132391889D02*
X128190531Y-132418939D01*
X128190531Y-132418939D02*
X127940424Y-132406393D01*
X127940424Y-132406393D02*
X127938142Y-132406089D01*
X127938142Y-132406089D02*
X127688924Y-132352532D01*
X127688924Y-132352532D02*
X127457880Y-132263202D01*
X127457880Y-132263202D02*
X127247395Y-132141604D01*
X127247395Y-132141604D02*
X127059850Y-131991243D01*
X127059850Y-131991243D02*
X126897629Y-131815624D01*
X126897629Y-131815624D02*
X126763113Y-131618252D01*
X126763113Y-131618252D02*
X126658686Y-131402632D01*
X126658686Y-131402632D02*
X126586731Y-131172268D01*
X126586731Y-131172268D02*
X126549630Y-130930665D01*
X126549630Y-130930665D02*
X126549766Y-130681329D01*
X126549766Y-130681329D02*
X126589522Y-130427763D01*
X126589522Y-130427763D02*
X126590475Y-130423767D01*
X126590475Y-130423767D02*
X126668584Y-130186766D01*
X126668584Y-130186766D02*
X126783734Y-129964986D01*
X126783734Y-129964986D02*
X126931985Y-129763026D01*
X126931985Y-129763026D02*
X127109399Y-129585487D01*
X127109399Y-129585487D02*
X127312036Y-129436971D01*
X127312036Y-129436971D02*
X127532578Y-129323480D01*
X127532578Y-129323480D02*
X127767516Y-129247986D01*
X127767516Y-129247986D02*
X128015453Y-129210216D01*
X128015453Y-129210216D02*
X128269742Y-129210393D01*
X128269742Y-129210393D02*
X128269742Y-129210393D01*
G36*
X128269742Y-129210393D02*
G01*
X128523734Y-129248741D01*
X128658637Y-129285467D01*
X128883551Y-129378479D01*
X129091731Y-129507418D01*
X129279047Y-129667801D01*
X129441373Y-129855142D01*
X129574579Y-130064956D01*
X129674539Y-130292760D01*
X129716476Y-130434716D01*
X129738178Y-130563484D01*
X129749307Y-130717509D01*
X129749882Y-130881060D01*
X129739923Y-131038405D01*
X129719450Y-131173814D01*
X129715536Y-131191000D01*
X129689457Y-131277703D01*
X129649941Y-131383823D01*
X129603819Y-131491611D01*
X129583211Y-131534952D01*
X129454933Y-131748247D01*
X129295403Y-131936613D01*
X129109237Y-132097604D01*
X128901051Y-132228777D01*
X128675460Y-132327686D01*
X128437082Y-132391889D01*
X128190531Y-132418939D01*
X127940424Y-132406393D01*
X127938142Y-132406089D01*
X127688924Y-132352532D01*
X127457880Y-132263202D01*
X127247395Y-132141604D01*
X127059850Y-131991243D01*
X126897629Y-131815624D01*
X126763113Y-131618252D01*
X126658686Y-131402632D01*
X126586731Y-131172268D01*
X126549630Y-130930665D01*
X126549766Y-130681329D01*
X126589522Y-130427763D01*
X126590475Y-130423767D01*
X126668584Y-130186766D01*
X126783734Y-129964986D01*
X126931985Y-129763026D01*
X127109399Y-129585487D01*
X127312036Y-129436971D01*
X127532578Y-129323480D01*
X127767516Y-129247986D01*
X128015453Y-129210216D01*
X128269742Y-129210393D01*
G37*
X128269742Y-129210393D02*
X128523734Y-129248741D01*
X128658637Y-129285467D01*
X128883551Y-129378479D01*
X129091731Y-129507418D01*
X129279047Y-129667801D01*
X129441373Y-129855142D01*
X129574579Y-130064956D01*
X129674539Y-130292760D01*
X129716476Y-130434716D01*
X129738178Y-130563484D01*
X129749307Y-130717509D01*
X129749882Y-130881060D01*
X129739923Y-131038405D01*
X129719450Y-131173814D01*
X129715536Y-131191000D01*
X129689457Y-131277703D01*
X129649941Y-131383823D01*
X129603819Y-131491611D01*
X129583211Y-131534952D01*
X129454933Y-131748247D01*
X129295403Y-131936613D01*
X129109237Y-132097604D01*
X128901051Y-132228777D01*
X128675460Y-132327686D01*
X128437082Y-132391889D01*
X128190531Y-132418939D01*
X127940424Y-132406393D01*
X127938142Y-132406089D01*
X127688924Y-132352532D01*
X127457880Y-132263202D01*
X127247395Y-132141604D01*
X127059850Y-131991243D01*
X126897629Y-131815624D01*
X126763113Y-131618252D01*
X126658686Y-131402632D01*
X126586731Y-131172268D01*
X126549630Y-130930665D01*
X126549766Y-130681329D01*
X126589522Y-130427763D01*
X126590475Y-130423767D01*
X126668584Y-130186766D01*
X126783734Y-129964986D01*
X126931985Y-129763026D01*
X127109399Y-129585487D01*
X127312036Y-129436971D01*
X127532578Y-129323480D01*
X127767516Y-129247986D01*
X128015453Y-129210216D01*
X128269742Y-129210393D01*
%TD*%
M02*
